<svg width="146" height="52" viewBox="0 0 146 52" fill="none" xmlns="http://www.w3.org/2000/svg">
<path d="M0.146758 3.40648C0.163486 2.85762 0.373082 2.30677 0.849899 2.03441V2.03441C1.3154 1.80548 1.95018 1.57655 2.79655 1.39739C3.21974 1.30781 3.64293 1.22818 4.10843 1.15851C4.57394 1.08883 5.03944 1.02911 5.50495 0.979344C6.43595 0.87981 7.40928 0.810135 8.38261 0.750415C10.3293 0.65088 12.1913 0.62102 13.9263 0.581206L19.3008 0.491624C22.8556 0.42195 26.4527 0.352276 30.0074 0.292555C37.1593 0.173114 44.3534 0.0735791 51.5476 0.0238117C55.1447 0.00390482 58.7417 -0.00604868 62.3388 0.00390479C65.9359 0.0138583 69.5753 0.0437186 73.1301 0.093486C80.3242 0.183067 87.4338 0.302509 94.5433 0.362229C96.3207 0.382136 98.098 0.39209 99.8331 0.39209C101.61 0.39209 103.346 0.382136 105.123 0.372183C108.678 0.342323 112.232 0.292555 115.83 0.252741C117.649 0.232834 119.427 0.222881 121.246 0.222881C122.135 0.222881 123.066 0.222881 123.955 0.232834L126.621 0.252741C128.356 0.262695 130.091 0.242788 131.911 0.232834L133.265 0.222881H133.942H134.28H134.661C135.169 0.222881 135.719 0.242788 136.269 0.262695C136.82 0.282602 137.37 0.332369 137.92 0.39209C138.47 0.451811 139.02 0.551345 139.443 0.660833C139.867 0.770321 140.205 0.90967 140.417 1.03907C140.658 1.19249 140.776 1.34266 140.84 1.48589C140.927 1.68131 140.882 1.89989 140.882 2.11404V2.11404C140.882 2.16381 140.882 2.20362 140.882 2.25339V2.41264L140.924 3.04966C140.967 3.89571 140.924 4.74175 140.882 5.57784C140.84 7.25998 140.713 8.94212 140.882 10.6143C140.967 11.4504 141.136 12.2865 141.305 13.1325C141.475 13.9686 141.686 14.8147 141.94 15.6507C142.871 19.0051 144.225 22.3693 144.775 25.7436C145.072 27.4357 145.114 29.1178 145.156 30.7999L145.199 35.8563C145.241 37.5384 145.283 39.2206 145.368 40.9027L145.791 45.9491L145.833 46.5762C145.833 46.7653 145.918 46.9843 145.96 47.2032C146.045 47.6412 146.003 48.0791 145.749 48.537C145.495 48.9849 144.987 49.4627 143.802 49.9006C143.76 49.9205 143.76 49.9205 143.675 49.9404V49.9404C143.531 49.9744 143.391 50.0294 143.247 50.0651C143.192 50.0788 143.138 50.0911 143.083 50.0997C142.829 50.1495 142.617 50.1893 142.406 50.2291C141.982 50.2988 141.517 50.3585 141.094 50.4182C140.247 50.5277 139.401 50.6272 138.512 50.7068C135.085 51.0552 131.53 51.2941 127.933 51.4733C124.293 51.6425 120.738 51.742 117.099 51.8216C109.905 51.9809 102.668 52.0207 95.4743 51.9908C88.2378 51.961 81.086 51.7818 73.9764 51.6922C70.4217 51.6425 66.9092 51.6325 63.3545 51.6425C59.7997 51.6524 56.1603 51.6723 52.5209 51.6425C45.2844 51.5828 38.1326 51.4534 31.0231 51.3538C29.2457 51.324 27.4683 51.304 25.6909 51.2841L23.0248 51.2543C22.1362 51.2443 21.2051 51.2344 20.2741 51.2244C18.4121 51.1946 16.5501 51.1448 14.6881 51.0552C12.8261 50.9656 10.9217 50.8362 9.05971 50.6372C7.24001 50.4381 5.42031 50.1395 4.02379 49.7414C3.3467 49.5423 2.75424 49.3233 2.28873 49.0844C1.82323 48.8455 1.527 48.6067 1.3154 48.3678C0.934536 47.89 0.892217 47.4222 0.976855 46.9843L1.14613 45.7202C1.40004 44.048 1.48468 42.3758 1.48468 40.6937C1.48468 39.0115 1.35772 37.3393 1.27308 35.6572L0.595987 25.5445C0.0458454 18.806 -0.123429 12.0675 0.0881637 5.32901L0.146758 3.40648Z" fill="#EE2400"/>
</svg>
