<svg width="146" height="44" viewBox="0 0 146 44" fill="none" xmlns="http://www.w3.org/2000/svg">
<path d="M0.143695 2.96746C0.162233 2.45278 0.386202 1.94554 0.849899 1.72142C1.3154 1.52772 1.95018 1.33401 2.79655 1.18241C3.21974 1.10661 3.64293 1.03923 4.10843 0.980275C4.57394 0.92132 5.03944 0.870787 5.50495 0.828676C6.43595 0.744454 7.40928 0.685499 8.38261 0.634966C10.3293 0.550745 12.1913 0.525478 13.9263 0.491789L19.3008 0.41599C22.8556 0.357035 26.4527 0.29808 30.0074 0.247547C37.1593 0.146481 44.3534 0.0622592 51.5476 0.0201484C55.1447 0.00330407 58.7417 -0.00511811 62.3388 0.00330405C65.9359 0.0117262 69.5753 0.0369927 73.1301 0.0791035C80.3242 0.154903 87.4338 0.255969 94.5433 0.306502C96.3207 0.323346 98.098 0.331768 99.8331 0.331768C101.61 0.331768 103.346 0.323346 105.123 0.314924C108.678 0.289658 112.232 0.247547 115.83 0.213858C117.649 0.197014 119.427 0.188592 121.246 0.188592C122.135 0.188592 123.066 0.188592 123.955 0.197014L126.621 0.213858C128.356 0.22228 130.091 0.205436 131.911 0.197014L133.265 0.188592H133.942H134.28H134.661C135.169 0.188592 135.719 0.205436 136.269 0.22228C136.82 0.239125 137.37 0.281235 137.92 0.331768C138.47 0.382301 139.02 0.466523 139.443 0.559167C139.867 0.65181 140.205 0.769721 140.417 0.879209C140.66 1.00993 140.777 1.13787 140.841 1.25982C140.926 1.42086 140.882 1.607 140.882 1.7888C140.882 1.83091 140.882 1.8646 140.882 1.90671V2.04147L140.924 2.58049C140.967 3.29637 140.924 4.01225 140.882 4.71971C140.84 6.14306 140.713 7.5664 140.882 8.98133C140.967 9.68879 141.136 10.3962 141.305 11.1121C141.475 11.8196 141.686 12.5355 141.94 13.2429C142.871 16.0812 144.225 18.9279 144.775 21.783C145.072 23.2148 145.114 24.6381 145.156 26.0615L145.199 30.3399C145.241 31.7633 145.283 33.1866 145.368 34.61L145.791 38.88L145.833 39.4106C145.833 39.5706 145.918 39.7559 145.96 39.9412C146.045 40.3118 146.003 40.6823 145.749 41.0698C145.495 41.4488 144.987 41.853 143.802 42.2236C143.76 42.2404 143.76 42.2404 143.675 42.2573C143.532 42.2858 143.392 42.3324 143.249 42.3625C143.193 42.3742 143.138 42.3847 143.083 42.392C142.829 42.4342 142.617 42.4678 142.406 42.5015C141.982 42.5605 141.517 42.611 141.094 42.6615C140.247 42.7542 139.401 42.8384 138.512 42.9058C135.085 43.2006 131.53 43.4027 127.933 43.5543C124.293 43.6975 120.738 43.7817 117.099 43.8491C109.905 43.9838 102.668 44.0175 95.4743 43.9922C88.2378 43.967 81.086 43.8154 73.9764 43.7396C70.4217 43.6975 66.9092 43.6891 63.3545 43.6975C59.7997 43.7059 56.1603 43.7227 52.5209 43.6975C45.2844 43.6469 38.1326 43.5375 31.0231 43.4532C29.2457 43.428 27.4683 43.4111 25.6909 43.3943L23.0248 43.369C22.1362 43.3606 21.2051 43.3522 20.2741 43.3437C18.4121 43.3185 16.5501 43.2764 14.6881 43.2006C12.8261 43.1248 10.9217 43.0153 9.05971 42.8468C7.24001 42.6784 5.42031 42.4257 4.02379 42.0888C3.3467 41.9204 2.75424 41.7351 2.28873 41.533C1.82323 41.3308 1.527 41.1287 1.3154 40.9266C0.934536 40.5223 0.892217 40.1265 0.976855 39.7559L1.14613 38.6863C1.40004 37.2714 1.48468 35.8564 1.48468 34.4331C1.48468 33.0098 1.35772 31.5948 1.27308 30.1715L0.595987 21.6146C0.0458454 15.9128 -0.123429 10.211 0.0881637 4.50916L0.143695 2.96746Z" fill="#D71919"/>
</svg>
