<svg width="681" height="478" viewBox="0 0 681 478" fill="none" xmlns="http://www.w3.org/2000/svg">
<path d="M0.806011 23.4587C1.59557 21.9033 2.58252 20.2564 3.96425 18.7009C6.13555 16.5965 9.0964 14.4922 13.0442 12.8452C15.0181 12.0218 16.992 11.2898 19.1633 10.6494C21.3346 10.0089 23.5059 9.45991 25.6772 9.00243C30.0198 8.08748 34.5597 7.44701 39.0997 6.89804C48.1797 5.98309 56.8648 5.7086 64.9578 5.34262L90.0264 4.51916C106.607 3.8787 123.385 3.23823 139.966 2.68926C173.325 1.59131 206.881 0.676361 240.438 0.218885C257.216 0.0358943 273.994 -0.0556013 290.772 0.035894C307.55 0.127389 324.526 0.401875 341.107 0.859352C374.663 1.68281 407.825 2.78075 440.986 3.32972C449.277 3.51272 457.567 3.60421 465.66 3.60421C473.95 3.60421 482.043 3.51272 490.334 3.42122C506.914 3.14673 523.495 2.68926 540.273 2.32328C548.761 2.14029 557.052 2.04879 565.539 2.04879C569.684 2.04879 574.027 2.04879 578.172 2.14029L590.608 2.32328C598.701 2.41477 606.794 2.23178 615.282 2.14029L621.598 2.04879H624.756H626.335H628.112C630.481 2.04879 633.047 2.23178 635.613 2.41477C638.179 2.59776 640.745 3.05524 643.311 3.60421C645.877 4.15318 648.443 5.06814 650.417 6.07458C652.391 7.08103 653.97 8.36197 654.957 9.55141C656.931 12.0218 657.128 14.4007 657.326 16.505C657.326 17.603 657.128 18.5179 657.128 19.4329C657.128 19.8904 657.128 20.2564 657.128 20.7138V22.1778L657.326 28.0335C657.523 35.8106 657.326 43.5877 657.128 51.2733C656.931 66.736 656.339 82.1987 657.128 97.5699C657.523 105.255 658.313 112.941 659.102 120.718C659.892 128.404 660.879 136.181 662.063 143.867C666.406 174.7 672.722 205.626 675.288 236.643C676.67 252.197 676.867 267.66 677.065 283.122L677.262 329.602C677.459 345.065 677.657 360.527 678.052 375.99L680.026 422.378L680.223 428.142C680.223 429.881 680.618 431.894 680.815 433.907C681.21 437.932 681.013 441.958 679.828 446.167C678.644 450.284 676.275 454.676 670.748 458.702C670.551 458.885 670.551 458.885 670.156 459.068C669.761 459.251 669.367 459.525 669.169 459.708C668.577 459.983 667.985 460.349 667.393 460.532C666.208 460.989 665.221 461.355 664.234 461.721C662.261 462.362 660.089 462.911 658.115 463.46C654.167 464.466 650.22 465.381 646.074 466.113C630.086 469.315 613.505 471.511 596.727 473.158C579.751 474.714 563.171 475.628 546.195 476.36C512.639 477.824 478.885 478.19 445.329 477.916C411.575 477.641 378.216 475.995 345.054 475.171C328.474 474.714 312.09 474.622 295.51 474.714C278.929 474.805 261.953 474.988 244.978 474.714C211.224 474.165 177.865 472.975 144.703 472.06C136.413 471.786 128.123 471.603 119.832 471.42L107.397 471.145C103.252 471.054 98.9089 470.962 94.5663 470.871C85.8812 470.596 77.196 470.139 68.5108 469.315C59.8257 468.492 50.9431 467.302 42.2579 465.472C33.7702 463.643 25.2824 460.898 18.7685 457.238C15.6103 455.408 12.8468 453.395 10.6755 451.199C8.50423 449.003 7.1225 446.807 6.13555 444.612C4.35903 440.22 4.16164 435.92 4.55642 431.894L5.34598 420.274C6.53032 404.903 6.92511 389.531 6.92511 374.069C6.92511 358.606 6.33293 343.235 5.93815 327.772L2.77991 234.813C0.213841 172.871 -0.575722 110.928 0.411229 48.9859L0.806011 23.4587Z" fill="#C4C4C4"/>
</svg>
