<svg width="256" height="256" viewBox="0 0 256 256" fill="none" xmlns="http://www.w3.org/2000/svg">
<path d="M0.288471 13.9015C0.298086 13.0158 0.43451 12.1288 0.798761 11.3214C0.996949 10.882 1.22411 10.4424 1.49023 10.0156C2.30646 8.88853 3.4195 7.76149 4.90355 6.87946C5.64557 6.43844 6.3876 6.04643 7.20382 5.70342C8.02005 5.36041 8.83628 5.0664 9.65251 4.82139C11.285 4.33137 12.9916 3.98836 14.6983 3.69435C18.1116 3.20433 21.3765 3.05733 24.4188 2.86132L33.8425 2.42031C40.0755 2.07729 46.3827 1.73428 52.6157 1.44027C65.156 0.852252 77.7704 0.362235 90.3848 0.117227C96.692 0.0192237 102.999 -0.0297781 109.306 0.0192236C115.614 0.0682252 121.995 0.21523 128.228 0.460239C140.843 0.901254 153.309 1.48927 165.775 1.78328C168.891 1.88129 172.008 1.93029 175.05 1.93029C178.166 1.93029 181.209 1.88129 184.325 1.83229C190.558 1.68528 196.791 1.44027 203.098 1.24427C206.289 1.14626 209.406 1.09726 212.596 1.09726C214.155 1.09726 215.787 1.09726 217.345 1.14626L222.02 1.24427C225.062 1.29327 228.105 1.19526 231.295 1.14626L233.67 1.09726H234.857H235.451H236.118C237.009 1.09726 237.974 1.19526 238.938 1.29327C239.903 1.39127 240.867 1.63628 241.832 1.93029C242.797 2.2243 243.761 2.71432 244.503 3.25333C245.245 3.79235 245.839 4.47838 246.21 5.1154C246.952 6.43844 247.026 7.71249 247.1 8.83952C247.1 9.42754 247.026 9.91756 247.026 10.4076C247.026 10.6526 247.026 10.8486 247.026 11.0936V11.8776L247.1 15.0137C247.175 19.1789 247.1 23.344 247.026 27.4602C246.952 35.7414 246.729 44.0227 247.026 52.255C247.175 56.3711 247.471 60.4873 247.768 64.6524C248.065 68.7686 248.436 72.9337 248.881 77.0498C250.514 93.5634 252.888 110.126 253.853 126.738C254.372 135.068 254.446 143.349 254.521 151.63L254.595 176.523C254.669 184.805 254.743 193.086 254.892 201.367L255.634 226.211L255.708 229.298C255.708 230.229 255.856 231.307 255.931 232.385C256.079 234.541 256.005 236.697 255.56 238.951C255.114 241.156 254.224 243.508 252.146 245.665C252.072 245.763 252.072 245.763 251.924 245.861V245.861C251.643 246.046 251.417 246.309 251.139 246.498C251.055 246.556 250.97 246.607 250.885 246.645C250.44 246.89 250.069 247.086 249.698 247.282C248.956 247.625 248.139 247.919 247.397 248.213C245.913 248.752 244.429 249.242 242.871 249.634C236.861 251.349 230.627 252.525 224.32 253.407C217.939 254.24 211.706 254.73 205.324 255.122C192.71 255.906 180.021 256.102 167.407 255.955C154.718 255.808 142.178 254.926 129.712 254.485C123.479 254.24 117.32 254.191 111.087 254.24C104.854 254.289 98.4729 254.387 92.0915 254.24C79.4028 253.946 66.8626 253.309 54.3966 252.819C51.2801 252.672 48.1636 252.574 45.0471 252.476L40.3723 252.329C38.8141 252.28 37.1816 252.231 35.5492 252.182C32.2843 252.035 29.0194 251.79 25.7544 251.349C22.4895 250.908 19.1504 250.271 15.8855 249.291C12.6948 248.311 9.5041 246.841 7.05542 244.881C5.86818 243.9 4.82935 242.822 4.01312 241.646C3.19689 240.47 2.67747 239.294 2.30646 238.118C1.63864 235.766 1.56444 233.463 1.71284 231.307L2.00965 225.084C2.45487 216.852 2.60327 208.619 2.60327 200.338C2.60327 192.057 2.38066 183.824 2.23226 175.543L1.04502 125.758C0.0803865 92.5834 -0.216424 59.4092 0.154588 26.2351L0.288471 13.9015Z" fill="#C4C4C4"/>
<path d="M0.288471 13.9015C0.298086 13.0158 0.43451 12.1288 0.798761 11.3214C0.996949 10.882 1.22411 10.4424 1.49023 10.0156C2.30646 8.88853 3.4195 7.76149 4.90355 6.87946C5.64557 6.43844 6.3876 6.04643 7.20382 5.70342C8.02005 5.36041 8.83628 5.0664 9.65251 4.82139C11.285 4.33137 12.9916 3.98836 14.6983 3.69435C18.1116 3.20433 21.3765 3.05733 24.4188 2.86132L33.8425 2.42031C40.0755 2.07729 46.3827 1.73428 52.6157 1.44027C65.156 0.852252 77.7704 0.362235 90.3848 0.117227C96.692 0.0192237 102.999 -0.0297781 109.306 0.0192236C115.614 0.0682252 121.995 0.21523 128.228 0.460239C140.843 0.901254 153.309 1.48927 165.775 1.78328C168.891 1.88129 172.008 1.93029 175.05 1.93029C178.166 1.93029 181.209 1.88129 184.325 1.83229C190.558 1.68528 196.791 1.44027 203.098 1.24427C206.289 1.14626 209.406 1.09726 212.596 1.09726C214.155 1.09726 215.787 1.09726 217.345 1.14626L222.02 1.24427C225.062 1.29327 228.105 1.19526 231.295 1.14626L233.67 1.09726H234.857H235.451H236.118C237.009 1.09726 237.974 1.19526 238.938 1.29327C239.903 1.39127 240.867 1.63628 241.832 1.93029C242.797 2.2243 243.761 2.71432 244.503 3.25333C245.245 3.79235 245.839 4.47838 246.21 5.1154C246.952 6.43844 247.026 7.71249 247.1 8.83952C247.1 9.42754 247.026 9.91756 247.026 10.4076C247.026 10.6526 247.026 10.8486 247.026 11.0936V11.8776L247.1 15.0137C247.175 19.1789 247.1 23.344 247.026 27.4602C246.952 35.7414 246.729 44.0227 247.026 52.255C247.175 56.3711 247.471 60.4873 247.768 64.6524C248.065 68.7686 248.436 72.9337 248.881 77.0498C250.514 93.5634 252.888 110.126 253.853 126.738C254.372 135.068 254.446 143.349 254.521 151.63L254.595 176.523C254.669 184.805 254.743 193.086 254.892 201.367L255.634 226.211L255.708 229.298C255.708 230.229 255.856 231.307 255.931 232.385C256.079 234.541 256.005 236.697 255.56 238.951C255.114 241.156 254.224 243.508 252.146 245.665C252.072 245.763 252.072 245.763 251.924 245.861V245.861C251.643 246.046 251.417 246.309 251.139 246.498C251.055 246.556 250.97 246.607 250.885 246.645C250.44 246.89 250.069 247.086 249.698 247.282C248.956 247.625 248.139 247.919 247.397 248.213C245.913 248.752 244.429 249.242 242.871 249.634C236.861 251.349 230.627 252.525 224.32 253.407C217.939 254.24 211.706 254.73 205.324 255.122C192.71 255.906 180.021 256.102 167.407 255.955C154.718 255.808 142.178 254.926 129.712 254.485C123.479 254.24 117.32 254.191 111.087 254.24C104.854 254.289 98.4729 254.387 92.0915 254.24C79.4028 253.946 66.8626 253.309 54.3966 252.819C51.2801 252.672 48.1636 252.574 45.0471 252.476L40.3723 252.329C38.8141 252.28 37.1816 252.231 35.5492 252.182C32.2843 252.035 29.0194 251.79 25.7544 251.349C22.4895 250.908 19.1504 250.271 15.8855 249.291C12.6948 248.311 9.5041 246.841 7.05542 244.881C5.86818 243.9 4.82935 242.822 4.01312 241.646C3.19689 240.47 2.67747 239.294 2.30646 238.118C1.63864 235.766 1.56444 233.463 1.71284 231.307L2.00965 225.084C2.45487 216.852 2.60327 208.619 2.60327 200.338C2.60327 192.057 2.38066 183.824 2.23226 175.543L1.04502 125.758C0.0803865 92.5834 -0.216424 59.4092 0.154588 26.2351L0.288471 13.9015Z" fill="#FEB503" fill-opacity="0.01"/>
</svg>
