
<svg width="78" height="43" viewBox="0 0 78 43" fill="none" xmlns="http://www.w3.org/2000/svg">
<g clip-path="url(#clip0_509_1597)">
<path d="M3.72537e-05 20.4346C5.25165e-05 20.3438 0.00616367 20.2531 0.0183249 20.1632C0.628135 15.5897 3.67715 10.5771 7.49453 8.01592C11.6229 5.24131 16.5196 3.88145 21.3188 2.69233C23.7925 2.08253 26.2785 1.52862 28.7767 1.03062C30.6061 0.664736 32.5392 0.332392 34.3503 0.820235C35.3138 1.0794 36.201 1.5581 37.1157 1.95752C42.6833 4.37234 49.0984 3.65887 54.9495 2.06729C56.5532 1.62823 58.1448 1.13124 59.7791 0.817187C66.4869 -0.469499 71.8044 -0.753056 76.8536 3.8845C77.4241 4.39798 77.8197 5.07712 77.9848 5.82673C78.1952 7.23232 76.9725 8.32082 76.2682 8.42449L53.2298 11.7601C52.5631 11.8471 51.9503 12.1719 51.5041 12.6748C50.3942 13.9646 51.3059 15.3 51.7693 16.5837C52.809 19.4619 51.2632 23.0262 48.4642 24.2062C49.5679 27.5205 47.6775 31.5452 44.4395 32.7862C43.9974 32.9538 43.4821 33.1276 43.3053 33.5697C43.218 33.8684 43.218 34.1858 43.3053 34.4844C43.7016 36.512 43.6925 38.8232 42.3631 40.3935C40.43 42.6772 36.9023 42.2655 33.9661 41.7747C30.0952 41.1291 26.1916 40.6975 22.2731 40.4819C19.1082 40.3081 15.8885 40.2684 12.8577 39.3232C5.11629 36.9267 0.0488192 28.6181 3.72537e-05 20.4346Z" fill="black"/>
<path d="M62.5475 4.17407C62.1939 4.58873 62.4347 5.3083 62.6543 5.7626C62.8738 6.21691 63.1787 6.67731 63.1177 7.18954C63.0659 7.6469 62.7427 8.16523 63.0201 8.51587C63.2366 8.79028 63.6787 8.75979 64.0477 8.70491L65.7551 8.45184L72.1398 7.50969C73.0545 7.37249 74.1613 7.10722 74.5088 6.26569C74.6023 6.011 74.6233 5.73536 74.5695 5.46945C74.5156 5.20354 74.3891 4.95777 74.2039 4.75948C73.818 4.37218 73.3502 4.07629 72.8349 3.89356C70.7987 3.03928 68.6095 2.60975 66.4015 2.63126C64.9776 2.63126 63.3098 2.96361 62.5567 4.17407" fill="white"/>
<path d="M40.5032 33.7862C40.2256 33.6758 39.9299 33.6179 39.6312 33.6155C39.4817 33.6177 39.3355 33.6592 39.2071 33.7357C39.0786 33.8122 38.9726 33.9211 38.8994 34.0515C38.8177 34.3496 38.8052 34.6625 38.8628 34.9662C38.8811 35.7406 38.4085 36.4236 38.2226 37.1737C38.1555 37.3891 38.1555 37.6199 38.2226 37.8353C38.2859 37.9921 38.3914 38.1282 38.5275 38.2286C38.7931 38.422 39.1175 38.5173 39.4455 38.4984C39.7734 38.4795 40.0847 38.3476 40.3264 38.125C40.4724 37.9736 40.5975 37.8034 40.6984 37.6188C41.0823 36.9758 41.3767 36.2834 41.5734 35.5607C41.6788 35.267 41.6936 34.9484 41.6161 34.646C41.4576 34.1948 40.9758 33.9661 40.5398 33.7862" fill="white"/>
<path d="M24.539 8.49762C24.6187 8.52875 24.7034 8.54528 24.789 8.54641C27.7683 8.5672 30.7442 8.3408 33.686 7.86952C36.2289 7.42437 38.7718 6.78102 41.1348 5.53703C41.5982 5.29005 42.1166 5.01869 42.5831 5.45775C42.8092 5.6938 42.9535 5.9963 42.9947 6.32062C43.138 7.19264 42.83 8.02503 42.8422 8.8818C42.8544 9.73857 43.1959 10.571 43.0648 11.4643C43.0286 11.8114 42.8722 12.135 42.6227 12.379C41.8848 13.0254 40.9854 12.1473 40.1652 11.7479C39.345 11.3485 38.3602 11.443 37.4485 11.5802L27.4965 12.9858C26.7343 13.0925 25.9476 13.2084 25.2738 13.6627C24.8805 13.9279 24.4902 14.3182 24.0542 14.2542C23.3803 14.1597 23.1151 13.1199 23.1822 12.2937C23.2492 11.4674 23.4871 10.6014 23.234 9.85444C23.1242 9.53124 22.9291 9.24463 23.109 8.82997C23.1913 8.64213 23.3432 8.4935 23.5328 8.4153C23.8665 8.31387 24.2262 8.34331 24.539 8.49762Z" fill="white"/>
<path d="M53.9154 4.86632C51.9336 5.23525 50.8847 5.47612 48.9425 5.80542C48.3418 5.95492 47.7137 5.95492 47.1131 5.80542C46.7045 5.66821 46.2746 5.3877 45.8691 5.58284C45.7193 5.6667 45.5933 5.78738 45.5032 5.93348C45.3026 6.22494 45.1801 6.56303 45.1475 6.91537C45.115 7.26772 45.1734 7.62253 45.3172 7.94583C45.4309 8.11854 45.4962 8.3186 45.5062 8.52514C45.4758 8.67866 45.4135 8.82407 45.3233 8.952C45.065 9.39794 44.8777 9.88142 44.7684 10.385C44.7333 10.5045 44.7333 10.6315 44.7684 10.7509C44.8214 10.8735 44.9166 10.9731 45.0367 11.0314C45.6648 11.3973 46.4941 11.315 47.2167 11.0619C47.9394 10.8089 48.6071 10.4094 49.3267 10.1472C51.3451 9.40326 53.0861 9.50692 55.196 9.20507C55.8596 9.1696 56.5227 9.28099 57.1382 9.53132C57.4431 9.68072 57.6718 9.97037 57.995 10.0954C58.1996 10.1574 58.4156 10.1723 58.6268 10.1391C58.838 10.1058 59.039 10.0252 59.2146 9.9033C59.5725 9.65315 59.8911 9.35103 60.1598 9.00689L60.8367 8.22329C60.8858 8.1736 60.9261 8.11585 60.9556 8.05254C61.041 7.82996 60.8459 7.62568 60.7208 7.44274C60.3824 6.9305 60.5318 6.22313 60.5592 5.61333C60.5989 4.64679 60.2879 3.64976 59.5439 3.06435C59.1533 2.76436 58.6734 2.60402 58.1808 2.609C57.6883 2.61397 57.2117 2.78397 56.8272 3.09179C56.5041 3.37535 56.2815 3.75953 55.943 4.02479C55.4095 4.42421 54.8911 4.61935 53.9154 4.86632Z" fill="white"/>
<path d="M41.457 17.2361C40.7253 16.6415 39.6673 16.8672 38.7526 17.0562C36.3652 17.5532 33.8955 17.5776 31.4349 17.602C28.8036 17.6294 26.1601 17.6538 23.5532 17.2391C23.4105 17.2087 23.263 17.2087 23.1202 17.2391C22.6141 17.3794 22.6812 18.0959 22.7574 18.6173C22.835 19.1596 22.805 19.7118 22.669 20.2424C22.5165 20.8522 22.2391 21.5139 22.5836 22.0352C22.7154 22.2032 22.8871 22.3355 23.0831 22.4201C23.279 22.5048 23.493 22.5392 23.7057 22.52C24.1207 22.4752 24.5297 22.3853 24.9253 22.2517C27.4407 21.584 30.1238 22.3554 32.7338 22.2731C34.9779 22.1999 37.3256 21.5047 39.4051 22.392C39.6543 22.5246 39.9245 22.6133 40.2039 22.6542C40.4421 22.6623 40.6777 22.6031 40.8838 22.4835C41.1431 22.3395 41.3635 22.1347 41.526 21.8866C41.6886 21.6386 41.7884 21.3547 41.8168 21.0596C41.8748 20.4498 41.6186 19.84 41.457 19.2301C41.2954 18.6203 41.8687 17.544 41.457 17.2361Z" fill="white"/>
<path d="M43.747 17.1446C43.8049 16.7573 44.2683 16.4463 44.866 16.3671C45.5109 16.2878 46.1632 16.2878 46.8082 16.3671C47.3405 16.4006 47.856 16.5661 48.3083 16.8488C48.8327 17.2391 48.8602 17.8032 48.7992 18.3123C48.6216 19.4138 48.3146 20.4905 47.8845 21.5199C47.8263 21.7145 47.7288 21.8951 47.5979 22.0504C47.0948 22.6054 45.863 22.6938 44.8903 22.5139C44.5483 22.482 44.224 22.347 43.9604 22.1267C43.6951 21.8218 43.9208 21.462 44.0854 21.1388C44.2833 20.7714 44.3985 20.3651 44.4227 19.9484C44.4469 19.5318 44.3797 19.1149 44.2257 18.727C44.0511 18.367 43.8994 17.9963 43.7714 17.6172C43.7329 17.4627 43.7246 17.3022 43.747 17.1446Z" fill="white"/>
<path d="M23.2972 24.6726C22.8154 24.6573 22.602 25.5354 22.7636 25.9653C22.8368 26.1544 22.9587 26.3129 23.0167 26.505C23.2149 27.1971 22.5014 27.8344 22.5105 28.5631C22.5302 28.8415 22.6418 29.1054 22.8278 29.3135C23.0138 29.5215 23.2636 29.6619 23.5381 29.7126C24.0472 29.8193 24.5686 29.6699 25.0809 29.5876C25.8519 29.4864 26.6307 29.4569 27.4073 29.4992L35.9079 29.6943C36.7068 29.7156 37.5727 29.7614 38.1764 30.3651C38.3868 30.5755 38.5667 30.856 38.8319 30.9566C39.0167 31.0002 39.2107 30.9803 39.3828 30.9C39.5548 30.8198 39.6948 30.684 39.7802 30.5145C39.9769 30.1501 40.1031 29.7518 40.1522 29.3406L40.4357 27.7856C40.5394 27.2276 40.6309 26.5995 40.3503 26.13C40.2167 25.9313 40.0304 25.7736 39.8124 25.6745C39.5944 25.5755 39.3531 25.5389 39.1155 25.569C38.652 25.5964 38.2008 25.7702 37.7465 25.8342C37.1343 25.8857 36.5179 25.8467 35.9171 25.7184C31.8009 25.0659 27.4499 24.825 23.2972 24.6726Z" fill="white"/>
<path d="M36.8631 37.7559C36.7676 37.7078 36.6644 37.6769 36.5582 37.6645C32.006 37.3596 27.3258 36.8321 22.7766 36.5272C22.6325 36.5377 22.4878 36.5185 22.3514 36.4707C22.2151 36.423 22.09 36.3478 21.9839 36.2497C21.7735 35.9783 21.9198 35.5789 22.1302 35.2954C22.375 35.0413 22.5585 34.7347 22.6669 34.399C22.7339 33.969 22.4199 33.5818 22.3101 33.1793C22.2563 32.9621 22.2541 32.7353 22.3039 32.5171C22.3537 32.299 22.454 32.0955 22.5967 31.9232C22.6823 31.8055 22.8029 31.718 22.9413 31.6731C23.1325 31.6483 23.3268 31.6846 23.4962 31.7768C26.8878 33.223 30.5451 33.9417 34.2318 33.8867C34.8202 33.8867 34.9117 33.9508 35.302 33.7587C35.7768 33.4988 36.3327 33.429 36.857 33.5635C37.0151 33.6087 37.1578 33.6966 37.2691 33.8177C37.3805 33.9387 37.4563 34.0882 37.4881 34.2496C37.6955 35.274 37.8693 36.4052 37.4576 37.4144C37.3997 37.5547 37.3875 37.6553 37.2503 37.7346C37.1905 37.7639 37.1254 37.7809 37.0589 37.7846C36.9923 37.7882 36.9258 37.7785 36.8631 37.7559Z" fill="white"/>
<path d="M44.7965 26.5111C44.4093 26.3404 44.0037 26.4502 43.5769 26.4197C43.15 26.3892 42.6622 26.5294 42.5128 26.8465C42.4419 27.0415 42.4199 27.2509 42.4487 27.4563C42.4774 28.2497 42.2331 29.0288 41.7566 29.6638C41.5747 29.8831 41.4105 30.1166 41.2657 30.3621C41.1976 30.4842 41.1619 30.6217 41.1619 30.7615C41.1619 30.9013 41.1976 31.0388 41.2657 31.1609C41.4095 31.3563 41.6019 31.5108 41.8237 31.6091C42.0698 31.749 42.3435 31.8333 42.6256 31.8561C42.9849 31.8633 43.3339 31.736 43.6043 31.4993C43.8371 31.283 44.031 31.0282 44.1775 30.7462C44.6851 29.8763 45.1216 28.9668 45.4825 28.0265C45.5938 27.7801 45.6268 27.5056 45.577 27.2399C45.5288 27.0572 45.4299 26.8919 45.2918 26.763C45.1537 26.6341 44.982 26.5468 44.7965 26.5111Z" fill="white"/>
<path d="M20.0659 6.90004L16.8309 7.9428C16.4201 8.04524 16.0342 8.22986 15.6967 8.48552C15.2485 8.88494 15.154 9.47951 15.0869 10.0283L14.6448 13.4432C14.5838 13.9128 14.6234 14.5287 15.1448 14.6781C15.3838 14.7243 15.6308 14.7075 15.8613 14.6293C17.1785 14.3031 18.517 13.9707 19.6574 13.3152C19.9195 13.1825 20.1487 12.9929 20.3281 12.7602C20.4402 12.5723 20.5177 12.3658 20.5568 12.1504C20.9096 10.6512 21.0927 9.11707 21.1026 7.57692C21.1254 7.40945 21.1116 7.23902 21.0621 7.07741C21.0126 6.9158 20.9287 6.76686 20.816 6.64087C20.6239 6.69575 20.255 6.8421 20.0659 6.90004Z" fill="white"/>
<path d="M20.2149 14.1048C20.3567 14.2694 20.4506 14.4698 20.4863 14.6841C20.6173 15.5142 20.6846 16.3531 20.6875 17.1934C20.6875 17.7361 20.6387 18.349 19.7057 18.4374C19.5536 18.4511 19.4005 18.4511 19.2484 18.4374L15.8579 18.1325C15.7066 18.1243 15.5626 18.0652 15.4493 17.9648C15.0407 17.5867 15.4981 17.0501 15.5255 16.547C15.5255 16.2635 15.4097 15.9586 15.5255 15.7024C15.6414 15.4463 15.989 15.367 16.2756 15.3122C17.5858 15.0619 18.8373 14.5675 19.9649 13.8547C20.0613 13.9239 20.1458 14.0083 20.2149 14.1048Z" fill="white"/>
<path d="M20.1971 19.2301C19.2878 19.1088 18.3699 19.0629 17.453 19.0929C17.0928 19.1018 16.741 19.2036 16.4317 19.3884C16.1224 19.5733 15.8661 19.8349 15.6876 20.1479C15.5447 20.4942 15.4691 20.8647 15.4651 21.2394C15.3761 22.5854 15.368 23.9355 15.4407 25.2824C15.4264 25.5341 15.4996 25.7829 15.648 25.9867C15.8426 26.1557 16.0916 26.2488 16.3493 26.2489C17.3173 26.3547 18.295 26.3352 19.258 26.191C19.6239 26.1361 20.0386 26.0233 20.2032 25.691C20.2901 25.4369 20.2965 25.1622 20.2215 24.9043C19.8771 23.0297 19.8647 21.1091 20.1849 19.2301" fill="white"/>
<path d="M19.547 28.2125C19.4853 27.9903 19.3534 27.7939 19.171 27.6527C18.9886 27.5115 18.7654 27.433 18.5348 27.4289C17.7146 27.4076 17.0102 27.3924 16.184 27.4289C16.016 27.4399 15.8511 27.479 15.6961 27.5448C15.5876 27.5919 15.4898 27.6605 15.4086 27.7464C15.3274 27.8324 15.2644 27.9339 15.2235 28.0449C14.8729 28.9596 14.9186 29.9627 14.9948 30.9384L15.1046 32.7038C15.1778 33.8197 15.254 34.96 15.6992 35.9845C16.1443 37.009 17.0438 37.9084 18.1536 38.0395C18.3716 38.0815 18.5967 38.0665 18.8071 37.996C19.0176 37.9255 19.2063 37.8018 19.3549 37.6371C19.5394 37.3212 19.6204 36.9555 19.5867 36.5913L19.6293 29.1913C19.6407 28.8629 19.6131 28.5344 19.547 28.2125Z" fill="white"/>
<path d="M12.278 9.4978C9.51554 9.89113 6.97876 11.9553 5.48169 14.3092C3.98462 16.663 3.21932 19.398 2.54243 22.1055C2.3229 22.9928 2.10643 23.9075 2.2162 24.8161C2.37266 25.7573 2.75101 26.6478 3.31994 27.4138C5.25302 30.2586 8.19836 32.2343 11.0583 34.1369C11.1501 34.2133 11.2652 34.2563 11.3846 34.2589C11.595 34.2345 11.6895 33.9845 11.7352 33.7771C13.4366 25.8344 10.6681 17.4588 12.278 9.4978Z" fill="white"/>
<path d="M22.7088 6.79023C22.6788 6.79268 22.6489 6.78448 22.6243 6.76709C22.5998 6.74969 22.5822 6.72421 22.5745 6.69511C22.5669 6.66601 22.5697 6.63515 22.5826 6.60794C22.5954 6.58073 22.6174 6.55891 22.6447 6.54631C25.4529 5.24133 28.8068 3.6345 31.6698 2.84785C31.9502 2.75303 32.2466 2.71469 32.5419 2.73504C32.9011 2.81055 33.2331 2.98235 33.5023 3.23203C34.162 3.763 34.7493 4.37803 35.2494 5.06144C35.3079 5.13778 35.3501 5.2254 35.3732 5.31879C35.3962 5.41218 35.3998 5.50934 35.3835 5.60417C35.3012 5.99749 34.9079 6.05237 34.5755 6.07067L22.7088 6.79023Z" fill="white"/>
</g>
<defs>
<clipPath id="clip0_509_1597">
<rect width="42.174" height="78" fill="white" transform="translate(78) rotate(90)"/>
</clipPath>
</defs>
</svg>
