<svg width="35" height="37" viewBox="0 0 35 37" fill="none" xmlns="http://www.w3.org/2000/svg">
<circle cx="17.2168" cy="18.0391" r="17.2168" fill="#108A00"/>
<path d="M15.1002 22.2042C15.1002 21.8934 15.1546 21.5593 15.2633 21.2019C15.3721 20.8445 15.4265 20.5104 15.4265 20.1996C15.4265 20.1219 15.4187 20.0287 15.4032 19.9199C15.3876 19.7956 15.341 19.7334 15.2633 19.7334H14.7971C14.4863 19.7334 14.1756 19.7878 13.8648 19.8966C13.554 19.9898 13.2432 20.0364 12.9324 20.0364C12.8702 20.0364 12.8158 20.0287 12.7692 20.0131C12.676 19.9821 12.6294 19.9354 12.6294 19.8733V16.7731C12.6294 16.711 12.676 16.6643 12.7692 16.6333C12.8158 16.6177 12.8702 16.6099 12.9324 16.6099C13.1189 16.6099 13.2898 16.6255 13.4452 16.6566C13.6161 16.6876 13.7793 16.7265 13.9347 16.7731C14.0901 16.8197 14.2455 16.8586 14.4009 16.8897C14.5718 16.9207 14.7583 16.9363 14.9603 16.9363C15.1934 16.9363 15.3255 16.9207 15.3566 16.8897C15.4032 16.843 15.4265 16.7032 15.4265 16.4701C15.4265 16.0661 15.3721 15.7086 15.2633 15.3979C15.1546 15.0715 15.1002 14.753 15.1002 14.4422C15.1002 14.3489 15.1079 14.2712 15.1235 14.2091C15.1546 14.0537 15.2012 13.976 15.2633 13.976H18.2236C18.2703 13.976 18.3091 14.0304 18.3402 14.1391C18.3557 14.1858 18.3635 14.2324 18.3635 14.279C18.3635 14.683 18.3091 15.0482 18.2003 15.3745C18.1071 15.6853 18.0605 15.9961 18.0605 16.3069C18.0605 16.54 18.076 16.7032 18.1071 16.7964C18.1537 16.8897 18.2936 16.9363 18.5267 16.9363C18.8375 16.9363 19.1482 16.8819 19.459 16.7731C19.7698 16.6643 20.0806 16.6099 20.3914 16.6099C20.4847 16.6099 20.5624 16.6177 20.6245 16.6333C20.7799 16.6643 20.8576 16.711 20.8576 16.7731V19.8733C20.8576 19.9354 20.8032 19.9821 20.6944 20.0131C20.6478 20.0287 20.6012 20.0364 20.5546 20.0364C20.0884 20.0364 19.6688 19.9898 19.2959 19.8966C18.9385 19.7878 18.5267 19.7334 18.0605 19.7334C18.0605 20.1996 18.1071 20.6347 18.2003 21.0388C18.3091 21.4272 18.3635 21.8157 18.3635 22.2042C18.3635 22.3752 18.348 22.4995 18.3169 22.5772C18.3013 22.6393 18.2159 22.6704 18.0605 22.6704H15.4265C15.2556 22.6704 15.1546 22.6393 15.1235 22.5772C15.1079 22.4995 15.1002 22.3752 15.1002 22.2042Z" fill="white"/>
</svg>
