<svg width="12" height="10" viewBox="0 0 12 10" fill="none" xmlns="http://www.w3.org/2000/svg">
<path d="M2.43114 6.15465L2.89027 6.61649L3.81014 7.97175L5.645 9.38755L7.18541 8.17408L8.60053 6.54127C8.66229 6.41866 8.80863 6.24257 9.03955 6.01301C9.34745 5.70693 9.70126 5.44703 10.101 5.23332C10.5314 5.01969 10.9467 4.71393 11.347 4.31602C11.3932 4.27011 11.4317 4.2165 11.4626 4.15519C11.5398 4.01728 11.5554 3.92523 11.5095 3.87904L8.59404 0.946332C8.53282 0.884753 8.40994 0.915089 8.22538 1.03734C8.1485 1.08316 8.06387 1.15198 7.9715 1.24381C7.66361 1.54989 7.40158 1.9175 7.18542 2.34665C6.98465 2.7605 6.68413 3.16637 6.28387 3.56428C6.05294 3.79384 5.89144 3.90849 5.79934 3.90821C5.73794 3.90803 5.59246 3.79248 5.3629 3.56156C5.16395 3.36143 4.99569 3.16138 4.85814 2.96143C4.73589 2.77688 4.62133 2.58467 4.51448 2.38481C4.40762 2.18495 4.28542 1.98504 4.14786 1.78509C4.02561 1.60054 3.87266 1.41589 3.68901 1.23115C3.6278 1.16957 3.56653 1.12334 3.50523 1.09246C3.38261 1.0307 3.29052 1.03043 3.22894 1.09165L0.157674 4.14481C0.0960947 4.20602 0.0958224 4.29812 0.156858 4.4211C0.187375 4.48259 0.233241 4.54412 0.294458 4.6057C0.600539 4.91359 0.952805 5.17558 1.35126 5.39165C1.7651 5.59242 2.12506 5.84675 2.43114 6.15465Z" fill="white"/>
</svg>
