<svg width="78" height="43" viewBox="0 0 78 43" fill="none" xmlns="http://www.w3.org/2000/svg">
<g clip-path="url(#clip0_576_853)">
<path d="M78 20.7651C77.9999 20.6743 77.9938 20.5837 77.9817 20.4937C77.3719 15.9202 74.3228 10.9076 70.5055 8.34644C66.3771 5.57183 61.4804 4.21197 56.6812 3.02285C54.2075 2.41305 51.7215 1.85915 49.2233 1.36114C47.3939 0.995257 45.4608 0.662913 43.6497 1.15076C42.6862 1.40992 41.799 1.88862 40.8843 2.28804C35.3167 4.70286 28.9016 3.98939 23.0505 2.39781C21.4468 1.95875 19.8552 1.46176 18.2209 1.14771C11.5131 -0.138978 6.19557 -0.422535 1.1464 4.21502C0.575865 4.7285 0.180319 5.40764 0.0152118 6.15725C-0.19517 7.56284 1.02749 8.65135 1.73181 8.75501L24.7702 12.0906C25.4369 12.1776 26.0497 12.5025 26.4959 13.0053C27.6058 14.2951 26.6941 15.6305 26.2307 16.9142C25.191 19.7925 26.7368 23.3568 29.5358 24.5367C28.4321 27.851 30.3225 31.8757 33.5605 33.1167C34.0026 33.2844 34.5179 33.4582 34.6947 33.9003C34.782 34.1989 34.782 34.5163 34.6947 34.815C34.2984 36.8426 34.3075 39.1537 35.6369 40.724C37.57 43.0077 41.0977 42.5961 44.0339 42.1052C47.9048 41.4596 51.8084 41.028 55.7269 40.8124C58.8918 40.6386 62.1115 40.599 65.1423 39.6538C72.8837 37.2572 77.9512 28.9487 78 20.7651Z" fill="black"/>
<path d="M15.4525 4.50468C15.8061 4.91934 15.5653 5.63891 15.3457 6.09322C15.1262 6.54752 14.8213 7.00792 14.8823 7.52016C14.9341 7.97751 15.2573 8.49584 14.9799 8.84648C14.7634 9.12089 14.3213 9.0904 13.9523 9.03552L12.2449 8.78245L5.86024 7.8403C4.94554 7.7031 3.83874 7.43783 3.49115 6.5963C3.39768 6.34161 3.37669 6.06598 3.43052 5.80006C3.48435 5.53415 3.61089 5.28838 3.79606 5.09009C4.18196 4.70279 4.64976 4.4069 5.16506 4.22417C7.20127 3.3699 9.39045 2.94036 11.5985 2.96188C13.0224 2.96187 14.6902 3.29422 15.4433 4.50468" fill="white"/>
<path d="M37.4968 34.1167C37.7744 34.0063 38.0701 33.9484 38.3688 33.946C38.5183 33.9482 38.6645 33.9897 38.7929 34.0662C38.9214 34.1427 39.0274 34.2516 39.1006 34.382C39.1823 34.6801 39.1948 34.993 39.1372 35.2967C39.1189 36.0711 39.5915 36.7541 39.7774 37.5042C39.8445 37.7196 39.8445 37.9504 39.7774 38.1658C39.7141 38.3226 39.6086 38.4587 39.4725 38.5591C39.2069 38.7525 38.8825 38.8479 38.5545 38.829C38.2266 38.8101 37.9153 38.6781 37.6736 38.4555C37.5276 38.3041 37.4025 38.1339 37.3016 37.9493C36.9177 37.3063 36.6233 36.6139 36.4266 35.8913C36.3212 35.5975 36.3064 35.2789 36.3839 34.9765C36.5424 34.5253 37.0242 34.2966 37.4602 34.1167" fill="white"/>
<path d="M53.461 8.82819C53.3813 8.85932 53.2966 8.87584 53.211 8.87697C50.2317 8.89777 47.2558 8.67136 44.314 8.20009C41.7711 7.75493 39.2282 7.11159 36.8652 5.86759C36.4018 5.62062 35.8834 5.34926 35.4169 5.78832C35.1908 6.02437 35.0465 6.32687 35.0053 6.65119C34.862 7.52321 35.17 8.35559 35.1578 9.21237C35.1456 10.0691 34.8041 10.9015 34.9352 11.7949C34.9714 12.142 35.1278 12.4655 35.3773 12.7096C36.1152 13.356 37.0146 12.4779 37.8348 12.0784C38.655 11.679 39.6398 11.7735 40.5515 11.9107L50.5035 13.3163C51.2657 13.4231 52.0524 13.5389 52.7262 13.9932C53.1195 14.2585 53.5098 14.6488 53.9458 14.5847C54.6197 14.4902 54.8849 13.4505 54.8178 12.6242C54.7508 11.7979 54.5129 10.932 54.766 10.185C54.8758 9.86181 55.0709 9.5752 54.891 9.16053C54.8087 8.97269 54.6568 8.82406 54.4672 8.74587C54.1335 8.64444 53.7738 8.67387 53.461 8.82819Z" fill="white"/>
<path d="M24.0846 5.19689C26.0664 5.56582 27.1153 5.80669 29.0575 6.13598C29.6582 6.28549 30.2863 6.28549 30.8869 6.13598C31.2955 5.99878 31.7254 5.71827 32.1309 5.9134C32.2807 5.99726 32.4067 6.11795 32.4968 6.26404C32.6974 6.55551 32.8199 6.8936 32.8525 7.24594C32.885 7.59828 32.8266 7.95309 32.6828 8.27639C32.5691 8.44911 32.5038 8.64917 32.4938 8.85571C32.5242 9.00922 32.5865 9.15464 32.6767 9.28257C32.935 9.7285 33.1223 10.212 33.2316 10.7156C33.2667 10.835 33.2667 10.962 33.2316 11.0815C33.1786 11.2041 33.0834 11.3036 32.9633 11.362C32.3352 11.7279 31.5059 11.6456 30.7833 11.3925C30.0606 11.1394 29.3929 10.74 28.6733 10.4778C26.6549 9.73383 24.9139 9.83749 22.804 9.53564C22.1404 9.50016 21.4773 9.61156 20.8618 9.86188C20.5569 10.0113 20.3282 10.3009 20.005 10.426C19.8004 10.488 19.5844 10.5029 19.3732 10.4696C19.162 10.4364 18.961 10.3558 18.7854 10.2339C18.4275 9.98372 18.1089 9.68159 17.8402 9.33745L17.1633 8.55385C17.1142 8.50417 17.0739 8.44642 17.0444 8.38311C16.959 8.16053 17.1541 7.95625 17.2792 7.77331C17.6176 7.26107 17.4682 6.5537 17.4408 5.94389C17.4011 4.97736 17.7121 3.98033 18.4561 3.39492C18.8467 3.09492 19.3266 2.93459 19.8192 2.93957C20.3117 2.94454 20.7883 3.11453 21.1728 3.42236C21.4959 3.70592 21.7185 4.09009 22.057 4.35536C22.5905 4.75478 23.1089 4.94992 24.0846 5.19689Z" fill="white"/>
<path d="M36.543 17.5667C37.2747 16.9721 38.3327 17.1977 39.2474 17.3868C41.6348 17.8838 44.1045 17.9081 46.5651 17.9325C49.1964 17.96 51.8399 17.9844 54.4468 17.5697C54.5895 17.5392 54.737 17.5392 54.8798 17.5697C55.3859 17.71 55.3188 18.4265 55.2426 18.9479C55.165 19.4901 55.195 20.0424 55.331 20.573C55.4835 21.1828 55.7609 21.8444 55.4164 22.3658C55.2846 22.5337 55.1129 22.666 54.9169 22.7507C54.721 22.8354 54.507 22.8697 54.2943 22.8506C53.8793 22.8058 53.4703 22.7158 53.0747 22.5823C50.5593 21.9146 47.8762 22.686 45.2662 22.6036C43.0221 22.5305 40.6744 21.8353 38.5949 22.7226C38.3457 22.8551 38.0755 22.9438 37.7961 22.9848C37.5579 22.9929 37.3223 22.9337 37.1162 22.814C36.8569 22.6701 36.6365 22.4653 36.474 22.2172C36.3114 21.9692 36.2116 21.6853 36.1832 21.3901C36.1252 20.7803 36.3814 20.1705 36.543 19.5607C36.7046 18.9509 36.1313 17.8746 36.543 17.5667Z" fill="white"/>
<path d="M34.253 17.4751C34.1951 17.0879 33.7317 16.7769 33.134 16.6976C32.4891 16.6184 31.8368 16.6184 31.1918 16.6976C30.6595 16.7311 30.144 16.8967 29.6917 17.1794C29.1673 17.5697 29.1398 18.1337 29.2008 18.6429C29.3784 19.7444 29.6854 20.821 30.1155 21.8505C30.1737 22.0451 30.2712 22.2257 30.4021 22.381C30.9052 22.9359 32.137 23.0244 33.1097 22.8445C33.4517 22.8126 33.776 22.6776 34.0396 22.4572C34.3049 22.1523 34.0792 21.7925 33.9146 21.4694C33.7167 21.1019 33.6015 20.6956 33.5773 20.279C33.5531 19.8624 33.6203 19.4455 33.7743 19.0576C33.9489 18.6975 34.1006 18.3268 34.2286 17.9477C34.2671 17.7932 34.2754 17.6328 34.253 17.4751Z" fill="white"/>
<path d="M54.7028 25.0031C55.1846 24.9879 55.398 25.866 55.2364 26.2959C55.1632 26.4849 55.0413 26.6435 54.9833 26.8356C54.7851 27.5277 55.4986 28.165 55.4895 28.8937C55.4698 29.172 55.3582 29.436 55.1722 29.644C54.9862 29.8521 54.7364 29.9925 54.4619 30.0432C53.9528 30.1499 53.4314 30.0005 52.9191 29.9181C52.1481 29.817 51.3693 29.7874 50.5927 29.8297L42.0921 30.0249C41.2932 30.0462 40.4273 30.0919 39.8236 30.6956C39.6132 30.906 39.4333 31.1865 39.1681 31.2872C38.9833 31.3307 38.7893 31.3108 38.6172 31.2306C38.4452 31.1504 38.3052 31.0146 38.2198 30.845C38.0231 30.4806 37.8969 30.0824 37.8478 29.6712L37.5643 28.1162C37.4606 27.5582 37.3691 26.9301 37.6497 26.4606C37.7833 26.2618 37.9696 26.1042 38.1876 26.0051C38.4056 25.906 38.6469 25.8695 38.8845 25.8995C39.348 25.927 39.7992 26.1008 40.2535 26.1648C40.8657 26.2163 41.4821 26.1773 42.0829 26.0489C46.1991 25.3964 50.5501 25.1556 54.7028 25.0031Z" fill="white"/>
<path d="M41.1369 38.0865C41.2324 38.0384 41.3356 38.0075 41.4418 37.995C45.994 37.6901 50.6742 37.1626 55.2234 36.8577C55.3675 36.8682 55.5122 36.849 55.6486 36.8013C55.7849 36.7536 55.91 36.6783 56.0161 36.5803C56.2265 36.3089 56.0802 35.9095 55.8698 35.6259C55.625 35.3719 55.4415 35.0653 55.3331 34.7295C55.2661 34.2996 55.5801 33.9124 55.6899 33.5099C55.7437 33.2927 55.7459 33.0659 55.6961 32.8477C55.6463 32.6295 55.546 32.4261 55.4033 32.2537C55.3177 32.1361 55.1971 32.0486 55.0587 32.0037C54.8675 31.9789 54.6732 32.0152 54.5038 32.1074C51.1122 33.5535 47.4549 34.2723 43.7682 34.2173C43.1798 34.2173 43.0883 34.2813 42.698 34.0892C42.2232 33.8293 41.6673 33.7596 41.143 33.8941C40.9849 33.9393 40.8422 34.0272 40.7309 34.1483C40.6195 34.2693 40.5437 34.4188 40.5119 34.5801C40.3045 35.6046 40.1307 36.7358 40.5424 37.745C40.6003 37.8853 40.6125 37.9859 40.7497 38.0651C40.8095 38.0945 40.8746 38.1115 40.9411 38.1151C41.0077 38.1188 41.0742 38.1091 41.1369 38.0865Z" fill="white"/>
<path d="M33.2035 26.8417C33.5907 26.671 33.9963 26.7807 34.4231 26.7502C34.85 26.7197 35.3378 26.86 35.4872 27.1771C35.5581 27.3721 35.5801 27.5815 35.5513 27.7869C35.5226 28.5802 35.7669 29.3594 36.2434 29.9944C36.4253 30.2137 36.5895 30.4472 36.7343 30.6926C36.8024 30.8147 36.8381 30.9522 36.8381 31.092C36.8381 31.2319 36.8024 31.3693 36.7343 31.4915C36.5905 31.6869 36.3981 31.8414 36.1763 31.9397C35.9302 32.0795 35.6565 32.1638 35.3744 32.1866C35.0151 32.1938 34.6661 32.0666 34.3957 31.8299C34.1629 31.6135 33.969 31.3588 33.8225 31.0768C33.3149 30.2069 32.8784 29.2973 32.5175 28.3571C32.4062 28.1107 32.3732 27.8361 32.423 27.5704C32.4712 27.3878 32.5701 27.2225 32.7082 27.0936C32.8463 26.9647 33.018 26.8773 33.2035 26.8417Z" fill="white"/>
<path d="M57.9341 7.2306L61.1691 8.27337C61.5799 8.3758 61.9658 8.56043 62.3033 8.81609C62.7515 9.21551 62.846 9.81007 62.9131 10.3589L63.3552 13.7738C63.4162 14.2433 63.3766 14.8592 62.8552 15.0086C62.6162 15.0548 62.3692 15.038 62.1387 14.9599C60.8215 14.6336 59.483 14.3013 58.3426 13.6457C58.0805 13.513 57.8513 13.3234 57.6719 13.0908C57.5598 12.9029 57.4823 12.6963 57.4432 12.481C57.0904 10.9818 56.9073 9.44763 56.8974 7.90748C56.8746 7.74001 56.8884 7.56959 56.9379 7.40798C56.9874 7.24637 57.0713 7.09742 57.184 6.97144C57.3761 7.02632 57.745 7.17267 57.9341 7.2306Z" fill="white"/>
<path d="M57.785 14.4353C57.6432 14.5999 57.5493 14.8003 57.5136 15.0146C57.3826 15.8447 57.3153 16.6836 57.3124 17.524C57.3124 18.0667 57.3612 18.6796 58.2942 18.768C58.4463 18.7817 58.5994 18.7817 58.7515 18.768L62.142 18.4631C62.2932 18.4549 62.4372 18.3958 62.5506 18.2954C62.9592 17.9173 62.5018 17.3807 62.4744 16.8776C62.4744 16.594 62.5902 16.2891 62.4744 16.033C62.3585 15.7769 62.0109 15.6976 61.7243 15.6427C60.4141 15.3925 59.1625 14.8981 58.035 14.1853C57.9385 14.2544 57.8541 14.3389 57.785 14.4353Z" fill="white"/>
<path d="M57.8029 19.5607C58.7122 19.4393 59.6301 19.3934 60.547 19.4235C60.9072 19.4324 61.259 19.5342 61.5683 19.719C61.8776 19.9038 62.1339 20.1654 62.3124 20.4784C62.4553 20.8248 62.5309 21.1953 62.5349 21.57C62.6239 22.9159 62.632 24.266 62.5593 25.613C62.5736 25.8646 62.5004 26.1135 62.352 26.3173C62.1574 26.4863 61.9084 26.5794 61.6507 26.5795C60.6827 26.6853 59.705 26.6658 58.742 26.5216C58.3761 26.4667 57.9614 26.3539 57.7968 26.0215C57.7099 25.7675 57.7035 25.4927 57.7785 25.2349C58.1229 23.3602 58.1353 21.4396 57.8151 19.5607" fill="white"/>
<path d="M58.4527 28.5431C58.5145 28.3209 58.6464 28.1245 58.8288 27.9833C59.0112 27.8421 59.2344 27.7636 59.465 27.7595C60.2852 27.7382 60.9895 27.7229 61.8158 27.7595C61.9838 27.7705 62.1487 27.8096 62.3036 27.8754C62.4121 27.9225 62.5099 27.9911 62.5911 28.077C62.6724 28.163 62.7353 28.2645 62.7762 28.3754C63.1269 29.2901 63.0811 30.2933 63.0049 31.269L62.8952 33.0343C62.822 34.1503 62.7458 35.2906 62.3006 36.3151C61.8554 37.3395 60.956 38.239 59.8461 38.3701C59.6282 38.4121 59.4031 38.3971 59.1927 38.3266C58.9822 38.256 58.7935 38.1324 58.6448 37.9676C58.4604 37.6518 58.3793 37.2861 58.4131 36.9218L58.3704 29.5219C58.359 29.1935 58.3867 28.865 58.4527 28.5431Z" fill="white"/>
<path d="M65.722 9.82837C68.4845 10.2217 71.0212 12.2859 72.5183 14.6397C74.0154 16.9936 74.7807 19.7285 75.4576 22.4361C75.6771 23.3233 75.8936 24.238 75.7838 25.1466C75.6273 26.0879 75.249 26.9784 74.6801 27.7444C72.747 30.5891 69.8016 32.5649 66.9417 34.4675C66.8499 34.5439 66.7348 34.5869 66.6154 34.5894C66.405 34.5651 66.3105 34.315 66.2648 34.1077C64.5634 26.165 67.3319 17.7894 65.722 9.82837Z" fill="white"/>
<path d="M55.2912 7.1208C55.3212 7.12324 55.3511 7.11505 55.3757 7.09765C55.4002 7.08026 55.4178 7.05478 55.4255 7.02568C55.4331 6.99658 55.4303 6.96571 55.4174 6.93851C55.4046 6.9113 55.3826 6.88948 55.3553 6.87688C52.5471 5.5719 49.1932 3.96507 46.3302 3.17842C46.0498 3.0836 45.7534 3.04526 45.4581 3.06561C45.0989 3.14112 44.7669 3.31291 44.4977 3.5626C43.838 4.09357 43.2507 4.70859 42.7506 5.39201C42.6921 5.46835 42.6499 5.55596 42.6268 5.64936C42.6038 5.74275 42.6002 5.83991 42.6165 5.93473C42.6988 6.32806 43.0921 6.38294 43.4245 6.40123L55.2912 7.1208Z" fill="white"/>
</g>
<defs>
<clipPath id="clip0_576_853">
<rect width="42.174" height="78" fill="white" transform="matrix(4.37114e-08 1 1 -4.37114e-08 0 0.330566)"/>
</clipPath>
</defs>
</svg>
