<svg width="46" height="46" viewBox="0 0 46 46" fill="none" xmlns="http://www.w3.org/2000/svg">
<rect x="0.5" y="0.5" width="45" height="45" rx="22.5" stroke="black"/>
<path d="M14.9879 25.7841C15.4193 25.3552 15.9581 24.9697 16.6043 24.6275C17.2506 24.2853 17.7894 23.8997 18.2208 23.4708C18.3286 23.3636 18.4473 23.2242 18.5769 23.0525C18.728 22.8594 18.75 22.7089 18.6428 22.601L17.9994 21.9539C17.5706 21.5225 17.0662 21.1662 16.4863 20.8848C15.928 20.5821 15.4345 20.215 15.0056 19.7836C14.9198 19.6973 14.8556 19.6111 14.8128 19.5249C14.7273 19.3526 14.7277 19.2236 14.8139 19.1378L19.1173 14.8598C19.2036 14.7741 19.3326 14.7744 19.5044 14.861C19.5903 14.9042 19.6762 14.969 19.7619 15.0553C20.0192 15.3142 20.2336 15.5729 20.4048 15.8315C20.5976 16.1116 20.7688 16.3917 20.9185 16.6718C21.0683 16.9518 21.2288 17.2211 21.4001 17.4797C21.5928 17.7599 21.8286 18.0402 22.1073 18.3206C22.429 18.6441 22.6328 18.8061 22.7188 18.8063C22.8479 18.8067 23.0742 18.6461 23.3977 18.3244C23.9586 17.7669 24.3797 17.1982 24.661 16.6183C24.9638 16.017 25.331 15.5019 25.7624 15.073C25.8918 14.9444 26.0104 14.8479 26.1181 14.7837C26.3767 14.6124 26.5489 14.5699 26.6347 14.6562L30.7197 18.7654C30.784 18.8301 30.7621 18.9591 30.654 19.1524C30.6107 19.2383 30.5567 19.3134 30.492 19.3777C29.9312 19.9352 29.3492 20.3637 28.7461 20.663C28.1861 20.9624 27.6903 21.3266 27.2589 21.7555C26.9354 22.0771 26.7303 22.3239 26.6438 22.4957C26.5787 22.689 26.707 22.9475 27.0286 23.2711C27.4575 23.7025 27.9618 24.0588 28.5417 24.3401C29.1216 24.6214 29.6259 24.9778 30.0548 25.4092C30.1835 25.5386 30.2799 25.6572 30.3441 25.7649C30.5154 26.0235 30.5579 26.1957 30.4716 26.2815L26.1683 30.5595C26.082 30.6452 25.9422 30.6341 25.749 30.526C25.6631 30.4827 25.588 30.4287 25.5236 30.364C24.8803 29.7169 24.3661 29.0701 23.9809 28.4238C23.6386 27.7776 23.1459 27.1309 22.5026 26.4838C21.8555 27.1271 21.3158 27.7922 20.8836 28.4792C20.4945 29.1662 20.0303 29.7778 19.491 30.3139C19.2537 30.5498 19.0597 30.6998 18.909 30.7638C18.8012 30.8281 18.6402 30.7523 18.4257 30.5366L14.7911 26.8804C14.5552 26.6431 14.4589 26.46 14.5023 26.3311C14.5887 26.2023 14.7506 26.02 14.9879 25.7841Z" fill="#030303"/>
</svg>
