<svg width="70" height="70" viewBox="0 0 70 70" fill="none" xmlns="http://www.w3.org/2000/svg">
<rect width="70" height="70" rx="35" fill="#030303"/>
<path d="M28.4634 37.2509C28.8949 36.822 29.4337 36.4365 30.0799 36.0943C30.7261 35.7521 31.265 35.3665 31.6964 34.9376C31.8042 34.8304 31.9229 34.691 32.0525 34.5193C32.2036 34.3262 32.2256 34.1757 32.1183 34.0678L31.475 33.4207C31.0462 32.9893 30.5418 32.633 29.9619 32.3516C29.4036 32.0489 28.9101 31.6818 28.4812 31.2504C28.3954 31.1641 28.3311 31.0779 28.2884 30.9917C28.2029 30.8194 28.2032 30.6904 28.2895 30.6046L32.5929 26.3266C32.6792 26.2409 32.8082 26.2412 32.98 26.3278C33.0659 26.371 33.1517 26.4358 33.2375 26.5221C33.4948 26.7809 33.7091 27.0397 33.8804 27.2983C34.0732 27.5784 34.2444 27.8585 34.3941 28.1386C34.5438 28.4186 34.7044 28.6879 34.8757 28.9465C35.0684 29.2267 35.3041 29.507 35.5829 29.7874C35.9046 30.1109 36.1084 30.2729 36.1944 30.2731C36.3235 30.2735 36.5498 30.1129 36.8733 29.7912C37.4342 29.2337 37.8552 28.665 38.1365 28.0851C38.4394 27.4838 38.8066 26.9687 39.238 26.5398C39.3674 26.4112 39.486 26.3147 39.5937 26.2505C39.8523 26.0792 40.0245 26.0367 40.1103 26.123L44.1953 30.2322C44.2596 30.2969 44.2377 30.4259 44.1296 30.6192C44.0863 30.7051 44.0323 30.7802 43.9676 30.8445C43.4068 31.402 42.8248 31.8305 42.2217 32.1298C41.6617 32.4292 41.1659 32.7934 40.7345 33.2223C40.4109 33.5439 40.2059 33.7906 40.1194 33.9625C40.0543 34.1558 40.1825 34.4143 40.5042 34.7378C40.9331 35.1693 41.4374 35.5256 42.0173 35.8069C42.5972 36.0882 43.1015 36.4446 43.5304 36.876C43.6591 37.0054 43.7555 37.124 43.8197 37.2317C43.991 37.4903 44.0335 37.6625 43.9472 37.7483L39.6439 42.0263C39.5576 42.112 39.4178 42.1009 39.2246 41.9928C39.1387 41.9495 39.0636 41.8955 38.9992 41.8308C38.3559 41.1837 37.8417 40.5369 37.4564 39.8906C37.1142 39.2444 36.6215 38.5977 35.9782 37.9506C35.3311 38.5939 34.7914 39.259 34.3592 39.946C33.9701 40.633 33.5059 41.2446 32.9666 41.7807C32.7293 42.0166 32.5353 42.1666 32.3846 42.2306C32.2768 42.2948 32.1158 42.2191 31.9013 42.0034L28.2666 38.3472C28.0308 38.1099 27.9345 37.9268 27.9779 37.7979C28.0643 37.6691 28.2262 37.4868 28.4634 37.2509Z" fill="white"/>
</svg>
