
<svg width="142" height="207" viewBox="0 0 142 207" fill="none" xmlns="http://www.w3.org/2000/svg">
<g clip-path="url(#clip0_665_2619)">
<path d="M38.6076 117.332C46.371 105.555 101.385 94.9232 111.447 102.118C123.594 110.802 131.153 162.766 123.348 172.267C116.06 181.136 61.0533 192.865 53.1344 186.023C44.6122 178.661 31.4048 128.258 38.6076 117.332Z" fill="#ED1E24"/>
<path d="M39.543 117.975C39.7389 117.682 39.9507 117.399 40.1791 117.132C40.232 117.068 40.2901 117.006 40.3438 116.946C40.1153 117.213 40.3011 116.991 40.3637 116.929C40.5072 116.778 40.6515 116.632 40.8047 116.485C41.4259 115.889 42.0994 115.352 42.7982 114.852C42.9697 114.729 43.1466 114.609 43.3189 114.49C43.4218 114.421 43.5201 114.353 43.6238 114.288C43.7555 114.199 43.4498 114.398 43.5868 114.313C43.6445 114.275 43.7023 114.237 43.7608 114.203C44.1998 113.925 44.6457 113.66 45.097 113.398C46.0506 112.851 47.0303 112.346 48.0201 111.871C52.9017 109.531 57.8781 107.886 62.9772 106.457C68.81 104.821 74.7481 103.533 80.7313 102.568C83.6215 102.1 86.5264 101.711 89.4401 101.422C90.8198 101.284 92.199 101.17 93.5831 101.082C93.8848 101.064 94.1864 101.046 94.4835 101.028C94.6531 101.02 94.8173 101.009 94.9868 101.001C95.2018 100.989 94.7165 101.013 95.0697 100.999C95.1616 100.996 95.2534 100.993 95.3445 100.986C95.9725 100.958 96.6022 100.94 97.2327 100.925C99.4977 100.879 101.774 100.922 104.03 101.153C104.981 101.25 105.925 101.381 106.86 101.569C106.956 101.588 107.052 101.607 107.149 101.631C107.302 101.662 106.941 101.581 107.216 101.646C107.434 101.698 107.647 101.751 107.865 101.808C108.234 101.906 108.601 102.018 108.963 102.149C109.299 102.271 109.628 102.404 109.956 102.556C110.022 102.585 110.089 102.623 110.159 102.652C109.826 102.501 110.062 102.601 110.144 102.645C110.289 102.729 110.432 102.809 110.569 102.899C110.862 103.089 111.142 103.304 111.41 103.531C111.476 103.588 111.547 103.648 111.613 103.705C111.349 103.477 111.614 103.709 111.675 103.767C111.827 103.914 111.978 104.061 112.122 104.214C112.755 104.87 113.321 105.589 113.84 106.335C113.903 106.425 113.966 106.519 114.029 106.609C114.079 106.682 114.24 106.928 114.104 106.714C114.252 106.945 114.401 107.175 114.545 107.41C114.822 107.861 115.086 108.318 115.341 108.781C116.5 110.899 117.461 113.122 118.307 115.375C119.302 118.01 120.033 120.367 120.788 123.129C122.384 128.977 123.531 134.947 124.324 140.955C124.711 143.904 125.012 146.868 125.199 149.834C125.288 151.284 125.339 152.396 125.372 153.888C125.399 155.202 125.404 156.515 125.371 157.826C125.316 160.157 125.165 162.491 124.81 164.794C124.734 165.291 124.645 165.785 124.546 166.281C124.521 166.4 124.493 166.525 124.469 166.644C124.41 166.926 124.512 166.475 124.447 166.754C124.39 166.994 124.333 167.239 124.271 167.48C124.061 168.281 123.808 169.072 123.48 169.83C123.409 169.995 123.332 170.156 123.256 170.322C123.223 170.396 123.056 170.694 123.236 170.366C123.191 170.444 123.154 170.524 123.108 170.601C122.947 170.883 122.772 171.164 122.575 171.425C122.486 171.542 122.381 171.653 122.293 171.775C122.193 171.913 122.511 171.556 122.323 171.737C122.264 171.794 122.206 171.86 122.147 171.917C121.925 172.141 121.686 172.35 121.44 172.547C121.167 172.771 120.882 172.98 120.591 173.184C120.513 173.24 120.431 173.296 120.348 173.348C120.315 173.368 120.052 173.545 120.22 173.431C120.39 173.322 120.1 173.509 120.054 173.535C119.955 173.599 119.855 173.659 119.755 173.719C118.986 174.186 118.19 174.611 117.385 175.011C115.411 175.993 113.365 176.831 111.297 177.6C108.739 178.55 106.572 179.254 104.017 180.015C98.3811 181.693 92.6528 183.067 86.885 184.199C81.2997 185.294 75.6567 186.174 69.9816 186.651C69.3487 186.702 68.7202 186.753 68.0849 186.791C67.7877 186.809 67.4861 186.827 67.189 186.844C67.0516 186.851 66.9097 186.859 66.7723 186.865C66.4378 186.881 66.9186 186.857 66.717 186.866C66.6296 186.869 66.5475 186.874 66.4601 186.877C65.3093 186.926 64.1581 186.948 63.0057 186.938C61.1037 186.923 59.1907 186.822 57.3176 186.485C57.131 186.45 56.9436 186.411 56.7562 186.371C56.766 186.374 56.979 186.427 56.727 186.363C56.6249 186.336 56.5237 186.313 56.4172 186.286C56.0827 186.201 55.7502 186.1 55.4242 185.985C55.1229 185.88 54.8392 185.743 54.5437 185.618C54.3835 185.551 54.8075 185.772 54.5843 185.638C54.5323 185.606 54.4713 185.576 54.4193 185.544C54.2949 185.47 54.1742 185.391 54.0571 185.307C53.9612 185.237 53.8709 185.148 53.7713 185.084C53.6348 184.994 53.9852 185.293 53.8047 185.114C53.7433 185.057 53.6819 184.999 53.6197 184.937C53.3823 184.7 53.1567 184.452 52.9429 184.192C52.7169 183.916 52.499 183.634 52.2937 183.346C52.1755 183.179 52.0616 183.011 51.9434 182.845C51.7852 182.611 51.9954 182.927 51.9112 182.795C51.8462 182.692 51.7812 182.589 51.7169 182.491C49.2951 178.646 47.6118 174.317 46.0887 170.056C45.1127 167.321 44.3246 164.855 43.4982 162.028C42.6441 159.101 41.8698 156.154 41.1743 153.184C39.8118 147.4 38.711 141.531 38.0924 135.619C37.9526 134.298 37.8396 132.973 37.764 131.649C37.7559 131.504 37.7477 131.358 37.7396 131.213C37.7368 131.121 37.7295 131.031 37.7266 130.939C37.7156 130.753 37.7335 131.103 37.727 130.916C37.7116 130.579 37.7006 130.241 37.6904 129.907C37.6713 129.323 37.662 128.741 37.6616 128.157C37.6616 126.034 37.7698 123.896 38.1588 121.803C38.1962 121.603 38.2373 121.398 38.2791 121.197C38.2064 121.532 38.2934 121.149 38.3088 121.082C38.3356 120.976 38.3625 120.87 38.3893 120.764C38.4905 120.382 38.6015 120.003 38.7373 119.634C38.8572 119.304 38.9869 118.977 39.1405 118.655C39.1812 118.574 39.2218 118.493 39.2617 118.408C39.1673 118.599 39.1889 118.54 39.2698 118.401C39.3604 118.265 39.4486 118.116 39.543 117.975C40.3409 116.754 38.4747 115.468 37.6723 116.69C36.7048 118.172 36.2251 119.896 35.9015 121.614C35.506 123.722 35.4011 125.878 35.4043 128.018C35.4083 133.651 36.1424 139.284 37.1269 144.821C38.2122 150.909 39.6524 156.941 41.3974 162.872C42.9559 168.161 44.7224 173.426 47.0175 178.447C47.8569 180.283 48.7698 182.092 49.8702 183.789C50.6869 185.046 51.6019 186.386 52.8632 187.244C54.1087 188.092 55.629 188.471 57.0916 188.736C58.9895 189.083 60.9301 189.183 62.8598 189.198C68.1592 189.245 73.4697 188.669 78.7034 187.901C84.6886 187.023 90.6312 185.835 96.5035 184.389C101.955 183.043 107.377 181.487 112.63 179.506C114.709 178.722 116.766 177.868 118.749 176.857C120.271 176.083 121.794 175.216 123.093 174.106C125.749 171.851 126.575 168.23 127.079 164.945C127.863 159.806 127.754 154.532 127.428 149.363C127.037 143.231 126.201 137.115 124.993 131.091C123.833 125.302 122.332 119.543 120.218 114.024C119.352 111.765 118.377 109.536 117.187 107.428C116.209 105.691 115.086 103.975 113.675 102.551C112.521 101.393 111.236 100.53 109.686 99.9904C107.939 99.3816 106.072 99.0795 104.236 98.8914C99.179 98.3776 94.023 98.6861 88.9776 99.1949C82.9472 99.8011 76.9534 100.81 71.0372 102.116C65.1747 103.413 59.3614 105.005 53.72 107.056C49.3185 108.66 44.8588 110.528 41.0665 113.317C39.7877 114.258 38.556 115.357 37.6759 116.685C36.8682 117.903 38.7344 119.189 39.543 117.975Z" fill="white"/>
<path d="M46.0632 124.448C45.786 125.813 45.753 127.225 45.7705 128.609C45.7928 130.577 45.94 132.544 46.1452 134.501C46.6407 139.208 47.4488 143.88 48.402 148.513C49.3893 153.332 50.5474 158.124 51.9241 162.849C52.9899 166.505 54.1179 170.224 55.7866 173.664C56.2829 174.685 56.8386 175.778 57.6361 176.602C58.5194 177.516 59.8226 177.87 61.0328 178.145C64.9542 179.046 69.0964 178.854 73.0756 178.503C77.9869 178.069 82.8576 177.211 87.6754 176.165C92.4172 175.132 97.1187 173.905 101.75 172.443C105.157 171.365 108.625 170.239 111.822 168.621C112.694 168.181 113.64 167.696 114.324 166.987C115.016 166.272 115.253 165.324 115.422 164.374C115.945 161.447 115.736 158.356 115.576 155.412C115.344 151.135 114.874 146.869 114.293 142.629C113.663 138.024 112.885 133.438 111.92 128.895C111.079 124.927 110.106 120.965 108.758 117.13C108.275 115.753 107.737 114.376 107.039 113.088C106.507 112.101 105.877 111.104 104.974 110.41C104.302 109.894 103.481 109.755 102.653 109.699C101.409 109.619 100.148 109.693 98.9054 109.773C95.1803 110.022 91.4669 110.563 87.782 111.159C83.0833 111.922 78.407 112.832 73.7632 113.869C69.1417 114.902 64.5475 116.059 60.0219 117.466C56.4358 118.576 52.7822 119.773 49.4717 121.582C48.4042 122.163 47.3185 122.821 46.4502 123.683C46.0165 124.116 45.9039 124.789 46.3258 125.277C46.7014 125.714 47.49 125.832 47.9282 125.398C48.3038 125.026 48.7241 124.696 49.1591 124.396C49.2205 124.353 49.2827 124.314 49.3396 124.271C49.1026 124.416 49.4993 124.159 49.3396 124.271C49.4847 124.18 49.6253 124.09 49.7713 124.004C50.0631 123.831 50.3566 123.667 50.6509 123.508C52.1033 122.732 53.6265 122.091 55.1631 121.497C56.0651 121.149 56.9756 120.821 57.8939 120.511C58.1289 120.431 58.3683 120.351 58.6033 120.271C58.7252 120.23 58.8427 120.19 58.9646 120.15C59.0167 120.131 59.0695 120.117 59.1215 120.098C59.2435 120.057 58.9951 120.14 59.1959 120.075C59.6935 119.915 60.1918 119.76 60.6947 119.604C62.8601 118.937 65.0458 118.33 67.2381 117.759C71.8795 116.557 76.5651 115.521 81.2736 114.61C85.5134 113.789 89.7763 113.069 94.0575 112.525C95.7148 112.314 97.377 112.13 99.0424 112.014C99.394 111.991 99.7456 111.968 100.094 111.95C100.121 111.95 99.8501 111.958 100.098 111.949C100.176 111.944 100.254 111.944 100.332 111.939C100.492 111.932 100.648 111.927 100.81 111.925C101.316 111.915 101.824 111.914 102.333 111.941C102.539 111.954 102.744 111.966 102.952 111.993C103.038 112.005 103.123 112.017 103.209 112.029C103.522 112.073 103.064 111.972 103.188 112.019C103.268 112.05 103.45 112.136 103.533 112.135C103.362 112.134 103.276 111.966 103.484 112.121C103.554 112.172 103.623 112.224 103.697 112.275C103.968 112.464 103.585 112.139 103.724 112.293C103.794 112.372 103.876 112.444 103.951 112.527C104.108 112.701 104.252 112.881 104.388 113.072C104.432 113.133 104.633 113.427 104.519 113.255C104.398 113.075 104.532 113.276 104.558 113.317C104.598 113.383 104.637 113.445 104.676 113.511C104.823 113.755 104.961 114.006 105.096 114.262C105.772 115.558 106.304 116.931 106.783 118.309C106.844 118.491 106.909 118.672 106.97 118.854C107.002 118.954 107.034 119.054 107.071 119.153C107.113 119.279 107.051 119.092 107.049 119.083C107.072 119.157 107.095 119.231 107.122 119.304C107.262 119.743 107.398 120.182 107.528 120.618C107.804 121.542 108.061 122.469 108.305 123.399C109.417 127.639 110.283 131.943 111.026 136.259C111.788 140.706 112.412 145.183 112.863 149.673C113.066 151.667 113.232 153.663 113.343 155.66C113.354 155.869 113.364 156.079 113.375 156.288C113.378 156.352 113.38 156.416 113.382 156.48C113.38 156.466 113.373 156.279 113.379 156.411C113.383 156.535 113.393 156.662 113.397 156.785C113.417 157.223 113.427 157.657 113.438 158.096C113.456 158.879 113.465 159.663 113.451 160.447C113.434 161.663 113.385 162.89 113.175 164.091C113.157 164.195 113.135 164.3 113.117 164.405C113.059 164.719 113.182 164.177 113.096 164.491C113.046 164.675 112.997 164.859 112.927 165.037C112.899 165.111 112.862 165.182 112.834 165.256C112.784 165.412 113.013 164.998 112.853 165.211C112.816 165.259 112.775 165.313 112.747 165.364C112.639 165.558 112.986 165.155 112.77 165.337C112.638 165.448 112.515 165.562 112.378 165.67C112.297 165.731 112.214 165.787 112.132 165.844C111.986 165.953 112.098 165.859 112.203 165.799C112.149 165.832 112.091 165.87 112.037 165.903C111.563 166.191 111.071 166.456 110.57 166.699C109.192 167.378 107.758 167.953 106.323 168.491C105.436 168.823 104.543 169.143 103.646 169.445C103.171 169.605 102.697 169.765 102.217 169.922C102.039 169.982 102.274 169.902 102.035 169.983C101.913 170.024 101.785 170.061 101.663 170.101C101.393 170.188 101.122 170.274 100.85 170.356C98.6516 171.042 96.4334 171.673 94.207 172.259C89.4229 173.516 84.5763 174.581 79.6926 175.368C77.363 175.743 75.022 176.056 72.6704 176.261C72.1062 176.309 71.5464 176.356 70.9842 176.39C70.7379 176.408 70.4907 176.421 70.2436 176.434C69.9367 176.449 69.9875 176.448 69.5977 176.465C68.5879 176.502 67.5831 176.516 66.5754 176.489C65.6611 176.467 64.7502 176.413 63.84 176.313C63.4157 176.267 62.9941 176.211 62.5746 176.14C62.3933 176.109 62.2165 176.077 62.0397 176.045C61.9437 176.026 61.8523 176.006 61.7608 175.986C61.6072 175.954 61.9633 176.031 61.8141 175.999C61.7608 175.986 61.7129 175.976 61.6596 175.963C60.9824 175.797 60.3129 175.598 59.6751 175.319C59.6202 175.297 59.534 175.23 59.4788 175.231C59.4788 175.231 59.7332 175.41 59.621 175.302C59.5702 175.251 59.4828 175.203 59.4247 175.163C59.1922 175.003 59.5653 175.326 59.4361 175.175C59.3714 175.099 59.2942 175.03 59.2296 174.955C59.0784 174.785 58.9479 174.602 58.8174 174.419C58.6312 174.159 58.9247 174.602 58.7418 174.309C58.6698 174.193 58.5987 174.082 58.5312 173.966C58.2085 173.414 57.919 172.842 57.6512 172.261C56.9427 170.736 56.3492 169.158 55.796 167.573C55.6313 167.102 55.4704 166.626 55.3147 166.154C55.296 166.102 55.2826 166.054 55.2639 166.002C55.2037 165.825 55.3163 166.163 55.2562 165.985C55.2155 165.864 55.1801 165.747 55.1395 165.625C55.0627 165.382 54.985 165.134 54.9082 164.891C54.5834 163.848 54.2668 162.798 53.968 161.745C53.3164 159.47 52.7177 157.181 52.1636 154.883C51.0088 150.109 50.017 145.29 49.2415 140.442C48.8931 138.258 48.5895 136.067 48.3627 133.866C48.2655 132.905 48.1826 131.946 48.122 130.982C48.1082 130.755 48.0952 130.532 48.0822 130.31C48.0798 130.246 48.0773 130.182 48.0704 130.119C48.0729 130.132 48.0794 130.319 48.0737 130.187C48.0696 130.064 48.0656 129.94 48.057 129.818C48.044 129.393 48.0302 128.964 48.0306 128.536C48.0233 127.232 48.0636 125.911 48.3241 124.632C48.4461 124.035 47.8546 123.454 47.2912 123.405C46.627 123.361 46.1843 123.846 46.0632 124.448Z" fill="white"/>
<path d="M62.5852 187.268C62.6791 189.879 62.8616 192.722 64.6083 194.669C66.7038 197.006 70.257 197.206 73.4065 197.095C85.5632 196.66 97.5874 194.034 109.061 189.988C112.508 188.774 115.248 189.431 115.859 185.846C116.242 183.593 116.201 179.226 115.831 176.973C115.357 174.077 110.224 175.374 107.929 175.407C104.818 175.452 101.109 177.33 101.276 180.419C101.222 178.986 99.8647 177.879 98.4505 177.6C97.0371 177.325 95.5867 177.682 94.1916 178.038C91.234 178.795 87.6617 180.234 87.4539 183.268C87.3783 181.844 86.0572 180.734 84.6589 180.415C83.2605 180.097 81.8069 180.385 80.3996 180.675C78.672 181.032 76.9444 181.389 75.2159 181.742C73.9115 182.013 72.2282 182.89 72.6778 184.136C70.9376 182.225 67.947 181.564 65.5555 182.561C63.1613 183.569 62.4426 184.693 62.5852 187.268Z" fill="#3C52A4"/>
<path d="M61.4543 187.171C61.5791 190.609 61.9372 194.413 65.0346 196.544C67.6451 198.336 71.0309 198.329 74.0747 198.195C82.1758 197.844 90.2049 196.569 98.0495 194.538C101.967 193.523 105.795 192.267 109.631 190.982C111.834 190.244 114.856 190.316 116.227 188.113C116.952 186.946 117.096 185.537 117.184 184.197C117.284 182.722 117.282 181.243 117.215 179.766C117.162 178.54 117.231 176.974 116.648 175.858C116.086 174.776 114.983 174.279 113.827 174.072C112.69 173.871 111.497 173.969 110.352 174.073C109.802 174.123 109.254 174.186 108.7 174.237C108.595 174.247 108.491 174.257 108.381 174.263C108.345 174.265 107.997 174.287 108.139 174.28C108.295 174.274 107.895 174.283 107.882 174.286C107.661 174.294 107.441 174.302 107.227 174.318C104.575 174.523 101.583 175.878 100.485 178.437C100.232 179.025 100.117 179.685 100.136 180.32C100.887 180.284 101.634 180.248 102.385 180.212C102.237 178.217 100.401 176.816 98.5448 176.471C96.6603 176.121 94.6473 176.687 92.8493 177.241C89.9534 178.133 86.6067 179.77 86.3124 183.164C87.0636 183.128 87.8104 183.093 88.5616 183.056C88.412 181.328 86.962 179.944 85.3576 179.433C83.4154 178.818 81.3662 179.313 79.4292 179.713C78.4228 179.92 77.4118 180.127 76.4053 180.334C75.5366 180.512 74.6667 180.657 73.8383 180.978C72.5054 181.498 71.0615 182.75 71.5505 184.338C72.2094 184.024 72.8728 183.71 73.5318 183.396C71.3908 181.113 67.9652 180.347 65.0506 181.542C63.9462 181.996 62.832 182.651 62.1738 183.676C61.4397 184.817 61.3929 186.153 61.4571 187.465C61.4856 188.076 62.2327 188.472 62.7783 188.372C63.449 188.25 63.7213 187.667 63.6929 187.056C63.6697 186.601 63.6941 186.128 63.7734 185.677C63.8022 185.506 63.9835 185.032 64.0685 184.915C64.2978 184.602 64.388 184.489 64.7852 184.21C65.064 184.016 65.6071 183.751 66.0327 183.577C67.9758 182.781 70.3822 183.356 71.8005 184.871C72.1452 185.24 72.6874 185.375 73.1549 185.152C73.5667 184.952 73.9224 184.396 73.7817 183.93C73.7691 183.886 73.6464 183.619 73.7224 183.757C73.7122 183.777 73.7065 183.796 73.6972 183.821C73.7484 183.697 73.7496 183.678 73.7009 183.765C73.8155 183.583 73.8354 183.566 74.0143 183.432C74.298 183.215 74.8 183.004 75.1403 182.918C76.6805 182.522 78.2744 182.267 79.8329 181.946C81.2536 181.654 82.7849 181.208 84.2401 181.485C85.2742 181.681 86.2238 182.376 86.3177 183.471C86.4287 184.761 88.4611 184.605 88.5668 183.363C88.7506 181.234 91.1705 180.139 93.1026 179.51C94.4806 179.061 96.0635 178.569 97.5216 178.634C98.7321 178.683 100.043 179.285 100.14 180.623C100.231 181.879 102.437 181.788 102.389 180.515C102.353 179.483 102.721 178.74 103.492 178.08C104.307 177.379 105.358 176.939 106.408 176.715C107.431 176.496 108.37 176.526 109.423 176.426C110.454 176.324 111.394 176.208 112.319 176.213C112.56 176.215 112.802 176.226 113.041 176.247C113.154 176.258 113.272 176.269 113.386 176.285C113.457 176.295 113.734 176.345 113.676 176.333C114.023 176.412 114.272 176.509 114.527 176.738C114.378 176.609 114.518 176.739 114.567 176.809C114.691 176.979 114.521 176.684 114.603 176.88C114.636 176.957 114.695 177.153 114.646 176.964C114.679 177.091 114.698 177.221 114.717 177.351C114.803 177.923 114.858 178.502 114.894 179.079C114.988 180.399 114.996 181.73 114.946 183.053C114.905 184.164 114.906 185.409 114.503 186.466C114.35 186.87 114.176 187.081 113.87 187.353C113.831 187.388 113.785 187.419 113.74 187.451C113.757 187.439 113.873 187.367 113.761 187.438C113.67 187.496 113.573 187.546 113.47 187.592C113.369 187.643 113.266 187.685 113.162 187.726C113.11 187.745 112.803 187.857 112.959 187.805C111.864 188.157 110.709 188.308 109.603 188.63C107.896 189.126 106.227 189.78 104.532 190.315C102.772 190.871 101.006 191.396 99.2231 191.883C92.1146 193.822 84.8286 195.167 77.4795 195.739C75.7934 195.868 74.0995 195.98 72.4101 195.99C71.0853 195.998 69.7081 195.947 68.4252 195.602C67.2009 195.275 66.0761 194.708 65.2664 193.717C64.3302 192.564 64.0119 191.051 63.8465 189.615C63.7608 188.868 63.7205 188.117 63.6937 187.364C63.6705 186.757 63.3275 186.195 62.6608 186.137C62.1356 186.096 61.434 186.555 61.4543 187.171Z" fill="white"/>
<path d="M93.7098 76.6032C98.3361 74.3834 102.852 71.9402 107.241 69.2813C108.306 68.6362 109.418 67.9183 109.947 66.7923C110.452 65.712 110.32 64.4586 110.182 63.2753C109.28 55.7154 108.341 48.0247 105.257 41.0615C102.172 34.0984 96.5687 27.8393 89.1839 25.8395C86.2526 25.0474 83.1807 24.9519 80.1446 24.9509C66.0335 24.9574 51.7655 27.0375 38.8083 32.6231C33.7109 34.8187 28.7207 37.6519 25.228 41.9528C21.3618 46.7127 19.6646 52.8728 18.8792 58.9396C18.1629 64.4746 18.1234 70.0973 18.762 75.6373C19.1685 79.1749 19.8696 82.7321 21.4598 85.92C23.05 89.1079 25.6255 91.9226 28.9523 93.2352C32.3888 94.5921 36.2582 94.2477 39.9045 93.6178L43.8992 93.5033C44.5263 101.559 43.7617 100.435 45.9896 108.198C46.2852 109.233 46.6193 110.303 47.3632 111.086C48.6627 112.456 50.7915 112.55 52.6895 112.543C53.7984 112.542 54.9557 112.528 55.9512 112.034C56.9459 111.535 57.7077 110.394 57.3894 109.335C57.0333 110.269 57.8557 111.304 58.8227 111.564C59.7898 111.824 60.8093 111.536 61.769 111.25C64.1088 110.552 66.4441 109.853 68.7839 109.155C69.612 108.907 70.6449 108.111 70.1193 107.435C69.8823 108.287 70.6892 109.137 71.5627 109.29C72.4363 109.443 73.3131 109.108 74.1354 108.778C75.9318 108.064 77.7228 107.346 79.5191 106.631C81.539 105.825 83.9894 104.114 83.1744 102.108C82.7691 103.252 83.7463 104.503 84.9068 104.86C86.0718 105.217 87.323 104.933 88.5084 104.643C90.8762 104.072 93.2477 103.496 95.6156 102.926C96.6997 102.663 97.5928 102.417 98.644 102.05C99.6476 101.701 99.9005 101.517 100.619 100.669C101.762 99.3159 101.581 98.8528 100.213 94.6317C98.238 88.5317 95.8275 82.5758 93.0053 76.8192L93.7098 76.6032Z" fill="#3C52A4"/>
<path d="M94.202 77.6253C97.7361 75.9268 101.21 74.1015 104.61 72.1474C106.194 71.2373 107.893 70.3661 109.336 69.2383C110.715 68.1592 111.466 66.657 111.437 64.9069C111.409 63.0832 111.081 61.2406 110.853 59.4351C110.606 57.5042 110.337 55.5775 110.004 53.6577C109.344 49.8173 108.425 46.0058 107.02 42.3658C104.776 36.5588 101.031 31.1134 95.7678 27.6274C93.0134 25.8057 89.929 24.6556 86.6587 24.1828C82.9421 23.6445 79.1048 23.7855 75.3585 23.9189C67.5493 24.1978 59.7511 25.1181 52.1553 26.9939C48.3797 27.9277 44.6501 29.0874 41.0266 30.4989C37.7352 31.7808 34.486 33.2433 31.4889 35.1239C28.5251 36.9846 25.8219 39.2342 23.7256 42.0483C21.7333 44.724 20.3301 47.8158 19.3719 50.9917C17.2622 58.0038 16.8475 65.5929 17.3665 72.855C17.8676 79.9182 19.3074 87.7427 25.2158 92.3836C27.9027 94.4933 31.2437 95.3529 34.631 95.3035C36.3822 95.2774 38.1996 95.1335 39.9167 94.7691C39.7476 94.8046 39.8545 94.7575 39.9679 94.7459C40.1268 94.7306 40.2898 94.7376 40.4459 94.7321C40.8963 94.7186 41.3467 94.7052 41.7971 94.6918C42.4634 94.6711 43.1304 94.6548 43.7967 94.6341C43.4589 94.3283 43.1203 94.0179 42.778 93.7129C43.0438 97.1889 42.9275 100.647 43.719 104.092C43.96 105.132 44.236 106.161 44.5262 107.193C44.8835 108.465 45.1693 109.851 45.8758 110.985C47.2635 113.218 49.8025 113.659 52.259 113.674C53.8687 113.683 55.5882 113.686 56.967 112.735C58.1076 111.947 58.854 110.52 58.5085 109.135C58.2528 108.116 56.6821 107.815 56.3223 108.956C55.8211 110.537 56.8699 112.178 58.4361 112.632C60.1495 113.132 61.9385 112.377 63.5677 111.887C65.3726 111.345 67.1868 110.83 68.9875 110.266C70.281 109.86 72.1521 108.493 71.1428 106.94C70.518 105.975 69.2286 106.201 68.9876 107.334C68.7884 108.267 69.2749 109.184 69.9859 109.762C70.7143 110.359 71.6509 110.528 72.5728 110.415C73.6439 110.283 74.6744 109.778 75.6691 109.38C76.6683 108.981 77.6719 108.582 78.6711 108.183C80.2044 107.572 81.7776 106.977 82.9995 105.825C84.2088 104.68 84.8023 103.225 84.2032 101.616C83.8662 100.708 82.3825 100.832 82.1109 101.723C81.6207 103.338 82.5081 104.931 83.9718 105.684C85.599 106.522 87.4693 106.06 89.1506 105.652C91.0888 105.182 93.027 104.713 94.9651 104.244C95.8631 104.025 96.7627 103.814 97.648 103.551C98.4411 103.314 99.3114 103.096 100.037 102.692C100.955 102.179 101.799 101.235 102.243 100.276C102.581 99.5476 102.557 98.7295 102.396 97.9546C102.107 96.5508 101.589 95.1842 101.142 93.8231C100.543 91.9887 99.905 90.1662 99.2282 88.3599C97.6941 84.2657 95.9572 80.2499 94.0378 76.3226C93.8622 76.8281 93.6857 77.329 93.5057 77.8353C93.7349 77.775 93.9707 77.6997 94.202 77.6253C94.7865 77.4357 94.9731 76.6112 94.7341 76.1126C94.4374 75.5006 93.8036 75.3958 93.2146 75.5863C92.9789 75.6615 92.7476 75.736 92.5126 75.8157C91.9281 76.0053 91.7423 76.8342 91.9805 77.3283C94.9779 83.4618 97.4965 89.807 99.5631 96.3083C99.8444 97.1897 100.163 98.0965 100.244 99.0236C100.213 98.6755 100.229 99.0632 100.225 99.1466C100.223 99.2113 100.202 99.2748 100.196 99.3403C100.235 99.0208 100.237 99.2088 100.192 99.295C100.165 99.3505 100.145 99.414 100.122 99.4686C100.041 99.6811 100.267 99.2492 100.131 99.4395C100.046 99.5561 99.9716 99.68 99.8858 99.7922C99.7736 99.9368 99.657 100.082 99.5342 100.22C99.4423 100.324 99.3399 100.42 99.2366 100.513C99.244 100.502 98.9285 100.748 99.0891 100.641C98.5436 100.993 97.8391 101.159 97.2261 101.345C95.5647 101.837 93.8575 102.204 92.1754 102.608C90.3965 103.039 88.5913 103.603 86.7755 103.857C86.1356 103.947 85.4178 103.963 84.8544 103.611C84.4682 103.369 84.1101 102.902 84.2312 102.503C83.5353 102.538 82.8349 102.574 82.139 102.609C82.1764 102.713 82.1999 102.842 82.1796 103.034C82.1642 103.152 82.139 103.267 82.0365 103.464C81.9008 103.733 81.5357 104.112 81.2309 104.365C80.3089 105.136 79.189 105.557 78.0813 105.994C76.5651 106.597 75.0505 107.209 73.5334 107.808C72.9903 108.023 72.3103 108.321 71.7208 108.181C71.5416 108.136 71.3855 108.04 71.2713 107.896C71.2887 107.915 71.1834 107.719 71.207 107.797C71.2221 107.854 71.2269 107.578 71.2339 107.539C70.5139 107.671 69.7985 107.802 69.0786 107.934C69.2904 108.258 69.0571 107.639 69.1449 107.664C69.1591 107.666 68.8672 107.889 68.8087 107.923C68.353 108.186 67.7888 108.284 67.2888 108.431C65.9787 108.822 64.6685 109.213 63.3584 109.604C62.2238 109.945 60.9987 110.472 59.8048 110.539C59.3015 110.567 58.2735 110.277 58.4455 109.726C57.7182 109.666 56.9865 109.607 56.2593 109.547C56.4593 110.337 55.7764 110.949 55.0662 111.185C54.0431 111.528 52.8492 111.443 51.7891 111.407C50.859 111.375 49.8903 111.308 49.0326 110.914C48.1343 110.499 47.6696 109.702 47.3477 108.8C46.6839 106.964 46.2161 104.986 45.8165 103.079C45.5673 101.893 45.4279 100.7 45.36 99.495C45.332 99.013 45.3344 99.0264 45.3174 98.5792C45.2958 98.0822 45.2743 97.5853 45.2491 97.0936C45.1885 95.8272 45.1056 94.5648 45.0093 93.305C44.9743 92.861 44.4499 92.3687 43.9906 92.3838C42.6618 92.4199 41.3313 92.4472 40.0049 92.4967C39.2334 92.5228 38.4562 92.7201 37.6932 92.8182C36.9033 92.9213 36.105 93.0029 35.3066 93.034C33.7375 93.0957 32.114 93.0111 30.5961 92.5947C23.9853 90.7842 21.1749 83.9042 20.192 77.77C19.0624 70.7068 19.1641 63.3266 20.4312 56.2802C21.5597 50.0173 24.0227 44.0021 28.9487 39.7562C31.4198 37.6272 34.2531 35.9879 37.1953 34.5907C40.4359 33.0562 43.8086 31.7641 47.2318 30.6971C54.3487 28.4769 61.7331 27.1636 69.1537 26.5284C72.8435 26.2123 76.5426 26.0736 80.2446 26.0769C83.6417 26.0808 87.1005 26.2204 90.322 27.3869C95.7207 29.3408 99.9539 33.6906 102.735 38.5908C106.251 44.7811 107.563 51.903 108.485 58.8708C108.722 60.6702 108.988 62.4781 109.143 64.2878C109.201 64.9618 109.203 65.7014 108.91 66.3248C108.644 66.8926 108.147 67.3097 107.65 67.6718C106.248 68.7 104.651 69.516 103.144 70.375C101.487 71.3212 99.8149 72.2336 98.128 73.1164C96.504 73.9647 94.8654 74.7836 93.213 75.5774C91.8984 76.2221 92.8805 78.2575 94.202 77.6253Z" fill="white"/>
<path d="M35.3278 48.2631C34.7205 47.1656 33.1457 46.7412 32.0604 47.3762C30.975 48.0112 30.5791 49.5862 31.2449 50.6501C30.1388 50.9442 29.012 51.2513 28.0543 51.8767C27.0966 52.5021 26.3202 53.5126 26.2787 54.6506C26.2372 55.7886 27.1319 56.9669 28.2754 56.9784C27.1226 57.9014 25.9019 58.9334 25.5628 60.3648C25.2238 61.7961 26.3453 63.6084 27.7977 63.3383C26.7054 64.4662 25.6274 65.7983 25.59 67.363C25.5526 68.9276 27.1456 70.5388 28.6029 69.9415C27.7928 70.6411 26.959 71.3633 26.4468 72.3025C25.9302 73.2425 25.792 74.4579 26.3716 75.3537C27.1179 76.5039 28.6919 76.7217 30.0699 76.8282C29.0699 77.93 29.0049 79.7479 29.9203 80.9131C30.8357 82.0784 32.6279 82.4538 33.9417 81.7541C33.4844 83.1198 34.3092 84.7749 35.6827 85.2361C37.0518 85.698 38.7233 84.8824 39.2002 83.5223C39.7794 85.0477 41.4521 86.0837 43.0871 85.9273C44.722 85.7708 46.1699 84.44 46.4586 82.834C47.5252 84.4725 49.8804 85.1218 51.6471 84.2704C53.4137 83.419 54.3617 81.1732 53.7329 79.326C55.1133 79.092 56.6117 78.7951 57.5324 77.7398C58.4531 76.6846 58.2255 74.6308 56.858 74.3294C58.0767 73.7665 59.2344 72.8196 59.508 71.5105C59.7771 70.2022 58.7243 68.6393 57.393 68.8137C58.1195 68.1617 58.8853 67.4472 59.0902 66.4953C59.3 65.5195 58.8544 64.4981 58.1719 63.7728C57.4894 63.0474 56.5915 62.5591 55.7102 62.086C57.0492 61.2714 57.7484 59.5353 57.3338 58.0257C56.92 56.5206 55.4355 55.3766 53.8697 55.355C54.79 53.8679 55.1514 51.927 54.3587 50.3716C53.5661 48.8163 51.4133 47.96 49.9348 48.8966C49.8889 47.1036 48.5422 45.4244 46.7939 44.9858C45.0455 44.5473 43.0545 45.3846 42.1517 46.942C41.8265 45.315 40.0521 44.1276 38.4135 44.4409C36.7713 44.7595 35.0339 46.6304 35.3278 48.2631Z" fill="#F7DC42"/>
<path d="M36.3508 47.7681C35.3894 46.1747 33.2716 45.4084 31.5639 46.3548C29.9192 47.2666 29.2814 49.5155 30.2163 51.1413C30.4887 50.609 30.7647 50.0714 31.037 49.5391C28.7907 50.1428 26.3424 50.981 25.4131 53.3291C24.6099 55.3554 25.8375 57.9754 28.176 58.1039C27.963 57.4444 27.7492 56.7804 27.5362 56.1208C26.0017 57.3572 24.2773 58.9454 24.3822 61.086C24.4736 62.9763 25.9972 64.738 28.0061 64.4535C27.6923 63.7986 27.3776 63.1392 27.0638 62.4843C25.6264 63.9741 24.0309 65.989 24.5516 68.2052C25.0292 70.2363 27.0328 71.7173 29.1027 70.9575C28.693 70.3339 28.2824 69.7059 27.8682 69.0831C26.1764 70.5459 24.2857 72.5642 24.9995 75.0024C25.6511 77.2269 27.9072 77.7886 29.9705 77.9537C29.6921 77.3658 29.4128 76.7735 29.1389 76.1849C27.832 77.7059 27.8336 80.0905 29.0612 81.6491C30.301 83.2238 32.6664 83.6506 34.4371 82.7709C33.9176 82.3052 33.3973 81.8351 32.8778 81.3695C32.2932 83.3282 33.2859 85.6236 35.2948 86.2995C37.2841 86.9697 39.5256 85.8339 40.2691 83.9104C39.5731 83.9457 38.8728 83.9818 38.1768 84.0172C38.9817 85.993 41.0922 87.2247 43.2088 87.0491C45.4433 86.8612 47.1547 85.0502 47.5868 82.9401C46.9234 83.1533 46.2556 83.3673 45.5921 83.5805C46.9677 85.5945 49.8534 86.3398 52.0668 85.3286C54.3225 84.2958 55.5871 81.4821 54.8469 79.1268C54.5432 79.5637 54.2359 80.0059 53.9323 80.4428C55.8546 80.1143 58.1505 79.5292 58.9594 77.534C59.594 75.975 59.0395 73.7512 57.2428 73.2755C57.277 73.9677 57.3119 74.6644 57.3461 75.3567C59.0127 74.5649 60.7107 73.0597 60.6745 71.0673C60.6404 69.162 59.1518 67.5408 57.1868 67.7117C57.5006 68.3666 57.8152 69.0259 58.129 69.6808C59.4859 68.4586 60.6839 66.9483 60.1368 65.0172C59.5969 63.1261 58.0015 62.0576 56.3556 61.1684C56.3031 61.8167 56.2515 62.4695 56.2035 63.117C57.9409 62.0044 59.0023 59.8987 58.4539 57.8346C57.9206 55.8274 56.0646 54.3195 53.9711 54.2427C54.2496 54.8305 54.5288 55.4228 54.8028 56.0114C56.0243 53.973 56.4548 51.2979 54.9878 49.2639C53.7923 47.603 51.272 46.8093 49.4416 47.893C49.9761 48.1629 50.5159 48.4364 51.0505 48.7063C50.9493 46.5099 49.2502 44.4447 47.1022 43.9184C44.8726 43.3748 42.4157 44.3432 41.2141 46.3137C41.897 46.46 42.5844 46.6054 43.2673 46.7517C42.745 44.476 40.3499 42.8001 37.9959 43.3959C35.8138 43.9465 33.8716 46.1627 34.2114 48.4763C34.424 49.9171 36.6589 49.5039 36.4471 48.0675C36.2975 47.0472 37.4548 45.9211 38.4024 45.6192C39.4987 45.2717 40.7755 46.063 41.0316 47.1605C41.236 48.0513 42.5441 48.4831 43.0848 47.5984C43.7742 46.466 45.1478 45.7646 46.4819 46.0859C47.8843 46.4269 48.7518 47.7342 48.8192 49.1142C48.8513 49.8206 49.8489 50.2724 50.4281 49.9275C51.3623 49.3753 52.648 49.7606 53.2655 50.7368C54.0252 51.9351 53.6162 53.5907 52.9366 54.7259C52.5215 55.413 52.8605 56.4584 53.7682 56.4947C54.8434 56.5371 55.8776 57.1889 56.2182 58.2433C56.5369 59.2282 56.106 60.5109 55.2161 61.078C54.5877 61.4824 54.2235 62.5737 55.0641 63.0266C56.1096 63.5891 57.41 64.2061 57.8787 65.3795C58.3173 66.4895 57.4128 67.2798 56.6555 67.9651C55.7705 68.761 56.5104 70.0273 57.5977 69.9342C57.5656 69.9355 57.7807 69.9743 57.7648 69.9634C57.962 70.056 58.0599 70.1622 58.1876 70.3548C58.3518 70.5959 58.4587 70.9532 58.3993 71.2857C58.216 72.2796 57.2099 72.9185 56.364 73.3213C55.5351 73.7164 55.4957 75.1435 56.4672 75.4025C56.4717 75.4016 56.8091 75.5284 56.6562 75.4506C56.8347 75.5421 56.6623 75.4081 56.7879 75.5644C56.692 75.4441 56.8623 75.6933 56.8725 75.7236C56.9583 75.9147 56.8867 75.675 56.9237 75.9026C56.9761 76.2147 56.9428 76.5884 56.7867 76.8467C56.1778 77.8633 54.579 78.0407 53.5303 78.2187C52.9795 78.3148 52.4307 78.9527 52.6156 79.5347C53.0656 80.9597 52.5136 82.6414 51.0847 83.2932C49.7242 83.9142 48.1254 83.2828 47.3234 82.106C47.0767 81.7421 46.4954 81.6462 46.1133 81.7804C45.6523 81.9382 45.4251 82.2876 45.3287 82.7464C45.1052 83.8488 44.0031 84.7717 42.8808 84.8252C41.6942 84.8813 40.6589 84.0964 40.2301 83.0398C39.8516 82.1072 38.4703 82.2862 38.1378 83.1466C37.8313 83.9471 36.8797 84.4289 36.0765 84.1806C35.2529 83.9222 34.7867 82.9137 35.0159 82.1458C35.2887 81.2366 34.3838 80.2808 33.4566 80.7444C32.5761 81.1857 31.4054 80.9999 30.7941 80.1834C30.1758 79.3544 30.3713 78.225 31.0156 77.4777C31.5872 76.8126 30.9718 75.7717 30.184 75.7089C29.2181 75.6327 27.5352 75.5774 27.2015 74.4344C26.7617 72.9387 28.3836 71.6496 29.3568 70.8053C30.3779 69.9202 29.2914 68.5013 28.1223 68.931C27.9536 68.994 27.6024 68.8928 27.3609 68.6842C26.9894 68.3707 26.7544 67.8944 26.7345 67.4569C26.676 66.2269 27.7398 65.0444 28.5516 64.2021C29.3162 63.4052 28.7853 62.0685 27.6093 62.233C27.4065 62.2609 27.5829 62.2654 27.4008 62.2297C27.5642 62.2642 27.239 62.1536 27.3671 62.2221C27.1675 62.1162 27.0683 62.0286 26.9224 61.8117C26.7146 61.5097 26.596 61.0626 26.6716 60.6674C26.9069 59.4526 28.1224 58.5686 29.0293 57.8422C29.7825 57.2358 29.3602 55.9115 28.3895 55.8592C27.3484 55.8013 27.2712 54.5196 27.7245 53.7888C28.5062 52.5292 30.1151 52.1294 31.4586 51.7689C32.1195 51.5929 32.6728 50.853 32.2793 50.1667C31.9679 49.6263 31.9797 48.8062 32.5663 48.4002C33.0545 48.0628 33.9748 48.1933 34.3195 48.7644C34.6366 49.2854 35.2483 49.5734 35.839 49.2908C36.3365 49.0298 36.6686 48.2936 36.3508 47.7681Z" fill="white"/>
<path d="M75.0768 38.1515C74.4695 37.054 72.8948 36.6296 71.8094 37.2646C70.7241 37.8996 70.3281 39.4746 70.9939 40.5385C69.8879 40.8326 68.761 41.1397 67.8033 41.7651C66.8456 42.3906 66.0692 43.401 66.0277 44.5391C65.9863 45.6771 66.881 46.8553 68.0244 46.8668C66.8716 47.7899 65.6509 48.8218 65.3118 50.2532C64.9728 51.6846 66.0943 53.4968 67.5467 53.2267C66.4545 54.3546 65.3764 55.6868 65.339 57.2514C65.3016 58.816 66.8947 60.4272 68.3519 59.8299C67.5418 60.5295 66.7081 61.2517 66.1959 62.1909C65.6792 63.1309 65.541 64.3463 66.1206 65.2421C66.867 66.3924 68.4409 66.6101 69.8189 66.7166C68.8189 67.8185 68.7539 69.6363 69.6693 70.8016C70.5847 71.9668 72.377 72.3422 73.6908 71.6425C73.2334 73.0082 74.0582 74.6634 75.4318 75.1245C76.8008 75.5865 78.4724 74.7708 78.9492 73.4107C79.5284 74.9362 81.2011 75.9722 82.8361 75.8157C84.471 75.6593 85.919 74.3284 86.2076 72.7225C87.2742 74.361 89.6295 75.0103 91.3961 74.1588C93.1627 73.3074 94.1107 71.0616 93.4819 69.2144C94.8623 68.9804 96.3607 68.6835 97.2814 67.6283C98.2021 66.5731 97.9745 64.5192 96.6071 64.2178C97.8258 63.6549 98.9835 62.708 99.257 61.3989C99.5262 60.0906 98.4733 58.5277 97.1421 58.7022C97.8685 58.0501 98.6343 57.3357 98.8392 56.3838C99.049 55.408 98.6035 54.3866 97.921 53.6612C97.2385 52.9359 96.3405 52.4475 95.4592 51.9745C96.7982 51.1599 97.4974 49.4237 97.0828 47.9141C96.6682 46.4045 95.1845 45.2651 93.6187 45.2434C94.539 43.7563 94.9004 41.8154 94.1077 40.2601C93.3151 38.7047 91.1623 37.8484 89.6838 38.785C89.6379 36.9921 88.2912 35.3129 86.5429 34.8743C84.7945 34.4357 82.8035 35.273 81.9007 36.8304C81.5755 35.2034 79.8011 34.016 78.1626 34.3293C76.5203 34.648 74.7829 36.5188 75.0768 38.1515Z" fill="#F7DC42"/>
<path d="M76.0998 37.6565C75.1384 36.0631 73.0206 35.2969 71.3129 36.2432C69.6682 37.1551 69.0304 39.4039 69.9653 41.0297C70.2377 40.4974 70.5137 39.9599 70.7861 39.4276C68.5398 40.0312 66.0914 40.8694 65.1621 43.2175C64.3589 45.2438 65.5865 47.8639 67.9251 47.9923C67.7121 47.3328 67.4983 46.6688 67.2853 46.0093C65.7507 47.2456 64.0263 48.8338 64.1312 50.9744C64.2226 52.8647 65.7462 54.6265 67.7551 54.3419C67.4413 53.687 67.1267 53.0277 66.8128 52.3728C65.3755 53.8625 63.7799 55.8774 64.3006 58.0936C64.7783 60.1247 66.7819 61.6057 68.8518 60.8459C68.442 60.2223 68.0315 59.5943 67.6172 58.9716C65.9254 60.4343 64.0348 62.4526 64.7485 64.8909C65.4001 67.1153 67.6562 67.6771 69.7196 67.8421C69.4411 67.2542 69.1619 66.662 68.8879 66.0733C67.581 67.5943 67.5826 69.979 68.8102 71.5375C70.05 73.1122 72.4154 73.539 74.1861 72.6593C73.6666 72.1936 73.1463 71.7235 72.6268 71.2579C72.0422 73.2167 73.0349 75.512 75.0438 76.1879C77.0332 76.8581 79.2746 75.7223 80.0181 73.7988C79.3222 73.8341 78.6218 73.8703 77.9259 73.9056C78.7307 75.8814 80.8412 77.1131 82.9578 76.9375C85.1924 76.7496 86.9037 74.9387 87.3359 72.8286C86.6725 73.0417 86.0046 73.2557 85.3412 73.4689C86.7167 75.4829 89.6024 76.2282 91.8158 75.217C94.0715 74.1842 95.3361 71.3705 94.5959 69.0152C94.2923 69.4521 93.9849 69.8943 93.6813 70.3312C95.6036 70.0028 97.8995 69.4176 98.7085 67.4224C99.343 65.8635 98.7886 63.6396 96.9919 63.1639C97.026 63.8562 97.0609 64.5529 97.0951 65.2451C98.7617 64.4533 100.46 62.9481 100.424 60.9558C100.389 59.0504 98.9008 57.4293 96.9358 57.6001C97.2496 58.255 97.5642 58.9144 97.8781 59.5692C99.2349 58.347 100.433 56.8367 99.8858 54.9056C99.346 53.0145 97.7505 51.946 96.1046 51.0568C96.0521 51.7051 96.0005 52.3579 95.9525 53.0054C97.6899 51.8928 98.7513 49.7871 98.203 47.723C97.6696 45.7159 95.8136 44.2079 93.7201 44.1311C93.9986 44.7189 94.2778 45.3112 94.5518 45.8999C95.7734 43.8614 96.2039 41.1864 94.7368 39.1524C93.5413 37.4915 91.0211 36.6977 89.1906 37.7814C89.7251 38.0513 90.265 38.3248 90.7995 38.5947C90.6983 36.3983 88.9992 34.3332 86.8513 33.8068C84.6216 33.2632 82.1648 34.2317 80.9631 36.2021C81.646 36.3484 82.3334 36.4939 83.0163 36.6401C82.494 34.3645 80.099 32.6885 77.7449 33.2843C75.5628 33.8349 73.6206 36.0511 73.9604 38.3647C74.173 39.8055 76.4079 39.3923 76.1961 37.956C76.0465 36.9356 77.2039 35.8095 78.1514 35.5076C79.2477 35.1602 80.5245 35.9515 80.7806 37.0489C80.9851 37.9397 82.2932 38.3715 82.8338 37.4869C83.5232 36.3545 84.8968 35.653 86.2309 35.9743C87.6333 36.3153 88.5008 37.6226 88.5682 39.0026C88.6004 39.709 89.5979 40.1608 90.1772 39.8159C91.1113 39.2638 92.397 39.6491 93.0145 40.6252C93.7742 41.8236 93.3653 43.4791 92.6856 44.6143C92.2706 45.3014 92.6096 46.3469 93.5173 46.3831C94.5925 46.4255 95.6266 47.0774 95.9672 48.1317C96.2859 49.1166 95.855 50.3993 94.9652 50.9664C94.3367 51.3708 93.9725 52.4621 94.8131 52.915C95.8586 53.4775 97.159 54.0945 97.6277 55.2679C98.0663 56.3779 97.1618 57.1682 96.4045 57.8535C95.5196 58.6494 96.2594 59.9157 97.3468 59.8226C97.3146 59.8239 97.5297 59.8627 97.5138 59.8518C97.711 59.9444 97.8089 60.0506 97.9366 60.2432C98.1008 60.4843 98.2077 60.8416 98.1484 61.1741C97.965 62.1681 96.9589 62.8069 96.113 63.2097C95.2842 63.6048 95.2447 65.032 96.2162 65.2909C96.2207 65.2901 96.5581 65.4168 96.4053 65.339C96.5837 65.4305 96.4114 65.2966 96.537 65.4528C96.441 65.3325 96.6114 65.5817 96.6215 65.612C96.7073 65.8031 96.6357 65.5634 96.6727 65.791C96.7252 66.1031 96.6918 66.4768 96.5357 66.7351C95.9268 67.7517 94.328 67.9291 93.2793 68.1071C92.7285 68.2032 92.1797 68.8412 92.3647 69.4231C92.8146 70.8481 92.2626 72.5298 90.8337 73.1816C89.4732 73.8026 87.8745 73.1712 87.0725 71.9944C86.8257 71.6305 86.2444 71.5346 85.8623 71.6688C85.4013 71.8266 85.1741 72.176 85.0778 72.6348C84.8542 73.7372 83.7522 74.6601 82.6298 74.7137C81.4433 74.7698 80.4079 73.9849 79.9791 72.9282C79.6006 71.9956 78.2194 72.1746 77.8868 73.035C77.5803 73.8355 76.6287 74.3174 75.8255 74.069C75.0019 73.8106 74.5357 72.8022 74.765 72.0342C75.0377 71.125 74.1329 70.1692 73.2056 70.6328C72.3252 71.0741 71.1545 70.8883 70.5431 70.0719C69.9248 69.2429 70.1204 68.1134 70.7647 67.3661C71.3362 66.701 70.7208 65.6601 69.933 65.5973C68.9672 65.5212 67.2843 65.4658 66.9505 64.3229C66.5107 62.8271 68.1327 61.538 69.1058 60.6938C70.1269 59.8086 69.0404 58.3897 67.8713 58.8194C67.7026 58.8824 67.3514 58.7812 67.1099 58.5726C66.7384 58.2591 66.5035 57.7828 66.4835 57.3453C66.425 56.1153 67.4888 54.9328 68.3006 54.0905C69.0652 53.2936 68.5344 51.9569 67.3584 52.1214C67.1555 52.1493 67.3319 52.1538 67.1498 52.1182C67.3132 52.1526 66.988 52.042 67.1161 52.1105C66.9165 52.0046 66.8173 51.917 66.6714 51.7002C66.4637 51.3981 66.345 50.9511 66.4206 50.5558C66.656 49.341 67.8714 48.4571 68.7783 47.7306C69.5315 47.1242 69.1092 45.7999 68.1385 45.7476C67.0975 45.6898 67.0202 44.408 67.4735 43.6772C68.2552 42.4177 69.8641 42.0178 71.2076 41.6573C71.8685 41.4813 72.4218 40.7414 72.0283 40.0552C71.7169 39.5147 71.7287 38.6946 72.3153 38.2887C72.8035 37.9513 73.7238 38.0817 74.0685 38.6528C74.3856 39.1739 74.9974 39.4618 75.588 39.1792C76.0856 38.9182 76.4177 38.182 76.0998 37.6565Z" fill="white"/>
<path d="M63.9115 86.7015C63.738 84.7665 64.092 82.7855 64.9201 81.0212C65.1868 80.4577 65.5103 79.9023 65.9916 79.5018C67.1859 78.5023 69.0591 78.7388 70.3395 79.626C71.62 80.5131 72.4407 81.8933 73.2256 83.2295C73.4618 83.6366 73.7093 84.106 73.5703 84.5588C73.4862 84.8315 73.2675 85.0507 73.0301 85.2182C72.5524 85.5629 71.9703 85.7658 71.3842 85.7948C70.6793 85.8318 69.9708 85.6213 69.2683 85.7221C68.3407 85.855 67.5858 86.5031 66.77 86.9693C65.9533 87.4311 64.8558 87.6961 64.1318 87.0978L63.9115 86.7015Z" fill="#DA5C26"/>
<path d="M65.0295 86.497C64.8917 84.8082 65.2222 83.1026 65.9197 81.5598C66.2027 80.9336 66.5706 80.3425 67.1998 80.0942C67.6701 79.9117 68.3059 79.9517 68.8677 80.1431C70.3119 80.6373 71.2123 82.0489 71.9595 83.3046C72.1403 83.6116 72.4131 83.9661 72.4802 84.3077C72.4432 84.1307 72.6338 84.1372 72.4086 84.2702C72.2456 84.3644 72.1038 84.473 71.9225 84.5429C71.0834 84.8572 70.1144 84.5105 69.242 84.5918C68.1607 84.693 67.3213 85.3336 66.4205 85.8659C66.099 86.0533 65.777 86.2133 65.4835 86.2761C65.2608 86.3215 65.1982 86.3329 65.0596 86.3077C64.897 86.2777 64.9246 86.2772 64.7803 86.1704C64.9043 86.3177 65.0327 86.4643 65.1559 86.6072C65.0807 86.4739 65.0108 86.3442 64.9356 86.2109C64.6392 85.6769 63.9941 85.4088 63.4161 85.6845C62.8893 85.9371 62.5868 86.6587 62.884 87.1971C63.0767 87.5433 63.2482 87.875 63.5872 88.1117C64.1307 88.4811 64.7713 88.5983 65.4156 88.5586C66.5713 88.4852 67.4347 87.8494 68.394 87.2835C68.803 87.0433 69.207 86.8269 69.6875 86.8264C70.3838 86.8186 71.0558 86.9806 71.7562 86.8939C73.0131 86.7423 74.5826 85.8993 74.7257 84.5083C74.848 83.3326 73.9289 82.1726 73.3196 81.2408C72.6806 80.2732 71.9461 79.3643 70.979 78.7002C69.0555 77.3792 66.3055 77.3259 64.7198 79.192C63.906 80.1496 63.4235 81.4785 63.1214 82.6825C62.7722 84.0836 62.671 85.4761 62.7856 86.9118C62.8372 87.5228 63.5433 87.9221 64.1067 87.8191C64.7677 87.6937 65.0766 87.1088 65.0295 86.497Z" fill="white"/>
<path d="M80.2284 40.9272C77.9849 41.5212 75.6028 42.191 74.0447 43.905C72.8866 45.1782 72.3305 46.8883 72.0439 48.5812C71.1768 53.6704 72.4767 58.8598 74.0023 63.7919C74.397 65.0661 74.8311 66.3791 75.7246 67.3738C76.8672 68.6446 78.6399 69.2166 80.3501 69.244C82.0647 69.2705 83.7496 68.8063 85.3821 68.2826C88.302 67.3444 91.406 65.9728 92.7621 63.2296C94.097 60.5225 93.3284 57.3039 92.5158 54.4012C91.559 50.9872 90.5627 47.5345 88.7518 44.4788C88.1839 43.5212 87.5193 42.5903 86.5961 41.9641C84.5681 40.6025 83.019 40.3435 80.617 40.8286L80.2284 40.9272Z" fill="#0AA54A"/>
<path d="M80.0247 39.8155C77.2833 40.5419 74.402 41.4133 72.665 43.8171C70.972 46.1577 70.6008 49.3596 70.6369 52.1607C70.6759 55.3059 71.2857 58.3881 72.1246 61.4101C72.8848 64.1523 73.5294 67.5269 76.1139 69.1774C78.7285 70.8408 81.9284 70.4993 84.7682 69.6538C87.297 68.902 89.9503 67.9712 91.9254 66.1626C94.0701 64.1943 94.801 61.5195 94.5657 58.6905C94.4539 57.3461 94.134 56.026 93.7816 54.7303C93.3698 53.211 92.9304 51.6922 92.4443 50.1957C91.8963 48.5129 91.2785 46.8521 90.4773 45.2753C89.7277 43.804 88.8574 42.3042 87.5396 41.2631C86.4433 40.3974 85.0876 39.7814 83.7079 39.5649C82.4885 39.3651 81.2169 39.5378 80.0247 39.8155C78.606 40.1438 79.0035 42.3688 80.4312 42.0388C82.2884 41.6074 83.9299 41.6381 85.5725 42.6612C86.6367 43.326 87.3261 44.2661 87.9383 45.3397C88.6212 46.5475 89.1915 47.8218 89.6777 49.1161C90.6093 51.5835 91.3686 54.1696 91.9454 56.7432C92.4279 58.9021 92.7056 61.3558 91.4125 63.3062C90.2035 65.1356 88.0877 66.1244 86.0869 66.8578C83.8215 67.6855 81.1045 68.5958 78.6997 67.8775C77.6781 67.5726 76.7733 67.0211 76.1794 66.1233C75.4884 65.0733 75.1697 63.7851 74.8189 62.5994C74.0258 59.955 73.3397 57.2636 73.0397 54.5107C72.7365 51.74 72.7544 48.5522 73.9995 45.9856C75.2069 43.4902 77.9414 42.7008 80.4312 42.0388C81.0259 41.8795 81.462 41.3587 81.3458 40.7228C81.2425 40.1581 80.6194 39.6562 80.0247 39.8155Z" fill="white"/>
<path d="M40.4803 51.0388C38.2369 51.6327 35.8548 52.3026 34.2967 54.0166C33.1386 55.2898 32.5825 56.9998 32.2959 58.6927C31.4288 63.782 32.7287 68.9713 34.2542 73.9035C34.6489 75.1777 35.0831 76.4907 35.9765 77.4854C37.1192 78.7562 38.8919 79.3281 40.602 79.3555C42.3166 79.3821 44.0016 78.9178 45.6341 78.3942C48.5539 77.456 51.658 76.0843 53.0141 73.3412C54.349 70.634 53.5804 67.4154 52.7678 64.5127C51.8109 61.0988 50.8146 57.6461 49.0037 54.5904C48.4359 53.6327 47.7712 52.7019 46.8481 52.0757C44.8201 50.7141 43.2709 50.455 40.8689 50.9401L40.4803 51.0388Z" fill="#0AA74B"/>
<path d="M40.2766 49.9271C37.5352 50.6534 34.654 51.5248 32.917 53.9287C31.2239 56.2693 30.8527 59.4711 30.8889 62.2722C30.9279 65.4175 31.5376 68.4997 32.3766 71.5216C33.1367 74.2639 33.7814 77.6384 36.3659 79.289C38.9804 80.9523 42.1804 80.6109 45.0202 79.7654C47.549 79.0136 50.2022 78.0828 52.1774 76.2742C54.3221 74.3059 55.053 71.6311 54.8177 68.802C54.7059 67.4577 54.386 66.1376 54.0336 64.8418C53.6218 63.3225 53.1824 61.8037 52.6962 60.3072C52.1483 58.6245 51.5304 56.9636 50.7292 55.3869C49.9797 53.9156 49.1094 52.4158 47.7915 51.3747C46.6952 50.509 45.3395 49.8929 43.9599 49.6764C42.7404 49.4766 41.4689 49.6494 40.2766 49.9271C38.858 50.2554 39.2555 52.4803 40.6831 52.1504C42.5404 51.7189 44.1818 51.7497 45.8245 52.7728C46.8887 53.4376 47.5781 54.3776 48.1903 55.4513C48.8732 56.6591 49.4435 57.9334 49.9296 59.2277C50.8613 61.695 51.6206 64.2812 52.1974 66.8548C52.6799 69.0137 52.9575 71.4673 51.6644 73.4178C50.4555 75.2471 48.3397 76.2359 46.3389 76.9694C44.0735 77.7971 41.3564 78.7074 38.9516 77.9891C37.9301 77.6841 37.0252 77.1327 36.4313 76.2349C35.7403 75.1849 35.4216 73.8967 35.0708 72.7109C34.2778 70.0666 33.5916 67.3751 33.2917 64.6223C32.9885 61.8516 33.0064 58.6638 34.2515 56.0972C35.4588 53.6018 38.1933 52.8124 40.6831 52.1504C41.2778 51.9911 41.714 51.4702 41.5977 50.8344C41.4945 50.2696 40.8713 49.7678 40.2766 49.9271Z" fill="white"/>
<path d="M53.1418 97.3465C53.6324 99.0949 54.0084 100.873 54.2674 102.669C54.3515 103.255 55.0076 103.71 55.5885 103.576C56.2096 103.435 56.5945 102.887 56.5031 102.26C56.2442 100.465 55.8726 98.6853 55.3775 96.9377C55.2182 96.3695 54.6955 95.8861 54.0564 96.0305C53.4979 96.1601 52.9699 96.7346 53.1418 97.3465Z" fill="white"/>
<path d="M64.5085 96.6606C64.8735 98.4044 65.2386 100.148 65.6036 101.892C65.7235 102.472 66.317 102.938 66.9247 102.799C67.5145 102.664 67.971 102.103 67.8393 101.483C67.4743 99.7395 67.1093 97.9957 66.7443 96.2519C66.6243 95.6718 66.0309 95.2059 65.4232 95.3446C64.8333 95.48 64.3768 96.0413 64.5085 96.6606Z" fill="white"/>
<path d="M75.8618 94.8882C76.2528 96.0161 76.6394 97.1448 77.0296 98.2682C77.117 98.5188 77.4276 98.7515 77.6649 98.8367C77.9316 98.9304 78.2962 98.9281 78.5483 98.7901C78.8003 98.6522 79.034 98.4394 79.121 98.157C79.2174 97.8498 79.1828 97.585 79.0759 97.2783C78.6849 96.1504 78.2983 95.0218 77.9081 93.8983C77.8207 93.6478 77.5101 93.4151 77.2727 93.3298C77.0061 93.2361 76.6414 93.2384 76.3894 93.3764C76.1374 93.5144 75.9036 93.7271 75.8166 94.0096C75.7211 94.3211 75.7557 94.5859 75.8618 94.8882Z" fill="white"/>
<path d="M85.2614 91.5338C86.0065 92.8038 86.7569 94.0773 87.502 95.3473C87.8032 95.8574 88.4483 96.176 89.0214 95.8736C89.5263 95.6021 89.871 94.9095 89.5535 94.361C88.8085 93.0911 88.0581 91.8175 87.313 90.5476C87.0118 90.0374 86.3667 89.7188 85.7935 90.0212C85.2842 90.2935 84.9394 90.9861 85.2614 91.5338Z" fill="white"/>
<path d="M70.3424 190.22C70.6465 190.619 70.9469 191.024 71.2509 191.423C71.346 191.539 71.4595 191.629 71.594 191.682C71.7192 191.76 71.8566 191.804 72.0107 191.813C72.1663 191.83 72.3155 191.812 72.4611 191.749C72.607 191.713 72.7383 191.647 72.8525 191.539C73.0619 191.345 73.2298 191.075 73.2456 190.783C73.2411 190.682 73.2367 190.582 73.2322 190.482C73.1956 190.282 73.1078 190.105 72.9777 189.949C72.6737 189.55 72.3733 189.145 72.0692 188.746C71.9741 188.63 71.8607 188.541 71.7261 188.487C71.6009 188.409 71.4635 188.365 71.3095 188.357C71.1538 188.339 71.0046 188.357 70.8591 188.42C70.7132 188.456 70.5819 188.522 70.4676 188.63C70.2583 188.824 70.0904 189.094 70.0745 189.386C70.079 189.487 70.0835 189.587 70.088 189.687C70.1245 189.887 70.2079 190.065 70.3424 190.22Z" fill="white"/>
<path d="M78.6764 186.541C78.9691 187.232 79.2609 187.918 79.5581 188.608C79.665 188.865 79.9365 189.086 80.1934 189.177C80.4601 189.271 80.8247 189.268 81.0767 189.13C81.3288 188.992 81.5625 188.78 81.6495 188.497C81.743 188.2 81.7267 187.909 81.6044 187.619C81.3117 186.928 81.0198 186.241 80.7227 185.551C80.6158 185.295 80.3443 185.073 80.0874 184.982C79.8207 184.889 79.4561 184.891 79.204 185.029C78.952 185.167 78.7183 185.38 78.6313 185.662C78.5378 185.96 78.5488 186.247 78.6764 186.541Z" fill="white"/>
<path d="M93.43 183.706C93.6218 184.755 93.8137 185.805 94.0047 186.85C94.1112 187.432 94.7271 187.894 95.3258 187.757C95.9246 187.62 96.3543 187.063 96.2405 186.441C96.0486 185.391 95.8567 184.342 95.6657 183.297C95.5592 182.715 94.9434 182.253 94.3446 182.39C93.7458 182.527 93.3162 183.083 93.43 183.706Z" fill="white"/>
<path d="M106.575 180.384C106.212 181.534 105.85 182.685 105.486 183.832C105.308 184.397 105.564 185.09 106.167 185.279C106.731 185.456 107.433 185.203 107.623 184.599C107.986 183.448 108.348 182.297 108.712 181.151C108.89 180.585 108.634 179.892 108.031 179.704C107.463 179.527 106.765 179.779 106.575 180.384Z" fill="white"/>
<path d="M11.7763 40.791C11.1161 40.011 9.95598 39.7819 8.96697 40.0592C7.98243 40.3357 7.16415 41.0414 6.55155 41.861C6.11782 42.4458 5.76294 43.1081 5.65399 43.8265C5.43447 45.3049 6.37834 46.828 7.73725 47.4619C9.09616 48.0957 10.7693 47.8955 12.0526 47.1049C11.9985 48.7047 11.9672 50.3785 12.6737 51.8164C13.3802 53.2542 15.0769 54.3455 16.5988 53.8237C18.439 53.1978 18.9008 50.8709 19.0614 48.9437C20.1203 50.4641 22.2378 51.1523 23.9983 50.5455C25.7544 49.9396 26.9975 48.0948 26.891 46.2486C26.7845 44.4023 25.3309 42.7197 23.5175 42.3298C25.4183 40.544 25.1744 36.9858 22.9814 35.5808C20.7883 34.1758 17.3331 35.5474 16.8201 38.0996C16.5169 36.896 16.1921 35.6503 15.4067 34.691C14.6169 33.7325 13.2251 33.1461 12.091 33.6659C10.9406 34.1979 9.95236 35.5917 10.206 36.8274C10.4649 38.0668 11.0104 39.7867 11.7763 40.791Z" fill="#532B78"/>
<path d="M12.6401 40.0542C9.7325 36.8636 4.54191 40.4457 4.49838 44.1252C4.47479 45.9677 5.56215 47.6437 7.21211 48.4541C8.88768 49.2782 10.9641 49.0595 12.5539 48.1255C12.0096 47.7517 11.4706 47.3815 10.9263 47.0077C10.8665 48.8292 10.8344 50.8018 11.7323 52.4528C12.4705 53.8113 13.8489 54.9057 15.4265 55.0676C16.9383 55.2232 18.3578 54.3938 19.1114 53.1072C19.8338 51.8769 20.0793 50.4396 20.2029 49.0431C19.5395 49.2563 18.8716 49.4703 18.2082 49.6835C19.2143 51.0665 20.9484 51.9075 22.6602 51.8932C24.4451 51.8748 26.0894 50.986 27.0853 49.508C28.0841 48.0204 28.3 46.1933 27.65 44.5338C27.0333 42.9555 25.572 41.6603 23.9111 41.27C24.0281 41.9103 24.1452 42.5507 24.2622 43.191C26.1297 41.3745 26.4891 38.3356 25.0757 36.1402C23.6087 33.8534 20.5791 33.2814 18.238 34.6055C16.9019 35.3599 16.0222 36.5133 15.6893 38.0033C16.4405 37.967 17.1872 37.9316 17.9384 37.8954C17.5145 36.2083 17.0027 34.4454 15.5922 33.3017C14.28 32.2411 12.4849 32.0271 11.0545 32.9733C9.71057 33.8623 8.78334 35.4885 9.10852 37.1156C9.41907 38.6625 9.97311 40.2523 10.9097 41.5332C11.2727 42.0274 12.0722 42.0283 12.5121 41.6538C13.0109 41.2225 12.9987 40.5493 12.6401 40.0542C12.0491 39.2478 11.7207 38.2096 11.4764 37.2525C11.363 36.8091 11.2443 36.4126 11.4028 35.9655C11.552 35.543 11.8589 35.1744 12.2174 34.9113C12.9093 34.3988 13.7129 34.6241 14.3219 35.1744C15.171 35.952 15.4434 37.2395 15.7116 38.3025C16.0417 39.6023 17.6905 39.4204 17.9608 38.1946C18.3344 36.5225 20.8461 35.6268 22.2859 36.4756C23.9481 37.4538 24.1493 40.1466 22.7834 41.4716C22.2383 42.0032 22.2407 43.1792 23.1346 43.3925C25.2935 43.9031 26.5126 46.2995 25.2191 48.2225C23.9321 50.1305 21.2492 50.0144 19.935 48.2097C19.3477 47.3981 18.0225 47.9344 17.9404 48.8501C17.8204 50.1909 17.5241 53.0436 15.6294 52.8156C14.7461 52.7106 14.0241 51.997 13.6624 51.2314C13.0799 49.9915 13.1474 48.5408 13.1897 47.2051C13.2169 46.4189 12.3592 45.6199 11.5621 46.0873C10.6234 46.6403 9.50355 46.9094 8.44951 46.5277C7.55847 46.2035 6.8406 45.3605 6.76297 44.4051C6.67152 43.3236 7.55444 42.2385 8.3589 41.6089C9.07109 41.0559 10.2312 40.7795 10.9125 41.5235C11.8909 42.6037 13.623 41.1336 12.6401 40.0542Z" fill="white"/>
<path d="M28.7284 27.1547C28.0683 26.3747 26.9081 26.1457 25.9191 26.423C24.9346 26.6995 24.1163 27.4051 23.5037 28.2248C23.07 28.8096 22.7151 29.4719 22.6061 30.1903C22.3866 31.6687 23.3305 33.1918 24.6894 33.8256C26.0483 34.4595 27.7215 34.2593 29.0048 33.4686C28.9507 35.0685 28.9194 36.7423 29.6259 38.1801C30.3323 39.618 32.029 40.7093 33.551 40.1875C35.3912 39.5616 35.853 37.2347 36.0136 35.3075C37.0725 36.8279 39.1899 37.5161 40.9504 36.9093C42.711 36.3025 43.9496 34.4585 43.8431 32.6123C43.7366 30.7661 42.283 29.0835 40.4696 28.6936C42.3704 26.9077 42.1266 23.3496 39.9335 21.9446C37.7405 20.5396 34.2853 21.9112 33.7722 24.4634C33.469 23.2597 33.1442 22.0141 32.3589 21.0548C31.5735 20.0955 30.1772 19.5098 29.0431 20.0297C27.8927 20.5617 26.9045 21.9555 27.1581 23.1912C27.4215 24.4297 27.9626 26.1505 28.7284 27.1547Z" fill="#ED1E24"/>
<path d="M29.5923 26.418C26.6846 23.2274 21.4941 26.8094 21.4505 30.489C21.4269 32.3314 22.5143 34.0075 24.1643 34.8179C25.8398 35.642 27.9162 35.4232 29.506 34.4892C28.9617 34.1154 28.4227 33.7453 27.8784 33.3715C27.8187 35.1929 27.7865 37.1656 28.6845 38.8165C29.4227 40.175 30.8011 41.2695 32.3787 41.4314C33.8904 41.5869 35.3099 40.7576 36.0636 39.471C36.7859 38.2407 37.0315 36.8034 37.1551 35.4068C36.4917 35.62 35.8238 35.834 35.1604 36.0472C36.1665 37.4303 37.9006 38.2712 39.6123 38.257C41.3972 38.2385 43.0415 37.3497 44.0375 35.8718C45.0362 34.3841 45.2521 32.5571 44.6021 30.8976C43.9855 29.3192 42.5241 28.024 40.8632 27.6338C40.9803 28.2741 41.0973 28.9144 41.2144 29.5547C43.0819 27.7383 43.4412 24.6994 42.0279 22.5039C40.5608 20.2172 37.5312 19.6452 35.1902 20.9693C33.854 21.7236 32.9744 22.8771 32.6414 24.367C33.3926 24.3308 34.1394 24.2954 34.8906 24.2591C34.4666 22.5721 33.9549 20.8091 32.5443 19.6655C31.2322 18.6049 29.4371 18.3908 28.0066 19.3371C26.6627 20.2261 25.7355 21.8523 26.0607 23.4793C26.3712 25.0263 26.9253 26.6161 27.8618 27.8969C28.2248 28.3912 29.0244 28.3921 29.4642 28.0176C29.9675 27.5855 29.9553 26.9122 29.5923 26.418C29.0012 25.6116 28.6728 24.5733 28.4285 23.6162C28.3151 23.1728 28.1964 22.7764 28.3549 22.3292C28.5041 21.9068 28.811 21.5382 29.1696 21.275C29.8614 20.7625 30.6651 20.9878 31.274 21.5382C32.1232 22.3158 32.3955 23.6032 32.6638 24.6662C32.9938 25.9661 34.6426 25.7842 34.9129 24.5583C35.2865 22.8863 37.7983 21.9905 39.2381 22.8394C40.9002 23.8176 41.1014 26.5104 39.7356 27.8354C39.1905 28.367 39.1929 29.5429 40.0868 29.7563C42.2457 30.2669 43.4647 32.6633 42.1712 34.5863C40.8843 36.4942 38.2014 36.3781 36.8872 34.5735C36.2998 33.7618 34.9746 34.2982 34.8925 35.2139C34.7726 36.5547 34.4762 39.4074 32.5815 39.1794C31.6982 39.0743 30.9763 38.3608 30.6145 37.5952C30.032 36.3553 30.0995 34.9046 30.1418 33.5688C30.169 32.7827 29.3113 31.9837 28.5142 32.4511C27.5756 33.0041 26.4557 33.2731 25.4017 32.8914C24.5106 32.5672 23.7928 31.7243 23.7151 30.7689C23.6237 29.6873 24.5066 28.6023 25.311 27.9727C26.0232 27.4197 27.1834 27.1433 27.8647 27.8872C28.8476 28.9666 30.5797 27.4966 29.5923 26.418Z" fill="white"/>
<path d="M51.4276 18.8461C50.7675 18.0662 49.6073 17.8371 48.6183 18.1144C47.6338 18.3909 46.8155 19.0965 46.2029 19.9162C45.7692 20.501 45.4143 21.1633 45.3054 21.8817C45.0858 23.3601 46.0297 24.8832 47.3886 25.5171C48.7475 26.1509 50.4207 25.9507 51.704 25.1601C51.6499 26.7599 51.6186 28.4337 52.3251 29.8715C53.0315 31.3094 54.7283 32.4007 56.2502 31.8789C58.0904 31.253 58.5522 28.9261 58.7128 26.9989C59.7717 28.5193 61.8891 29.2075 63.6497 28.6007C65.4057 27.9947 66.6488 26.1499 66.5423 24.3037C66.4359 22.4575 64.9822 20.7749 63.1689 20.385C65.0697 18.5991 64.8258 15.041 62.6327 13.636C60.4397 12.231 56.9845 13.6026 56.4715 16.1548C56.1682 14.9512 55.8434 13.7055 55.0581 12.7462C54.2683 11.7877 52.8764 11.2013 51.7423 11.7211C50.5919 12.2531 49.6037 13.6469 49.8574 14.8826C50.1163 16.1219 50.6618 17.8419 51.4276 18.8461Z" fill="#EE3B8C"/>
<path d="M52.2915 18.1094C49.3839 14.9188 44.1933 18.5008 44.1497 22.1804C44.1262 24.0228 45.2135 25.6989 46.8635 26.5093C48.5391 27.3334 50.6154 27.1146 52.2053 26.1806C51.661 25.8068 51.1219 25.4367 50.5777 25.0629C50.5179 26.8843 50.4857 28.857 51.3837 30.5079C52.1219 31.8665 53.5003 32.9609 55.0779 33.1228C56.5897 33.2783 58.0092 32.449 58.7628 31.1624C59.4852 29.9321 59.7307 28.4948 59.8543 27.0982C59.1909 27.3114 58.523 27.5254 57.8596 27.7386C58.8657 29.1217 60.5998 29.9627 62.3115 29.9484C64.0965 29.93 65.7407 29.0411 66.7367 27.5632C67.7354 26.0755 67.9513 24.2485 67.3013 22.589C66.6847 21.0107 65.2234 19.7154 63.5624 19.3252C63.6795 19.9655 63.7966 20.6058 63.9136 21.2462C65.7811 19.4297 66.1404 16.3908 64.7271 14.1953C63.26 11.9086 60.2304 11.3366 57.8894 12.6607C56.5533 13.4151 55.6736 14.5685 55.3407 16.0585C56.0919 16.0222 56.8386 15.9868 57.5898 15.9505C57.1658 14.2635 56.6541 12.5005 55.2435 11.3569C53.9314 10.2963 52.1363 10.0822 50.7058 11.0285C49.3619 11.9175 48.4347 13.5437 48.7599 15.1707C49.0704 16.7177 49.6245 18.3075 50.561 19.5883C50.924 20.0826 51.7236 20.0835 52.1634 19.709C52.6622 19.2777 52.6545 18.6036 52.2915 18.1094C51.7005 17.303 51.372 16.2647 51.1277 15.3076C51.0143 14.8643 50.8956 14.4678 51.0542 14.0206C51.2034 13.5982 51.5103 13.2296 51.8688 12.9664C52.5607 12.4539 53.3643 12.6792 53.9732 13.2296C54.8224 14.0072 55.0947 15.2946 55.363 16.3577C55.6931 17.6575 57.3418 17.4756 57.6122 16.2497C57.9857 14.5777 60.4975 13.6819 61.9373 14.5308C63.5994 15.509 63.8006 18.2018 62.4348 19.5268C61.8897 20.0584 61.8921 21.2343 62.786 21.4477C64.9449 21.9583 66.1639 24.3547 64.8705 26.2777C63.5835 28.1856 60.9006 28.0695 59.5864 26.2649C58.999 25.4533 57.6739 25.9896 57.5917 26.9053C57.4718 28.2461 57.1754 31.0988 55.2808 30.8708C54.3974 30.7657 53.6755 30.0522 53.3137 29.2866C52.7312 28.0467 52.7987 26.596 52.841 25.2602C52.8683 24.4741 52.0106 23.6751 51.2134 24.1425C50.2748 24.6955 49.1549 24.9646 48.1009 24.5828C47.2098 24.2587 46.492 23.4157 46.4143 22.4603C46.3229 21.3787 47.2058 20.2937 48.0103 19.6641C48.7225 19.1111 49.8826 18.8347 50.5639 19.5786C51.5468 20.658 53.2744 19.1888 52.2915 18.1094Z" fill="white"/>
<path d="M74.0018 16.1205C73.3417 15.3406 72.1816 15.1115 71.1926 15.3888C70.208 15.6653 69.3897 16.371 68.7771 17.1906C68.3434 17.7754 67.9885 18.4377 67.8796 19.1561C67.6601 20.6345 68.6039 22.1576 69.9628 22.7915C71.3218 23.4253 72.9949 23.2251 74.2782 22.4345C74.2241 24.0343 74.1928 25.7081 74.8993 27.146C75.6058 28.5838 77.3025 29.6751 78.8244 29.1533C80.6646 28.5274 81.1264 26.2005 81.287 24.2733C82.3459 25.7937 84.4633 26.4819 86.2239 25.8751C87.98 25.2692 89.223 23.4244 89.1166 21.5781C89.0101 19.7319 87.5565 18.0493 85.7431 17.6594C87.6439 15.8735 87.4 12.3154 85.207 10.9104C83.0139 9.50544 79.5587 10.877 79.0457 13.4292C78.7424 12.2256 78.4177 10.9799 77.6323 10.0206C76.8425 9.06214 75.4507 8.47567 74.3165 8.99549C73.1661 9.52748 72.1779 10.9213 72.4316 12.157C72.6852 13.3927 73.236 15.1163 74.0018 16.1205Z" fill="#862E86"/>
<path d="M74.8657 15.3838C71.9581 12.1932 66.7675 15.7753 66.724 19.4548C66.7004 21.2973 67.7877 22.9733 69.4377 23.7837C71.1133 24.6078 73.1897 24.3891 74.7795 23.4551C74.2352 23.0813 73.6962 22.7111 73.1519 22.3373C73.0921 24.1587 73.06 26.1314 73.9579 27.7824C74.6961 29.1409 76.0745 30.2353 77.6521 30.3972C79.1639 30.5528 80.5834 29.7234 81.337 28.4368C82.0594 27.2065 82.3049 25.7692 82.4285 24.3727C81.7651 24.5858 81.0972 24.7999 80.4338 25.013C81.4399 26.3961 83.174 27.2371 84.8857 27.2228C86.6707 27.2044 88.315 26.3156 89.3109 24.8376C90.3097 23.35 90.5255 21.5229 89.8756 19.8634C89.2589 18.2851 87.7976 16.9898 86.1366 16.5996C86.2537 17.2399 86.3708 17.8803 86.4878 18.5206C88.3553 16.7041 88.7147 13.6652 87.3013 11.4698C85.8343 9.18299 82.8047 8.61104 80.4636 9.93511C79.1275 10.6895 78.2478 11.8429 77.9149 13.3329C78.6661 13.2966 79.4128 13.2612 80.164 13.225C79.7401 11.5379 79.2283 9.77496 77.8178 8.63128C76.5056 7.57072 74.7105 7.35666 73.28 8.30288C71.9362 9.19191 71.0089 10.8181 71.3341 12.4451C71.6447 13.9921 72.1987 15.5819 73.1353 16.8628C73.4982 17.357 74.2978 17.3579 74.7377 16.9834C75.2409 16.5513 75.2287 15.878 74.8657 15.3838C74.2747 14.5774 73.9462 13.5392 73.7019 12.5821C73.5885 12.1387 73.4698 11.7422 73.6284 11.295C73.7776 10.8726 74.0845 10.504 74.443 10.2408C75.1349 9.72835 75.9385 9.95364 76.5474 10.504C77.3966 11.2816 77.6689 12.5691 77.9372 13.6321C78.2673 14.9319 79.916 14.75 80.1864 13.5242C80.56 11.8521 83.0717 10.9564 84.5115 11.8052C86.1737 12.7834 86.3749 15.4762 85.009 16.8012C84.4639 17.3328 84.4663 18.5087 85.3602 18.7221C87.5191 19.2327 88.7382 21.6291 87.4447 23.5521C86.1577 25.46 83.4748 25.344 82.1606 23.5393C81.5733 22.7277 80.2481 23.264 80.166 24.1797C80.046 25.5205 79.7497 28.3732 77.855 28.1452C76.9717 28.0401 76.2497 27.3266 75.888 26.561C75.3055 25.3211 75.373 23.8704 75.4152 22.5347C75.4425 21.7485 74.5848 20.9495 73.7876 21.4169C72.849 21.9699 71.7291 22.239 70.6751 21.8573C69.7841 21.5331 69.0662 20.6901 68.9886 19.7347C68.8971 18.6532 69.78 17.5681 70.5845 16.9385C71.2967 16.3855 72.4568 16.1091 73.1381 16.8531C74.121 17.9325 75.8531 16.4624 74.8657 15.3838Z" fill="white"/>
<path d="M96.9579 25.2177C96.2978 24.4377 95.1376 24.2087 94.1486 24.486C93.1641 24.7625 92.3458 25.4681 91.7332 26.2878C91.2995 26.8726 90.9446 27.5348 90.8356 28.2532C90.6161 29.7317 91.56 31.2548 92.9189 31.8886C94.2778 32.5225 95.9509 32.3223 97.2343 31.5316C97.1802 33.1315 97.1489 34.8053 97.8553 36.2431C98.5618 37.6809 100.259 38.7723 101.78 38.2505C103.621 37.6246 104.082 35.2977 104.243 33.3704C105.302 34.8909 107.419 35.5791 109.18 34.9723C110.936 34.3663 112.179 32.5215 112.073 30.6753C111.966 28.8291 110.513 27.1465 108.699 26.7565C110.6 24.9707 110.356 21.4126 108.163 20.0076C105.97 18.6026 102.515 19.9741 102.002 22.5264C101.699 21.3227 101.374 20.0771 100.588 19.1178C99.7986 18.1593 98.4067 17.5728 97.2726 18.0927C96.1222 18.6246 95.134 20.0185 95.3876 21.2542C95.6466 22.4935 96.1921 24.2135 96.9579 25.2177Z" fill="#1293D1"/>
<path d="M97.8218 24.481C94.9141 21.2904 89.7236 24.8724 89.68 28.552C89.6564 30.3944 90.7438 32.0705 92.3938 32.8809C94.0693 33.705 96.1457 33.4862 97.7355 32.5522C97.1912 32.1784 96.6522 31.8083 96.1079 31.4345C96.0482 33.2559 96.016 35.2286 96.914 36.8795C97.6521 38.238 99.0306 39.3324 100.608 39.4944C102.12 39.6499 103.539 38.8206 104.293 37.534C105.015 36.3037 105.261 34.8664 105.385 33.4698C104.721 33.683 104.053 33.897 103.39 34.1102C104.396 35.4933 106.13 36.3342 107.842 36.32C109.627 36.3015 111.271 35.4127 112.267 33.9348C113.266 32.4471 113.482 30.6201 112.832 28.9606C112.215 27.3822 110.754 26.087 109.093 25.6968C109.21 26.3371 109.327 26.9774 109.444 27.6177C111.311 25.8012 111.671 22.7624 110.257 20.5669C108.79 18.2802 105.761 17.7082 103.42 19.0323C102.084 19.7866 101.204 20.94 100.871 22.43C101.622 22.3938 102.369 22.3584 103.12 22.3221C102.696 20.6351 102.184 18.8721 100.774 17.7285C99.4617 16.6679 97.6666 16.4538 96.2361 17.4C94.8922 18.2891 93.965 19.9153 94.2902 21.5423C94.6007 23.0893 95.1547 24.6791 96.0913 25.9599C96.4543 26.4542 97.2539 26.4551 97.6937 26.0805C98.1925 25.6493 98.1848 24.9752 97.8218 24.481C97.2307 23.6746 96.9023 22.6363 96.658 21.6792C96.5446 21.2358 96.4259 20.8394 96.5844 20.3922C96.7336 19.9697 97.0405 19.6012 97.3991 19.338C98.0909 18.8255 98.8946 19.0508 99.5035 19.6012C100.353 20.3788 100.625 21.6662 100.893 22.7292C101.223 24.0291 102.872 23.8471 103.142 22.6213C103.516 20.9493 106.028 20.0535 107.468 20.9023C109.13 21.8805 109.331 24.5733 107.965 25.8984C107.42 26.43 107.422 27.6059 108.316 27.8193C110.475 28.3299 111.694 30.7263 110.401 32.6492C109.114 34.5572 106.431 34.4411 105.117 32.6365C104.529 31.8248 103.204 32.3612 103.122 33.2769C103.002 34.6177 102.706 37.4704 100.811 37.2423C99.9277 37.1373 99.2058 36.4238 98.844 35.6582C98.2615 34.4182 98.329 32.9676 98.3713 31.6318C98.3985 30.8456 97.5408 30.0466 96.7437 30.514C95.8051 31.0671 94.6852 31.3361 93.6311 30.9544C92.7401 30.6302 92.0222 29.7873 91.9446 28.8319C91.8532 27.7503 92.7361 26.6653 93.5405 26.0357C94.2527 25.4827 95.4129 25.2063 96.0942 25.9502C97.0771 27.0296 98.8047 25.5604 97.8218 24.481Z" fill="white"/>
<path d="M16.8689 44.7817C18.3087 44.5185 17.9022 42.2951 16.4624 42.5584C15.0226 42.8216 15.4246 45.0457 16.8689 44.7817Z" fill="white"/>
<path d="M33.3587 31.3219C34.7985 31.0586 34.392 28.8353 32.9522 29.0985C31.5169 29.361 31.9189 31.5851 33.3587 31.3219Z" fill="white"/>
<path d="M57.2468 22.2397C58.6866 21.9765 58.2801 19.7531 56.8403 20.0164C55.4005 20.2796 55.8025 22.5038 57.2468 22.2397Z" fill="white"/>
<path d="M79.1032 20.0866C80.5431 19.8234 80.1366 17.6001 78.6968 17.8633C77.257 18.1265 77.659 20.3507 79.1032 20.0866Z" fill="white"/>
<path d="M102.39 29.1463C103.829 28.883 103.423 26.6597 101.983 26.9229C100.543 27.1862 100.95 29.4095 102.39 29.1463Z" fill="white"/>
<path d="M75.7365 131.462C73.4691 132.051 69.3329 134.222 67.8403 136.016C66.0708 138.141 65.1248 140.171 64.2496 142.789C63.3094 145.608 63.5435 148.708 64.3865 151.55C65.5653 155.521 67.9762 159.179 71.3831 161.562C74.7899 163.944 79.2085 164.961 83.2568 163.977C86.0177 163.307 88.5124 161.762 90.601 159.84C93.5802 157.104 95.8302 153.512 96.6754 149.567C97.5205 145.621 96.8929 141.329 94.6857 137.951C92.6634 134.851 89.3988 132.64 85.8261 131.625C82.2482 130.607 79.3214 130.471 75.7365 131.462Z" fill="#F7DC42"/>
<path d="M75.5333 130.35C74.1064 130.735 72.7382 131.339 71.437 132.032C70.0854 132.752 68.7114 133.578 67.5927 134.637C66.3708 135.789 65.4415 137.278 64.6765 138.755C63.8448 140.373 63.1614 142.12 62.7842 143.898C61.9931 147.609 62.8825 151.614 64.4881 154.987C66.0767 158.318 68.592 161.309 71.8127 163.179C75.0289 165.049 78.8569 165.893 82.5548 165.268C86.3653 164.626 89.7965 162.391 92.4152 159.628C94.8558 157.054 96.7607 153.926 97.6168 150.47C98.5595 146.654 98.288 142.54 96.5653 138.981C93.3727 132.387 85.4388 128.925 78.3003 129.789C77.3649 129.905 76.4442 130.101 75.5333 130.35C74.9385 130.509 74.5024 131.03 74.6186 131.666C74.7211 132.226 75.3458 132.737 75.9397 132.573C77.5466 132.137 79.1925 131.864 80.862 131.922C82.527 131.98 84.1749 132.299 85.7656 132.785C88.6976 133.683 91.3459 135.404 93.2186 137.838C95.2795 140.517 96.1112 144.004 95.8482 147.342C95.5965 150.541 94.312 153.574 92.4116 156.146C90.4144 158.845 87.7039 161.156 84.5515 162.389C81.5113 163.579 78.1053 163.425 75.087 162.259C72.0448 161.087 69.4945 158.865 67.7319 156.15C65.9564 153.414 64.765 150.057 64.7703 146.775C64.7772 143.603 66.0837 140.335 67.9146 137.763C68.337 137.166 68.7219 136.669 69.165 136.261C69.6479 135.819 70.1772 135.428 70.7166 135.068C71.8748 134.3 73.1333 133.652 74.4166 133.114C74.9914 132.871 75.4373 132.707 75.9353 132.574C76.53 132.415 76.9661 131.894 76.8499 131.258C76.7511 130.693 76.128 130.191 75.5333 130.35Z" fill="white"/>
<path d="M93.9737 118.358C92.8375 119.246 91.7586 120.321 91.7643 122.02C91.7724 123.177 92.3297 124.279 93.1785 124.978C95.1414 126.591 97.6674 125.798 99.13 124.042C99.8796 123.137 100.41 121.869 100.121 120.639C99.7898 119.234 98.6028 117.898 97.3179 117.719C96.2509 117.57 95.8021 117.592 94.9875 117.837C94.6184 117.942 94.2765 118.119 93.9737 118.358Z" fill="#F7DC42"/>
<path d="M93.2301 117.502C91.5623 118.817 90.3476 120.565 90.6866 122.773C91.0264 124.986 92.9735 126.84 95.239 126.973C97.28 127.091 99.2446 125.933 100.365 124.276C101.027 123.295 101.394 122.144 101.308 120.965C101.228 119.895 100.694 118.821 99.9759 118.028C99.0971 117.063 98.0069 116.61 96.7142 116.515C95.4687 116.426 94.2391 116.752 93.2301 117.502C92.7379 117.867 92.7248 118.655 93.1057 119.096C93.5277 119.584 94.2159 119.582 94.7081 119.217C94.9683 119.022 95.2195 118.93 95.5293 118.855C95.6841 118.818 95.8406 118.789 95.9988 118.769C96.0301 118.763 96.2443 118.747 96.1024 118.755C95.9748 118.764 96.2923 118.757 96.3297 118.759C96.5203 118.766 96.7134 118.786 96.9028 118.811C96.95 118.816 97.4146 118.906 97.2443 118.859C97.5865 118.961 97.7748 119.056 98.1064 119.353C98.0625 119.316 98.0109 119.261 98.1589 119.413C98.2158 119.471 98.2735 119.534 98.3268 119.598C98.3967 119.677 98.4585 119.762 98.5247 119.847C98.6475 120.013 98.4642 119.743 98.5743 119.916C98.7938 120.257 98.9239 120.564 98.9885 120.842C99.1345 121.463 98.9849 122.161 98.6613 122.717C98.2816 123.37 97.917 123.777 97.2515 124.206C97.4003 124.11 97.0328 124.324 97.0032 124.339C96.8511 124.417 96.6975 124.487 96.5377 124.548C96.4902 124.566 96.2581 124.636 96.4516 124.582C96.3816 124.604 96.3064 124.622 96.2357 124.64C96.054 124.682 95.8699 124.711 95.6833 124.727C95.869 124.707 95.5077 124.727 95.4329 124.722C95.3394 124.717 95.2451 124.706 95.1552 124.695C95.1126 124.689 94.878 124.645 95.052 124.686C94.902 124.649 94.7548 124.603 94.6105 124.546C94.3813 124.455 94.428 124.483 94.2235 124.351C93.654 123.991 93.1972 123.413 93.013 122.835C92.8703 122.383 92.8504 122.047 92.9126 121.603C92.9443 121.372 93.0834 120.97 93.1752 120.816C93.2699 120.651 93.3752 120.494 93.4911 120.344C93.5358 120.286 93.585 120.226 93.6342 120.166C93.7854 119.983 93.589 120.198 93.746 120.045C94.0533 119.754 94.363 119.477 94.6939 119.215C95.1748 118.837 95.2053 118.069 94.8183 117.62C94.4212 117.141 93.7147 117.119 93.2301 117.502Z" fill="white"/>
</g>
<defs>
<clipPath id="clip0_665_2619">
<rect width="109.48" height="189.651" fill="white" transform="translate(0 20) rotate(-10.3606)"/>
</clipPath>
</defs>
</svg>
