<svg width="32" height="32" viewBox="0 0 32 32" fill="none" xmlns="http://www.w3.org/2000/svg">
<g clip-path="url(#clip0_690_984)">
<path d="M29.0738 28.7409C27.7678 29.853 23.6002 30.614 18.9374 30.9254C16.6396 31.0842 14.3351 31.1268 12.033 31.0532C7.50393 30.9063 3.62127 30.2834 2.65464 29.0744C0.0529831 25.8176 -1.39842 6.52471 1.94363 3.01666C5.54864 -0.761703 26.24 -0.98059 29.4131 2.32327C33.2517 6.30436 32.5436 25.7911 29.0738 28.7409Z" fill="white"/>
<path d="M23.1534 16.8815C22.7946 18.1723 22.5205 19.4851 22.3328 20.8116C21.0506 20.9616 19.8158 21.0847 18.6066 21.1796C18.7874 24.3762 19.0862 27.7267 19.4119 30.8579C17.4062 30.9965 15.3948 31.0337 13.3853 30.9695C13.0271 27.8118 12.8134 24.6395 12.7442 21.4527C11.6774 21.4681 10.5875 21.4604 9.4591 21.4335C9.3546 21.4418 9.25066 21.4117 9.16675 21.3488C9.09763 21.2664 9.06114 21.1615 9.06417 21.0539C8.95261 19.6063 8.86799 18.7702 8.85645 17.3162C10.1502 17.2123 11.4427 17.12 12.7365 17.0508C12.7827 15.2351 12.9314 13.4207 13.4392 11.682C13.6956 10.8037 14.0598 9.91637 14.7471 9.31372C15.3805 8.76235 16.2242 8.50462 17.0551 8.33152C19.3136 7.86257 21.6471 7.89145 23.8933 8.41615C23.8445 10.1866 23.9349 11.9581 24.1638 13.7144C23.1244 13.7117 22.0874 13.814 21.0685 14.0195C20.5851 14.1196 20.0979 14.2452 19.7068 14.5414C19.2195 14.9056 18.9374 15.4851 18.7707 16.0686C18.6978 16.3254 18.6413 16.5867 18.6015 16.8507C20.1222 16.8392 21.6378 16.843 23.1534 16.8815Z" fill="#EE2400"/>
</g>
<defs>
<clipPath id="clip0_690_984">
<rect width="32" height="31.0892" fill="white" transform="translate(0 0.000732422)"/>
</clipPath>
</defs>
</svg>
