<svg width="127" height="220" viewBox="0 0 127 220" fill="none" xmlns="http://www.w3.org/2000/svg">
<g clip-path="url(#clip0_665_2619)">
<path d="M23.7494 119.121C35.0653 107.302 100.06 106.647 110.042 116.956C122.091 129.399 119.876 190.273 108.987 199.487C98.821 208.086 33.6047 209.995 25.9957 200.535C17.8068 190.357 13.2509 130.086 23.7494 119.121Z" fill="#ED1E24"/>
<path d="M24.6827 120.05C24.9675 119.756 25.268 119.478 25.5844 119.221C25.6582 119.158 25.7373 119.1 25.8112 119.043C25.4948 119.3 25.7532 119.085 25.8375 119.027C26.0326 118.885 26.2277 118.749 26.4334 118.613C27.2665 118.062 28.1471 117.59 29.0488 117.166C29.2702 117.061 29.497 116.961 29.7184 116.861C29.8503 116.804 29.9768 116.746 30.1086 116.694C30.2774 116.62 29.8872 116.783 30.0612 116.715C30.135 116.683 30.2088 116.652 30.2827 116.625C30.8416 116.4 31.4058 116.19 31.9753 115.986C33.1775 115.561 34.4009 115.189 35.6295 114.853C41.6881 113.201 47.7099 112.362 53.8266 111.796C60.8238 111.146 67.8685 110.915 74.8974 111.062C78.2932 111.13 81.689 111.293 85.0743 111.57C86.6773 111.702 88.275 111.859 89.8727 112.048C90.2207 112.09 90.5688 112.132 90.9115 112.174C91.1066 112.2 91.2964 112.221 91.4915 112.247C91.7394 112.278 91.1804 112.205 91.5864 112.263C91.6919 112.278 91.7974 112.294 91.9028 112.305C92.6252 112.404 93.3476 112.514 94.07 112.63C96.6643 113.049 99.2534 113.574 101.779 114.308C102.844 114.617 103.894 114.963 104.922 115.372C105.027 115.414 105.133 115.456 105.238 115.503C105.407 115.571 105.011 115.404 105.312 115.535C105.549 115.64 105.781 115.744 106.019 115.855C106.419 116.043 106.815 116.248 107.2 116.473C107.558 116.683 107.906 116.903 108.249 117.145C108.318 117.192 108.386 117.249 108.46 117.297C108.112 117.055 108.36 117.218 108.444 117.286C108.592 117.412 108.739 117.533 108.877 117.664C109.172 117.942 109.446 118.246 109.704 118.56C109.768 118.639 109.836 118.723 109.9 118.802C109.646 118.487 109.9 118.807 109.958 118.885C110.1 119.085 110.242 119.284 110.374 119.488C110.959 120.369 111.455 121.308 111.893 122.268C111.945 122.383 111.998 122.504 112.051 122.619C112.093 122.713 112.225 123.028 112.114 122.755C112.235 123.049 112.357 123.343 112.473 123.642C112.694 124.213 112.9 124.79 113.095 125.372C113.976 128.031 114.608 130.768 115.104 133.515C115.689 136.73 116.032 139.572 116.317 142.881C116.918 149.886 116.981 156.939 116.633 163.96C116.459 167.406 116.185 170.851 115.779 174.275C115.579 175.948 115.405 177.227 115.13 178.936C114.888 180.441 114.619 181.941 114.308 183.43C113.759 186.078 113.1 188.711 112.214 191.264C112.025 191.815 111.819 192.36 111.603 192.906C111.55 193.037 111.492 193.173 111.439 193.304C111.313 193.614 111.524 193.121 111.392 193.425C111.276 193.687 111.16 193.954 111.039 194.217C110.632 195.087 110.179 195.937 109.646 196.734C109.53 196.907 109.409 197.074 109.288 197.248C109.235 197.326 108.982 197.63 109.256 197.295C109.188 197.373 109.13 197.457 109.061 197.536C108.819 197.824 108.56 198.108 108.281 198.364C108.154 198.48 108.012 198.585 107.885 198.705C107.743 198.842 108.181 198.501 107.927 198.669C107.848 198.721 107.769 198.784 107.69 198.836C107.39 199.046 107.073 199.235 106.752 199.408C106.393 199.607 106.024 199.785 105.65 199.959C105.549 200.006 105.444 200.053 105.338 200.095C105.296 200.111 104.959 200.257 105.175 200.163C105.391 200.074 105.022 200.226 104.964 200.247C104.837 200.299 104.711 200.347 104.584 200.394C103.609 200.766 102.612 201.086 101.61 201.374C99.1532 202.082 96.6432 202.612 94.1228 203.058C91.0064 203.608 88.3857 203.959 85.3116 204.295C78.5305 205.034 71.7073 205.407 64.8893 205.496C58.2875 205.58 51.6646 205.407 45.0892 204.767C44.3563 204.694 43.6286 204.62 42.8956 204.531C42.5529 204.489 42.2049 204.447 41.8621 204.405C41.704 204.384 41.5405 204.363 41.3823 204.342C40.9974 204.29 41.551 204.363 41.319 204.332C41.2188 204.316 41.1239 204.306 41.0237 204.29C39.7002 204.106 38.382 203.891 37.069 203.64C34.9018 203.225 32.7399 202.711 30.6729 201.935C30.4672 201.857 30.2616 201.773 30.0559 201.689C30.0665 201.694 30.2985 201.799 30.0243 201.673C29.9135 201.621 29.8028 201.574 29.6868 201.521C29.323 201.353 28.9644 201.17 28.6164 200.971C28.2947 200.787 27.9994 200.572 27.6883 200.368C27.5196 200.257 27.9573 200.598 27.7305 200.399C27.6778 200.352 27.6145 200.305 27.5618 200.257C27.4352 200.147 27.314 200.032 27.198 199.911C27.103 199.812 27.0187 199.691 26.9185 199.597C26.7814 199.466 27.1189 199.88 26.9501 199.639C26.8921 199.56 26.8341 199.481 26.7761 199.397C26.5546 199.078 26.349 198.747 26.1592 198.406C25.9588 198.045 25.769 197.678 25.595 197.305C25.4948 197.09 25.3999 196.875 25.2997 196.66C25.1679 196.361 25.3419 196.765 25.2733 196.597C25.2206 196.466 25.1679 196.335 25.1151 196.209C23.1536 191.317 22.1359 186.026 21.2869 180.845C20.7438 177.521 20.3589 174.542 20.0056 171.144C19.6418 167.626 19.3728 164.102 19.1988 160.568C18.8508 153.683 18.8192 146.756 19.3465 139.881C19.4625 138.345 19.6101 136.808 19.7999 135.283C19.821 135.115 19.8421 134.947 19.8632 134.779C19.879 134.674 19.8896 134.569 19.9054 134.465C19.9318 134.25 19.879 134.653 19.9107 134.438C19.9634 134.05 20.0214 133.662 20.0794 133.279C20.1796 132.608 20.2903 131.942 20.4116 131.276C20.8545 128.854 21.424 126.436 22.3046 124.129C22.389 123.909 22.4786 123.683 22.5683 123.463C22.4154 123.83 22.5946 123.411 22.6263 123.337C22.679 123.222 22.7317 123.107 22.7845 122.991C22.9796 122.577 23.1852 122.168 23.4172 121.775C23.6229 121.423 23.8391 121.077 24.0816 120.742C24.1449 120.658 24.2082 120.574 24.2714 120.485C24.1238 120.684 24.1607 120.621 24.282 120.48C24.4138 120.343 24.5456 120.191 24.6827 120.05C25.8481 118.823 23.9867 116.966 22.8161 118.193C21.4029 119.683 20.496 121.549 19.7683 123.442C18.8772 125.765 18.3077 128.204 17.8648 130.647C16.6942 137.076 16.3567 143.657 16.325 150.18C16.2934 157.353 16.6783 164.537 17.4324 171.669C18.1073 178.029 19.0248 184.406 20.5962 190.614C21.1709 192.885 21.8353 195.14 22.737 197.305C23.4067 198.91 24.1713 200.63 25.4315 201.872C26.6759 203.1 28.3316 203.849 29.9452 204.458C32.0386 205.249 34.2321 205.769 36.431 206.188C42.4685 207.347 48.6485 207.798 54.781 208.013C61.7941 208.259 68.8229 208.144 75.8255 207.719C82.3271 207.321 88.8392 206.676 95.2459 205.512C97.7822 205.05 100.308 204.505 102.781 203.765C104.679 203.199 106.599 202.528 108.312 201.532C111.814 199.513 113.512 195.554 114.772 191.909C116.739 186.21 117.714 180.169 118.421 174.201C119.254 167.122 119.575 159.97 119.454 152.844C119.338 145.995 118.827 139.11 117.566 132.372C117.05 129.614 116.401 126.866 115.484 124.213C114.73 122.026 113.807 119.835 112.494 117.915C111.418 116.353 110.132 115.1 108.476 114.161C106.609 113.102 104.542 112.368 102.486 111.77C96.8225 110.128 90.8746 109.405 85.011 108.933C78.0032 108.367 70.9532 108.267 63.9296 108.524C56.9693 108.781 50.0036 109.384 43.1382 110.548C37.7808 111.46 32.3022 112.661 27.3931 115.052C25.7373 115.86 24.1027 116.856 22.8214 118.188C21.6455 119.41 23.5069 121.266 24.6827 120.05Z" fill="white"/>
<path d="M30.7731 128.796C30.1719 130.296 29.8397 131.9 29.5708 133.484C29.1859 135.734 28.9433 138.009 28.7693 140.285C28.3528 145.759 28.3 151.26 28.4213 156.745C28.5426 162.45 28.8642 168.161 29.4495 173.84C29.903 178.234 30.4145 182.712 31.6009 186.986C31.9542 188.255 32.3602 189.618 33.0984 190.724C33.9158 191.951 35.3289 192.628 36.6524 193.194C40.9394 195.04 45.7062 195.685 50.32 196.115C56.0149 196.644 61.7519 196.681 67.4678 196.492C73.0941 196.304 78.7151 195.884 84.3045 195.181C88.4174 194.662 92.6094 194.101 96.5958 192.921C97.682 192.602 98.8632 192.245 99.7912 191.579C100.73 190.908 101.199 189.875 101.589 188.826C102.797 185.596 103.203 182.025 103.635 178.632C104.263 173.703 104.616 168.737 104.837 163.777C105.08 158.392 105.149 152.996 104.996 147.611C104.864 142.907 104.579 138.182 103.841 133.526C103.577 131.853 103.25 130.17 102.723 128.555C102.322 127.317 101.811 126.048 100.925 125.068C100.266 124.339 99.3589 124.009 98.4255 123.773C97.0229 123.421 95.5676 123.243 94.1333 123.075C89.8306 122.582 85.4803 122.425 81.1512 122.336C75.6304 122.226 70.1043 122.289 64.5887 122.504C59.0996 122.719 53.6157 123.08 48.1581 123.741C43.8343 124.26 39.4155 124.863 35.2604 126.237C33.921 126.678 32.5448 127.202 31.3742 128.004C30.7889 128.408 30.52 129.153 30.8996 129.798C31.2371 130.374 32.1124 130.673 32.703 130.27C33.2092 129.923 33.7576 129.635 34.3165 129.383C34.3956 129.347 34.4747 129.315 34.5485 129.278C34.248 129.394 34.7542 129.184 34.5485 129.278C34.7331 129.205 34.9124 129.132 35.0969 129.064C35.466 128.927 35.8351 128.801 36.2042 128.681C38.0234 128.099 39.8953 127.684 41.7725 127.328C42.8746 127.118 43.9819 126.935 45.0945 126.772C45.3792 126.73 45.6693 126.688 45.954 126.646C46.1016 126.625 46.244 126.604 46.3917 126.583C46.4549 126.573 46.5182 126.567 46.5815 126.557C46.7291 126.536 46.4286 126.578 46.6711 126.547C47.2722 126.468 47.8734 126.394 48.4798 126.321C51.0899 126.012 53.7106 125.776 56.3312 125.582C61.8784 125.178 67.4414 124.973 73.0044 124.916C78.0138 124.863 83.0284 124.931 88.0272 125.204C89.9624 125.309 91.8976 125.445 93.8222 125.66C94.2282 125.708 94.6343 125.755 95.035 125.807C95.0666 125.812 94.7555 125.765 95.0403 125.807C95.1299 125.818 95.2196 125.833 95.3092 125.844C95.4938 125.87 95.673 125.896 95.8576 125.928C96.4376 126.022 97.0176 126.127 97.5924 126.263C97.8244 126.321 98.0564 126.379 98.2884 126.452C98.3833 126.484 98.4783 126.515 98.5732 126.547C98.9212 126.662 98.4203 126.452 98.5521 126.531C98.6365 126.583 98.8263 126.72 98.9212 126.735C98.7261 126.699 98.6628 126.489 98.8685 126.709C98.937 126.782 99.0056 126.856 99.0794 126.929C99.3483 127.202 98.9792 126.751 99.1058 126.956C99.169 127.06 99.2481 127.16 99.3167 127.27C99.459 127.501 99.5856 127.737 99.7016 127.983C99.7385 128.062 99.9072 128.439 99.8123 128.219C99.7121 127.989 99.8229 128.245 99.844 128.298C99.8756 128.382 99.9072 128.46 99.9389 128.544C100.055 128.854 100.16 129.168 100.261 129.488C100.761 131.109 101.083 132.787 101.341 134.459C101.373 134.68 101.41 134.9 101.442 135.12C101.458 135.241 101.473 135.361 101.494 135.482C101.516 135.634 101.484 135.408 101.484 135.398C101.494 135.487 101.505 135.576 101.521 135.665C101.589 136.195 101.653 136.725 101.711 137.249C101.832 138.361 101.932 139.472 102.016 140.584C102.401 145.655 102.491 150.746 102.438 155.827C102.38 161.061 102.159 166.299 101.737 171.517C101.552 173.834 101.326 176.147 101.036 178.449C101.004 178.69 100.972 178.931 100.941 179.172C100.93 179.246 100.92 179.319 100.909 179.393C100.909 179.377 100.941 179.162 100.92 179.314C100.899 179.456 100.883 179.602 100.862 179.744C100.793 180.247 100.714 180.746 100.635 181.249C100.493 182.146 100.34 183.042 100.16 183.934C99.8862 185.318 99.5751 186.708 99.0847 188.034C99.0425 188.15 98.995 188.265 98.9528 188.38C98.821 188.726 99.0741 188.134 98.9107 188.475C98.8157 188.674 98.7208 188.873 98.6048 189.062C98.5574 189.141 98.4994 189.214 98.4519 189.293C98.3623 189.461 98.7103 189.036 98.4835 189.246C98.4308 189.293 98.3728 189.345 98.3306 189.398C98.1672 189.597 98.647 189.209 98.3623 189.371C98.1882 189.471 98.0248 189.576 97.8455 189.67C97.74 189.723 97.6346 189.77 97.5291 189.817C97.3393 189.912 97.4869 189.828 97.6188 189.78C97.5502 189.807 97.4764 189.838 97.4078 189.864C96.8067 190.095 96.1898 190.294 95.5676 190.467C93.8539 190.955 92.0979 191.312 90.3473 191.626C89.2663 191.82 88.1801 191.999 87.0939 192.156C86.5191 192.24 85.9444 192.324 85.3643 192.402C85.1481 192.434 85.4329 192.392 85.1429 192.434C84.9952 192.455 84.8423 192.47 84.6947 192.491C84.3677 192.533 84.0408 192.575 83.7139 192.612C81.0616 192.937 78.3987 193.194 75.7359 193.399C70.0147 193.834 64.2618 194.038 58.5248 193.918C55.7881 193.86 53.0514 193.729 50.3253 193.472C49.6715 193.409 49.0229 193.346 48.3743 193.268C48.0896 193.236 47.8048 193.199 47.5201 193.163C47.1668 193.115 47.2248 193.126 46.7766 193.063C45.6165 192.895 44.467 192.701 43.3228 192.46C42.284 192.245 41.2558 191.993 40.2381 191.689C39.7635 191.548 39.2942 191.396 38.8302 191.228C38.6298 191.154 38.4347 191.081 38.2396 191.008C38.1341 190.966 38.034 190.924 37.9338 190.882C37.765 190.813 38.1552 190.976 37.9918 190.908C37.9338 190.882 37.881 190.861 37.823 190.834C37.0848 190.504 36.3624 190.137 35.6928 189.686C35.6348 189.649 35.5504 189.555 35.4871 189.545C35.4871 189.545 35.7402 189.801 35.6348 189.655C35.5873 189.586 35.4977 189.513 35.4397 189.455C35.2076 189.225 35.5662 189.67 35.4502 189.471C35.3922 189.371 35.3184 189.277 35.2604 189.177C35.1233 188.952 35.0125 188.716 34.9018 188.48C34.7436 188.144 34.9862 188.711 34.8385 188.338C34.7805 188.192 34.7225 188.05 34.6698 187.903C34.4167 187.206 34.2058 186.493 34.0212 185.774C33.5308 183.887 33.1828 181.962 32.8823 180.038C32.7926 179.466 32.7082 178.889 32.6291 178.318C32.6186 178.255 32.6133 178.197 32.6028 178.134C32.5711 177.919 32.6291 178.328 32.5975 178.113C32.5764 177.966 32.5606 177.825 32.5395 177.678C32.5026 177.384 32.4657 177.085 32.4288 176.792C32.2759 175.533 32.1335 174.27 32.0122 173.006C31.7433 170.274 31.5376 167.537 31.3847 164.799C31.0631 159.11 30.9365 153.405 31.0631 147.71C31.1211 145.146 31.2318 142.582 31.4322 140.023C31.5218 138.906 31.6273 137.794 31.7591 136.683C31.7907 136.42 31.8224 136.163 31.854 135.907C31.8646 135.833 31.8751 135.76 31.8804 135.686C31.8804 135.702 31.8487 135.917 31.8698 135.765C31.8909 135.623 31.912 135.482 31.9278 135.34C32.0017 134.853 32.0755 134.36 32.1651 133.872C32.4288 132.383 32.7504 130.883 33.3146 129.478C33.5783 128.822 33.0246 128.036 32.3919 127.863C31.6431 127.674 31.0367 128.135 30.7731 128.796Z" fill="white"/>
<path d="M36.5206 203.928C36.083 206.927 35.698 210.21 37.2852 212.795C39.1888 215.899 43.2015 216.869 46.8188 217.399C60.7817 219.439 75.0504 218.951 88.9869 216.728C93.1736 216.062 96.1634 217.383 97.6082 213.419C98.5152 210.928 99.38 205.936 99.4274 203.288C99.4907 199.885 93.3635 200.294 90.7375 199.854C87.1783 199.256 82.5538 200.624 82.1004 204.185C82.3376 202.538 81.0194 200.992 79.4639 200.378C77.9083 199.77 76.1788 199.875 74.5125 199.99C70.9796 200.236 66.603 201.133 65.733 204.552C65.9439 202.911 64.6679 201.369 63.1387 200.714C61.6095 200.058 59.8905 200.084 58.2243 200.121C56.1783 200.168 54.1324 200.215 52.0865 200.257C50.5415 200.294 48.4376 200.944 48.6907 202.46C47.1035 199.917 43.829 198.537 40.8919 199.177C37.9496 199.827 36.895 200.96 36.5206 203.928Z" fill="#3C52A4"/>
<path d="M35.2502 203.582C34.6754 207.53 34.2905 211.946 37.3805 215.024C39.9853 217.614 43.8504 218.312 47.3517 218.794C56.6691 220.084 66.0972 220.304 75.4726 219.622C80.155 219.282 84.7847 218.647 89.4302 217.981C92.0983 217.598 95.531 218.312 97.5559 216.083C98.6263 214.903 99.085 213.325 99.4647 211.815C99.8865 210.152 100.192 208.464 100.424 206.765C100.619 205.354 101.025 203.582 100.593 202.187C100.177 200.834 99.0218 200.037 97.7457 199.56C96.4907 199.093 95.1092 198.957 93.7804 198.836C93.1424 198.779 92.5043 198.737 91.861 198.679C91.7398 198.669 91.6185 198.658 91.4919 198.642C91.4497 198.637 91.049 198.59 91.2124 198.611C91.3917 198.637 90.933 198.564 90.9172 198.564C90.6641 198.527 90.411 198.49 90.1631 198.464C87.0942 198.144 83.3979 199.067 81.6103 201.757C81.199 202.376 80.9301 203.105 80.8194 203.834C81.6842 203.949 82.5436 204.064 83.4084 204.18C83.6562 201.872 81.8529 199.89 79.807 199.109C77.7294 198.317 75.3144 198.543 73.1472 198.8C69.6565 199.214 65.4961 200.383 64.452 204.195C65.3168 204.311 66.1763 204.426 67.0411 204.542C67.2309 202.538 65.8652 200.656 64.1409 199.738C62.0528 198.632 59.6114 198.768 57.3177 198.821C56.126 198.847 54.929 198.873 53.7373 198.899C52.7091 198.92 51.6861 198.905 50.6737 199.099C49.0443 199.413 47.1355 200.541 47.3623 202.455C48.1796 202.234 49.0022 202.014 49.8195 201.794C47.8526 198.742 44.1035 197.153 40.5285 197.908C39.1733 198.197 37.7654 198.711 36.8005 199.744C35.7248 200.892 35.3926 202.407 35.1922 203.918C35.0973 204.62 35.8671 205.228 36.5104 205.228C37.3014 205.228 37.7338 204.62 37.8287 203.918C37.8972 203.393 38.0238 202.858 38.2083 202.36C38.2769 202.171 38.5827 201.668 38.704 201.553C39.0309 201.243 39.1575 201.133 39.669 200.897C40.0275 200.735 40.7025 200.546 41.2245 200.436C43.6079 199.932 46.2338 201.091 47.5363 203.115C47.8526 203.608 48.4432 203.876 49.0232 203.718C49.5347 203.577 50.0568 203.016 49.9935 202.455C49.9882 202.402 49.9038 202.072 49.9618 202.245C49.946 202.266 49.9355 202.287 49.9197 202.313C50.004 202.182 50.0093 202.161 49.9355 202.25C50.1042 202.066 50.1306 202.051 50.3626 201.935C50.7317 201.747 51.3486 201.61 51.7547 201.584C53.5949 201.453 55.4668 201.495 57.3124 201.453C58.9945 201.416 60.8347 201.227 62.4377 201.846C63.5767 202.287 64.5153 203.278 64.394 204.547C64.2516 206.041 66.6034 206.288 66.9831 204.893C67.6369 202.502 70.6267 201.757 72.9626 201.442C74.6289 201.217 76.5377 200.986 78.1882 201.364C79.5591 201.673 80.9301 202.633 80.7614 204.18C80.6032 205.632 83.1395 205.989 83.3504 204.526C83.5244 203.341 84.0992 202.57 85.1169 201.977C86.1926 201.348 87.4844 201.065 88.7289 201.028C89.9417 200.992 91.0068 201.222 92.2301 201.327C93.4271 201.427 94.5239 201.49 95.5785 201.689C95.8527 201.741 96.1269 201.804 96.3958 201.878C96.5224 201.914 96.6542 201.951 96.7807 201.993C96.8598 202.019 97.1657 202.135 97.1024 202.108C97.482 202.271 97.7457 202.434 97.9882 202.748C97.8459 202.57 97.9777 202.748 98.0199 202.837C98.1253 203.058 97.9935 202.685 98.0462 202.926C98.0673 203.021 98.0937 203.257 98.0779 203.031C98.0884 203.183 98.0832 203.335 98.0779 203.488C98.0568 204.159 97.9988 204.83 97.9197 205.496C97.751 207.022 97.482 208.542 97.1498 210.042C96.8704 211.301 96.612 212.722 95.9318 213.844C95.6734 214.274 95.4308 214.478 95.0248 214.725C94.9721 214.756 94.9141 214.782 94.8561 214.809C94.8772 214.798 95.0248 214.741 94.8825 214.798C94.7664 214.845 94.6452 214.882 94.5186 214.914C94.3921 214.95 94.2655 214.976 94.139 215.003C94.0757 215.013 93.7013 215.076 93.8911 215.05C92.5676 215.223 91.2177 215.155 89.8889 215.291C87.8377 215.501 85.7971 215.899 83.7512 216.156C81.6262 216.424 79.5011 216.654 77.3656 216.838C68.8497 217.567 60.2547 217.583 51.7494 216.702C49.7984 216.497 47.8421 216.272 45.9122 215.931C44.3988 215.663 42.838 215.317 41.446 214.657C40.1172 214.027 38.9518 213.146 38.2347 211.846C37.4068 210.336 37.3594 208.542 37.4701 206.87C37.5281 205.999 37.6389 205.134 37.7654 204.269C37.8656 203.571 37.5914 202.858 36.8426 202.654C36.2521 202.496 35.3557 202.874 35.2502 203.582Z" fill="white"/>
<path d="M95.1249 84.1406C100.867 82.5727 106.53 80.727 112.093 78.6085C113.443 78.0946 114.862 77.5073 115.7 76.3327C116.502 75.2053 116.612 73.7476 116.702 72.3685C117.25 63.5538 117.783 54.5818 115.716 45.9926C113.649 37.4034 108.561 29.0921 100.551 25.2694C97.3712 23.754 93.8858 23.0042 90.4214 22.3697C74.3177 19.4332 57.6023 18.8302 41.6515 22.5008C35.3767 23.9428 29.0913 26.1347 24.2085 30.3139C18.8036 34.9388 15.5819 41.6141 13.4199 48.3732C11.4478 54.5398 10.2298 60.9477 9.80265 67.4027C9.52846 71.5242 9.58646 75.7297 10.736 79.6992C11.8855 83.6687 14.2372 87.4179 17.7596 89.6098C21.398 91.8751 25.8853 92.2893 30.1775 92.3313L34.7597 93.0339C33.7948 102.357 33.1567 100.915 34.0795 110.239C34.2008 111.481 34.359 112.771 35.0445 113.82C36.2414 115.655 38.6512 116.206 40.8184 116.594C42.0839 116.825 43.4074 117.05 44.6466 116.694C45.8857 116.332 46.9931 115.189 46.8507 113.914C46.2496 114.905 46.972 116.258 48.0213 116.757C49.0706 117.255 50.294 117.139 51.4487 117.013C54.2645 116.704 57.075 116.395 59.8908 116.085C60.8874 115.975 62.232 115.283 61.7733 114.402C61.3251 115.325 62.0685 116.463 63.0335 116.819C63.9985 117.176 65.0689 116.977 66.076 116.772C68.2748 116.332 70.4684 115.886 72.6673 115.446C75.1403 114.947 78.2935 113.505 77.7821 111.046C77.0807 112.268 77.935 113.899 79.1847 114.549C80.4396 115.199 81.9266 115.136 83.3398 115.052C86.1608 114.895 88.9872 114.732 91.8082 114.575C93.1001 114.502 94.1705 114.407 95.4466 114.208C96.6646 114.019 96.9916 113.862 97.9882 113.044C99.5753 111.738 99.4646 111.172 98.7844 106.07C97.8036 98.6972 96.2955 91.3979 94.276 84.2402L95.1249 84.1406Z" fill="#3C52A4"/>
<path d="M95.4726 85.4096C99.8597 84.2088 104.205 82.8507 108.492 81.33C110.49 80.6221 112.61 79.9824 114.492 78.9965C116.29 78.0527 117.461 76.4953 117.793 74.4922C118.141 72.4052 118.152 70.2343 118.268 68.1263C118.389 65.8715 118.484 63.6167 118.505 61.3567C118.552 56.8366 118.299 52.2956 117.456 47.8489C116.106 40.7541 112.968 33.759 107.69 28.6831C104.927 26.0298 101.647 24.0739 98.0142 22.8521C93.8854 21.4625 89.4772 20.8228 85.1745 20.1935C76.2051 18.8826 67.1145 18.3058 58.0555 18.8616C53.5523 19.1396 49.0545 19.6849 44.6252 20.5396C40.6019 21.3157 36.5891 22.3068 32.7768 23.8274C29.0066 25.3324 25.4526 27.3355 22.4733 30.1094C19.6417 32.747 17.3954 35.9824 15.6395 39.4065C11.7692 46.9679 9.71269 55.5414 8.78992 63.9366C7.88823 72.1011 7.89878 81.33 13.6727 87.8584C16.2987 90.8264 19.9317 92.5043 23.8074 93.1546C25.8111 93.4902 27.9151 93.7052 29.9504 93.6475C29.7501 93.6527 29.8819 93.6213 30.0137 93.6317C30.1983 93.6475 30.3828 93.6894 30.5621 93.7156C31.0788 93.7943 31.5956 93.873 32.1124 93.9516C32.8769 94.067 33.6415 94.1876 34.4061 94.3029C34.0845 93.8834 33.7628 93.4587 33.4359 93.0392C33.014 97.0611 32.1598 100.983 32.3444 105.079C32.4024 106.316 32.5026 107.549 32.6186 108.786C32.7609 110.312 32.7978 111.953 33.3673 113.395C34.4852 116.232 37.2904 117.265 40.0904 117.795C41.9254 118.141 43.8869 118.503 45.6587 117.706C47.1246 117.045 48.2741 115.571 48.1686 113.92C48.0895 112.703 46.36 112.032 45.7114 113.259C44.8097 114.958 45.6639 117.05 47.3566 117.894C49.2074 118.823 51.4062 118.335 53.3678 118.115C55.5403 117.873 57.718 117.664 59.8905 117.396C61.4513 117.202 63.8716 116.033 63.0437 114.051C62.5322 112.818 61.0136 112.808 60.5021 114.051C60.0803 115.073 60.4441 116.222 61.1349 117.029C61.8415 117.863 62.875 118.251 63.9507 118.314C65.2004 118.387 66.4817 118.025 67.6998 117.779C68.9231 117.533 70.1517 117.286 71.375 117.04C73.2522 116.662 75.1716 116.311 76.8062 115.252C78.425 114.198 79.4058 112.661 79.0578 110.7C78.8627 109.594 77.1437 109.426 76.648 110.385C75.7516 112.126 76.4318 114.129 77.9452 115.294C79.6273 116.589 81.8577 116.452 83.8615 116.337C86.1711 116.206 88.4806 116.075 90.7902 115.944C91.8606 115.881 92.931 115.828 93.9962 115.713C94.9506 115.608 95.9894 115.54 96.9016 115.231C98.0564 114.837 99.2164 113.935 99.923 112.934C100.461 112.174 100.603 111.235 100.582 110.317C100.545 108.655 100.239 106.987 100.013 105.341C99.7121 103.123 99.3641 100.91 98.9686 98.7077C98.0722 93.7156 96.928 88.7708 95.557 83.8889C95.2511 84.429 94.9453 84.9639 94.6342 85.504C94.9084 85.483 95.1931 85.4463 95.4726 85.4096C96.1792 85.3152 96.5641 84.4133 96.3954 83.7945C96.1845 83.0342 95.4832 82.7825 94.7713 82.8769C94.4866 82.9136 94.2071 82.9503 93.9223 82.9923C93.2158 83.0866 92.8308 83.9938 92.9996 84.6073C95.1404 92.2317 96.6907 99.9976 97.6925 107.847C97.8296 108.912 98.0036 110.013 97.9035 111.088C97.9404 110.684 97.8771 111.13 97.856 111.224C97.8402 111.298 97.8033 111.366 97.7822 111.439C97.8929 111.083 97.856 111.298 97.7875 111.387C97.7453 111.445 97.7084 111.513 97.6714 111.57C97.5343 111.796 97.8824 111.35 97.6873 111.539C97.566 111.654 97.4553 111.78 97.334 111.89C97.1758 112.032 97.0123 112.174 96.8436 112.305C96.717 112.404 96.5799 112.493 96.4428 112.577C96.4534 112.567 96.0421 112.782 96.2477 112.693C95.5517 112.981 94.7133 113.023 93.9751 113.107C91.9766 113.322 89.9518 113.385 87.9481 113.495C85.8283 113.616 83.6506 113.883 81.5256 113.794C80.7768 113.762 79.9542 113.631 79.3847 113.112C78.9945 112.756 78.6834 112.147 78.9049 111.717C78.1034 111.612 77.2966 111.508 76.4951 111.403C76.5162 111.529 76.5162 111.681 76.4529 111.896C76.4108 112.027 76.358 112.153 76.1998 112.357C75.9889 112.635 75.4933 112.992 75.0925 113.217C73.8797 113.904 72.514 114.15 71.1589 114.418C69.3028 114.79 67.4467 115.173 65.5906 115.54C64.9262 115.671 64.0878 115.87 63.4445 115.587C63.2494 115.498 63.0912 115.356 62.991 115.168C63.0068 115.194 62.9277 114.947 62.9383 115.042C62.9435 115.11 63.0068 114.795 63.0226 114.753C62.1737 114.753 61.33 114.753 60.481 114.753C60.6551 115.168 60.518 114.413 60.6129 114.46C60.6287 114.465 60.249 114.659 60.1752 114.685C59.6005 114.89 58.9361 114.885 58.3349 114.947C56.7583 115.12 55.1817 115.294 53.6051 115.467C52.2394 115.619 50.7313 115.965 49.355 115.792C48.775 115.718 47.6624 115.173 47.9735 114.58C47.1562 114.36 46.3336 114.14 45.5163 113.92C45.5796 114.864 44.6726 115.419 43.8131 115.54C42.574 115.718 41.2294 115.372 40.0271 115.11C38.9725 114.879 37.881 114.601 36.9846 113.972C36.046 113.311 35.6822 112.305 35.5029 111.209C35.1285 108.975 35.0072 106.62 34.9492 104.36C34.9123 102.955 35.002 101.565 35.176 100.176C35.2445 99.6201 35.2445 99.6358 35.3183 99.1219C35.3974 98.5503 35.4765 97.9788 35.5503 97.4125C35.7454 95.9547 35.9142 94.497 36.0671 93.0392C36.1198 92.5253 35.6242 91.8541 35.0969 91.7755C33.573 91.5395 32.0491 91.293 30.5252 91.0728C29.6393 90.9417 28.7113 91.0046 27.8201 90.9575C26.8974 90.9103 25.9693 90.8368 25.0518 90.7057C23.2485 90.4488 21.4135 90.0136 19.7683 89.2218C12.6023 85.7767 10.8306 77.3395 10.9888 70.1347C11.1733 61.8391 12.829 53.4387 15.745 45.6623C18.3393 38.751 22.4048 32.4009 28.9117 28.5835C32.1756 26.6695 35.7507 25.3901 39.3996 24.4095C43.4176 23.3345 47.5359 22.5637 51.6646 22.0603C60.249 21.0116 68.9495 21.0535 77.5497 21.8768C81.8261 22.2858 86.0761 22.8993 90.2998 23.6754C94.1755 24.3885 98.0933 25.2695 101.526 27.2726C107.279 30.6285 111.202 36.4753 113.353 42.6471C116.074 50.4445 116.085 58.845 115.684 66.9884C115.579 69.0912 115.505 71.2096 115.304 73.3071C115.231 74.0884 115.078 74.9327 114.614 75.5829C114.192 76.1754 113.538 76.5477 112.895 76.8571C111.081 77.7381 109.087 78.3358 107.189 79.0018C105.101 79.7359 103.002 80.4281 100.893 81.0835C98.8631 81.7128 96.8225 82.3053 94.7713 82.8664C93.1367 83.3279 93.8327 85.8553 95.4726 85.4096Z" fill="white"/>
<path d="M34.4173 39.6215C33.9533 38.2424 32.2448 37.4296 30.8739 37.9277C29.5029 38.4259 28.7225 40.1406 29.2603 41.4935C27.9368 41.5983 26.5869 41.7137 25.3636 42.2276C24.1403 42.7415 23.0435 43.7325 22.7587 45.0225C22.474 46.3124 23.2491 47.8436 24.5515 48.0953C23.0435 48.9081 21.4352 49.831 20.7497 51.3936C20.0642 52.9562 20.9659 55.2582 22.6796 55.253C21.1979 56.3122 19.6899 57.6074 19.3207 59.385C18.9516 61.1626 20.4333 63.3335 22.2209 62.956C21.1505 63.5852 20.0484 64.2355 19.268 65.2003C18.4823 66.1651 18.071 67.5233 18.5456 68.6664C19.1573 70.1346 20.9079 70.7114 22.4582 71.1205C21.0872 72.1692 20.6337 74.23 21.4352 75.7507C22.2367 77.2713 24.2035 78.0736 25.8487 77.5492C25.0419 79.0122 25.6378 81.073 27.1089 81.8858C28.5748 82.6986 30.6524 82.1165 31.4803 80.664C31.823 82.5255 33.5156 84.0567 35.4139 84.2192C37.3122 84.3818 39.2421 83.1653 39.9065 81.3929C40.7818 83.4851 43.3339 84.7174 45.5275 84.1144C47.7211 83.5113 49.2713 81.1464 48.9391 78.9074C50.5632 78.9283 52.3349 78.9021 53.6057 77.8901C54.8765 76.878 55.0453 74.4869 53.5477 73.8577C55.0558 73.4696 56.5744 72.6306 57.1597 71.1939C57.7398 69.7571 56.8644 67.754 55.3089 67.6753C56.2739 67.0828 57.2968 66.4273 57.7292 65.3838C58.1721 64.3141 57.8769 63.0556 57.2494 62.0855C56.6219 61.1154 55.6991 60.3708 54.7922 59.6472C56.4901 58.997 57.6501 57.1617 57.4919 55.3526C57.3337 53.5488 55.8784 51.9337 54.0961 51.5824C55.4565 50.0774 56.2739 47.938 55.6938 45.9978C55.1138 44.0576 52.8359 42.6314 50.9534 43.3917C51.2751 41.3362 50.0886 39.139 48.1851 38.2738C46.2815 37.4086 43.8349 37.9487 42.4797 39.5376C42.4481 37.6131 40.6711 35.8879 38.7359 35.9037C36.7954 35.9246 34.4226 37.697 34.4173 39.6215Z" fill="#F7DC42"/>
<path d="M35.6879 39.2702C34.9233 37.2513 32.6665 35.9352 30.5204 36.6588C28.4534 37.3562 27.2564 39.7893 27.9841 41.8396C28.4059 41.289 28.833 40.7331 29.2548 40.1826C26.5656 40.4028 23.5969 40.8485 22.0467 43.334C20.7073 45.4787 21.5616 48.7246 24.2033 49.3591C24.0979 48.562 23.9924 47.7597 23.8869 46.9627C21.8779 48.0534 19.5789 49.5059 19.252 51.9704C18.962 54.1466 20.3329 56.4748 22.6847 56.5692C22.4632 55.7564 22.2418 54.9384 22.0203 54.1256C20.0693 55.5257 17.8283 57.4921 17.9601 60.1296C18.0814 62.547 20.0587 64.655 22.5792 64.2197C22.2418 63.4227 21.9043 62.6204 21.5616 61.8234C19.3258 63.1395 16.7473 65.0482 17.0531 67.9795C17.3326 70.6538 19.7898 71.7654 22.1099 72.3842C21.9148 71.6553 21.7197 70.9212 21.5299 70.1923C19.7213 71.6553 19.2256 74.3768 20.3013 76.4114C21.3875 78.4669 23.9977 79.4475 26.2018 78.813C25.7061 78.1733 25.2105 77.5283 24.7148 76.8886C23.6391 79.0018 24.293 81.8281 26.4443 83.0185C28.5746 84.1983 31.3693 83.3698 32.619 81.33C31.8175 81.2251 31.0108 81.1202 30.2093 81.0154C30.7155 83.438 32.8668 85.2837 35.3188 85.525C37.9078 85.7767 40.2385 84.0672 41.1718 81.7495C40.3703 81.8543 39.5635 81.9592 38.7621 82.0641C39.9116 84.6493 43.049 86.1018 45.7857 85.4096C48.5751 84.7017 50.6052 81.7547 50.2519 78.9126C49.8142 79.3479 49.3713 79.7883 48.9337 80.2236C51.1958 80.2498 53.9377 80.061 55.2771 77.953C56.3264 76.3065 56.1576 73.6532 54.2066 72.7355C54.1012 73.5326 53.9957 74.3349 53.8903 75.1319C55.9573 74.5761 58.2088 73.2127 58.5832 70.9317C58.9418 68.7503 57.5814 66.5899 55.3034 66.3749C55.5249 67.1877 55.7464 68.0057 55.9678 68.8185C57.7712 67.7068 59.4533 66.2333 59.2318 63.9156C59.0103 61.6451 57.4126 60.0929 55.72 58.7348C55.5249 59.4637 55.3298 60.1978 55.14 60.9267C57.3546 60.0195 59.0051 57.8381 58.81 55.3684C58.6201 52.9667 56.8168 50.8588 54.4439 50.3344C54.639 51.0633 54.8341 51.7974 55.024 52.5263C56.8431 50.455 57.8925 47.4923 56.6428 44.8652C55.6251 42.7205 52.9148 41.289 50.5999 42.1437C51.1536 42.5632 51.7125 42.9879 52.2662 43.4074C52.6089 40.88 51.1009 38.169 48.7596 37.1202C46.3288 36.0348 43.3232 36.6273 41.5409 38.6252C42.2897 38.9346 43.0437 39.2439 43.7925 39.5533C43.6712 36.8476 41.2878 34.4354 38.4773 34.6242C35.8725 34.7973 33.1938 36.921 33.0989 39.632C33.0409 41.3204 35.6774 41.3152 35.7354 39.632C35.7775 38.4364 37.3331 37.3929 38.4773 37.2461C39.8008 37.0783 41.0927 38.2476 41.156 39.5533C41.2034 40.6125 42.6061 41.3781 43.4076 40.4814C44.4305 39.3331 46.1442 38.8192 47.5996 39.4642C49.1288 40.1459 49.8459 41.8186 49.635 43.4074C49.5242 44.2202 50.5683 44.9438 51.3012 44.6712C52.4824 44.2359 53.8692 44.9438 54.3701 46.1866C54.987 47.7125 54.175 49.5164 53.1626 50.67C52.5457 51.3674 52.7144 52.6311 53.7426 52.8619C54.9607 53.1345 56.0047 54.0941 56.1735 55.3684C56.3317 56.5587 55.5723 57.9325 54.4387 58.394C53.6372 58.7243 52.9939 59.8937 53.8586 60.5858C54.9343 61.4458 56.2895 62.4211 56.5795 63.8579C56.8484 65.216 55.6514 65.9292 54.6443 66.5532C53.4684 67.2768 54.0485 68.8762 55.3087 68.9968C55.2718 68.9915 55.5091 69.0807 55.4933 69.0649C55.6989 69.2118 55.7885 69.3533 55.894 69.5998C56.0311 69.9092 56.0786 70.3392 55.9415 70.7062C55.5249 71.8022 54.2436 72.3213 53.1942 72.6044C52.166 72.8824 51.8232 74.5027 52.8778 75.0008C52.8831 75.0008 53.2417 75.2158 53.0835 75.0952C53.2681 75.2368 53.0993 75.048 53.21 75.2525C53.1257 75.0952 53.2681 75.4151 53.2733 75.4518C53.3313 75.6877 53.2997 75.3993 53.2944 75.6668C53.2891 76.0338 53.1731 76.4533 52.9411 76.7155C52.0342 77.7485 50.1728 77.6174 48.9389 77.6017C48.2903 77.5965 47.531 78.21 47.6207 78.9126C47.8369 80.6326 46.8561 82.4364 45.0896 82.8821C43.4076 83.3069 41.7149 82.2529 41.0453 80.7427C40.8396 80.276 40.1963 80.0453 39.7323 80.1187C39.1733 80.2026 38.8411 80.5539 38.6355 81.0573C38.1504 82.2686 36.7003 83.0919 35.4084 82.9188C34.0427 82.7353 33.025 81.6236 32.7561 80.3284C32.5188 79.1853 30.9053 79.1014 30.3464 80.0138C29.8296 80.8633 28.6432 81.2146 27.7784 80.7637C26.8925 80.297 26.5709 79.049 26.9927 78.2205C27.4937 77.2399 26.6605 75.9604 25.5057 76.296C24.409 76.6159 23.1118 76.1597 22.5845 75.1004C22.0519 74.0255 22.5107 72.7775 23.4018 72.0591C24.1928 71.4194 23.7077 70.1032 22.8218 69.8672C21.7356 69.5788 19.8267 69.1646 19.6844 67.7907C19.4945 65.9921 21.6143 64.8595 22.9009 64.0991C24.2508 63.3021 23.3069 61.4563 21.8832 61.7028C21.6776 61.7395 21.2979 61.5507 21.0659 61.2623C20.7073 60.8271 20.5386 60.2345 20.6071 59.7311C20.797 58.3153 22.2576 57.1879 23.3596 56.3961C24.3984 55.6463 24.0715 54.0102 22.6952 53.9525C22.458 53.9421 22.6583 53.984 22.458 53.9054C22.6372 53.9788 22.2892 53.7847 22.4211 53.8896C22.2154 53.7271 22.1205 53.6065 21.9992 53.3285C21.8252 52.9405 21.783 52.4057 21.9518 51.9704C22.4738 50.6333 24.0451 49.8782 25.2316 49.2385C26.2176 48.7036 26.012 47.1043 24.9152 46.8421C23.7393 46.5589 23.9186 45.0802 24.5883 44.3408C25.743 43.0666 27.6624 42.946 29.2707 42.8149C30.0616 42.752 30.8473 42.0231 30.5415 41.1579C30.2989 40.4762 30.4835 39.5428 31.2375 39.202C31.865 38.9188 32.8879 39.2597 33.1621 39.9833C33.4152 40.644 34.0533 41.1002 34.7862 40.9009C35.4084 40.7069 35.941 39.9361 35.6879 39.2702Z" fill="white"/>
<path d="M81.8851 36.3756C81.4211 34.9965 79.7126 34.1837 78.3416 34.6819C76.9707 35.18 76.1903 36.8947 76.7281 38.2476C75.4046 38.3525 74.0547 38.4679 72.8314 38.9817C71.608 39.4956 70.5112 40.4867 70.2265 41.7766C69.9418 43.0666 70.7169 44.5978 72.0193 44.8495C70.5112 45.6622 68.903 46.5851 68.2175 48.1478C67.532 49.7104 68.4337 52.0124 70.1474 52.0071C68.6657 53.0664 67.1576 54.3615 66.7885 56.1392C66.4194 57.9168 67.9011 60.0877 69.6887 59.7101C68.6182 60.3394 67.5162 60.9896 66.7358 61.9544C65.9501 62.9193 65.5388 64.2774 66.0134 65.4205C66.6251 66.8888 68.3757 67.4656 69.9259 67.8746C68.555 68.9233 68.1015 70.9841 68.903 72.5048C69.7045 74.0255 71.6713 74.8278 73.3165 74.3034C72.5097 75.7664 73.1056 77.8272 74.5767 78.6399C76.0426 79.4527 78.1202 78.8707 78.948 77.4182C79.2908 79.2797 80.9834 80.8108 82.8817 80.9734C84.78 81.136 86.7099 79.9194 87.3743 78.147C88.2496 80.2393 90.8017 81.4715 92.9953 80.8685C95.1888 80.2655 96.7391 77.9006 96.4069 75.6615C98.031 75.6825 99.8027 75.6563 101.073 74.6442C102.344 73.6322 102.513 71.2411 101.016 70.6118C102.524 70.2238 104.042 69.3848 104.627 67.948C105.208 66.5112 104.332 64.5081 102.777 64.4295C103.742 63.8369 104.765 63.1815 105.197 62.138C105.64 61.0683 105.345 59.8098 104.717 58.8397C104.09 57.8696 103.167 57.125 102.26 56.4014C103.958 55.7511 105.118 53.9158 104.96 52.1068C104.802 50.2977 103.346 48.6879 101.564 48.3365C102.924 46.8316 103.742 44.6921 103.162 42.752C102.582 40.8118 100.304 39.3855 98.4212 40.1458C98.7428 38.0903 97.5564 35.8932 95.6529 35.028C93.7493 34.1628 91.3026 34.7029 89.9475 36.2917C89.9159 34.3673 88.1389 32.6421 86.2037 32.6578C84.2632 32.6788 81.8904 34.4512 81.8851 36.3756Z" fill="#F7DC42"/>
<path d="M83.1557 36.0243C82.3911 34.0055 80.1342 32.6893 77.9881 33.4129C75.9211 34.1103 74.7242 36.5434 75.4518 38.5937C75.8737 38.0431 76.3008 37.4873 76.7226 36.9367C74.0334 37.1569 71.0647 37.6027 69.5144 40.0882C68.1751 42.2329 69.0293 45.4787 71.6711 46.1132C71.5656 45.3162 71.4602 44.5139 71.3547 43.7168C69.3457 44.8075 67.0467 46.26 66.7198 48.7246C66.4297 50.9007 67.8007 53.2289 70.1525 53.3233C69.931 52.5105 69.7095 51.6925 69.4881 50.8797C67.5371 52.2798 65.296 54.2462 65.4279 56.8838C65.5492 59.3011 67.5265 61.4091 70.047 60.9739C69.7095 60.1768 69.3721 59.3746 69.0293 58.5775C66.7936 59.8937 64.2151 61.8024 64.5209 64.7336C64.8004 67.4079 67.2576 68.5196 69.5777 69.1384C69.3826 68.4095 69.1875 67.6754 68.9977 66.9465C67.1891 68.4095 66.6934 71.131 67.7691 73.1655C68.8553 75.2211 71.4655 76.2016 73.6696 75.5671C73.1739 74.9274 72.6782 74.2824 72.1826 73.6427C71.1069 75.7559 71.7607 78.5823 73.9121 79.7726C76.0424 80.9524 78.8371 80.1239 80.0868 78.0841C79.2853 77.9793 78.4785 77.8744 77.677 77.7695C78.1832 80.1921 80.3346 82.0379 82.7866 82.2791C85.3756 82.5308 87.7063 80.8214 88.6396 78.5036C87.8381 78.6085 87.0313 78.7134 86.2298 78.8182C87.3793 81.4034 90.5168 82.8559 93.2535 82.1637C96.0429 81.4558 98.073 78.5089 97.7197 75.6668C97.282 76.102 96.8391 76.5425 96.4014 76.9777C98.6635 77.0039 101.405 76.8152 102.745 74.7072C103.794 73.0606 103.625 70.4073 101.674 69.4897C101.569 70.2867 101.464 71.089 101.358 71.8861C103.425 71.3302 105.677 69.9669 106.051 67.6858C106.41 65.5045 105.049 63.344 102.771 63.1291C102.993 63.9418 103.214 64.7599 103.436 65.5726C105.239 64.461 106.921 62.9875 106.7 60.6698C106.478 58.3992 104.88 56.8471 103.188 55.489C102.993 56.2178 102.798 56.952 102.608 57.6808C104.822 56.7737 106.473 54.5923 106.278 52.1225C106.088 49.7209 104.285 47.6129 101.912 47.0885C102.107 47.8174 102.302 48.5515 102.492 49.2804C104.311 47.2091 105.36 44.2464 104.111 41.6193C103.093 39.4747 100.383 38.0431 98.0677 38.8979C98.6214 39.3174 99.1803 39.7421 99.734 40.1616C100.077 37.6341 98.5686 34.9231 96.2274 33.8744C93.7966 32.7889 90.791 33.3815 89.0087 35.3793C89.7575 35.6887 90.5115 35.9981 91.2603 36.3075C91.139 33.6017 88.7556 31.1896 85.9451 31.3784C83.3402 31.5514 80.6615 33.6751 80.5666 36.3861C80.5086 38.0746 83.1451 38.0693 83.2031 36.3861C83.2453 35.1905 84.8008 34.147 85.9451 34.0002C87.2686 33.8324 88.5605 35.0018 88.6238 36.3075C88.6712 37.3667 90.0738 38.1323 90.8753 37.2356C91.8983 36.0872 93.612 35.5733 95.0674 36.2183C96.5965 36.9 97.3137 38.5727 97.1027 40.1616C96.992 40.9744 98.0361 41.698 98.769 41.4253C99.9501 40.9901 101.337 41.698 101.838 42.9408C102.455 44.4667 101.643 46.2705 100.63 47.4241C100.013 48.1215 100.182 49.3853 101.21 49.616C102.428 49.8887 103.473 50.8483 103.641 52.1225C103.799 53.3128 103.04 54.6867 101.906 55.1481C101.105 55.4785 100.462 56.6478 101.326 57.34C102.402 58.2 103.757 59.1753 104.047 60.6121C104.316 61.9702 103.119 62.6833 102.112 63.3073C100.936 64.031 101.516 65.6303 102.776 65.7509C102.74 65.7457 102.977 65.8348 102.961 65.8191C103.167 65.9659 103.256 66.1075 103.362 66.3539C103.499 66.6633 103.546 67.0933 103.409 67.4604C102.993 68.5563 101.711 69.0754 100.662 69.3586C99.6338 69.6365 99.291 71.2568 100.346 71.755C100.351 71.755 100.709 71.97 100.551 71.8494C100.736 71.9909 100.567 71.8022 100.678 72.0067C100.593 71.8494 100.736 72.1692 100.741 72.2059C100.799 72.4419 100.767 72.1535 100.762 72.4209C100.757 72.788 100.641 73.2075 100.409 73.4697C99.5019 74.5027 97.6406 74.3716 96.4067 74.3559C95.7581 74.3506 94.9988 74.9641 95.0885 75.6668C95.3046 77.3867 94.3239 79.1905 92.5574 79.6363C90.8753 80.061 89.1827 79.007 88.513 77.4968C88.3074 77.0301 87.6641 76.7994 87.2001 76.8728C86.6411 76.9567 86.3089 77.3081 86.1033 77.8115C85.6182 79.0228 84.1681 79.846 82.8762 79.673C81.5105 79.4894 80.4928 78.3778 80.2239 77.0826C79.9866 75.9394 78.3731 75.8555 77.8141 76.768C77.2974 77.6174 76.111 77.9688 75.2462 77.5178C74.3603 77.0511 74.0387 75.8031 74.4605 74.9746C74.9614 73.994 74.1283 72.7146 72.9735 73.0502C71.8767 73.37 70.5796 72.9138 70.0523 71.8546C69.5197 70.7796 69.9785 69.5316 70.8696 68.8132C71.6605 68.1735 71.1754 66.8573 70.2896 66.6214C69.2033 66.333 67.2945 65.9187 67.1521 64.5449C66.9623 62.7463 69.0821 61.6136 70.3687 60.8533C71.7186 60.0562 70.7747 58.2105 69.351 58.4569C69.1453 58.4936 68.7657 58.3048 68.5337 58.0164C68.1751 57.5812 68.0064 56.9887 68.0749 56.4853C68.2647 55.0695 69.7254 53.9421 70.8274 53.1503C71.8662 52.4004 71.5393 50.7644 70.163 50.7067C69.9257 50.6962 70.1261 50.7382 69.9257 50.6595C70.105 50.7329 69.757 50.5389 69.8888 50.6438C69.6832 50.4812 69.5883 50.3606 69.467 50.0827C69.293 49.6947 69.2508 49.1598 69.4195 48.7246C69.9416 47.3874 71.5129 46.6323 72.6993 45.9926C73.6854 45.4577 73.4797 43.8584 72.383 43.5962C71.2071 43.3131 71.3864 41.8343 72.056 41.095C73.2108 39.8208 75.1302 39.7001 76.7384 39.5691C77.5294 39.5061 78.3151 38.7773 78.0092 37.912C77.7667 37.2304 77.9512 36.297 78.7053 35.9561C79.3327 35.673 80.3557 36.0138 80.6299 36.7374C80.883 37.3982 81.521 37.8544 82.254 37.6551C82.8762 37.4611 83.4088 36.6903 83.1557 36.0243Z" fill="white"/>
<path d="M59.0156 89.4472C59.2213 87.2029 60.0386 85.0163 61.3516 83.1758C61.7734 82.5885 62.2585 82.0222 62.8913 81.6656C64.4626 80.7741 66.5507 81.4349 67.8268 82.7143C69.1029 83.9938 69.7514 85.7399 70.3684 87.4284C70.5529 87.9423 70.7375 88.5296 70.4844 89.0173C70.3315 89.3109 70.0362 89.5154 69.7303 89.657C69.1134 89.9506 68.4068 90.0608 67.7319 89.9716C66.9198 89.8667 66.1553 89.4787 65.3327 89.4472C64.2464 89.4053 63.2498 89.9874 62.2216 90.3492C61.1934 90.7057 59.8857 90.7791 59.1844 89.9454L59.0156 89.4472Z" fill="#DA5C26"/>
<path d="M60.3342 89.4473C60.5293 87.4914 61.2622 85.6141 62.3801 83.999C62.8336 83.3436 63.3767 82.7458 64.1466 82.5937C64.7213 82.4836 65.4384 82.6619 66.0396 82.9975C67.5845 83.8627 68.3175 85.6613 68.9081 87.2501C69.0504 87.6382 69.2877 88.0996 69.293 88.5034C69.2877 88.2936 69.5039 88.3408 69.2192 88.4457C69.0135 88.5191 68.829 88.6135 68.6075 88.6555C67.5845 88.839 66.551 88.2412 65.5386 88.1521C64.2837 88.0419 63.1921 88.5978 62.0532 89.0173C61.6472 89.1641 61.2464 89.2795 60.8984 89.2899C60.6347 89.2952 60.5609 89.2952 60.408 89.2375C60.2287 89.1693 60.2604 89.1746 60.118 89.0225C60.2287 89.2165 60.3447 89.4106 60.4555 89.5993C60.3975 89.4315 60.3447 89.269 60.2867 89.1012C60.06 88.43 59.3798 87.9895 58.6626 88.1835C58.0088 88.3618 57.5131 89.1221 57.7399 89.7986C57.8875 90.2338 58.0141 90.6481 58.3515 90.9889C58.8947 91.5238 59.6012 91.7912 60.3447 91.8803C61.6788 92.0377 62.7967 91.4923 64.0095 91.0466C64.5262 90.8578 65.0324 90.6953 65.5808 90.7949C66.377 90.9312 67.11 91.2563 67.9273 91.3035C69.3932 91.3927 71.36 90.7582 71.8135 89.2008C72.1984 87.8846 71.3916 86.3692 70.8907 85.1789C70.3634 83.9414 69.7148 82.751 68.7499 81.7914C66.8305 79.8827 63.7036 79.2482 61.5048 81.0468C60.3764 81.9697 59.5485 83.3855 58.9527 84.6965C58.2619 86.2224 57.8559 87.7902 57.6871 89.4525C57.6186 90.1604 58.341 90.7634 59.0054 90.7634C59.7858 90.7582 60.2604 90.1552 60.3342 89.4473Z" fill="white"/>
<path d="M87.1841 40.6178C84.5002 40.8275 81.6422 41.095 79.5066 42.7258C77.9195 43.937 76.9282 45.7723 76.2479 47.6444C74.1967 53.2709 74.5975 59.4637 75.3093 65.4101C75.4939 66.9465 75.7154 68.5353 76.5274 69.8567C77.5662 71.5452 79.4697 72.5677 81.4155 72.9558C83.3665 73.3438 85.386 73.1655 87.3581 72.9086C90.8858 72.4471 94.7139 71.5295 96.8337 68.6821C98.9218 65.8715 98.7162 62.0383 98.3945 58.5565C98.0148 54.4612 97.5983 50.3134 96.1693 46.4488C95.7211 45.2375 95.1569 44.0367 94.2341 43.1295C92.204 41.1526 90.4903 40.5339 87.6481 40.5863L87.1841 40.6178Z" fill="#0AA54A"/>
<path d="M87.184 39.3069C83.9042 39.5638 80.4345 39.9571 77.951 42.3377C75.5307 44.6554 74.4392 48.2317 73.896 51.4356C73.2844 55.0328 73.3371 58.6771 73.664 62.3005C73.9593 65.5884 73.9909 69.5736 76.5958 71.9962C79.2323 74.4397 82.955 74.7177 86.3719 74.3454C89.4145 74.015 92.6362 73.5064 95.2675 71.8546C98.1254 70.056 99.5175 67.1562 99.8392 63.8789C99.9921 62.3215 99.9024 60.7484 99.7706 59.1963C99.6177 57.3767 99.4331 55.5519 99.1906 53.7428C98.9164 51.7082 98.5578 49.6842 97.9725 47.7178C97.4241 45.8825 96.7439 43.9895 95.4573 42.5265C94.3869 41.31 92.9684 40.3241 91.4393 39.7893C90.0894 39.3069 88.6024 39.2387 87.184 39.3069C85.4966 39.3855 85.4861 42.0074 87.184 41.9287C89.3934 41.8238 91.26 42.2014 92.921 43.7116C93.9967 44.6922 94.5873 45.9087 95.0618 47.2616C95.5891 48.7822 95.9741 50.3554 96.2588 51.9337C96.8072 54.9436 97.1341 58.0531 97.2554 61.1102C97.3556 63.6744 97.1605 66.5322 95.278 68.4881C93.5168 70.3234 90.8962 71.0104 88.46 71.4298C85.7023 71.9018 82.4119 72.3737 79.8176 71.0523C78.7155 70.4912 77.7981 69.6732 77.3077 68.5248C76.7382 67.1824 76.6433 65.646 76.4903 64.2197C76.1371 61.0368 75.9156 57.8224 76.1476 54.6185C76.3796 51.3936 77.0651 47.7597 79.0214 45.0907C80.9197 42.495 84.2047 42.1647 87.184 41.9287C87.8958 41.871 88.5022 41.3676 88.5022 40.6178C88.5022 39.9518 87.8958 39.2492 87.184 39.3069Z" fill="white"/>
<path d="M39.7163 43.8637C37.0324 44.0734 34.1744 44.3408 32.0389 45.9716C30.4517 47.1829 29.4604 49.0182 28.7802 50.8902C26.729 56.5167 27.1297 62.7096 27.8416 68.6559C28.0261 70.1923 28.2476 71.7812 29.0596 73.1026C30.0984 74.7911 32.002 75.8136 33.9477 76.2016C35.8987 76.5897 37.9183 76.4114 39.8904 76.1544C43.418 75.693 47.2462 74.7754 49.3659 71.928C51.454 69.1174 51.2484 65.2842 50.9267 61.8024C50.5471 57.7071 50.1305 53.5593 48.7015 49.6947C48.2533 48.4834 47.6891 47.2826 46.7663 46.3754C44.7362 44.3985 43.0225 43.7798 40.1804 43.8322L39.7163 43.8637Z" fill="#0AA74B"/>
<path d="M39.7162 42.5527C36.4364 42.8097 32.9668 43.203 30.4832 45.5836C28.0629 47.9013 26.9714 51.4775 26.4283 54.6814C25.8166 58.2786 25.8693 61.923 26.1963 65.5464C26.4915 68.8342 26.5232 72.8195 29.128 75.2421C31.7645 77.6856 35.4873 77.9635 38.9042 77.5912C41.9467 77.2609 45.1685 76.7522 47.7997 75.1005C50.6577 73.3019 52.0497 70.4021 52.3714 67.1248C52.5243 65.5674 52.4347 63.9943 52.3028 62.4421C52.1499 60.6226 51.9654 58.7978 51.7228 56.9887C51.4486 54.9541 51.09 52.93 50.5047 50.9637C49.9563 49.1284 49.2761 47.2354 47.9895 45.7724C46.9191 44.5558 45.5007 43.57 43.9715 43.0352C42.6216 42.5527 41.1346 42.4846 39.7162 42.5527C38.0288 42.6314 38.0183 45.2533 39.7162 45.1746C41.9256 45.0697 43.7922 45.4473 45.4532 46.9575C46.5289 47.938 47.1195 49.1546 47.594 50.5075C48.1213 52.0281 48.5063 53.6012 48.791 55.1796C49.3394 58.1895 49.6663 61.299 49.7876 64.3561C49.8878 66.9203 49.6927 69.7781 47.8102 71.734C46.0491 73.5693 43.4284 74.2562 40.9923 74.6757C38.2345 75.1477 34.9441 75.6196 32.3498 74.2982C31.2478 73.7371 30.3303 72.9191 29.8399 71.7707C29.2704 70.4283 29.1755 68.8919 29.0226 67.4656C28.6693 64.2827 28.4478 61.0683 28.6798 57.8644C28.9118 54.6395 29.5973 51.0056 31.5536 48.3366C33.4519 45.7409 36.737 45.4106 39.7162 45.1746C40.4281 45.1169 41.0344 44.6135 41.0344 43.8637C41.0344 43.1977 40.4281 42.4951 39.7162 42.5527Z" fill="white"/>
<path d="M44.5045 99.3474C44.6996 101.445 44.7576 103.553 44.6785 105.656C44.6522 106.343 45.306 106.998 45.9968 106.967C46.735 106.935 47.2887 106.39 47.315 105.656C47.3941 103.553 47.3414 101.445 47.141 99.3474C47.0777 98.6657 46.5821 98.005 45.8228 98.0365C45.1584 98.0679 44.436 98.6133 44.5045 99.3474Z" fill="white"/>
<path d="M57.6177 100.936C57.6704 103.002 57.7232 105.068 57.7759 107.134C57.7917 107.821 58.3717 108.477 59.0941 108.445C59.7954 108.414 60.4335 107.868 60.4124 107.134C60.3597 105.068 60.3069 103.002 60.2542 100.936C60.2384 100.249 59.6583 99.5938 58.9359 99.6253C58.2346 99.6568 57.5966 100.202 57.6177 100.936Z" fill="white"/>
<path d="M70.9434 101.282C71.1543 102.651 71.3599 104.02 71.5708 105.383C71.6183 105.687 71.9241 106.017 72.1772 106.164C72.462 106.327 72.8785 106.4 73.1949 106.295C73.5113 106.19 73.8224 105.996 73.9806 105.692C74.1546 105.362 74.1704 105.053 74.1124 104.68C73.9015 103.312 73.6959 101.943 73.4849 100.58C73.4375 100.276 73.1317 99.9452 72.8786 99.7984C72.5938 99.6358 72.1772 99.5624 71.8609 99.6673C71.5445 99.7721 71.2334 99.9662 71.0752 100.27C70.9012 100.606 70.8854 100.915 70.9434 101.282Z" fill="white"/>
<path d="M82.3696 99.4156C82.9549 101.02 83.5455 102.63 84.1308 104.235C84.368 104.88 85.0377 105.378 85.7548 105.152C86.3876 104.948 86.9254 104.229 86.6776 103.537C86.0923 101.933 85.5017 100.323 84.9164 98.7181C84.6791 98.0732 84.0095 97.575 83.2924 97.8005C82.6543 98.005 82.1165 98.7234 82.3696 99.4156Z" fill="white"/>
<path d="M44.7574 208.915C45.0211 209.434 45.2794 209.958 45.5431 210.477C45.6275 210.629 45.7382 210.755 45.8806 210.844C46.0071 210.96 46.1547 211.038 46.3288 211.08C46.5028 211.133 46.6768 211.143 46.8561 211.101C47.0301 211.091 47.1935 211.044 47.3464 210.944C47.6259 210.766 47.8737 210.493 47.9528 210.163C47.9687 210.047 47.9845 209.932 48.0003 209.817C48.0003 209.581 47.937 209.36 47.821 209.156C47.5574 208.637 47.299 208.113 47.0353 207.593C46.951 207.441 46.8402 207.315 46.6979 207.226C46.5713 207.111 46.4237 207.032 46.2497 206.99C46.0757 206.938 45.9016 206.927 45.7224 206.969C45.5484 206.98 45.3849 207.027 45.232 207.127C44.9525 207.305 44.7047 207.578 44.6256 207.908C44.6098 208.023 44.5939 208.139 44.5781 208.254C44.5781 208.49 44.6361 208.71 44.7574 208.915Z" fill="white"/>
<path d="M55.034 206.455C55.2238 207.305 55.4137 208.149 55.6088 208.999C55.6773 209.313 55.941 209.623 56.2152 209.78C56.4999 209.943 56.9165 210.016 57.2328 209.911C57.5492 209.806 57.8603 209.612 58.0185 209.308C58.1873 208.988 58.2294 208.653 58.1503 208.296C57.9605 207.447 57.7707 206.602 57.5756 205.753C57.507 205.438 57.2434 205.129 56.9692 204.972C56.6845 204.809 56.2679 204.736 55.9515 204.84C55.6351 204.945 55.324 205.139 55.1658 205.443C54.9971 205.763 54.9496 206.094 55.034 206.455Z" fill="white"/>
<path d="M72.4619 206.298C72.4619 207.536 72.4619 208.773 72.4619 210.005C72.4619 210.692 73.0683 211.348 73.7802 211.316C74.492 211.285 75.0984 210.74 75.0984 210.005C75.0984 208.768 75.0984 207.53 75.0984 206.298C75.0984 205.611 74.492 204.956 73.7802 204.987C73.0683 205.019 72.4619 205.564 72.4619 206.298Z" fill="white"/>
<path d="M88.154 205.249C87.5001 206.487 86.8463 207.724 86.1924 208.957C85.8708 209.565 86.0184 210.409 86.667 210.75C87.2734 211.07 88.1276 210.928 88.4703 210.278C89.1242 209.041 89.778 207.803 90.4319 206.571C90.7535 205.963 90.6059 205.118 89.9573 204.777C89.3457 204.458 88.4967 204.599 88.154 205.249Z" fill="white"/>
<path d="M9.10093 26.1818C8.51035 25.1541 7.23429 24.6507 6.04787 24.7608C4.86672 24.8709 3.78575 25.5054 2.91571 26.3129C2.29877 26.8897 1.75565 27.5714 1.48146 28.3685C0.92252 30.0098 1.68183 31.9447 3.10027 32.9515C4.5187 33.9583 6.46971 34.0789 8.09906 33.4444C7.70359 35.2587 7.31866 37.1622 7.82487 38.9503C8.33107 40.7384 10.0395 42.3377 11.8851 42.0598C14.1155 41.7295 15.128 39.1705 15.7133 37.0049C16.6044 38.9608 18.8771 40.1878 21.0126 39.8627C23.1429 39.5376 24.9463 37.6918 25.2099 35.5628C25.4736 33.4339 24.1659 31.2106 22.1779 30.3873C24.7195 28.746 25.1836 24.6349 22.9742 22.5742C20.7648 20.5134 16.5358 21.3576 15.418 24.163C15.3231 22.7262 15.2123 21.237 14.5163 19.9785C13.815 18.72 12.3491 17.7604 10.9465 18.117C9.52277 18.4841 8.10433 19.8684 8.13597 21.3314C8.17288 22.7996 8.43653 24.8762 9.10093 26.1818Z" fill="#532B78"/>
<path d="M10.2403 25.5212C7.58801 21.2737 0.917678 24.2784 0.100365 28.4681C-0.310929 30.5656 0.580207 32.705 2.29393 33.974C4.03402 35.264 6.44905 35.4475 8.45806 34.7134C7.91494 34.1733 7.37709 33.6384 6.83397 33.0983C6.38577 35.1643 5.93757 37.4087 6.61778 39.4799C7.17672 41.1841 8.52133 42.7205 10.2878 43.2344C11.9804 43.7273 13.7732 43.0771 14.9017 41.7662C15.9826 40.5129 16.5626 38.9241 16.995 37.3562C16.1935 37.4611 15.3868 37.566 14.5853 37.6708C15.4448 39.4589 17.2481 40.7804 19.2044 41.1212C21.2451 41.4725 23.3068 40.8013 24.7516 39.3226C26.2017 37.8334 26.8292 35.7936 26.4337 33.7643C26.0593 31.8346 24.662 30.0517 22.848 29.2599C22.848 30.015 22.848 30.7701 22.848 31.5252C25.358 29.842 26.402 26.4493 25.2473 23.6492C24.0503 20.7336 20.7125 19.4489 17.7649 20.4715C16.0828 21.0535 14.8384 22.1862 14.1476 23.8169C15.0124 23.9323 15.8719 24.0477 16.7367 24.163C16.6048 22.1494 16.3886 20.031 15.0177 18.4317C13.7416 16.9477 11.7379 16.3289 9.90813 17.1102C8.18913 17.8444 6.79179 19.5066 6.82343 21.4311C6.85507 23.2611 7.15563 25.1908 7.95712 26.8478C8.26823 27.4876 9.18046 27.6553 9.76048 27.3198C10.4196 26.9317 10.5462 26.1609 10.2403 25.5212C9.73412 24.4777 9.57593 23.2244 9.49683 22.0813C9.45992 21.5517 9.40719 21.0745 9.68139 20.5973C9.93977 20.1463 10.3669 19.7898 10.8309 19.5643C11.7273 19.1238 12.5974 19.5486 13.1774 20.3037C13.9841 21.3681 14.0263 22.8941 14.1107 24.163C14.2162 25.7152 16.1355 25.8515 16.6997 24.5091C17.4749 22.6791 20.5279 22.1809 21.9938 23.4499C23.6865 24.9129 23.3543 28.0277 21.5193 29.2547C20.7863 29.7476 20.5438 31.09 21.5193 31.52C23.8763 32.553 24.7674 35.5419 22.8902 37.4663C21.0236 39.375 17.9864 38.6829 16.8632 36.3494C16.3623 35.3007 14.7382 35.6363 14.4534 36.664C14.0369 38.169 13.1036 41.3624 10.9891 40.707C10.003 40.4028 9.3281 39.438 9.075 38.4889C8.66897 36.9525 9.04863 35.3112 9.37556 33.7957C9.57066 32.9043 8.75862 31.8136 7.75147 32.1807C6.56505 32.6159 5.23098 32.6893 4.10784 32.0338C3.1587 31.478 2.51539 30.3663 2.62613 29.2599C2.74741 28.0067 3.98129 26.9527 5.03061 26.4021C5.95866 25.9197 7.34018 25.8463 7.96239 26.8373C8.85353 28.2741 11.1367 26.9579 10.2403 25.5212Z" fill="white"/>
<path d="M31.2894 14.158C30.6988 13.1302 29.4228 12.6268 28.2363 12.7369C27.0552 12.8471 25.9742 13.4815 25.1042 14.2891C24.4872 14.8659 23.9441 15.5476 23.6699 16.3446C23.111 17.9859 23.8703 19.9208 25.2887 20.9276C26.7072 21.9344 28.6582 22.055 30.2875 21.4205C29.8921 23.2348 29.5071 25.1383 30.0133 26.9264C30.5195 28.7145 32.228 30.3139 34.0735 30.0359C36.304 29.7056 37.3164 27.1467 37.9017 24.981C38.7929 26.9369 41.0655 28.1639 43.2011 27.8388C45.3367 27.5137 47.1347 25.6679 47.3984 23.539C47.662 21.41 46.3543 19.1867 44.3664 18.3634C46.908 16.7222 47.372 12.6111 45.1626 10.5503C42.9533 8.48952 38.7243 9.33376 37.6065 12.1391C37.5115 10.7024 37.4008 9.21316 36.7048 7.95466C36.0087 6.69617 34.5376 5.73657 33.135 6.09315C31.7112 6.46021 30.2928 7.84455 30.3244 9.30754C30.3666 10.7758 30.625 12.8523 31.2894 14.158Z" fill="#ED1E24"/>
<path d="M32.4288 13.4973C29.7765 9.24988 23.1062 12.2545 22.2888 16.4443C21.8775 18.5417 22.7687 20.6812 24.4824 21.9502C26.2225 23.2401 28.6375 23.4236 30.6465 22.6895C30.1034 22.1494 29.5656 21.6146 29.0225 21.0745C28.5742 23.1405 28.126 25.3848 28.8063 27.4561C29.3652 29.1603 30.7098 30.6967 32.4763 31.2106C34.1689 31.7035 35.9617 31.0532 37.0901 29.7423C38.1711 28.4891 38.7511 26.9002 39.1835 25.3324C38.382 25.4372 37.5752 25.5421 36.7737 25.647C37.6332 27.4351 39.4366 28.7565 41.3929 29.0973C43.4335 29.4487 45.4953 28.7775 46.9401 27.2987C48.3901 25.8095 49.0176 23.7697 48.6222 21.7404C48.2478 19.8107 46.8504 18.0279 45.0365 17.2361C45.0365 17.9912 45.0365 18.7462 45.0365 19.5013C47.5465 17.8181 48.5905 14.4254 47.4357 11.6253C46.2388 8.70978 42.901 7.42507 39.9534 8.4476C38.2713 9.02965 37.0269 10.1623 36.3361 11.7931C37.2009 11.9084 38.0604 12.0238 38.9251 12.1392C38.7933 10.1256 38.5771 8.00712 37.2061 6.40779C35.9301 4.92382 33.9263 4.30506 32.0966 5.08638C30.3776 5.8205 28.9803 7.48275 29.0119 9.4072C29.0435 11.2373 29.3441 13.1669 30.1456 14.824C30.4567 15.4637 31.3689 15.6315 31.949 15.2959C32.6134 14.9079 32.7399 14.137 32.4288 13.4973C31.9226 12.4538 31.7644 11.2005 31.6853 10.0574C31.6484 9.5278 31.5957 9.05062 31.8699 8.57345C32.1282 8.12249 32.5554 7.76591 33.0194 7.54043C33.9158 7.09996 34.7858 7.5247 35.3659 8.2798C36.1726 9.34427 36.2148 10.8702 36.2992 12.1392C36.4046 13.6913 38.324 13.8276 38.8882 12.4853C39.6633 10.6552 42.7164 10.157 44.1823 11.426C45.8749 12.889 45.5427 16.0038 43.7077 17.2308C42.9748 17.7237 42.7322 19.0661 43.7077 19.4961C46.0648 20.5291 46.9559 23.518 45.0787 25.4425C43.2121 27.3512 40.1748 26.659 39.0517 24.3256C38.5507 23.2768 36.9267 23.6124 36.6419 24.6402C36.2254 26.1451 35.292 29.3386 33.1776 28.6831C32.1915 28.379 31.5166 27.4141 31.2635 26.465C30.8575 24.9286 31.2371 23.2873 31.564 21.7719C31.7591 20.8804 30.9471 19.7897 29.94 20.1568C28.7535 20.592 27.4195 20.6654 26.2963 20.01C25.3472 19.4542 24.7039 18.3425 24.8146 17.2361C24.9359 15.9828 26.1698 14.9288 27.2191 14.3782C28.1471 13.8958 29.5287 13.8224 30.1509 14.8135C31.0473 16.2502 33.3305 14.9341 32.4288 13.4973Z" fill="white"/>
<path d="M58.9251 9.41243C58.3346 8.38467 57.0585 7.88127 55.8721 7.99139C54.6909 8.1015 53.61 8.73599 52.7399 9.54353C52.123 10.1203 51.5799 10.802 51.3057 11.5991C50.7467 13.2403 51.506 15.1753 52.9245 16.1821C54.3429 17.1889 56.2939 17.3095 57.9233 16.675C57.5278 18.4893 57.1429 20.3928 57.6491 22.1809C58.1553 23.969 59.8637 25.5683 61.7093 25.2904C63.9398 24.96 64.9522 22.4011 65.5375 20.2355C66.4286 22.1914 68.7013 23.4184 70.8368 23.0933C72.9671 22.7682 74.7705 20.9224 75.0341 18.7934C75.2978 16.6645 73.9901 14.4412 72.0022 13.6179C74.5438 11.9766 75.0078 7.86554 72.7984 5.80476C70.589 3.74398 66.3601 4.58822 65.2422 7.3936C65.1473 5.95683 65.0365 4.46761 64.3405 3.20912C63.6392 1.95063 62.1733 0.991029 60.7707 1.3476C59.347 1.71466 57.9286 3.099 57.9602 4.562C57.9971 6.03024 58.2608 8.10675 58.9251 9.41243Z" fill="#EE3B8C"/>
<path d="M60.0645 8.75175C57.4122 4.50434 50.7419 7.50899 49.9246 11.6987C49.5133 13.7962 50.4044 15.9356 52.1181 17.2046C53.8582 18.4946 56.2733 18.6781 58.2823 17.944C57.7392 17.4039 57.2013 16.869 56.6582 16.3289C56.21 18.3949 55.7618 20.6392 56.442 22.7105C57.0009 24.4147 58.3456 25.9511 60.112 26.465C61.8046 26.9579 63.5974 26.3077 64.7259 24.9968C65.8068 23.7435 66.3869 22.1547 66.8192 20.5868C66.0178 20.6917 65.211 20.7966 64.4095 20.9014C65.269 22.6895 67.0724 24.011 69.0286 24.3518C71.0693 24.7031 73.131 24.0319 74.5758 22.5532C76.0259 21.064 76.6534 19.0242 76.2579 16.9949C75.8835 15.0652 74.4862 13.2823 72.6723 12.4905C72.6723 13.2456 72.6723 14.0007 72.6723 14.7558C75.1822 13.0726 76.2263 9.67989 75.0715 6.87974C73.8745 3.96424 70.5367 2.67953 67.5891 3.70205C65.907 4.2841 64.6626 5.41675 63.9718 7.04754C64.8366 7.1629 65.6961 7.27826 66.5609 7.39363C66.429 5.38004 66.2129 3.26158 64.8419 1.66225C63.5658 0.178276 61.5621 -0.440482 59.7323 0.340831C58.0134 1.07495 56.616 2.73721 56.6476 4.66165C56.6793 6.49171 56.9798 8.42139 57.7813 10.0784C58.0924 10.7181 59.0047 10.8859 59.5847 10.5503C60.2438 10.1623 60.3757 9.39148 60.0645 8.75175C59.5583 7.70825 59.4001 6.455 59.3211 5.31187C59.2841 4.78226 59.2314 4.30508 59.5056 3.8279C59.764 3.37694 60.1911 3.02037 60.6551 2.79489C61.5515 2.35442 62.4216 2.77916 63.0016 3.53425C63.8084 4.59873 63.8506 6.12465 63.9349 7.39363C64.0404 8.94577 65.9598 9.0821 66.524 7.73971C67.2991 5.90966 70.3521 5.4115 71.818 6.68048C73.5107 8.14348 73.1785 11.2582 71.3435 12.4853C70.6105 12.9782 70.368 14.3206 71.3435 14.7506C73.7005 15.7836 74.5916 18.7725 72.7144 20.6969C70.8478 22.6056 67.8106 21.9135 66.6874 19.58C66.1865 18.5313 64.5624 18.8669 64.2777 19.8946C63.8611 21.3996 62.9278 24.593 60.8133 23.9375C59.8273 23.6334 59.1523 22.6686 58.8992 21.7195C58.4932 20.183 58.8728 18.5418 59.1998 17.0263C59.3949 16.1349 58.5828 15.0442 57.5757 15.4113C56.3893 15.8465 55.0552 15.9199 53.9321 15.2644C52.9829 14.7086 52.3396 13.5969 52.4503 12.4905C52.5716 11.2373 53.8055 10.1833 54.8548 9.63269C55.7829 9.15027 57.1644 9.07686 57.7866 10.0679C58.683 11.5047 60.961 10.1885 60.0645 8.75175Z" fill="white"/>
<path d="M85.2533 11.0117C84.6627 9.98397 83.3866 9.48057 82.2002 9.59069C81.0191 9.70081 79.9381 10.3353 79.0681 11.1428C78.4511 11.7196 77.908 12.4013 77.6338 13.1984C77.0749 14.8396 77.8342 16.7746 79.2526 17.7814C80.671 18.7882 82.6221 18.9088 84.2514 18.2743C83.8559 20.0886 83.471 21.9921 83.9772 23.7802C84.4834 25.5683 86.1919 27.1676 88.0374 26.8897C90.2679 26.5593 91.2803 24.0004 91.8656 21.8348C92.7567 23.7907 95.0294 25.0177 97.165 24.6926C99.2953 24.3675 101.099 22.5217 101.362 20.3927C101.626 18.2638 100.318 16.0405 98.3303 15.2172C100.872 13.5759 101.336 9.46484 99.1265 7.40406C96.9171 5.34328 92.6882 6.18752 91.5703 8.99291C91.4754 7.55613 91.3647 6.06692 90.6686 4.80842C89.9673 3.54993 88.5014 2.59033 87.0988 2.94691C85.6751 3.31397 84.2567 4.69831 84.2883 6.1613C84.32 7.6243 84.5889 9.70605 85.2533 11.0117Z" fill="#862E86"/>
<path d="M86.3927 10.3511C83.7404 6.10364 77.07 9.10829 76.2527 13.298C75.8414 15.3955 76.7326 17.5349 78.4463 18.8039C80.1864 20.0939 82.6014 20.2774 84.6104 19.5433C84.0673 19.0032 83.5294 18.4683 82.9863 17.9282C82.5381 19.9942 82.0899 22.2386 82.7701 24.3098C83.3291 26.014 84.6737 27.5504 86.4401 28.0643C88.1328 28.5572 89.9256 27.907 91.054 26.5961C92.135 25.3428 92.715 23.754 93.1474 22.1861C92.3459 22.291 91.5391 22.3959 90.7376 22.5007C91.5971 24.2888 93.4005 25.6103 95.3568 25.9511C97.3974 26.3024 99.4591 25.6312 100.904 24.1525C102.354 22.6633 102.982 20.6235 102.586 18.5942C102.212 16.6645 100.814 14.8816 99.0004 14.0898C99.0004 14.8449 99.0004 15.6 99.0004 16.3551C101.51 14.6719 102.554 11.2792 101.4 8.47905C100.203 5.56354 96.8648 4.27883 93.9172 5.30136C92.2351 5.88341 90.9907 7.01605 90.3 8.64685C91.1647 8.76221 92.0242 8.87757 92.889 8.99293C92.7572 6.97934 92.541 4.86088 91.17 3.26155C89.8939 1.77758 87.8902 1.15882 86.0605 1.94014C84.3415 2.67426 82.9441 4.33651 82.9758 6.26096C83.0074 8.09101 83.308 10.0207 84.1095 11.6777C84.4206 12.3174 85.3328 12.4852 85.9128 12.1496C86.5772 11.7616 86.7038 10.9908 86.3927 10.3511C85.8865 9.30755 85.7283 8.05431 85.6492 6.91118C85.6123 6.38156 85.5595 5.90438 85.8337 5.42721C86.0921 4.97625 86.5192 4.61967 86.9832 4.39419C87.8797 3.95372 88.7497 4.37846 89.3297 5.13356C90.1365 6.19803 90.1787 7.72395 90.263 8.99293C90.3685 10.5451 92.2879 10.6814 92.8521 9.33902C93.6272 7.50896 96.6803 7.01081 98.1462 8.27979C99.8388 9.74278 99.5066 12.8575 97.6716 14.0846C96.9387 14.5775 96.6961 15.9199 97.6716 16.3499C100.029 17.3829 100.92 20.3718 99.0426 22.2962C97.1759 24.2049 94.1387 23.5128 93.0155 21.1793C92.5146 20.1306 90.8905 20.4662 90.6058 21.4939C90.1892 22.9989 89.2559 26.1923 87.1414 25.5368C86.1554 25.2327 85.4804 24.2679 85.2273 23.3188C84.8213 21.7823 85.201 20.1411 85.5279 18.6256C85.723 17.7342 84.911 16.6435 83.9038 17.0106C82.7174 17.4458 81.3833 17.5192 80.2602 16.8637C79.311 16.3079 78.6677 15.1962 78.7785 14.0898C78.8997 12.8366 80.1336 11.7826 81.183 11.232C82.111 10.7496 83.4925 10.6762 84.1147 11.6672C85.0111 13.104 87.2943 11.7878 86.3927 10.3511Z" fill="white"/>
<path d="M109.551 26.1818C108.961 25.1541 107.684 24.6507 106.498 24.7608C105.317 24.8709 104.236 25.5054 103.366 26.3129C102.749 26.8897 102.206 27.5714 101.932 28.3685C101.373 30.0098 102.132 31.9447 103.55 32.9515C104.969 33.9583 106.92 34.0789 108.549 33.4444C108.154 35.2587 107.769 37.1622 108.275 38.9503C108.781 40.7384 110.49 42.3377 112.335 42.0598C114.566 41.7295 115.578 39.1705 116.163 37.0049C117.055 38.9608 119.327 40.1878 121.463 39.8627C123.593 39.5376 125.396 37.6918 125.66 35.5628C125.924 33.4339 124.616 31.2106 122.628 30.3873C125.17 28.746 125.634 24.6349 123.424 22.5742C121.215 20.5134 116.986 21.3576 115.868 24.163C115.773 22.7262 115.663 21.237 114.966 19.9785C114.265 18.72 112.799 17.7604 111.397 18.117C109.973 18.4841 108.555 19.8684 108.586 21.3314C108.623 22.7996 108.887 24.8762 109.551 26.1818Z" fill="#1293D1"/>
<path d="M110.691 25.5212C108.038 21.2737 101.368 24.2784 100.551 28.4681C100.139 30.5656 101.03 32.705 102.744 33.974C104.484 35.264 106.899 35.4475 108.908 34.7134C108.365 34.1733 107.827 33.6384 107.284 33.0983C106.836 35.1643 106.388 37.4087 107.068 39.4799C107.627 41.1841 108.972 42.7205 110.738 43.2344C112.431 43.7273 114.223 43.0771 115.352 41.7662C116.433 40.5129 117.013 38.9241 117.445 37.3562C116.644 37.4611 115.837 37.566 115.035 37.6708C115.895 39.4589 117.698 40.7804 119.655 41.1212C121.695 41.4725 123.757 40.8013 125.202 39.3226C126.652 37.8334 127.279 35.7936 126.884 33.7643C126.509 31.8346 125.112 30.0517 123.298 29.2599C123.298 30.015 123.298 30.7701 123.298 31.5252C125.808 29.842 126.852 26.4493 125.697 23.6492C124.5 20.7336 121.163 19.4489 118.215 20.4715C116.533 21.0535 115.289 22.1862 114.598 23.8169C115.463 23.9323 116.322 24.0477 117.187 24.163C117.055 22.1494 116.839 20.031 115.468 18.4317C114.192 16.9477 112.188 16.3289 110.358 17.1102C108.639 17.8444 107.242 19.5066 107.274 21.4311C107.305 23.2611 107.606 25.1908 108.407 26.8478C108.718 27.4876 109.631 27.6553 110.211 27.3198C110.87 26.9317 111.002 26.1609 110.691 25.5212C110.184 24.4777 110.026 23.2244 109.947 22.0813C109.91 21.5517 109.857 21.0745 110.132 20.5973C110.39 20.1463 110.817 19.7898 111.281 19.5643C112.177 19.1238 113.048 19.5486 113.628 20.3037C114.434 21.3681 114.477 22.8941 114.561 24.163C114.666 25.7152 116.586 25.8515 117.15 24.5091C117.925 22.6791 120.978 22.1809 122.444 23.4499C124.137 24.9129 123.804 28.0277 121.969 29.2547C121.237 29.7476 120.994 31.09 121.969 31.52C124.326 32.553 125.218 35.5419 123.34 37.4663C121.474 39.375 118.437 38.6829 117.313 36.3494C116.812 35.3007 115.188 35.6363 114.904 36.664C114.487 38.169 113.554 41.3624 111.439 40.707C110.453 40.4028 109.778 39.438 109.525 38.4889C109.119 36.9525 109.499 35.3112 109.826 33.7957C110.021 32.9043 109.209 31.8136 108.202 32.1807C107.015 32.6159 105.681 32.6893 104.558 32.0338C103.609 31.478 102.966 30.3663 103.076 29.2599C103.198 28.0067 104.431 26.9527 105.481 26.4021C106.409 25.9197 107.79 25.8463 108.413 26.8373C109.309 28.2741 111.587 26.9579 110.691 25.5212Z" fill="white"/>
<path d="M14.0791 31.7979C15.777 31.7979 15.777 29.176 14.0791 29.176C12.3812 29.176 12.3759 31.7979 14.0791 31.7979Z" fill="white"/>
<path d="M35.7041 19.8789C37.402 19.8789 37.402 17.2571 35.7041 17.2571C34.0114 17.2571 34.0062 19.8789 35.7041 19.8789Z" fill="white"/>
<path d="M64.8584 14.4989C66.5563 14.4989 66.5563 11.877 64.8584 11.877C63.1605 11.877 63.1552 14.4989 64.8584 14.4989Z" fill="white"/>
<path d="M90.2471 16.6016C91.945 16.6016 91.945 13.9797 90.2471 13.9797C88.5492 13.9797 88.5439 16.6016 90.2471 16.6016Z" fill="white"/>
<path d="M114.931 31.7979C116.629 31.7979 116.629 29.176 114.931 29.176C113.233 29.176 113.233 31.7979 114.931 31.7979Z" fill="white"/>
<path d="M63.1713 142.991C60.461 143.19 55.2882 144.805 53.2106 146.541C50.7481 148.596 49.2453 150.715 47.7003 153.52C46.0393 156.541 45.6597 160.127 46.0288 163.546C46.5456 168.323 48.5335 173.001 51.924 176.43C55.3145 179.859 60.1446 181.941 64.9694 181.663C68.2597 181.474 71.4288 180.232 74.2129 178.475C78.1835 175.974 81.5002 172.345 83.2878 168.019C85.0753 163.693 85.2546 158.664 83.4407 154.349C81.7797 150.39 78.5157 147.186 74.6506 145.282C70.7802 143.374 67.4688 142.608 63.1713 142.991Z" fill="#F7DC42"/>
<path d="M63.1708 141.68C61.4624 141.821 59.775 142.225 58.1457 142.744C56.453 143.284 54.7129 143.94 53.2154 144.915C51.5808 145.974 50.2098 147.479 49.0287 149.005C47.7421 150.678 46.5978 152.529 45.7963 154.48C44.1195 158.549 44.2988 163.305 45.4272 167.489C46.5451 171.621 48.7914 175.56 52.0765 178.365C55.3563 181.17 59.5483 182.932 63.8985 182.99C68.3805 183.053 72.7624 181.217 76.3269 178.611C79.6489 176.184 82.4752 173.011 84.1731 169.246C86.0451 165.088 86.5934 160.337 85.3701 155.917C83.1027 147.726 74.7714 142.12 66.4454 141.617C65.3538 141.554 64.2623 141.586 63.1708 141.68C62.459 141.738 61.8526 142.241 61.8526 142.991C61.8526 143.652 62.459 144.365 63.1708 144.302C65.0955 144.139 67.0307 144.171 68.9237 144.585C70.8114 144.999 72.6253 145.707 74.339 146.593C77.4975 148.229 80.1604 150.746 81.7898 153.913C83.5826 157.401 83.804 161.554 82.8074 165.308C81.853 168.905 79.7544 172.099 77.0493 174.637C74.2072 177.3 70.6321 179.372 66.7775 180.122C63.0601 180.845 59.2055 179.959 56.0048 177.998C52.7778 176.026 50.3311 172.959 48.8863 169.493C47.4309 166 46.7718 161.921 47.4626 158.177C48.1323 154.558 50.3047 151.103 52.9307 148.549C53.5371 147.957 54.0802 147.469 54.6708 147.097C55.3141 146.693 55.9996 146.357 56.6903 146.058C58.172 145.424 59.7434 144.947 61.32 144.601C62.0266 144.443 62.5697 144.349 63.1656 144.302C63.8774 144.244 64.4838 143.741 64.4838 142.991C64.4891 142.325 63.8827 141.622 63.1708 141.68Z" fill="white"/>
<path d="M86.714 131.843C85.2323 132.619 83.7769 133.62 83.4289 135.56C83.1969 136.882 83.6029 138.256 84.4255 139.231C86.3291 141.481 89.3769 141.103 91.4122 139.404C92.4563 138.528 93.3263 137.191 93.2525 135.728C93.1681 134.056 92.0925 132.283 90.6635 131.811C89.4771 131.418 88.9603 131.35 87.9795 131.46C87.5366 131.502 87.1095 131.633 86.714 131.843Z" fill="#F7DC42"/>
<path d="M86.0444 130.71C83.8666 131.864 82.116 133.605 82.0422 136.195C81.9684 138.791 83.8034 141.313 86.3608 141.937C88.6651 142.498 91.1486 141.585 92.7727 139.928C93.7324 138.948 94.3915 137.71 94.5392 136.347C94.671 135.109 94.2861 133.772 93.6322 132.718C92.8307 131.434 91.6812 130.689 90.2259 130.312C88.8233 129.95 87.3521 130.065 86.0444 130.71C85.4064 131.025 85.2271 131.921 85.5698 132.503C85.9495 133.148 86.7352 133.29 87.3732 132.975C87.7107 132.808 88.0165 132.755 88.3856 132.734C88.5702 132.724 88.7547 132.724 88.9393 132.734C88.9762 132.734 89.224 132.76 89.0605 132.739C88.9129 132.724 89.2767 132.781 89.3189 132.792C89.5351 132.839 89.7513 132.902 89.9622 132.97C90.015 132.986 90.5264 133.185 90.3419 133.096C90.711 133.285 90.9061 133.432 91.2225 133.841C91.1803 133.788 91.1328 133.715 91.2699 133.919C91.3227 133.998 91.3754 134.082 91.4228 134.166C91.4861 134.271 91.5389 134.381 91.5969 134.491C91.7023 134.706 91.5494 134.36 91.639 134.58C91.8183 135.015 91.9027 135.393 91.9185 135.723C91.9554 136.462 91.639 137.228 91.1539 137.794C90.5844 138.46 90.0835 138.848 89.2345 139.2C89.4244 139.121 88.9604 139.289 88.9234 139.299C88.7336 139.357 88.5438 139.404 88.3487 139.441C88.2907 139.451 88.0112 139.483 88.2432 139.462C88.1589 139.472 88.0692 139.478 87.9849 139.483C87.7687 139.493 87.5525 139.488 87.3363 139.467C87.5525 139.483 87.1359 139.43 87.0515 139.409C86.9461 139.383 86.8406 139.352 86.7404 139.32C86.693 139.304 86.4346 139.205 86.6244 139.289C86.461 139.215 86.3028 139.131 86.1499 139.037C85.9073 138.885 85.9547 138.927 85.7491 138.733C85.1743 138.203 84.7736 137.448 84.684 136.751C84.6154 136.205 84.6629 135.817 84.8263 135.325C84.9107 135.068 85.1533 134.638 85.2904 134.48C85.4327 134.312 85.5856 134.155 85.7491 134.008C85.8124 133.951 85.8809 133.893 85.9495 133.835C86.1604 133.657 85.8915 133.861 86.1024 133.72C86.5137 133.452 86.925 133.201 87.3574 132.97C87.9849 132.64 88.18 131.769 87.8319 131.177C87.4786 130.547 86.6771 130.374 86.0444 130.71Z" fill="white"/>
</g>
<defs>
<clipPath id="clip0_665_2619">
<rect width="127" height="220" fill="white"/>
</clipPath>
</defs>
</svg>
