<svg width="18" height="32" viewBox="0 0 18 32" fill="none" xmlns="http://www.w3.org/2000/svg">
<g clip-path="url(#clip0_303_70)">
<path d="M8.38366 31.9997C8.34643 31.9997 8.30924 31.9972 8.27234 31.9922C6.39602 31.742 4.33957 30.4911 3.28883 28.925C2.15053 27.2313 1.59264 25.2224 1.1048 23.2535C0.854622 22.2387 0.627379 21.2188 0.423069 20.1939C0.272963 19.4434 0.136617 18.6503 0.336758 17.9073C0.443083 17.512 0.639471 17.148 0.803336 16.7727C1.79403 14.4886 1.50133 11.8568 0.848368 9.45633C0.668242 8.79837 0.464347 8.14541 0.335507 7.47494C-0.192364 4.72301 -0.308695 2.54147 1.59389 0.470017C1.80455 0.235952 2.08317 0.0736765 2.3907 0.00594017C2.96736 -0.0803705 3.41392 0.421232 3.45645 0.710185L4.82491 10.1618C4.8606 10.4353 4.99386 10.6868 5.20018 10.8698C5.7293 11.3251 6.27718 10.9511 6.8038 10.761C7.98463 10.3345 9.44691 10.9686 9.931 12.117C11.2907 11.6641 12.9419 12.4397 13.451 13.7681C13.5198 13.9495 13.5911 14.1609 13.7725 14.2334C13.895 14.2692 14.0252 14.2692 14.1477 14.2334C14.9796 14.0708 15.9277 14.0746 16.5719 14.62C17.5088 15.413 17.34 16.8603 17.1386 18.0649C16.8737 19.653 16.6966 21.2544 16.6082 22.862C16.5369 24.1604 16.5206 25.4813 16.1329 26.7247C15.1497 29.9007 11.741 31.9797 8.38366 31.9997Z" fill="black"/>
<path d="M1.71334 6.33954C1.88346 6.48464 2.17867 6.38583 2.36505 6.29576C2.55143 6.2057 2.74031 6.08061 2.95046 6.10563C3.13809 6.12689 3.35074 6.25949 3.49459 6.14566C3.60717 6.05684 3.59466 5.87547 3.57215 5.72411L3.46832 5.02362L3.0818 2.40428C3.02551 2.02901 2.91668 1.57494 2.57144 1.43234C2.46695 1.394 2.35387 1.38539 2.24478 1.40747C2.13569 1.42955 2.03486 1.48146 1.95351 1.55743C1.79461 1.71575 1.67322 1.90767 1.59826 2.11908C1.24779 2.95444 1.07157 3.85257 1.08039 4.75843C1.08039 5.34259 1.21674 6.02682 1.71334 6.33579" fill="white"/>
<path d="M13.8611 15.3829C13.8158 15.4968 13.792 15.6181 13.791 15.7406C13.7919 15.802 13.8089 15.862 13.8403 15.9147C13.8717 15.9673 13.9164 16.0109 13.9699 16.0409C14.0922 16.0744 14.2206 16.0795 14.3452 16.0559C14.6629 16.0484 14.9431 16.2422 15.2508 16.3186C15.3392 16.3461 15.4338 16.3461 15.5222 16.3186C15.5865 16.2926 15.6424 16.2493 15.6836 16.1935C15.7629 16.0845 15.802 15.9514 15.7943 15.8169C15.7865 15.6823 15.7324 15.5546 15.6411 15.4554C15.579 15.3955 15.5091 15.3442 15.4334 15.3028C15.1696 15.1453 14.8855 15.0245 14.5891 14.9438C14.4686 14.9006 14.3378 14.8945 14.2138 14.9263C14.0287 14.9914 13.9349 15.189 13.8611 15.3679" fill="white"/>
<path d="M3.48535 21.9329C3.49812 21.9002 3.5049 21.8655 3.50537 21.8304C3.5139 20.6081 3.42101 19.3872 3.22767 18.1803C3.04504 17.1371 2.78111 16.0938 2.27075 15.1244C2.16943 14.9343 2.0581 14.7216 2.23823 14.5302C2.33507 14.4374 2.45917 14.3782 2.59222 14.3614C2.94998 14.3026 3.29147 14.4289 3.64296 14.4239C3.99446 14.4189 4.33595 14.2788 4.70246 14.3326C4.84486 14.3475 4.9776 14.4116 5.07772 14.514C5.34291 14.8167 4.98266 15.1857 4.81879 15.5222C4.65493 15.8587 4.6937 16.2627 4.74999 16.6367L5.32665 20.7196C5.37043 21.0323 5.41796 21.355 5.60434 21.6315C5.71317 21.7928 5.87328 21.9529 5.84701 22.1318C5.80824 22.4083 5.38169 22.5171 5.0427 22.4896C4.70371 22.4621 4.34846 22.3645 4.04199 22.4683C3.9094 22.5133 3.79182 22.5934 3.6217 22.5196C3.54464 22.4858 3.48366 22.4235 3.45158 22.3457C3.40997 22.2088 3.42204 22.0612 3.48535 21.9329Z" fill="white"/>
<path d="M1.99644 9.88027C2.1478 10.6933 2.24661 11.1236 2.38171 11.9205C2.44305 12.1669 2.44305 12.4246 2.38171 12.671C2.32542 12.8386 2.21034 13.015 2.2904 13.1813C2.3248 13.2428 2.37431 13.2945 2.43425 13.3314C2.55382 13.4138 2.69252 13.464 2.83708 13.4774C2.98163 13.4907 3.12719 13.4668 3.25983 13.4078C3.33068 13.3611 3.41276 13.3343 3.49749 13.3302C3.56047 13.3427 3.62013 13.3683 3.67262 13.4052C3.85556 13.5112 4.05392 13.588 4.26053 13.6329C4.30953 13.6473 4.36163 13.6473 4.41064 13.6329C4.46093 13.6112 4.50177 13.5721 4.52572 13.5228C4.67582 13.2652 4.64205 12.9249 4.53823 12.6285C4.4344 12.332 4.27054 12.0581 4.16296 11.7628C3.85775 10.9348 3.90028 10.2205 3.77644 9.3549C3.76189 9.08269 3.80759 8.81061 3.91028 8.55809C3.97158 8.433 4.09041 8.33919 4.1417 8.20659C4.16714 8.12265 4.17326 8.03404 4.15962 7.94739C4.14597 7.86074 4.1129 7.7783 4.06289 7.70624C3.96027 7.55942 3.83632 7.42872 3.69513 7.31847L3.37366 7.04077C3.35327 7.02062 3.32958 7.00412 3.30361 6.99199C3.21229 6.95697 3.12848 7.03702 3.05343 7.08831C2.84328 7.22716 2.55308 7.16586 2.3029 7.1546C1.90638 7.13834 1.49734 7.26593 1.25717 7.57115C1.13409 7.7314 1.06832 7.92831 1.07036 8.13036C1.0724 8.33241 1.14214 8.52794 1.26843 8.68568C1.38476 8.81827 1.54237 8.90959 1.6512 9.04844C1.81506 9.26734 1.89512 9.47999 1.99644 9.88027Z" fill="white"/>
<path d="M7.07162 14.9919C6.8277 15.2921 6.92026 15.7261 6.99782 16.1014C7.20171 17.0808 7.21172 18.094 7.22172 19.1035C7.23298 20.183 7.24299 21.2675 7.07287 22.337C7.06037 22.3956 7.06037 22.4561 7.07287 22.5146C7.13041 22.7223 7.42437 22.6948 7.63827 22.6635C7.86073 22.6317 8.08729 22.644 8.30499 22.6998C8.55516 22.7623 8.8266 22.8762 9.0405 22.7348C9.10939 22.6807 9.16368 22.6103 9.19841 22.5299C9.23315 22.4495 9.24723 22.3617 9.23939 22.2745C9.22101 22.1042 9.1841 21.9364 9.12931 21.7741C8.85537 20.7421 9.17185 19.6414 9.13807 18.5706C9.10805 17.65 8.82285 16.6868 9.18686 15.8337C9.24125 15.7314 9.27764 15.6206 9.29443 15.506C9.29775 15.4083 9.27347 15.3116 9.22438 15.227C9.16533 15.1207 9.0813 15.0302 8.97954 14.9636C8.87777 14.8969 8.76132 14.8559 8.64022 14.8443C8.39004 14.8205 8.13987 14.9256 7.88969 14.9919C7.63952 15.0582 7.19796 14.823 7.07162 14.9919Z" fill="white"/>
<path d="M7.03282 14.0519C6.87396 14.0281 6.74637 13.838 6.71384 13.5928C6.68132 13.3282 6.68132 13.0606 6.71384 12.796C6.72758 12.5776 6.79551 12.3661 6.91148 12.1806C7.0716 11.9654 7.30301 11.9542 7.51191 11.9792C7.96379 12.052 8.40549 12.178 8.82783 12.3545C8.90767 12.3783 8.98176 12.4183 9.04548 12.472C9.27314 12.6784 9.30942 13.1838 9.23562 13.5828C9.22254 13.7232 9.16714 13.8562 9.07675 13.9643C8.95167 14.0732 8.80406 13.9806 8.67147 13.9131C8.52073 13.8319 8.35405 13.7846 8.18312 13.7747C8.01219 13.7647 7.84116 13.7923 7.68202 13.8555C7.53431 13.9271 7.38224 13.9894 7.2267 14.0419C7.16332 14.0577 7.09749 14.0611 7.03282 14.0519Z" fill="white"/>
<path d="M10.1212 22.4419C10.1149 22.6396 10.4752 22.7271 10.6515 22.6608C10.7291 22.6308 10.7941 22.5808 10.873 22.557C11.1569 22.4757 11.4183 22.7684 11.7173 22.7647C11.8315 22.7566 11.9398 22.7108 12.0251 22.6345C12.1105 22.5582 12.1681 22.4557 12.1889 22.3431C12.2327 22.1342 12.1714 21.9203 12.1376 21.7102C12.0961 21.3938 12.084 21.0743 12.1013 20.7557L12.1814 17.2683C12.1901 16.9406 12.2089 16.5853 12.4566 16.3376C12.5429 16.2513 12.658 16.1775 12.6992 16.0687C12.7171 15.9929 12.7089 15.9133 12.676 15.8427C12.6431 15.7721 12.5874 15.7147 12.5179 15.6797C12.3684 15.599 12.205 15.5472 12.0363 15.5271L11.3983 15.4107C11.1694 15.3682 10.9117 15.3307 10.7191 15.4458C10.6376 15.5006 10.5729 15.577 10.5322 15.6665C10.4916 15.7559 10.4766 15.8549 10.4889 15.9524C10.5002 16.1425 10.5715 16.3276 10.5978 16.514C10.6189 16.7652 10.6029 17.0181 10.5502 17.2645C10.2825 18.9532 10.1837 20.7382 10.1212 22.4419Z" fill="white"/>
<path d="M15.4889 16.8769C15.4691 16.9161 15.4564 16.9584 15.4513 17.002C15.3262 18.8696 15.1098 20.7897 14.9848 22.656C14.9891 22.7151 14.9812 22.7745 14.9616 22.8304C14.942 22.8863 14.9112 22.9377 14.8709 22.9812C14.7596 23.0675 14.5957 23.0075 14.4794 22.9212C14.3752 22.8207 14.2494 22.7454 14.1116 22.701C13.9353 22.6735 13.7764 22.8023 13.6113 22.8474C13.5222 22.8694 13.4291 22.8703 13.3396 22.8499C13.2501 22.8295 13.1666 22.7883 13.0959 22.7298C13.0477 22.6947 13.0118 22.6452 12.9934 22.5884C12.9832 22.51 12.9981 22.4303 13.0359 22.3608C13.6292 20.9693 13.9241 19.4689 13.9015 17.9564C13.9015 17.715 13.9278 17.6775 13.849 17.5174C13.7423 17.3226 13.7137 17.0945 13.7689 16.8794C13.7874 16.8145 13.8235 16.756 13.8732 16.7103C13.9228 16.6646 13.9841 16.6335 14.0503 16.6205C14.4706 16.5354 14.9347 16.4641 15.3488 16.633C15.4063 16.6568 15.4476 16.6618 15.4801 16.718C15.4921 16.7426 15.4991 16.7693 15.5006 16.7966C15.5021 16.8239 15.4981 16.8512 15.4889 16.8769Z" fill="white"/>
<path d="M10.8764 13.6225C10.8063 13.7813 10.8513 13.9477 10.8388 14.1228C10.8263 14.2979 10.8839 14.4981 11.014 14.5594C11.094 14.5884 11.1799 14.5975 11.2641 14.5856C11.5896 14.5739 11.9093 14.6741 12.1698 14.8696C12.2597 14.9442 12.3555 15.0116 12.4562 15.071C12.5063 15.0989 12.5627 15.1136 12.6201 15.1136C12.6775 15.1136 12.7339 15.0989 12.784 15.071C12.8641 15.012 12.9275 14.9331 12.9678 14.8421C13.0252 14.7411 13.0598 14.6288 13.0692 14.5131C13.0721 14.3657 13.0199 14.2225 12.9228 14.1115C12.834 14.016 12.7295 13.9365 12.6138 13.8764C12.2569 13.6681 11.8838 13.4891 11.4981 13.341C11.397 13.2953 11.2843 13.2818 11.1753 13.3022C11.1004 13.322 11.0326 13.3626 10.9797 13.4193C10.9268 13.4759 10.891 13.5463 10.8764 13.6225Z" fill="white"/>
<path d="M2.83093 23.7676L3.25873 25.0948C3.30076 25.2633 3.3765 25.4216 3.48139 25.5601C3.64526 25.744 3.88918 25.7827 4.11434 25.8103L5.51532 25.9916C5.70796 26.0167 5.96063 26.0004 6.02193 25.7865C6.04088 25.6884 6.03398 25.5871 6.00191 25.4925C5.86807 24.9522 5.73172 24.403 5.46278 23.9352C5.40834 23.8277 5.33056 23.7336 5.23512 23.66C5.15801 23.614 5.07328 23.5822 4.98495 23.5662C4.36988 23.4214 3.74049 23.3463 3.10863 23.3423C3.03992 23.3329 2.97 23.3386 2.9037 23.3589C2.8374 23.3792 2.7763 23.4136 2.72461 23.4599C2.74713 23.5387 2.80717 23.69 2.83093 23.7676Z" fill="white"/>
<path d="M5.78616 23.7066C5.8537 23.6484 5.93591 23.6099 6.02383 23.5953C6.36438 23.5415 6.70854 23.5139 7.05331 23.5127C7.27596 23.5127 7.52739 23.5327 7.56367 23.9155C7.5693 23.9779 7.5693 24.0407 7.56367 24.1031L7.43858 25.4941C7.43522 25.5561 7.41097 25.6152 7.36978 25.6617C7.21467 25.8293 6.99451 25.6417 6.78812 25.6304C6.67179 25.6304 6.5467 25.678 6.44163 25.6304C6.33655 25.5829 6.30403 25.4403 6.28151 25.3227C6.17884 24.7852 5.97601 24.2717 5.68359 23.8092C5.71195 23.7696 5.7466 23.7349 5.78616 23.7066Z" fill="white"/>
<path d="M7.89003 23.7139C7.84024 24.087 7.82141 24.4635 7.83374 24.8397C7.83739 24.9875 7.87915 25.1318 7.95498 25.2587C8.0308 25.3856 8.13813 25.4908 8.26654 25.564C8.40864 25.6226 8.56063 25.6536 8.71436 25.6553C9.26655 25.6918 9.82043 25.6951 10.373 25.6653C10.4763 25.6712 10.5784 25.6411 10.662 25.5802C10.7313 25.5004 10.7695 25.3983 10.7695 25.2925C10.8129 24.8954 10.805 24.4943 10.7458 24.0992C10.7233 23.9491 10.677 23.779 10.5406 23.7114C10.4364 23.6758 10.3237 23.6732 10.2179 23.7039C9.44882 23.8452 8.66088 23.8503 7.89003 23.7189" fill="white"/>
<path d="M11.5747 23.9811C11.4835 24.0064 11.4029 24.0605 11.345 24.1354C11.2871 24.2102 11.2549 24.3018 11.2532 24.3964C11.2444 24.7329 11.2382 25.0218 11.2532 25.3608C11.2577 25.4297 11.2738 25.4974 11.3007 25.5609C11.3201 25.6054 11.3482 25.6456 11.3835 25.6789C11.4187 25.7122 11.4604 25.7381 11.5059 25.7548C11.8811 25.8987 12.2927 25.8799 12.693 25.8486L13.4172 25.8036C13.875 25.7736 14.3429 25.7423 14.7632 25.5597C15.1835 25.3771 15.5525 25.0081 15.6063 24.5527C15.6235 24.4633 15.6173 24.371 15.5884 24.2846C15.5595 24.1983 15.5088 24.1209 15.4411 24.0599C15.3116 23.9842 15.1615 23.951 15.0121 23.9648L11.9762 23.9473C11.8415 23.9426 11.7067 23.954 11.5747 23.9811Z" fill="white"/>
<path d="M3.89648 26.963C4.05785 28.0963 4.90469 29.137 5.87037 29.7512C6.83605 30.3654 7.95809 30.6794 9.06887 30.9571C9.43288 31.0471 9.80814 31.1359 10.1809 31.0909C10.5671 31.0267 10.9324 30.8715 11.2467 30.6381C12.4137 29.845 13.2243 28.6367 14.0048 27.4633C14.0362 27.4257 14.0538 27.3785 14.0549 27.3295C14.0449 27.2432 13.9423 27.2044 13.8572 27.1856C10.5987 26.4877 7.16253 27.6235 3.89648 26.963Z" fill="white"/>
<path d="M2.78499 22.6835C2.78599 22.6958 2.78263 22.7081 2.77549 22.7181C2.76835 22.7282 2.7579 22.7355 2.74596 22.7386C2.73402 22.7417 2.72136 22.7406 2.7102 22.7353C2.69904 22.73 2.69008 22.721 2.68492 22.7098C2.14954 21.5577 1.49033 20.1817 1.1676 19.0072C1.1287 18.8921 1.11297 18.7706 1.12132 18.6494C1.1523 18.502 1.22278 18.3658 1.32521 18.2554C1.54304 17.9848 1.79536 17.7438 2.07574 17.5386C2.10706 17.5146 2.143 17.4973 2.18132 17.4879C2.21963 17.4784 2.25949 17.4769 2.29839 17.4836C2.45976 17.5174 2.48227 17.6787 2.48978 17.8151L2.78499 22.6835Z" fill="white"/>
</g>
<defs>
<clipPath id="clip0_303_70">
<rect width="17.3022" height="32" fill="white"/>
</clipPath>
</defs>
</svg>
