<svg width="22" height="33" viewBox="0 0 22 33" fill="none" xmlns="http://www.w3.org/2000/svg">
<path d="M8.8502 32.4096C8.81197 32.4044 8.77429 32.3956 8.73764 32.3835C6.52344 31.6436 5.42938 29.7534 4.5934 27.6326C3.72995 25.4362 3.10125 23.1575 2.30507 20.9378C1.12316 17.6433 0.177354 13.1709 0.932351 12.3473C1.14375 12.1167 1.60636 12.4969 1.82874 12.6219C2.96123 13.278 3.476 13.6624 4.21315 15.6185C4.59202 16.6316 4.77459 17.9178 4.91324 17.9247C5.21524 17.9411 4.88853 15.4249 4.87206 15.1559C4.77185 13.5567 3.8384 11.9767 3.59543 10.3926C3.12047 7.30394 3.67916 4.14119 4.47671 1.12532C4.50777 0.997874 4.56881 0.879687 4.65477 0.780598C4.74073 0.681509 4.84911 0.604384 4.97089 0.555642C5.58038 0.320907 5.97435 0.997659 6.14731 1.55224C7.1192 4.67518 7.34021 7.98206 8.13639 11.1544C8.20777 11.429 8.30523 11.7474 8.65665 11.7968C8.72576 11.806 8.79596 11.8027 8.86393 11.7872C9.36223 11.6747 9.59696 11.1379 10.05 10.9636C10.4467 10.8071 10.9079 10.9746 11.2305 11.2519C11.5531 11.5292 11.7796 11.9039 12.0239 12.2471C12.1158 12.4016 12.2563 12.5213 12.4234 12.5875C12.5954 12.612 12.7708 12.5936 12.934 12.534C13.438 12.4233 13.9642 12.4784 14.4342 12.6911C14.9042 12.9039 15.2929 13.2629 15.5422 13.7145C15.5741 13.7819 15.6211 13.8411 15.6795 13.8875C15.954 14.0989 16.2121 13.8285 16.3549 13.5855C16.7667 12.8854 17.0412 12.1098 17.383 11.3713C17.971 10.1089 18.7751 8.95912 19.7592 7.97382C20.1024 7.63202 20.554 7.28746 21.0413 7.50984C21.2452 7.61287 21.4005 7.7918 21.4737 8.00814C21.6467 8.48585 21.5067 8.96904 21.3708 9.43302C20.0365 13.9667 18.9045 18.5529 17.9747 23.1918C17.5917 25.0903 17.4558 27.9483 16.4235 29.5887C14.8641 32.0555 11.7384 32.8008 8.8502 32.4096Z" fill="black"/>
<path d="M7.04019 22.6393C7.04999 22.6078 7.05508 22.5749 7.05529 22.5419C7.0484 21.375 6.95664 20.2101 6.78075 19.0565C6.6174 18.0627 6.38541 17.0688 5.95712 16.1491C5.87064 15.9679 5.77455 15.7661 5.9228 15.5822C5.99856 15.4947 6.10245 15.4365 6.21656 15.4174C6.5117 15.357 6.7986 15.4751 7.08961 15.4655C7.38063 15.4559 7.66478 15.3282 7.96953 15.368C8.09201 15.3832 8.20426 15.4439 8.28388 15.5382C8.50763 15.8251 8.2125 16.1807 8.07934 16.4991C7.94619 16.8176 7.98875 17.2075 8.03679 17.563L8.56254 21.4533C8.5821 21.7565 8.66437 22.0524 8.80414 22.3222C8.89611 22.4746 9.03064 22.6256 9.01142 22.7999C8.98259 23.0649 8.62843 23.1733 8.34702 23.15C8.06562 23.1266 7.76774 23.0347 7.50829 23.1404C7.39985 23.1843 7.29964 23.2639 7.16099 23.1925C7.09343 23.1583 7.04176 23.0993 7.01686 23.0278C6.98104 22.8993 6.98925 22.7626 7.04019 22.6393Z" fill="white"/>
<path d="M5.37287 11.0531C5.49779 11.8286 5.58152 12.2391 5.69271 12.9996C5.74284 13.2344 5.74284 13.4772 5.69271 13.712C5.64467 13.8726 5.54858 14.0415 5.61584 14.1993C5.64276 14.2567 5.68387 14.3063 5.73527 14.3435C5.83011 14.4212 5.94562 14.4695 6.06757 14.4825C6.18952 14.4954 6.31259 14.4724 6.42163 14.4162C6.47785 14.3719 6.54642 14.346 6.61793 14.3421C6.67143 14.3539 6.72133 14.3784 6.76343 14.4135C6.91293 14.5131 7.07813 14.5869 7.25212 14.6317C7.27327 14.6408 7.2961 14.6454 7.31912 14.645C7.34214 14.6447 7.36482 14.6395 7.38569 14.6298C7.40656 14.6201 7.42514 14.606 7.44021 14.5886C7.45527 14.5712 7.46649 14.5508 7.47313 14.5288C7.59805 14.2831 7.56922 13.9577 7.48411 13.675C7.399 13.3922 7.26173 13.1259 7.17113 12.8513C6.91718 12.0606 6.95287 11.3784 6.84854 10.5534C6.83622 10.295 6.87445 10.0367 6.96111 9.7929C7.0119 9.67073 7.11073 9.58288 7.15329 9.45659C7.1747 9.37636 7.1799 9.29267 7.16859 9.21041C7.15727 9.12815 7.12967 9.04897 7.0874 8.97751C7.00374 8.84027 6.90063 8.71589 6.78128 8.60825L6.51497 8.34331C6.49797 8.32465 6.47803 8.30888 6.45595 8.29664C6.38045 8.26232 6.31044 8.33919 6.24592 8.38724C6.07158 8.52451 5.8341 8.46274 5.61996 8.45176C5.45306 8.43777 5.28536 8.46691 5.13296 8.53638C4.98056 8.60585 4.84857 8.71332 4.74965 8.84847C4.6463 9.00704 4.59208 9.19259 4.59379 9.38185C4.5955 9.57112 4.65306 9.75566 4.75926 9.91233C4.85673 10.0386 4.98713 10.1265 5.07773 10.2596C5.22947 10.5011 5.32993 10.7711 5.37287 11.0531Z" fill="white"/>
<path d="M10.2388 15.6811C9.9876 15.9557 10.0466 16.3675 10.1015 16.7326C10.2306 17.6785 10.1757 18.6435 10.1194 19.6003C10.0604 20.6284 9.99859 21.6593 9.76797 22.6697C9.75128 22.7243 9.74614 22.7818 9.75287 22.8385C9.79542 23.0403 10.0768 23.0334 10.2827 23.0183C10.4967 23.0018 10.7118 23.0279 10.9156 23.0952C11.1448 23.1707 11.4001 23.297 11.6129 23.1762C11.682 23.1295 11.7383 23.0661 11.7767 22.9921C11.8151 22.918 11.8343 22.8354 11.8325 22.752C11.8268 22.5864 11.8024 22.4221 11.7598 22.262C11.5676 21.2626 11.9396 20.2345 11.9767 19.2132C12.0082 18.3332 11.7996 17.3984 12.2004 16.605C12.259 16.5107 12.3012 16.4072 12.3253 16.2989C12.3352 16.2045 12.3181 16.1093 12.2759 16.0243C12.2264 15.9194 12.1522 15.828 12.0597 15.758C11.9672 15.688 11.8591 15.6413 11.7447 15.6221C11.5058 15.5837 11.2642 15.6674 11.0254 15.7141C10.7865 15.7608 10.3692 15.5274 10.2388 15.6811Z" fill="white"/>
<path d="M2.87497 19.3658C3.28404 20.1895 3.66382 21.0291 4.01432 21.8848C4.1175 22.1035 4.18427 22.3377 4.21199 22.578C4.20124 22.7546 4.21416 22.9319 4.25043 23.1051C4.27896 23.1956 4.33937 23.2726 4.42042 23.3218C4.50148 23.371 4.59766 23.3892 4.69107 23.3728C4.76519 23.3472 4.83505 23.3106 4.89835 23.2643C5.08955 23.1477 5.30527 23.0772 5.52843 23.0584C5.68081 23.0447 5.85789 23.0475 5.95672 22.9418C5.99233 22.8991 6.01373 22.8465 6.01791 22.7911C6.0221 22.7357 6.00886 22.6804 5.98006 22.6329C5.92082 22.5378 5.8503 22.4502 5.77003 22.3721C5.42411 21.9712 5.37606 21.4318 5.26624 20.9321C5.14084 20.3606 4.92587 19.8125 4.6293 19.3082C4.55726 19.2131 4.51649 19.098 4.51262 18.9787C4.5236 18.8414 4.63479 18.6946 4.55792 18.5793C4.51445 18.5356 4.45884 18.5062 4.39835 18.4947C4.33786 18.4831 4.27531 18.4901 4.21886 18.5147C4.09943 18.5545 3.9951 18.6287 3.87568 18.6685C3.56544 18.7728 3.17559 18.6424 2.91477 18.8318C2.73769 18.9719 2.6869 19.2409 2.87497 19.3658Z" fill="white"/>
<path d="M10.2636 14.7831C10.1154 14.7501 10.0055 14.5607 9.98907 14.3259C9.97502 14.0717 9.99254 13.8167 10.0412 13.5668C10.0684 13.3596 10.1467 13.1624 10.2691 12.993C10.4352 12.7981 10.6562 12.8036 10.8539 12.8407C11.2817 12.9388 11.6964 13.0871 12.0893 13.2827C12.1638 13.3111 12.232 13.354 12.2897 13.409C12.4915 13.6204 12.4943 14.1036 12.3982 14.4797C12.3768 14.6127 12.315 14.7358 12.2211 14.8325C12.0976 14.9272 11.9603 14.8325 11.8395 14.757C11.7009 14.6704 11.5452 14.6148 11.3831 14.5942C11.221 14.5736 11.0564 14.5884 10.9006 14.6376C10.7558 14.697 10.6072 14.7465 10.4558 14.7858C10.3922 14.798 10.3268 14.7971 10.2636 14.7831Z" fill="white"/>
<path d="M12.6115 23.0446C12.6032 23.2327 12.945 23.3192 13.1153 23.2601C13.1845 23.2249 13.2555 23.1933 13.328 23.1654C13.6026 23.0899 13.8442 23.3727 14.1297 23.3727C14.2388 23.367 14.3429 23.3252 14.4256 23.2539C14.5084 23.1825 14.5651 23.0858 14.5868 22.9787C14.6094 22.7761 14.5955 22.5711 14.5456 22.3733C14.5102 22.0708 14.5028 21.7657 14.5237 21.4619L14.6486 18.1344C14.6596 17.8228 14.6843 17.4823 14.9231 17.2504C15.0082 17.1694 15.1181 17.1007 15.1592 16.9964C15.1775 16.9244 15.1709 16.8483 15.1405 16.7806C15.1101 16.7128 15.0577 16.6573 14.9918 16.623C14.8501 16.5445 14.6951 16.4928 14.5347 16.4706L13.9265 16.3512C13.7083 16.3073 13.4639 16.2689 13.2772 16.3746C13.1991 16.4262 13.1366 16.4983 13.0966 16.583C13.0567 16.6678 13.0408 16.7619 13.0507 16.855C13.0604 17.0376 13.1249 17.2133 13.1482 17.3931C13.1643 17.633 13.1454 17.8739 13.0919 18.1083C12.8346 19.7428 12.6741 21.3911 12.6115 23.0446Z" fill="white"/>
<path d="M17.0298 17.2067C17.0334 17.2527 17.0297 17.2991 17.0188 17.344C16.4793 19.1958 15.9948 21.1285 15.4525 22.9721C15.4039 23.0848 15.399 23.2116 15.4388 23.3276C15.5047 23.4539 15.6681 23.4567 15.7985 23.4182C15.9215 23.3593 16.0577 23.3333 16.1938 23.3427C16.3558 23.3826 16.4478 23.5651 16.5809 23.6736C16.6483 23.7279 16.7286 23.7639 16.8139 23.7781C16.8993 23.7923 16.9869 23.7842 17.0682 23.7546C17.1233 23.7369 17.1713 23.7023 17.2055 23.6557C17.2423 23.5828 17.2575 23.5009 17.2494 23.4196C17.2275 21.8726 17.5652 20.3241 17.9015 18.7963C17.9249 18.615 17.9975 18.4436 18.1115 18.3007C18.257 18.1525 18.4986 18.1127 18.5233 17.8546C18.5313 17.7871 18.5213 17.7186 18.4943 17.6561C18.4673 17.5937 18.4243 17.5395 18.3696 17.4991C18.036 17.2588 17.6585 17.0159 17.2426 17.0241C17.1835 17.0241 17.1465 17.0159 17.1053 17.0571C17.0617 17.0953 17.0346 17.1489 17.0298 17.2067Z" fill="white"/>
<path d="M13.2729 14.6577C13.2139 14.8129 13.2647 14.9693 13.2605 15.1382C13.2503 15.2174 13.2624 15.2979 13.2953 15.3706C13.3283 15.4434 13.3809 15.5055 13.4472 15.55C13.5267 15.5752 13.6112 15.5799 13.693 15.5637C14.0029 15.5379 14.3124 15.6188 14.5701 15.793C14.6584 15.8607 14.7526 15.9205 14.8515 15.9714C14.9003 15.9965 14.9548 16.0086 15.0096 16.0064C15.0645 16.0042 15.1178 15.9879 15.1645 15.9591C15.2381 15.8991 15.2948 15.821 15.3292 15.7326C15.3793 15.6337 15.4069 15.5249 15.4102 15.4141C15.406 15.2738 15.3503 15.1399 15.2537 15.038C15.1645 14.9506 15.0609 14.8791 14.9476 14.8266C14.5976 14.6449 14.2336 14.4916 13.8591 14.3681C13.759 14.3237 13.6474 14.3126 13.5406 14.3365C13.4706 14.36 13.4084 14.4024 13.3612 14.4592C13.3139 14.5159 13.2833 14.5846 13.2729 14.6577Z" fill="white"/>
<path d="M4.56041 24.1136L5.03537 25.3806C5.08386 25.5449 5.16826 25.6963 5.28246 25.824C5.46366 25.9997 5.73409 26.0354 5.98529 26.0642L7.54333 26.2372C7.75747 26.2605 8.03751 26.2454 8.10615 26.0409C8.12716 25.9469 8.11902 25.8487 8.08281 25.7595C7.93593 25.2447 7.78356 24.7203 7.48568 24.2742C7.42235 24.1684 7.33544 24.0787 7.23172 24.012C7.1457 23.9672 7.05299 23.9366 6.95718 23.9214C6.27195 23.7836 5.57507 23.7119 4.87613 23.7073C4.72471 23.6894 4.57216 23.7297 4.44922 23.8198C4.46706 23.894 4.53295 24.0395 4.56041 24.1136Z" fill="white"/>
<path d="M7.87771 24.055C7.94184 23.9993 8.02031 23.9627 8.10421 23.9493C8.42923 23.8972 8.75789 23.871 9.08708 23.8711C9.29847 23.8711 9.5387 23.8889 9.57439 24.2541C9.57989 24.3139 9.57989 24.3741 9.57439 24.4339L9.45222 25.7613C9.44904 25.8204 9.42579 25.8765 9.38633 25.9206C9.23945 26.0812 9.02668 25.9013 8.83724 25.8917C8.72605 25.8917 8.60662 25.937 8.50642 25.8917C8.40621 25.8464 8.36914 25.7105 8.35404 25.598C8.25587 25.0874 8.06363 24.5996 7.78711 24.1594C7.81173 24.1201 7.84229 24.0849 7.87771 24.055Z" fill="white"/>
<path d="M9.88384 24.0622C9.83736 24.4167 9.81992 24.7743 9.83168 25.1316C9.8363 25.2716 9.87655 25.4081 9.9486 25.5282C10.0207 25.6483 10.1222 25.748 10.2435 25.8179C10.3794 25.8741 10.5248 25.9034 10.6718 25.9044C11.1987 25.9403 11.7272 25.944 12.2545 25.9154C12.3525 25.92 12.4493 25.8915 12.5291 25.8344C12.5952 25.7582 12.6317 25.6608 12.632 25.5599C12.673 25.1811 12.6652 24.7987 12.6087 24.4219C12.6075 24.3492 12.5893 24.2777 12.5554 24.2133C12.5216 24.1489 12.473 24.0934 12.4138 24.0513C12.3141 24.0167 12.206 24.0143 12.1049 24.0444C11.3706 24.1787 10.6184 24.1833 9.88247 24.0581" fill="white"/>
<path d="M13.4034 24.3169C13.3161 24.3401 13.2388 24.3913 13.1835 24.4628C13.1281 24.5342 13.0979 24.6219 13.0973 24.7122C13.0877 25.0335 13.0822 25.3094 13.0973 25.6333C13.1034 25.6977 13.1196 25.7607 13.1453 25.82C13.1636 25.8627 13.1905 25.9012 13.2242 25.9331C13.258 25.9649 13.2979 25.9895 13.3416 26.0053C13.6999 26.1426 14.0925 26.1193 14.4741 26.0959L15.1605 26.052C15.597 26.0246 16.0431 25.9944 16.444 25.8186C16.8448 25.6429 17.1976 25.2929 17.2497 24.8577C17.2659 24.7721 17.2599 24.6838 17.2323 24.6011C17.2046 24.5184 17.1563 24.4442 17.0919 24.3855C16.9677 24.3124 16.8234 24.2812 16.6801 24.2963L13.7809 24.2798C13.654 24.2765 13.5272 24.2889 13.4034 24.3169Z" fill="white"/>
<path d="M17.7784 15.0471C17.7107 15.2935 17.6244 15.5344 17.5203 15.7678C17.455 15.865 17.4188 15.9788 17.416 16.0959C17.421 16.1528 17.4454 16.2062 17.4852 16.2472C17.5249 16.2882 17.5776 16.3143 17.6343 16.321C17.7359 16.3334 17.8402 16.3032 17.9404 16.321C18.2026 16.3595 18.3673 16.6834 18.5718 16.8935C18.5823 16.9075 18.5957 16.9191 18.6111 16.9274C18.6265 16.9357 18.6436 16.9405 18.6611 16.9415C18.6931 16.9344 18.7211 16.9152 18.7393 16.888C18.9548 16.6354 18.9205 16.2016 18.9548 15.8282C19.0001 15.3423 19.1909 14.8934 19.3584 14.4473C19.5467 13.9441 19.7067 13.4309 19.8375 12.9098C19.8695 12.8126 19.8794 12.7094 19.8663 12.6078C19.8508 12.5474 19.8217 12.4912 19.7813 12.4437C19.7408 12.3961 19.6901 12.3584 19.633 12.3333C19.3374 12.1658 19.0381 12.0134 18.7352 11.8762C18.6747 11.842 18.6055 11.8263 18.5362 11.8309C18.4154 11.8515 18.3151 11.9956 18.2698 12.1507C18.2319 12.3099 18.2126 12.473 18.2122 12.6366C18.1649 13.4546 18.0192 14.264 17.7784 15.0471Z" fill="white"/>
<path d="M18.7092 10.9329C18.9979 9.98406 19.508 9.11742 20.1972 8.40432C20.2466 8.35353 20.307 8.29999 20.3702 8.31235C20.4567 8.33019 20.4924 8.44962 20.5075 8.55943C20.5761 9.2101 20.3359 9.85803 20.2933 10.5156C20.2928 10.731 20.2735 10.9459 20.2357 11.158C20.1849 11.3653 20.0572 11.5698 19.8829 11.6069C19.6728 11.6549 19.4848 11.4696 19.2789 11.4092C19.1513 11.3959 19.025 11.372 18.9014 11.3378C18.7778 11.2843 18.6474 11.0701 18.7092 10.9329Z" fill="white"/>
<path d="M2.25533 18.12C2.27107 18.1394 2.28359 18.1611 2.29239 18.1845C2.32808 18.2847 2.39809 18.4151 2.49144 18.4412C2.62871 18.4796 2.74264 18.3396 2.8758 18.2929C2.96537 18.2698 3.05852 18.2637 3.15034 18.2751C3.43136 18.2858 3.7116 18.2391 3.97397 18.1378C4.01509 18.1265 4.05159 18.1025 4.0783 18.0692C4.10017 18.0269 4.10555 17.978 4.0934 17.9319C4.01927 17.505 3.6706 17.1357 3.68159 16.7047C3.68528 16.6742 3.682 16.6432 3.67198 16.6141C3.65685 16.5858 3.63337 16.5628 3.60471 16.5482C3.40979 16.4357 3.1627 16.5002 2.9513 16.5729C2.61956 16.6818 2.29802 16.8196 1.99039 16.9847C1.93595 17.0102 1.88876 17.0489 1.85312 17.0973C1.83406 17.1406 1.82422 17.1873 1.82422 17.2346C1.82422 17.2818 1.83406 17.3286 1.85312 17.3718C1.9403 17.6437 2.07662 17.8973 2.25533 18.12Z" fill="white"/>
<path d="M3.3726 16.0123C3.37105 16.0295 3.36535 16.046 3.35598 16.0604C3.34662 16.0748 3.33388 16.0867 3.31887 16.0951C3.30386 16.1035 3.28703 16.1081 3.26984 16.1085C3.25265 16.1089 3.23562 16.1051 3.22022 16.0975C3.01637 15.9972 2.78254 15.9761 2.56406 16.0384C2.28952 16.1414 2.07538 16.3967 1.77887 16.4297C1.75944 16.4339 1.7393 16.4339 1.71987 16.4297C1.70043 16.4254 1.68215 16.417 1.6663 16.4049C1.64643 16.381 1.6353 16.351 1.63473 16.3198L1.24488 13.6938C1.22429 13.5565 1.21605 13.3987 1.32862 13.3232C1.39003 13.2877 1.46166 13.2742 1.53178 13.2847C1.71442 13.3005 1.88874 13.3681 2.03419 13.4797C2.83174 14.0727 3.43162 15.0432 3.3726 16.0123Z" fill="white"/>
<path d="M4.64691 7.64825C4.62674 7.61082 4.61724 7.56855 4.61946 7.52608C4.67299 6.16983 4.74712 4.64337 5.25777 3.43949C5.30856 3.32007 5.37445 3.19103 5.53232 3.2226C5.57939 3.23568 5.62288 3.25928 5.6595 3.29162C5.69612 3.32396 5.72492 3.3642 5.74372 3.40929C6.30345 4.61907 6.61791 5.92777 6.66893 7.25978C6.68234 7.35349 6.66752 7.44907 6.62637 7.53432C6.58782 7.58069 6.53506 7.61308 6.47626 7.62648C6.41746 7.63988 6.35588 7.63354 6.30104 7.60845C6.19251 7.55438 6.08009 7.5085 5.96472 7.47117C5.79531 7.45669 5.62654 7.50561 5.49114 7.60845C5.35561 7.71168 5.20058 7.78639 5.03539 7.82808C4.96011 7.84001 4.88297 7.82928 4.8138 7.79726C4.74463 7.76524 4.68654 7.71337 4.64691 7.64825Z" fill="white"/>
<path d="M15.8824 27.3438C15.7273 28.4255 14.9215 29.4194 13.9977 30.0056C13.0739 30.5917 12.0045 30.891 10.9448 31.1559C10.6018 31.2626 10.2422 31.3063 9.88365 31.2849C9.51522 31.2231 9.16665 31.0749 8.86647 30.8525C7.75182 30.0948 6.97898 28.9444 6.23359 27.8216C6.20344 27.7858 6.18648 27.7407 6.18555 27.6939C6.19516 27.6115 6.29262 27.5745 6.37498 27.5566C9.48419 26.8908 12.7581 27.9739 15.8824 27.3438Z" fill="white"/>
</svg>
