<svg width="32" height="32" viewBox="0 0 32 32" fill="none" xmlns="http://www.w3.org/2000/svg">
<g clip-path="url(#clip0_690_988)">
<path d="M1.94363 3.01449C5.54718 -0.769745 26.2371 -0.979817 29.4146 2.32111C33.2502 6.30513 32.5466 25.7904 29.0738 28.7402C25.8419 31.4932 5.07561 32.1043 2.65464 29.0766C0.0529831 25.8183 -1.39842 6.52402 1.94363 3.01449Z" fill="white"/>
<path d="M6.33693 7.03608C8.81438 4.48004 23.0388 4.33815 25.2234 6.56774C27.8604 9.25873 27.3766 22.42 24.9891 24.4124C22.7671 26.2719 8.49018 26.6847 6.82575 24.6397C5.0371 22.4388 4.03925 9.40658 6.33693 7.03608Z" fill="#EE2400"/>
<path d="M15.5 21.0001C17.9853 21.0001 20 18.9853 20 16.5001C20 14.0148 17.9853 12.0001 15.5 12.0001C13.0147 12.0001 11 14.0148 11 16.5001C11 18.9853 13.0147 21.0001 15.5 21.0001Z" fill="white"/>
<path d="M21.5 12.0001C22.3284 12.0001 23 11.3285 23 10.5001C23 9.67163 22.3284 9.00006 21.5 9.00006C20.6716 9.00006 20 9.67163 20 10.5001C20 11.3285 20.6716 12.0001 21.5 12.0001Z" fill="white"/>
</g>
<defs>
<clipPath id="clip0_690_988">
<rect width="32" height="31.0907" fill="white"/>
</clipPath>
</defs>
</svg>
