<svg width="581" height="580" viewBox="0 0 581 580" fill="none" xmlns="http://www.w3.org/2000/svg">
<rect width="580.02" height="580.02" stroke="transparent"/>
<g opacity="0.39652">
<path d="M352 286H380H352Z" fill="transparent"/>
<path d="M352 286H380" stroke="#EE2400" stroke-width="3" stroke-linecap="round"/>
</g>
<g opacity="0.368603">
<path d="M340 324L362.652 340.458L340 324Z" fill="transparent"/>
<path d="M340 324L362.652 340.458" stroke="#EE2400" stroke-width="3" stroke-linecap="round"/>
</g>
<path d="M319 389L325.5 408L319 389Z" fill="transparent"/>
<path d="M319 389L325.5 408" stroke="#EE2400" stroke-width="3" stroke-linecap="round"/>
<g opacity="0.0762774">
<path d="M254.652 389L246 415.63L254.652 389Z" fill="transparent"/>
<path d="M254.652 389L246 415.63" stroke="#EE2400" stroke-width="3" stroke-linecap="round"/>
</g>
<g opacity="0.972971">
<path d="M196.652 355L185.5 362L196.652 355Z" fill="transparent"/>
<path d="M196.652 355L185.5 362" stroke="#EE2400" stroke-width="3" stroke-linecap="round"/>
</g>
<g opacity="0.8121">
<path d="M183 290H164H183Z" fill="transparent"/>
<path d="M183 290H164" stroke="#EE2400" stroke-width="3" stroke-linecap="round"/>
</g>
<g opacity="0.276331">
<path d="M199.652 225.458L186.5 216L199.652 225.458Z" fill="transparent"/>
<path d="M199.652 225.458L186.5 216" stroke="#EE2400" stroke-width="3" stroke-linecap="round"/>
</g>
<g opacity="0.925069">
<path d="M253.653 179.63L247.5 161L253.653 179.63Z" fill="transparent"/>
<path d="M253.653 179.63L247.5 161" stroke="#EE2400" stroke-width="3" stroke-linecap="round"/>
</g>
<g opacity="0.999852">
<path d="M322 177.63L330 158.5L322 177.63Z" fill="transparent"/>
<path d="M322 177.63L330 158.5" stroke="#EE2400" stroke-width="3" stroke-linecap="round"/>
</g>
<g opacity="0.999856">
<path d="M374 225.458L396.652 209L374 225.458Z" fill="transparent"/>
<path d="M374 225.458L396.652 209" stroke="#EE2400" stroke-width="3" stroke-linecap="round"/>
</g>
<g opacity="0.991297">
<path d="M366 381L397.5 416.5L366 381Z" fill="transparent"/>
<path d="M366 381L397.5 416.5" stroke="#EE2400" stroke-width="3" stroke-linecap="round"/>
</g>
<g opacity="0.407785">
<path d="M298.601 418L302.882 458.847L298.601 418Z" fill="transparent"/>
<path d="M298.601 418L302.882 458.847" stroke="#EE2400" stroke-width="3" stroke-linecap="round"/>
</g>
<g opacity="0.157747">
<path d="M227.061 393L203 431L227.061 393Z" fill="transparent"/>
<path d="M227.061 393L203 431" stroke="#EE2400" stroke-width="3" stroke-linecap="round"/>
</g>
<g opacity="0.437362">
<path d="M166.255 340.916L130.5 356L166.255 340.916Z" fill="transparent"/>
<path d="M166.255 340.916L130.5 356" stroke="#EE2400" stroke-width="3" stroke-linecap="round"/>
</g>
<g opacity="0.182856">
<path d="M168.336 256.286L123.5 245.5L168.336 256.286Z" fill="transparent"/>
<path d="M168.336 256.286L123.5 245.5" stroke="#EE2400" stroke-width="3" stroke-linecap="round"/>
</g>
<g opacity="0.996456">
<path d="M206.933 187.74L177.5 154L206.933 187.74Z" fill="transparent"/>
<path d="M206.933 187.74L177.5 154" stroke="#EE2400" stroke-width="3" stroke-linecap="round"/>
</g>
<g opacity="0.93194">
<path d="M281.213 174.5L277.5 139.284L281.213 174.5Z" fill="transparent"/>
<path d="M281.213 174.5L277.5 139.284" stroke="#EE2400" stroke-width="3" stroke-linecap="round"/>
</g>
<g opacity="0.999986">
<path d="M355.194 185.6L380 146L355.194 185.6Z" fill="transparent"/>
<path d="M355.194 185.6L380 146" stroke="#EE2400" stroke-width="3" stroke-linecap="round"/>
</g>
<g opacity="0.979201">
<path d="M412 238.685L455 224L412 238.685Z" fill="transparent"/>
<path d="M412 238.685L455 224" stroke="#EE2400" stroke-width="3" stroke-linecap="round"/>
</g>
<g opacity="0.999945">
<path d="M405 322.999L447.5 334.5L405 322.999Z" fill="transparent"/>
<path d="M405 322.999L447.5 334.5" stroke="#EE2400" stroke-width="3" stroke-linecap="round"/>
</g>
<g opacity="0.174487">
<path d="M251.501 517L249 531.184L251.501 517Z" fill="transparent"/>
<path d="M251.501 517L249 531.184" stroke="#EE2400" stroke-width="3" stroke-linecap="round"/>
</g>
<g opacity="0.297331">
<path d="M207.361 371.47L197 381.475L207.361 371.47Z" fill="transparent"/>
<path d="M207.361 371.47L197 381.475" stroke="#EE2400" stroke-width="3" stroke-linecap="round"/>
</g>
<g opacity="0.999999">
<path d="M57.2632 326.379L43.0001 328.383L57.2632 326.379Z" fill="transparent"/>
<path d="M57.2632 326.379L43.0001 328.383" stroke="#EE2400" stroke-width="3" stroke-linecap="round"/>
</g>
<g opacity="0.574071">
<path d="M81.4903 177.762L68.773 171L81.4903 177.762Z" fill="transparent"/>
<path d="M81.4903 177.762L68.773 171" stroke="#EE2400" stroke-width="3" stroke-linecap="round"/>
</g>
<g opacity="0.995861">
<path d="M177.338 65.9454L171.024 52.9998L177.338 65.9454Z" fill="transparent"/>
<path d="M177.338 65.9454L171.024 52.9998" stroke="#EE2400" stroke-width="3" stroke-linecap="round"/>
</g>
<g opacity="0.15761">
<path d="M311 153.184L313.501 139L311 153.184Z" fill="transparent"/>
<path d="M311 153.184L313.501 139" stroke="#EE2400" stroke-width="3" stroke-linecap="round"/>
</g>
<g opacity="0.996523">
<path d="M442 130.475L452.361 120.47L442 130.475Z" fill="transparent"/>
<path d="M442 130.475L452.361 120.47" stroke="#EE2400" stroke-width="3" stroke-linecap="round"/>
</g>
<g opacity="0.898277">
<path d="M514 259.383L528.263 257.379L514 259.383Z" fill="transparent"/>
<path d="M514 259.383L528.263 257.379" stroke="#EE2400" stroke-width="3" stroke-linecap="round"/>
</g>
<g opacity="0.055229">
<path d="M533.361 419.402L546.078 426.164L533.361 419.402Z" fill="transparent"/>
<path d="M533.361 419.402L546.078 426.164" stroke="#EE2400" stroke-width="3" stroke-linecap="round"/>
</g>
<g opacity="0.997487">
<path d="M391.024 495L397.338 507.945L391.024 495Z" fill="transparent"/>
<path d="M391.024 495L397.338 507.945" stroke="#EE2400" stroke-width="3" stroke-linecap="round"/>
</g>
</svg>