<svg width="30" height="28" viewBox="0 0 30 28" fill="none" xmlns="http://www.w3.org/2000/svg">
<g clip-path="url(#clip0_467_974)">
<path d="M20.5042 8.4255L20.4389 9.12425C20.0835 12.9266 19.6886 16.7252 19.3909 20.5317C19.257 22.2497 18.5088 23.5775 17.1201 24.5128C14.131 26.5245 10.9065 26.8242 7.66855 25.2229C4.11608 23.4669 3.9471 19.5678 7.20171 17.2768C10.0177 15.2919 14.5293 15.0671 17.3938 17.119C17.4686 17.1584 17.5463 17.1919 17.6263 17.2194L17.687 16.5703C18.1122 12.02 18.5375 7.46928 18.9628 2.91817C18.9728 2.67938 19.0124 2.44276 19.0807 2.2136C19.161 1.9858 19.3259 1.79664 19.5421 1.68412C19.7584 1.57159 20.01 1.54403 20.2464 1.60696C20.7557 1.72254 21.1648 2.06847 21.0242 2.56339C20.7129 3.65538 21.3378 4.09901 22.1391 4.58415C23.7805 5.57836 25.3956 6.62138 26.677 8.07689C28.2011 9.8091 28.6477 11.7471 27.8372 13.9231C27.7816 14.0453 27.7196 14.1645 27.6514 14.2802C26.3018 11.095 23.9717 9.13597 20.5042 8.4255Z" fill="#FFC95B"/>
<path d="M8.66231 12.9778C9.0797 13.0669 9.4154 13.1889 9.4133 13.6514C9.41119 14.114 9.08641 14.2375 8.68001 14.2508C6.81751 14.3153 5.3662 15.0658 4.43856 16.6965C4.34096 16.8685 4.25783 17.0482 4.19 17.2338C4.03741 17.6501 3.75315 17.8835 3.3157 17.7114C2.8583 17.5327 2.87569 17.1396 3.04186 16.7591C3.74406 15.1336 4.89472 13.9507 6.62157 13.3965C7.27588 13.1893 7.97952 13.1143 8.66231 12.9778Z" fill="#FFC95B"/>
<path d="M2.46589 14.1009C1.93355 14.0511 1.71597 13.7004 1.83958 13.2707C2.19947 12.0079 3.86576 10.8983 5.20034 11.0862C5.42115 11.1176 5.74659 11.4271 5.75485 11.6234C5.76311 11.8198 5.45893 12.2016 5.26913 12.2137C4.13131 12.2887 3.3334 12.777 2.91969 13.8391C2.91383 13.8585 2.90162 13.8754 2.88497 13.8872C2.71982 13.9719 2.55108 14.0563 2.46589 14.1009Z" fill="#FFC95B"/>
<path d="M21.9497 24.2259C21.7527 25.7126 20.1354 27.0738 18.8458 26.9747C18.6216 26.9538 18.3055 26.6988 18.2313 26.4844C18.1141 26.1466 18.3456 25.882 18.726 25.8234C19.7752 25.6614 20.4748 25.1245 20.7527 24.0795C20.8492 23.72 21.1803 23.5542 21.505 23.7169C21.7339 23.8301 21.8704 24.1291 21.9497 24.2259Z" fill="#FFC95B"/>
</g>
<defs>
<clipPath id="clip0_467_974">
<rect width="26.1825" height="25.3891" fill="white" transform="translate(3.06445) rotate(5.33897)"/>
</clipPath>
</defs>
</svg>
