<svg width="15" height="6" viewBox="0 0 15 6" fill="none" xmlns="http://www.w3.org/2000/svg">
<path d="M1.12241 0C2.21084 0 3.31289 0.136055 4.42853 0.408164C5.54418 0.680273 6.71425 0.816327 7.93874 0.816327C9.02717 0.816327 10.0612 0.680273 11.0408 0.408164C12.0476 0.136055 13.0952 0 14.1836 0C14.3469 0 14.483 0.0136053 14.5918 0.0408166C14.8639 0.0952377 15 0.17687 15 0.285714V5.71429C15 5.82313 14.9047 5.90476 14.7142 5.95918C14.6326 5.9864 14.551 6 14.4693 6C13.3537 6 12.2108 5.86395 11.0408 5.59184C9.87071 5.31973 8.74146 5.18367 7.65302 5.18367C6.56459 5.18367 5.47615 5.31973 4.38772 5.59184C3.29928 5.86395 2.21084 6 1.12241 6C0.986355 6 0.863906 5.9864 0.755062 5.95918C0.646219 5.93197 0.591797 5.85034 0.591797 5.71429V0.285714C0.591797 0.17687 0.67343 0.0952377 0.836695 0.0408166C0.918328 0.0136053 1.01357 0 1.12241 0Z" fill="white"/>
</svg>
