<svg width="12" height="12" viewBox="0 0 12 12" fill="none" xmlns="http://www.w3.org/2000/svg">
<path d="M3.6034 11.3566C3.6034 10.9276 3.68272 10.4665 3.84136 9.97319C4 9.47989 4.07932 9.01877 4.07932 8.58981C4.07932 8.48257 4.06799 8.35389 4.04533 8.20375C4.02266 8.03217 3.95467 7.94638 3.84136 7.94638H3.16147C2.70821 7.94638 2.25496 8.02145 1.8017 8.17158C1.34844 8.30027 0.895184 8.36461 0.441926 8.36461C0.351275 8.36461 0.271955 8.35389 0.203966 8.33244C0.0679887 8.28955 0 8.2252 0 8.13941V3.86059C0 3.7748 0.0679887 3.71046 0.203966 3.66756C0.271955 3.64611 0.351275 3.63539 0.441926 3.63539C0.713881 3.63539 0.963173 3.65684 1.1898 3.69973C1.43909 3.74263 1.67705 3.79625 1.90368 3.86059C2.13031 3.92493 2.35694 3.97855 2.58357 4.02145C2.83286 4.06434 3.10482 4.08579 3.39943 4.08579C3.73938 4.08579 3.93201 4.06434 3.97734 4.02145C4.04533 3.9571 4.07932 3.76408 4.07932 3.44236C4.07932 2.88472 4 2.39142 3.84136 1.96247C3.68272 1.51206 3.6034 1.07239 3.6034 0.643431C3.6034 0.514745 3.61473 0.407507 3.63739 0.321716C3.68272 0.107239 3.75071 0 3.84136 0H8.15864C8.22663 0 8.28329 0.0750667 8.32861 0.2252C8.35127 0.289544 8.36261 0.353887 8.36261 0.418229C8.36261 0.97587 8.28329 1.47989 8.12465 1.9303C7.98867 2.35925 7.92068 2.7882 7.92068 3.21716C7.92068 3.53887 7.94334 3.76408 7.98867 3.89276C8.05666 4.02145 8.26062 4.08579 8.60057 4.08579C9.05382 4.08579 9.50708 4.01072 9.96034 3.86059C10.4136 3.71046 10.8669 3.63539 11.3201 3.63539C11.4561 3.63539 11.5694 3.64611 11.6601 3.66756C11.8867 3.71046 12 3.7748 12 3.86059V8.13941C12 8.2252 11.9207 8.28955 11.762 8.33244C11.694 8.35389 11.6261 8.36461 11.5581 8.36461C10.8782 8.36461 10.2663 8.30027 9.72238 8.17158C9.20113 8.02145 8.60057 7.94638 7.92068 7.94638C7.92068 8.58981 7.98867 9.19035 8.12465 9.74799C8.28329 10.2842 8.36261 10.8204 8.36261 11.3566C8.36261 11.5925 8.33994 11.7641 8.29462 11.8713C8.27195 11.9571 8.14731 12 7.92068 12H4.07932C3.83003 12 3.68272 11.9571 3.63739 11.8713C3.61473 11.7641 3.6034 11.5925 3.6034 11.3566Z" fill="white"/>
</svg>
