<svg width="135" height="142" viewBox="0 0 135 142" fill="none" xmlns="http://www.w3.org/2000/svg">
<g clip-path="url(#clip0_288_1632)">
<path d="M46.1739 104.617L46.6476 104.457L46.6471 104.455C46.4835 103.971 46.3197 103.486 46.1507 102.991C48.815 103.139 51.4884 102.961 54.1113 102.46C57.7795 101.821 61.3892 100.882 64.9038 99.6527C65.7032 99.4038 66.4872 99.1285 67.29 98.8427C70.0522 97.8912 72.7077 96.9471 75.2691 95.9017C78.7429 94.5845 82.1222 93.0306 85.3833 91.2508C88.5393 89.574 91.5268 87.5976 94.3045 85.3488C96.7366 83.3968 98.9866 81.229 101.027 78.8722C105.989 88.6682 110.818 98.5171 115.517 108.419C95.7855 116.608 76.1913 125.093 56.7338 133.875C55.087 129.056 53.433 124.24 51.779 119.425L51.7789 119.424C50.0655 114.436 48.3522 109.447 46.647 104.455L46.1739 104.617ZM46.1739 104.617C47.8792 109.61 49.5927 114.598 51.3061 119.587C52.9652 124.417 54.6243 129.248 56.2761 134.082L45.6105 102.956C45.8031 103.519 45.9884 104.068 46.1736 104.616L46.1739 104.617Z" fill="#532B78" stroke="black"/>
<mask id="path-2-inside-1_288_1632" fill="white">
<path d="M92.1542 17.9102C89.341 14.8556 85.9182 12.1448 81.9136 11.0227C76.9017 9.5945 71.5704 10.7281 66.5836 12.1075C65.4002 12.4342 64.2303 12.788 63.0334 13.1551C62.2155 17.5871 60.3816 21.7692 57.6757 25.3732C56.394 27.1046 54.8185 28.5976 53.0207 29.7843C50.9738 31.1315 48.6515 32.0035 46.2238 32.3366C43.7961 32.6697 41.3247 32.4553 38.9907 31.7092C36.2512 30.8072 33.8027 29.1892 31.8988 27.0228C28.2605 29.1776 24.7918 31.4702 21.3767 33.938C16.0031 37.8251 10.5201 42.709 9.61742 49.3033C9.18345 52.6759 9.98074 56.0883 10.9372 59.3878C14.4795 71.8241 19.819 83.6766 26.7866 94.5699C32.5982 93.0221 37.4664 91.6884 42.1504 90.9579C42.9994 94.8527 44.0881 98.6914 45.4104 102.452C48.2813 102.678 51.1696 102.519 53.9981 101.978C57.6436 101.344 61.2308 100.411 64.7236 99.1886C65.5161 98.9421 66.2952 98.6685 67.1013 98.3816C69.8646 97.4296 72.512 96.4883 75.0626 95.4471C78.5179 94.1372 81.8793 92.5917 85.1229 90.8213C88.2518 89.1591 91.2136 87.1997 93.9673 84.9703C96.5703 82.8811 98.9629 80.5424 101.111 77.9876C99.6068 75.0482 98.0921 72.0873 96.5693 69.0968C101.129 66.9407 109.372 64.8554 114.141 63.2009C110.892 53.9736 107.226 44.9298 103.141 36.0694C100.161 29.6385 96.9145 23.1855 92.1542 17.9102ZM58.1292 59.1693C58.3557 60.3982 58.1039 61.6672 57.4255 62.7166C56.7204 63.8282 55.5142 64.9201 55.8031 66.2166C56.0306 67.133 56.8918 67.7272 57.3027 68.5524C57.5548 69.0743 57.6242 69.6659 57.4997 70.2321C57.3751 70.7982 57.0638 71.3061 56.6159 71.674C55.7121 72.3865 54.3864 72.4005 53.5041 73.1427C53.0521 73.5613 52.7775 74.1372 52.7369 74.752C52.6963 75.3668 52.8927 75.9738 53.2858 76.4483C53.623 76.7375 53.892 77.0977 54.0735 77.5031C54.1536 77.9612 53.8377 78.381 53.5838 78.7363C53.0492 79.4198 52.4256 80.1543 51.5901 80.3011C50.14 80.6059 48.5876 79.2453 47.2637 79.8709C46.4385 80.2818 46.1028 81.2836 46.042 82.2292C46.0633 83.1555 45.8997 84.0767 45.5606 84.9389C45.2914 85.3985 44.8989 85.7734 44.4275 86.0213C43.9561 86.2691 43.4247 86.3798 42.8935 86.341C42.353 86.2936 41.828 86.1352 41.3513 85.8757C40.8747 85.6162 40.4568 85.2612 40.1235 84.8329C39.8351 84.3402 39.4533 83.9085 38.9994 83.562C38.2699 83.1648 37.3695 83.4246 36.6254 83.7548C35.2825 84.4235 34.098 85.4373 32.6614 85.7286C31.2248 86.0199 29.3888 85.117 29.4801 83.6245C29.5708 82.59 30.6203 81.7107 30.4442 80.6677C30.3302 80.2847 30.1038 79.9449 29.7944 79.6921C29.4849 79.4394 29.1067 79.2855 28.7087 79.2503C27.9288 79.1926 27.1455 79.2022 26.3672 79.2787C25.123 79.3017 23.9116 78.8782 22.9528 78.0849C22.4924 77.6748 22.1418 77.1561 21.9329 76.5761C21.724 75.996 21.6634 75.3729 21.7566 74.7635C21.9807 74.1079 22.1698 73.4409 22.323 72.7652C22.4492 71.4101 21.4138 70.2498 20.3319 69.4559C19.2501 68.662 17.9578 68.0536 17.1674 66.9934C16.7047 66.3636 16.4261 65.6176 16.3627 64.8387C16.2993 64.0598 16.4536 63.2786 16.8083 62.5822C17.1219 61.942 17.6245 61.4136 18.2481 61.0682C18.8717 60.7227 19.5862 60.577 20.2953 60.6507C21.6935 60.7554 21.0311 58.844 20.3483 57.9322C19.6654 57.0204 18.6616 56.302 18.3212 55.2129C18.1855 54.6853 18.2188 54.1284 18.4164 53.6207C18.6139 53.113 18.9658 52.6801 19.4225 52.383C20.2883 51.8375 21.4306 51.9148 22.5138 51.833C23.5971 51.7513 24.7696 51.4703 25.2399 50.5496C25.4662 49.8738 25.55 49.1583 25.4859 48.4485C25.5495 47.2253 25.9825 46.0503 26.7278 45.0783C27.4731 44.1064 28.4956 43.3834 29.6603 43.0047C30.8976 42.6511 32.3578 42.7585 33.1644 43.7703C33.6484 44.3638 33.8329 45.2613 34.4707 45.7043C34.832 45.8934 35.2406 45.9731 35.6465 45.9336C36.0524 45.8941 36.4379 45.737 36.7559 45.4817C37.3581 44.9631 37.9143 44.3933 38.4184 43.7789C39.3658 42.7755 40.8004 42.0612 42.093 42.4405C43.7573 42.9579 44.4034 44.9447 44.6888 46.6669C44.7238 47.1205 44.8763 47.5571 45.1313 47.9339C45.3707 48.1674 45.6663 48.335 45.9895 48.4205C46.3128 48.506 46.6526 48.5065 46.9761 48.422C47.6067 48.3368 48.235 48.0576 48.9249 47.9833C49.7737 47.9163 50.6163 48.174 51.2826 48.7042C51.9488 49.2344 52.3891 49.9976 52.5144 50.8398C52.7272 52.4838 51.7916 54.5111 53.0239 55.607C53.7691 56.2657 54.9009 56.1598 55.8542 56.4793C56.4335 56.6928 56.9476 57.0529 57.3463 57.5244C57.745 57.9958 58.0147 58.5625 58.1292 59.1693ZM99.4543 43.3839C99.5819 43.9841 99.5863 44.6039 99.4672 45.2058C99.3481 45.8077 99.108 46.3791 98.7615 46.8854C98.0455 48.0428 96.842 49.1401 97.1579 50.4232C97.353 51.3557 98.2547 51.9365 98.6629 52.7563C98.9113 53.2852 98.9749 53.8823 98.8435 54.4518C98.7122 55.0212 98.3934 55.53 97.9383 55.8967C97.0426 56.6119 95.7169 56.6259 94.8293 57.3708C94.3772 57.7894 94.1026 58.3653 94.062 58.9801C94.0214 59.5949 94.2179 60.2019 94.6109 60.6764C94.974 60.9405 95.2501 61.3068 95.404 61.7285C95.5084 62.1678 95.1682 62.6065 94.9143 62.9617C94.3636 63.6128 93.7643 64.3285 92.9125 64.5238C91.4679 64.8259 89.9451 63.4573 88.5915 64.091C87.7664 64.5018 87.4252 65.5063 87.3644 66.4519C87.3035 67.3975 87.3478 68.3244 86.9234 69.1482C86.64 69.6074 86.2385 69.9819 85.7608 70.2328C85.2831 70.4837 84.7468 70.6017 84.2079 70.5744C83.6718 70.5167 83.1528 70.3515 82.682 70.0887C82.2111 69.8259 81.7981 69.4709 81.4675 69.0449C81.1517 68.5698 80.7622 68.1481 80.3137 67.7955C79.5788 67.4009 78.6812 67.6527 77.9343 67.991C76.6238 68.6435 75.4042 69.6681 74.0027 69.9487C72.6012 70.2293 70.6816 69.3208 70.7864 67.8552C70.8824 66.8181 71.9266 65.9414 71.7531 64.9038C71.6492 64.5198 71.4303 64.1767 71.1259 63.9205C70.8215 63.6643 70.4461 63.5072 70.05 63.4703C69.258 63.4216 68.4634 63.4347 67.6735 63.5095C66.4348 63.5413 65.2288 63.1098 64.2914 62.2995C63.8192 61.9007 63.4584 61.3864 63.244 60.8067C63.0296 60.227 62.9691 59.6016 63.0682 58.9915C63.2175 58.3047 63.5877 57.6695 63.6643 56.9852C63.7554 55.6409 62.7524 54.4645 61.6409 53.6921C60.5294 52.9197 59.2695 52.2817 58.4764 51.2296C58.0168 50.5947 57.7452 49.8433 57.6926 49.0613C57.6401 48.2793 57.8087 47.4983 58.1792 46.8077C58.4887 46.1707 58.9876 45.6451 59.6075 45.3027C60.2274 44.9603 60.938 44.8179 61.6419 44.895C63.0401 44.9997 62.3751 43.0829 61.6949 42.1765C61.0147 41.2701 60.0082 40.5463 59.6678 39.4572C59.5058 38.9298 59.5236 38.3634 59.7186 37.8472C59.9136 37.331 60.2746 36.8943 60.7449 36.6057C61.6484 36.0414 62.7907 36.1187 63.8362 36.0558C64.8818 35.9928 66.092 35.693 66.5489 34.7454C66.7665 34.0816 66.8456 33.3802 66.7813 32.6846C66.8474 31.4556 67.285 30.2757 68.0361 29.3008C68.7873 28.3259 69.8167 27.6019 70.9882 27.2247C72.1581 26.871 73.6829 26.9866 74.4438 27.974C74.9439 28.5999 75.1229 29.5002 75.7958 29.9324C76.1524 30.1179 76.5551 30.1964 76.9553 30.1583C77.3555 30.1202 77.7361 29.9673 78.0513 29.7178C78.6603 29.1927 79.2253 28.6187 79.7408 28.0016C80.6882 26.9982 82.0904 26.3 83.3858 26.6847C85.0554 27.1994 85.6988 29.1808 85.987 30.9084C86.0176 31.3608 86.1695 31.7966 86.4267 32.1701C86.6681 32.3987 86.9629 32.5634 87.2841 32.6491C87.6054 32.7348 87.943 32.7388 88.2662 32.6608C88.9399 32.5541 89.5655 32.283 90.2149 32.2221C91.0643 32.1576 91.9071 32.4134 92.5774 32.9391C93.2477 33.4647 93.697 34.2223 93.8368 35.0626C93.9957 36.7333 93.1141 38.7338 94.3193 39.8431C95.0646 40.5018 96.2233 40.3825 97.1523 40.7208C97.7342 40.9266 98.2525 41.2804 98.6561 41.7474C99.0597 42.2143 99.3348 42.7784 99.4543 43.3839Z"/>
</mask>
<path d="M92.1542 17.9102C89.341 14.8556 85.9182 12.1448 81.9136 11.0227C76.9017 9.5945 71.5704 10.7281 66.5836 12.1075C65.4002 12.4342 64.2303 12.788 63.0334 13.1551C62.2155 17.5871 60.3816 21.7692 57.6757 25.3732C56.394 27.1046 54.8185 28.5976 53.0207 29.7843C50.9738 31.1315 48.6515 32.0035 46.2238 32.3366C43.7961 32.6697 41.3247 32.4553 38.9907 31.7092C36.2512 30.8072 33.8027 29.1892 31.8988 27.0228C28.2605 29.1776 24.7918 31.4702 21.3767 33.938C16.0031 37.8251 10.5201 42.709 9.61742 49.3033C9.18345 52.6759 9.98074 56.0883 10.9372 59.3878C14.4795 71.8241 19.819 83.6766 26.7866 94.5699C32.5982 93.0221 37.4664 91.6884 42.1504 90.9579C42.9994 94.8527 44.0881 98.6914 45.4104 102.452C48.2813 102.678 51.1696 102.519 53.9981 101.978C57.6436 101.344 61.2308 100.411 64.7236 99.1886C65.5161 98.9421 66.2952 98.6685 67.1013 98.3816C69.8646 97.4296 72.512 96.4883 75.0626 95.4471C78.5179 94.1372 81.8793 92.5917 85.1229 90.8213C88.2518 89.1591 91.2136 87.1997 93.9673 84.9703C96.5703 82.8811 98.9629 80.5424 101.111 77.9876C99.6068 75.0482 98.0921 72.0873 96.5693 69.0968C101.129 66.9407 109.372 64.8554 114.141 63.2009C110.892 53.9736 107.226 44.9298 103.141 36.0694C100.161 29.6385 96.9145 23.1855 92.1542 17.9102ZM58.1292 59.1693C58.3557 60.3982 58.1039 61.6672 57.4255 62.7166C56.7204 63.8282 55.5142 64.9201 55.8031 66.2166C56.0306 67.133 56.8918 67.7272 57.3027 68.5524C57.5548 69.0743 57.6242 69.6659 57.4997 70.2321C57.3751 70.7982 57.0638 71.3061 56.6159 71.674C55.7121 72.3865 54.3864 72.4005 53.5041 73.1427C53.0521 73.5613 52.7775 74.1372 52.7369 74.752C52.6963 75.3668 52.8927 75.9738 53.2858 76.4483C53.623 76.7375 53.892 77.0977 54.0735 77.5031C54.1536 77.9612 53.8377 78.381 53.5838 78.7363C53.0492 79.4198 52.4256 80.1543 51.5901 80.3011C50.14 80.6059 48.5876 79.2453 47.2637 79.8709C46.4385 80.2818 46.1028 81.2836 46.042 82.2292C46.0633 83.1555 45.8997 84.0767 45.5606 84.9389C45.2914 85.3985 44.8989 85.7734 44.4275 86.0213C43.9561 86.2691 43.4247 86.3798 42.8935 86.341C42.353 86.2936 41.828 86.1352 41.3513 85.8757C40.8747 85.6162 40.4568 85.2612 40.1235 84.8329C39.8351 84.3402 39.4533 83.9085 38.9994 83.562C38.2699 83.1648 37.3695 83.4246 36.6254 83.7548C35.2825 84.4235 34.098 85.4373 32.6614 85.7286C31.2248 86.0199 29.3888 85.117 29.4801 83.6245C29.5708 82.59 30.6203 81.7107 30.4442 80.6677C30.3302 80.2847 30.1038 79.9449 29.7944 79.6921C29.4849 79.4394 29.1067 79.2855 28.7087 79.2503C27.9288 79.1926 27.1455 79.2022 26.3672 79.2787C25.123 79.3017 23.9116 78.8782 22.9528 78.0849C22.4924 77.6748 22.1418 77.1561 21.9329 76.5761C21.724 75.996 21.6634 75.3729 21.7566 74.7635C21.9807 74.1079 22.1698 73.4409 22.323 72.7652C22.4492 71.4101 21.4138 70.2498 20.3319 69.4559C19.2501 68.662 17.9578 68.0536 17.1674 66.9934C16.7047 66.3636 16.4261 65.6176 16.3627 64.8387C16.2993 64.0598 16.4536 63.2786 16.8083 62.5822C17.1219 61.942 17.6245 61.4136 18.2481 61.0682C18.8717 60.7227 19.5862 60.577 20.2953 60.6507C21.6935 60.7554 21.0311 58.844 20.3483 57.9322C19.6654 57.0204 18.6616 56.302 18.3212 55.2129C18.1855 54.6853 18.2188 54.1284 18.4164 53.6207C18.6139 53.113 18.9658 52.6801 19.4225 52.383C20.2883 51.8375 21.4306 51.9148 22.5138 51.833C23.5971 51.7513 24.7696 51.4703 25.2399 50.5496C25.4662 49.8738 25.55 49.1583 25.4859 48.4485C25.5495 47.2253 25.9825 46.0503 26.7278 45.0783C27.4731 44.1064 28.4956 43.3834 29.6603 43.0047C30.8976 42.6511 32.3578 42.7585 33.1644 43.7703C33.6484 44.3638 33.8329 45.2613 34.4707 45.7043C34.832 45.8934 35.2406 45.9731 35.6465 45.9336C36.0524 45.8941 36.4379 45.737 36.7559 45.4817C37.3581 44.9631 37.9143 44.3933 38.4184 43.7789C39.3658 42.7755 40.8004 42.0612 42.093 42.4405C43.7573 42.9579 44.4034 44.9447 44.6888 46.6669C44.7238 47.1205 44.8763 47.5571 45.1313 47.9339C45.3707 48.1674 45.6663 48.335 45.9895 48.4205C46.3128 48.506 46.6526 48.5065 46.9761 48.422C47.6067 48.3368 48.235 48.0576 48.9249 47.9833C49.7737 47.9163 50.6163 48.174 51.2826 48.7042C51.9488 49.2344 52.3891 49.9976 52.5144 50.8398C52.7272 52.4838 51.7916 54.5111 53.0239 55.607C53.7691 56.2657 54.9009 56.1598 55.8542 56.4793C56.4335 56.6928 56.9476 57.0529 57.3463 57.5244C57.745 57.9958 58.0147 58.5625 58.1292 59.1693ZM99.4543 43.3839C99.5819 43.9841 99.5863 44.6039 99.4672 45.2058C99.3481 45.8077 99.108 46.3791 98.7615 46.8854C98.0455 48.0428 96.842 49.1401 97.1579 50.4232C97.353 51.3557 98.2547 51.9365 98.6629 52.7563C98.9113 53.2852 98.9749 53.8823 98.8435 54.4518C98.7122 55.0212 98.3934 55.53 97.9383 55.8967C97.0426 56.6119 95.7169 56.6259 94.8293 57.3708C94.3772 57.7894 94.1026 58.3653 94.062 58.9801C94.0214 59.5949 94.2179 60.2019 94.6109 60.6764C94.974 60.9405 95.2501 61.3068 95.404 61.7285C95.5084 62.1678 95.1682 62.6065 94.9143 62.9617C94.3636 63.6128 93.7643 64.3285 92.9125 64.5238C91.4679 64.8259 89.9451 63.4573 88.5915 64.091C87.7664 64.5018 87.4252 65.5063 87.3644 66.4519C87.3035 67.3975 87.3478 68.3244 86.9234 69.1482C86.64 69.6074 86.2385 69.9819 85.7608 70.2328C85.2831 70.4837 84.7468 70.6017 84.2079 70.5744C83.6718 70.5167 83.1528 70.3515 82.682 70.0887C82.2111 69.8259 81.7981 69.4709 81.4675 69.0449C81.1517 68.5698 80.7622 68.1481 80.3137 67.7955C79.5788 67.4009 78.6812 67.6527 77.9343 67.991C76.6238 68.6435 75.4042 69.6681 74.0027 69.9487C72.6012 70.2293 70.6816 69.3208 70.7864 67.8552C70.8824 66.8181 71.9266 65.9414 71.7531 64.9038C71.6492 64.5198 71.4303 64.1767 71.1259 63.9205C70.8215 63.6643 70.4461 63.5072 70.05 63.4703C69.258 63.4216 68.4634 63.4347 67.6735 63.5095C66.4348 63.5413 65.2288 63.1098 64.2914 62.2995C63.8192 61.9007 63.4584 61.3864 63.244 60.8067C63.0296 60.227 62.9691 59.6016 63.0682 58.9915C63.2175 58.3047 63.5877 57.6695 63.6643 56.9852C63.7554 55.6409 62.7524 54.4645 61.6409 53.6921C60.5294 52.9197 59.2695 52.2817 58.4764 51.2296C58.0168 50.5947 57.7452 49.8433 57.6926 49.0613C57.6401 48.2793 57.8087 47.4983 58.1792 46.8077C58.4887 46.1707 58.9876 45.6451 59.6075 45.3027C60.2274 44.9603 60.938 44.8179 61.6419 44.895C63.0401 44.9997 62.3751 43.0829 61.6949 42.1765C61.0147 41.2701 60.0082 40.5463 59.6678 39.4572C59.5058 38.9298 59.5236 38.3634 59.7186 37.8472C59.9136 37.331 60.2746 36.8943 60.7449 36.6057C61.6484 36.0414 62.7907 36.1187 63.8362 36.0558C64.8818 35.9928 66.092 35.693 66.5489 34.7454C66.7665 34.0816 66.8456 33.3802 66.7813 32.6846C66.8474 31.4556 67.285 30.2757 68.0361 29.3008C68.7873 28.3259 69.8167 27.6019 70.9882 27.2247C72.1581 26.871 73.6829 26.9866 74.4438 27.974C74.9439 28.5999 75.1229 29.5002 75.7958 29.9324C76.1524 30.1179 76.5551 30.1964 76.9553 30.1583C77.3555 30.1202 77.7361 29.9673 78.0513 29.7178C78.6603 29.1927 79.2253 28.6187 79.7408 28.0016C80.6882 26.9982 82.0904 26.3 83.3858 26.6847C85.0554 27.1994 85.6988 29.1808 85.987 30.9084C86.0176 31.3608 86.1695 31.7966 86.4267 32.1701C86.6681 32.3987 86.9629 32.5634 87.2841 32.6491C87.6054 32.7348 87.943 32.7388 88.2662 32.6608C88.9399 32.5541 89.5655 32.283 90.2149 32.2221C91.0643 32.1576 91.9071 32.4134 92.5774 32.9391C93.2477 33.4647 93.697 34.2223 93.8368 35.0626C93.9957 36.7333 93.1141 38.7338 94.3193 39.8431C95.0646 40.5018 96.2233 40.3825 97.1523 40.7208C97.7342 40.9266 98.2525 41.2804 98.6561 41.7474C99.0597 42.2143 99.3348 42.7784 99.4543 43.3839Z" fill="#532B78" stroke="black" stroke-width="2" mask="url(#path-2-inside-1_288_1632)"/>
<path d="M55.8166 56.5113C54.8633 56.1918 53.7315 56.2977 52.9862 55.639C51.7648 54.5377 52.6896 52.5158 52.4768 50.8719C52.3515 50.0297 51.9112 49.2664 51.245 48.7362C50.5787 48.206 49.7361 47.9484 48.8872 48.0153C48.1974 48.0896 47.5745 48.3661 46.9385 48.454C46.615 48.5385 46.2752 48.538 45.9519 48.4525C45.6287 48.367 45.333 48.1994 45.0937 47.9659C44.8387 47.5892 44.6862 47.1525 44.6512 46.6989C44.3657 44.9767 43.7304 43.0115 42.0554 42.4725C40.7628 42.0932 39.3282 42.8075 38.3808 43.8109C37.8767 44.4254 37.3205 44.9951 36.7183 45.5137C36.4003 45.769 36.0147 45.9261 35.6088 45.9656C35.203 46.0051 34.7944 45.9254 34.4331 45.7363C33.7953 45.2934 33.6108 44.3958 33.1268 43.8023C32.3202 42.7906 30.86 42.6831 29.6227 43.0367C28.458 43.4154 27.4355 44.1384 26.6902 45.1104C25.9449 46.0823 25.5119 47.2573 25.4483 48.4805C25.5124 49.1903 25.4286 49.9058 25.2023 50.5817C24.7374 51.4862 23.5405 51.8264 22.4762 51.8651C21.4119 51.9037 20.2668 51.8614 19.3849 52.415C18.9282 52.7121 18.5763 53.145 18.3787 53.6527C18.1812 54.1604 18.1479 54.7173 18.2836 55.2449C18.6294 56.3313 19.6305 57.0443 20.3107 57.9642C20.9908 58.8841 21.6801 60.7821 20.2577 60.6827C19.5486 60.6091 18.8341 60.7548 18.2105 61.1002C17.5869 61.4456 17.0843 61.9741 16.7707 62.6142C16.4135 63.3063 16.255 64.0839 16.3127 64.8606C16.3704 65.6373 16.642 66.3829 17.0975 67.0146C17.9013 68.1018 19.1666 68.7236 20.262 69.4771C21.3574 70.2306 22.3792 71.4313 22.2531 72.7864C22.0999 73.462 21.9108 74.1291 21.6866 74.7846C21.5934 75.3941 21.6541 76.0172 21.863 76.5972C22.0719 77.1773 22.4225 77.696 22.8828 78.1061C23.8417 78.8994 25.053 79.3229 26.2973 79.2999C27.0755 79.2233 27.8589 79.2138 28.6388 79.2714C29.0367 79.3067 29.415 79.4606 29.7244 79.7133C30.0339 79.9661 30.2603 80.3059 30.3743 80.6888C30.5558 81.7426 29.5008 82.6112 29.4102 83.6457C29.3188 85.1382 31.1414 86.0546 32.5915 85.7498C34.0415 85.445 35.2125 84.4447 36.5554 83.776C37.2996 83.4458 38.2 83.186 38.9295 83.5832C39.3833 83.9297 39.7652 84.3614 40.0536 84.8541C40.3868 85.2824 40.8048 85.6374 41.2814 85.8969C41.758 86.1564 42.283 86.3147 42.8236 86.3621C43.3548 86.401 43.8862 86.2902 44.3576 86.0424C44.829 85.7946 45.2215 85.4197 45.4906 84.9601C45.8297 84.0979 45.9934 83.1766 45.972 82.2504C46.0329 81.3047 46.3524 80.3111 47.1938 79.8921C48.5177 79.2665 50.0701 80.6271 51.5202 80.3223C52.3557 80.1755 52.9793 79.4409 53.5139 78.7575C53.7893 78.3915 54.0837 77.9824 54.0036 77.5243C53.822 77.1189 53.553 76.7587 53.2159 76.4695C52.8228 75.995 52.6264 75.388 52.667 74.7732C52.7076 74.1584 52.9821 73.5825 53.4342 73.1639C54.3165 72.4217 55.6421 72.4077 56.5459 71.6952C56.9939 71.3272 57.3052 70.8194 57.4297 70.2533C57.5543 69.6871 57.4849 69.0955 57.2327 68.5735C56.8219 67.7484 55.9607 67.1542 55.7332 66.2378C55.4578 64.9279 56.664 63.8359 57.3555 62.7378C58.034 61.6884 58.2858 60.4194 58.0592 59.1905C57.9461 58.5892 57.6805 58.0271 57.2878 57.558C56.8951 57.0889 56.3885 56.7285 55.8166 56.5113ZM52.8491 63.6222C52.8424 65.8921 52.3844 68.1379 51.5018 70.2292C50.2915 73.3707 48.1609 76.0736 45.389 77.9842C42.5727 79.8663 39.125 80.5544 35.802 79.8976C33.6541 79.3851 31.6503 78.3924 29.9412 76.9942C25.485 73.5461 22.4171 68.0742 22.5369 62.4216C22.6567 56.7691 26.2468 51.1519 31.5901 49.272L30.3311 49.7306C32.7032 48.5515 35.3367 47.9965 37.9829 48.1179C40.6292 48.2393 43.2008 49.0332 45.455 50.4246C47.7092 51.8159 49.5715 53.7589 50.8662 56.07C52.1609 58.381 52.8452 60.984 52.8545 63.633L52.8491 63.6222Z" fill="#FCAF17"/>
<path d="M97.1618 40.7234C96.2328 40.3851 95.074 40.5044 94.3288 39.8458C93.1073 38.7445 94.0268 36.7252 93.8463 35.0652C93.7064 34.2249 93.2572 33.4674 92.5868 32.9417C91.9165 32.416 91.0738 32.1603 90.2244 32.2248C89.5803 32.283 88.9494 32.5568 88.2756 32.6634C87.9524 32.7415 87.6148 32.7375 87.2936 32.6517C86.9723 32.566 86.6776 32.4014 86.4362 32.1727C86.1789 31.7993 86.027 31.3635 85.9964 30.911C85.7082 29.1835 85.0595 27.1913 83.3952 26.6874C82.0999 26.3026 80.6977 27.0009 79.7503 28.0043C79.2348 28.6214 78.6697 29.1954 78.0608 29.7205C77.7455 29.9699 77.3649 30.1229 76.9647 30.1609C76.5645 30.199 76.1619 30.1206 75.8053 29.935C75.1324 29.5028 74.9533 28.6026 74.4532 27.9767C73.7004 27.0055 72.1837 26.8656 70.9976 27.2273C69.8261 27.6046 68.7968 28.3285 68.0456 29.3034C67.2944 30.2784 66.8569 31.4583 66.7908 32.6872C66.855 33.3828 66.7759 34.0842 66.5584 34.748C66.0853 35.7038 64.9127 36.0251 63.8457 36.0584C62.7787 36.0917 61.6687 36.0387 60.7543 36.6083C60.2933 36.8962 59.9392 37.3272 59.7462 37.8353C59.5531 38.3434 59.5318 38.9008 59.6854 39.4222C60.0042 40.522 61.0081 41.2404 61.7125 42.1414C62.4169 43.0425 63.0793 44.9674 61.6595 44.86C60.9556 44.7828 60.245 44.9252 59.6251 45.2676C59.0052 45.61 58.5063 46.1357 58.1968 46.7726C57.8263 47.4633 57.6577 48.2443 57.7102 49.0263C57.7628 49.8083 58.0344 50.5597 58.494 51.1945C59.3005 52.2736 60.5631 52.9035 61.6585 53.657C62.7538 54.4106 63.773 55.6058 63.6819 56.9502C63.616 57.656 63.2351 58.2697 63.0858 58.9565C62.9867 59.5666 63.0472 60.1919 63.2616 60.7716C63.4759 61.3513 63.8368 61.8656 64.309 62.2645C65.2464 63.0748 66.4524 63.5062 67.6911 63.4744C68.481 63.3996 69.2756 63.3865 70.0676 63.4352C70.4637 63.4721 70.8391 63.6292 71.1435 63.8854C71.4479 64.1416 71.6668 64.4847 71.7707 64.8688C71.9495 65.9172 70.9 66.783 70.804 67.8202C70.6992 69.2857 72.5702 70.2184 74.0203 69.9136C75.4703 69.6088 76.6413 68.6085 77.9519 67.9559C78.6988 67.6177 79.5964 67.3659 80.3313 67.7605C80.7798 68.113 81.1693 68.5348 81.4851 69.0099C81.8157 69.4358 82.2287 69.7908 82.6996 70.0536C83.1704 70.3164 83.6893 70.4816 84.2254 70.5394C84.7643 70.5666 85.3007 70.4487 85.7784 70.1978C86.256 69.9469 86.6576 69.5723 86.941 69.1132C87.3654 68.2894 87.305 67.3301 87.382 66.4168C87.4589 65.5036 87.7624 64.4775 88.6091 64.0559C89.9627 63.4223 91.4855 64.7908 92.9301 64.4888C93.7819 64.2935 94.3812 63.5778 94.9319 62.9266C95.2073 62.5607 95.526 62.1328 95.4216 61.6934C95.2677 61.2717 94.9916 60.9054 94.6285 60.6413C94.2354 60.1669 94.039 59.5599 94.0796 58.9451C94.1202 58.3303 94.3948 57.7544 94.8468 57.3357C95.7345 56.5908 97.0602 56.5769 97.9559 55.8616C98.4109 55.495 98.7297 54.9862 98.8611 54.4167C98.9925 53.8473 98.9289 53.2502 98.6804 52.7212C98.2722 51.9015 97.3706 51.3207 97.1754 50.3881C96.8758 49.097 98.0793 47.9997 98.779 46.8504C99.1256 46.3441 99.3657 45.7726 99.4848 45.1707C99.6039 44.5688 99.5995 43.949 99.4719 43.3489C99.3458 42.7492 99.0668 42.1924 98.662 41.7324C98.2573 41.2724 97.7405 40.9248 97.1618 40.7234ZM94.1916 47.8289C94.1764 50.6383 93.4887 53.4032 92.1862 55.8925C90.8837 58.3817 89.0041 60.5229 86.7047 62.1371C85.3231 63.0747 83.7701 63.7303 82.1347 64.0665C80.4992 64.4027 78.8135 64.4129 77.1742 64.0963C75.0146 63.601 72.9992 62.6118 71.2864 61.2063C66.8276 57.7529 63.7596 52.281 63.874 46.6311C63.9884 40.9812 67.5839 35.3614 72.9272 33.4814L71.7086 33.9402C74.0791 32.7571 76.7126 32.1993 79.3593 32.3197C82.0059 32.4401 84.5778 33.2347 86.8311 34.6282C89.0844 36.0217 90.9443 37.9677 92.2344 40.2818C93.5245 42.5959 94.2019 45.2012 94.2024 47.8505L94.1916 47.8289Z" fill="#FCAF17"/>
<path d="M45.3756 50.3698C43.1193 49.0196 40.5616 48.254 37.9346 48.1424C35.3075 48.0308 32.6941 48.5767 30.3314 49.7307L31.585 49.2612C26.2229 51.1034 22.6356 56.7125 22.5265 62.4001C22.4174 68.0877 25.4746 73.5246 29.9308 76.9726C31.6399 78.3709 33.6437 79.3636 35.7916 79.876C39.1145 80.5328 42.5623 79.8447 45.3786 77.9627C48.1505 76.0521 50.2811 73.3492 51.4914 70.2076C52.374 68.1164 52.832 65.8705 52.8387 63.6006C52.8035 60.9464 52.1016 58.3437 50.7975 56.0317C49.4934 53.7198 47.6289 51.7728 45.3756 50.3698ZM30.859 59.8057C29.4797 58.981 28.428 57.7046 27.8823 56.1931C28.9837 55.899 30.1427 55.8972 31.2449 56.1878C32.2452 56.3865 33.1904 56.7999 34.0154 57.3995C34.8572 57.9763 35.4458 58.8537 35.6603 59.8514C35.6988 59.9474 35.7103 60.0521 35.6935 60.1542C35.6767 60.2563 35.6323 60.3519 35.565 60.4305C35.4796 60.5103 35.3728 60.5634 35.2576 60.5836C33.7456 60.8606 32.1844 60.5845 30.859 59.8057ZM40.5345 63.0172C40.4753 63.6892 40.1586 64.3123 39.6506 64.7563C39.4419 64.9172 39.2037 65.0358 38.9495 65.1054C38.6915 65.1487 38.4273 65.1382 38.1736 65.0745C37.757 64.9728 37.3793 64.7516 37.0868 64.438C36.7944 64.1245 36.6 63.7323 36.5276 63.3097C36.4823 62.8745 36.5806 62.4364 36.8074 62.0622C37.0342 61.688 37.3771 61.3983 37.7838 61.2371C38.0774 61.0719 38.4097 60.9881 38.7465 60.9944C39.0833 61.0006 39.4122 61.0966 39.6995 61.2726C39.9687 61.4751 40.1848 61.7399 40.3292 62.0442C40.4737 62.3485 40.5423 62.6833 40.5291 63.0199L40.5345 63.0172ZM38.3927 59.6349C38.2094 59.7262 38.0232 59.893 37.8078 59.8118C37.7081 59.7577 37.6196 59.6853 37.5468 59.5985C36.5973 58.3844 36.1134 56.8708 36.1824 55.3311C36.2984 53.731 36.9545 52.2178 38.0432 51.0394C38.8267 51.8754 39.3671 52.9094 39.6063 54.03C39.8782 55.0099 39.9489 56.0347 39.8142 57.0426C39.6727 58.0533 39.1649 58.9767 38.3873 59.6376L38.3927 59.6349ZM47.7547 65.0687C46.7523 65.2591 45.7214 65.2409 44.7264 65.0152C43.7186 64.7973 42.8288 64.2106 42.2314 63.3703C42.1401 63.1869 42.0327 62.9712 42.1111 62.8177C42.1646 62.7067 42.249 62.6133 42.354 62.5487C43.6472 61.7065 45.1979 61.3519 46.7286 61.5482C48.3119 61.7906 49.7624 62.5737 50.8338 63.7644C49.9333 64.4564 48.8687 64.903 47.744 65.0606L47.7547 65.0687ZM46.2282 57.7995C45.6766 58.6538 44.9476 59.3795 44.0908 59.9272C43.2368 60.4977 42.2012 60.7304 41.1852 60.5799C41.0865 60.5753 40.9905 60.5466 40.9055 60.4962C40.8205 60.4457 40.7493 60.3752 40.698 60.2908C40.6708 60.2307 40.6566 60.1656 40.6563 60.0997C40.6559 60.0338 40.6694 59.9685 40.6959 59.9082C40.9652 58.3974 41.7759 57.0366 42.9763 56.0806C44.2518 55.1045 45.8213 54.5911 47.4271 54.6249C47.3031 55.7669 46.8864 56.8576 46.2175 57.7914L46.2282 57.7995Z" fill="#4C5EAB"/>
<path d="M35.2609 60.5484C33.7508 60.8388 32.1866 60.576 30.8542 59.8083C29.4749 58.9835 28.4232 57.7072 27.8775 56.1956C28.9789 55.9015 30.1378 55.8997 31.2401 56.1904C32.2404 56.3891 33.1856 56.8025 34.0106 57.402C34.8523 57.9788 35.441 58.8563 35.6555 59.8539C35.694 59.9499 35.7055 60.0547 35.6887 60.1568C35.6719 60.2589 35.6275 60.3544 35.5602 60.433C35.4727 60.4978 35.3693 60.5377 35.2609 60.5484Z" fill="#ED1E24"/>
<path d="M35.1703 60.1094C33.7356 60.3785 32.252 60.1175 30.9952 59.375C29.7209 58.5932 28.7544 57.3967 28.258 55.9864L27.9579 56.6002C29.4927 56.2076 31.1154 56.349 32.5592 57.0012C33.2643 57.2884 33.898 57.7262 34.4162 58.2841C34.6887 58.586 34.9069 58.9327 35.0611 59.309C35.1279 59.4778 35.1808 59.6518 35.2192 59.8293C35.2647 60.0287 35.3266 60.045 35.1568 60.0824C35.0549 60.1143 34.9682 60.1827 34.9136 60.2745C34.8589 60.3662 34.84 60.475 34.8605 60.5798C34.881 60.6847 34.9395 60.7782 35.0248 60.8426C35.11 60.907 35.216 60.9377 35.3225 60.9287C36.4733 60.7124 36.1009 59.4508 35.7357 58.7039C35.2564 57.7979 34.5186 57.0549 33.6161 56.5692C31.8636 55.5411 29.7802 55.2343 27.8058 55.7135C27.7411 55.7275 27.6805 55.7558 27.6283 55.7965C27.5761 55.8371 27.5338 55.8889 27.5045 55.9482C27.4751 56.0074 27.4595 56.0725 27.4588 56.1386C27.458 56.2047 27.4722 56.2702 27.5003 56.33C28.0725 57.9147 29.1781 59.2511 30.6276 60.11C32.0557 60.9313 33.7298 61.2168 35.3494 60.9153C35.4286 60.8689 35.4909 60.7985 35.5275 60.7144C35.5641 60.6303 35.5731 60.5367 35.5532 60.4471C35.5333 60.3576 35.4855 60.2767 35.4167 60.216C35.3479 60.1553 35.2616 60.118 35.1703 60.1094Z" fill="white"/>
<path d="M39.7248 61.2942C39.9914 61.4905 40.2074 61.7474 40.355 62.0438C40.5026 62.3402 40.5774 62.6674 40.5734 62.9984C40.5141 63.6705 40.1974 64.2936 39.6894 64.7375C39.4807 64.8984 39.2425 65.017 38.9883 65.0866C38.7303 65.1299 38.4662 65.1194 38.2124 65.0557C37.7959 64.9541 37.4181 64.7328 37.1257 64.4193C36.8332 64.1057 36.6388 63.7135 36.5664 63.2909C36.5211 62.8557 36.6194 62.4176 36.8462 62.0435C37.073 61.6693 37.4159 61.3795 37.8227 61.2183C38.1181 61.0617 38.4498 60.9863 38.784 60.9996C39.1181 61.0129 39.4427 61.1146 39.7248 61.2942Z" fill="#0AA54A"/>
<path d="M39.4751 61.6601C39.7511 61.8814 39.9483 62.1859 40.0375 62.5282C40.1268 62.8705 40.1033 63.2325 39.9705 63.5604C39.8503 63.8817 39.6538 64.169 39.3979 64.3974C39.2492 64.5366 39.0727 64.6428 38.8801 64.7091C38.7078 64.7585 38.5255 64.761 38.3519 64.7163C38.0353 64.6534 37.7412 64.5068 37.5004 64.2917C37.2596 64.0767 37.0808 63.801 36.9825 63.4935C36.9074 63.1924 36.9234 62.8759 37.0285 62.5839C37.1335 62.292 37.3229 62.0378 37.5726 61.8536C37.8728 61.651 38.2163 61.5214 38.5755 61.4754C38.8807 61.4315 39.1914 61.499 39.4509 61.6654C39.9138 61.9599 40.3919 61.2439 39.9209 60.9468C39.5145 60.7144 39.0516 60.599 38.5837 60.6135C38.1157 60.6279 37.6608 60.7716 37.2695 61.0286C36.861 61.2707 36.5318 61.6263 36.322 62.0523C36.1123 62.4782 36.031 62.956 36.0881 63.4274C36.1712 63.915 36.391 64.3691 36.7218 64.7369C37.0527 65.1047 37.4811 65.3711 37.9573 65.5051C38.1919 65.5773 38.4364 65.6122 38.6819 65.6087C38.987 65.5917 39.2829 65.4976 39.5418 65.3353C39.9827 65.0608 40.3402 64.671 40.5756 64.208C40.8569 63.6928 40.9565 63.0979 40.8586 62.5191C40.7434 61.9029 40.3998 61.3529 39.8966 60.9791C39.8494 60.9482 39.7966 60.927 39.7412 60.9165C39.6858 60.906 39.6289 60.9066 39.5737 60.9182C39.5185 60.9297 39.4661 60.952 39.4196 60.9838C39.373 61.0156 39.3331 61.0562 39.3023 61.1034C39.2714 61.1506 39.2502 61.2034 39.2397 61.2588C39.2292 61.3142 39.2298 61.3711 39.2413 61.4263C39.2529 61.4815 39.2752 61.5339 39.307 61.5804C39.3388 61.627 39.3794 61.6668 39.4266 61.6977L39.4751 61.6601Z" fill="white"/>
<path d="M39.8221 57.0184C39.6842 58.0389 39.1729 58.9721 38.3871 59.6376C38.2037 59.7289 38.0175 59.8957 37.8021 59.8145C37.7025 59.7604 37.614 59.688 37.5411 59.6012C36.5917 58.3871 36.1078 56.8735 36.1767 55.3338C36.2928 53.7337 36.9489 52.2205 38.0375 51.0421C38.821 51.8781 39.3615 52.9121 39.6007 54.0327C39.8734 55.0031 39.9487 56.0184 39.8221 57.0184Z" fill="#ED1E24"/>
<path d="M39.3925 56.9909C39.3179 57.4616 39.1612 57.9155 38.9295 58.3319C38.8201 58.5362 38.6907 58.7291 38.5433 58.9079C38.4128 59.095 38.2411 59.2495 38.0414 59.3597C37.9713 59.3946 38.0036 59.3785 37.9068 59.2921C37.8167 59.1945 37.7382 59.0868 37.6729 58.9711C37.5327 58.7596 37.4053 58.5398 37.2914 58.3131C37.062 57.8555 36.8908 57.3709 36.7818 56.8707C36.5865 55.8874 36.6279 54.8717 36.9026 53.9075C37.1773 52.9433 37.6775 52.0584 38.3618 51.3257L37.7529 51.2923C38.4285 52.0615 38.9273 52.9693 39.2143 53.952C39.5013 54.9347 39.5695 55.9683 39.414 56.9802C39.3377 57.5297 40.1971 57.5796 40.2761 57.0355C40.4407 55.9088 40.3577 54.7598 40.0329 53.6686C39.708 52.5773 39.1491 51.57 38.3951 50.7168C38.3184 50.6322 38.2115 50.5813 38.0975 50.5751C37.9836 50.5688 37.8717 50.6078 37.7863 50.6835C36.891 51.624 36.2686 52.7904 35.9855 54.0577C35.7024 55.3249 35.7694 56.6453 36.1793 57.8774C36.3983 58.5157 36.7135 59.1168 37.114 59.6599C37.4312 60.1077 37.8753 60.4183 38.4254 60.1309C39.504 59.5938 40.083 58.1749 40.2546 57.0462C40.3471 56.5021 39.485 56.4468 39.3925 56.9909Z" fill="white"/>
<path d="M42.9771 56.0941C44.2526 55.118 45.8221 54.6047 47.4279 54.6384C47.3016 55.7757 46.8851 56.8615 46.2183 57.7915C45.6666 58.6458 44.9377 59.3714 44.0809 59.9192C43.2269 60.4897 42.1912 60.7223 41.1753 60.5718C41.0766 60.5672 40.9805 60.5385 40.8956 60.4881C40.8106 60.4377 40.7394 60.3671 40.6881 60.2827C40.6609 60.2226 40.6467 60.1575 40.6463 60.0916C40.646 60.0257 40.6595 59.9604 40.686 59.9001C40.9629 58.3956 41.7772 57.0429 42.9771 56.0941Z" fill="#ED1E24"/>
<path d="M43.2652 56.4153C44.4485 55.5057 45.9086 55.0306 47.4006 55.0696L46.9918 54.6001C46.8589 55.7507 46.4136 56.843 45.7041 57.7585C45.0416 58.7431 44.103 59.5102 43.0061 59.9634C42.4875 60.1597 41.9285 60.2254 41.3784 60.1547C41.3164 60.1519 41.0955 60.1542 41.066 60.0814C41.0365 60.0086 41.1229 59.8579 41.1365 59.804C41.1918 59.5378 41.266 59.2759 41.3587 59.0203C41.7406 57.9898 42.3971 57.0834 43.2572 56.3992C43.6915 56.055 43.116 55.4128 42.6816 55.7569C41.8458 56.4305 41.1791 57.2903 40.7349 58.2676C40.4158 58.9783 39.7451 60.4834 40.8005 60.927C41.856 61.3706 43.0772 60.9712 43.9563 60.5065C44.9789 59.9312 45.8516 59.1231 46.5037 58.1478C47.26 57.1285 47.7299 55.9255 47.8647 54.6635C47.8704 54.6055 47.8642 54.5469 47.8465 54.4914C47.8288 54.4358 47.7999 54.3845 47.7616 54.3406C47.7234 54.2966 47.6765 54.2609 47.6239 54.2357C47.5713 54.2105 47.5142 54.1963 47.4559 54.194C45.7336 54.1463 44.0481 54.6977 42.687 55.7543C42.258 56.1227 42.8497 56.7568 43.2652 56.4153Z" fill="white"/>
<path d="M50.8235 63.7565C49.9269 64.4497 48.8662 64.8991 47.7444 65.0609C46.742 65.2512 45.7111 65.233 44.7161 65.0074C43.7084 64.7894 42.8185 64.2027 42.2211 63.3624C42.1298 63.179 42.0224 62.9633 42.1008 62.8099C42.1544 62.6988 42.2387 62.6054 42.3437 62.5408C43.6369 61.6986 45.1876 61.344 46.7183 61.5403C48.3016 61.7828 49.7521 62.5658 50.8235 63.7565Z" fill="#ED1E24"/>
<path d="M50.5355 63.4353C49.4994 64.2143 48.2529 64.6638 46.958 64.7254C45.7991 64.8838 44.62 64.6605 43.5992 64.0894C43.3814 63.9536 43.1784 63.7952 42.9937 63.6169C42.8619 63.4873 42.5041 63.1877 42.5152 62.9802C42.5263 62.7728 42.9603 62.6711 43.087 62.6013C43.3528 62.4665 43.6265 62.3482 43.9067 62.247C45.0046 61.864 46.1907 61.8116 47.318 62.0963C48.5466 62.4213 49.6534 63.0984 50.5022 64.0442C50.5818 64.1155 50.6849 64.1549 50.7917 64.1549C50.8985 64.1549 51.0016 64.1155 51.0812 64.0442C51.1607 63.9729 51.2112 63.8747 51.2228 63.7685C51.2345 63.6623 51.2066 63.5555 51.1444 63.4687C50.2047 62.407 48.9673 61.6526 47.5932 61.3034C46.2191 60.9542 44.7717 61.0264 43.4391 61.5106C42.8702 61.7198 42.0075 62.0283 41.7075 62.5882C41.4075 63.1481 41.9318 63.8226 42.3246 64.2058C43.3645 65.1748 44.7434 65.6967 46.1643 65.659C47.9368 65.7266 49.6787 65.1825 51.0975 64.1179C51.5401 63.7226 50.9645 63.0804 50.5355 63.4353Z" fill="white"/>
<path d="M26.2959 64.2656C27.4903 65.3434 29.0166 65.9817 30.6227 66.0753C32.1553 66.1176 33.6526 65.6107 34.8444 64.6461C34.9166 64.6062 34.9775 64.5487 35.0214 64.4789C35.0653 64.4091 35.0908 64.3293 35.0955 64.247C35.1002 64.1646 35.0839 64.0825 35.0483 64.0081C35.0126 63.9337 34.9587 63.8696 34.8916 63.8217C34.2217 63.0528 33.2922 62.5573 32.2804 62.4298C31.2698 62.3005 30.2434 62.3851 29.2677 62.6781C28.1519 62.9275 27.1237 63.472 26.2905 64.2548" fill="#ED1E24"/>
<path d="M25.9739 64.5534C27.1328 65.6938 28.6578 66.3875 30.279 66.5115C31.9002 66.6354 33.513 66.1818 34.8318 65.2308C35.1196 65.0737 35.3516 64.8312 35.4958 64.5367C35.7016 63.9093 35.0774 63.3452 34.6469 62.9942C33.5365 62.1638 32.1472 61.7964 30.7714 61.9693C29.0117 62.0686 27.3378 62.7621 26.0234 63.9364C25.6321 64.3265 26.2076 64.9687 26.599 64.5786C27.5381 63.728 28.7029 63.1667 29.9534 62.9622C31.0785 62.6751 32.2656 62.7506 33.3452 63.1779C33.8384 63.381 34.2704 63.7085 34.5992 64.1284C34.661 64.2525 34.6556 64.2417 34.6232 64.3117C34.5363 64.4024 34.4363 64.4794 34.3264 64.5402C33.0942 65.4169 31.5741 65.7911 30.0757 65.5867C28.7859 65.3938 27.5826 64.8216 26.6189 63.9428C26.218 63.5703 25.5677 64.1431 25.9767 64.5183L25.9739 64.5534Z" fill="white"/>
<path d="M29.7461 72.656C31.3544 72.7096 32.9329 72.2133 34.2211 71.2488C35.4274 70.3008 36.2552 68.9529 36.5553 67.4483C36.587 67.3317 36.5863 67.2087 36.5532 67.0926C36.5031 67.004 36.4314 66.9296 36.3448 66.8762C36.2582 66.8228 36.1595 66.7922 36.0579 66.7873C35.0449 66.6296 34.0091 66.8463 33.1443 67.3968C32.2912 67.9521 31.5617 68.6773 31.0015 69.5272C30.3139 70.4409 29.8808 71.5205 29.7461 72.656Z" fill="#ED1E24"/>
<path d="M29.7197 73.0871C31.1233 73.1565 32.516 72.8091 33.7226 72.0885C34.9291 71.368 35.8955 70.3066 36.5 69.0379C36.6404 68.7375 36.7554 68.4259 36.8437 68.1063C36.9857 67.7641 37.032 67.3898 36.9775 67.0233C36.7766 66.3494 35.8821 66.2967 35.2839 66.3254C34.5422 66.377 33.8187 66.5783 33.1568 66.9171C32.495 67.2559 31.9087 67.7252 31.4331 68.2967C30.2709 69.4812 29.5211 71.0086 29.2947 72.6526C29.2453 73.2022 30.1074 73.2575 30.1568 72.7079C30.314 71.5377 30.7913 70.4336 31.5362 69.5174C32.2297 68.4794 33.2506 67.7033 34.4363 67.3128C34.6923 67.2421 34.9553 67.1991 35.2205 67.1848C35.3903 67.1743 35.975 67.1322 36.0988 67.2725C36.2225 67.4128 35.99 67.892 35.952 68.0186C35.8746 68.2807 35.7769 68.5364 35.6598 68.7833C35.188 69.7998 34.4336 70.6591 33.4867 71.2585C32.3705 71.9381 31.0781 72.2725 29.7723 72.2196C29.2227 72.1972 29.1593 73.0566 29.717 73.0817L29.7197 73.0871Z" fill="white"/>
<path d="M39.6806 76.4795C40.566 75.1376 40.9687 73.5344 40.8225 71.9333C40.6486 70.4092 39.934 68.9979 38.8083 67.9558C38.7249 67.865 38.6176 67.7994 38.4987 67.7667C38.3932 67.7602 38.2878 67.7816 38.1931 67.8287C38.0984 67.8759 38.0178 67.9471 37.9594 68.0352C37.294 68.8161 36.936 69.8127 36.9525 70.8384C36.9796 71.8572 37.2173 72.8594 37.6509 73.7818C38.0687 74.8457 38.7652 75.7775 39.6672 76.4795" fill="#ED1E24"/>
<path d="M40.0405 76.7169C40.8597 75.5098 41.2884 74.0803 41.2687 72.6216C41.2489 71.1629 40.7816 69.7454 39.93 68.561C39.5994 68.1131 39.0537 67.3282 38.4313 67.3352C37.8089 67.3423 37.3362 68.0825 37.0848 68.5778C36.4853 69.8382 36.3829 71.2782 36.7979 72.6108C37.1899 74.2731 38.1194 75.7596 39.4422 76.8399C39.8889 77.1694 40.3589 76.4507 39.9122 76.1213C38.97 75.3429 38.2666 74.3144 37.8828 73.1541C37.4116 72.0836 37.2891 70.8919 37.5328 69.7479C37.6545 69.2554 37.8865 68.797 38.2113 68.4072C38.4299 68.157 38.4352 68.2217 38.6558 68.4349C38.8914 68.6739 39.1089 68.93 39.3066 69.2012C40.0245 70.2003 40.41 71.3999 40.4083 72.6302C40.3939 73.9192 40.0083 75.1768 39.2976 76.2523C39.2467 76.3477 39.2332 76.4586 39.2598 76.5634C39.2865 76.6682 39.3513 76.7593 39.4416 76.8188C39.5318 76.8783 39.6411 76.902 39.7479 76.8851C39.8547 76.8682 39.9514 76.8121 40.0189 76.7277L40.0405 76.7169Z" fill="white"/>
<path d="M47.5266 71.8799C47.3401 70.2827 46.6145 68.797 45.4697 67.6679C44.351 66.6176 42.8938 66.0017 41.361 65.9313C41.2395 65.9165 41.1163 65.9359 41.0052 65.9873C40.9257 66.0505 40.8634 66.1327 40.8241 66.2264C40.7849 66.32 40.7699 66.4221 40.7807 66.5231C40.7733 67.5482 41.1428 68.5402 41.8188 69.3108C42.4969 70.0706 43.324 70.6828 44.2489 71.1092C45.2529 71.6544 46.3848 71.9205 47.5266 71.8799Z" fill="#ED1E24"/>
<path d="M47.9497 71.7968C47.8001 70.3874 47.2312 69.0553 46.3165 67.9726C45.4019 66.8899 44.1835 66.1064 42.8189 65.7234C42.2695 65.5797 41.3485 65.3114 40.8145 65.6042C40.1781 65.9211 40.3139 66.9101 40.41 67.495C40.783 68.9336 41.7111 70.1656 42.9909 70.9211C44.3326 71.8657 45.942 72.3547 47.5825 72.3162C48.1375 72.2821 47.9719 71.4493 47.4195 71.4753C46.2583 71.4888 45.1159 71.1821 44.1177 70.5888C43.0159 70.0587 42.112 69.1907 41.5379 68.1112C41.4165 67.8605 41.3256 67.5962 41.267 67.324C41.2243 67.1299 41.077 66.5773 41.2147 66.4078C41.3524 66.2383 41.794 66.4087 41.9529 66.4306C42.2246 66.4695 42.493 66.5294 42.7555 66.6097C43.8337 66.9292 44.7995 67.5473 45.5412 68.3926C46.4036 69.4033 46.9422 70.6499 47.0873 71.9705C47.1483 72.5257 47.9919 72.3546 47.9336 71.8049L47.9497 71.7968Z" fill="white"/>
<path d="M86.752 34.5657C84.4917 33.2217 81.9333 32.4591 79.306 32.3461C76.6787 32.2332 74.0644 32.7734 71.697 33.9185L72.9156 33.4598C67.5669 35.3289 63.9661 40.9245 63.8624 46.6095C63.7587 52.2944 66.816 57.7312 71.2748 61.1847C72.9876 62.5901 75.003 63.5794 77.1626 64.0747C78.8022 64.3958 80.4891 64.3899 82.1264 64.0574C83.7638 63.7249 85.3193 63.0723 86.7038 62.137C89.0032 60.5229 90.8828 58.3816 92.1853 55.8924C93.4879 53.4032 94.1755 50.6383 94.1908 47.8289C94.1619 45.1718 93.4656 42.5646 92.1657 40.247C90.8659 37.9294 89.0042 35.9758 86.752 34.5657ZM76.4283 48.6105C76.3753 48.7101 76.3016 48.7972 76.2123 48.8662C75.0179 49.8342 73.5167 50.343 71.9798 50.3007C70.3709 50.1806 68.846 49.5353 67.6396 48.464C68.4753 47.68 69.5094 47.1395 70.6302 46.9008C71.6039 46.6166 72.6253 46.5339 73.6321 46.6579C74.6479 46.7816 75.5829 47.2741 76.2595 48.0418C76.3858 48.2144 76.5175 48.4113 76.4283 48.6105ZM72.1896 43.9908C70.8254 43.1465 69.7854 41.8672 69.2372 40.3593C70.3399 40.0665 71.4998 40.0666 72.6025 40.3595C73.6008 40.5586 74.5448 40.97 75.3703 41.5658C76.2056 42.1511 76.8005 43.0193 77.0448 44.0096C77.0678 44.1077 77.0713 44.2093 77.0549 44.3087C77.0386 44.408 77.0028 44.5032 76.9496 44.5887C76.8464 44.6633 76.7256 44.7095 76.5991 44.7229C75.0907 45.0195 73.5261 44.7736 72.1815 44.0285L72.1896 43.9908ZM81.8651 47.2023C81.8425 47.5363 81.7523 47.8622 81.5999 48.1602C81.4475 48.4582 81.2361 48.7222 80.9785 48.936C80.7781 49.0861 80.5586 49.209 80.3259 49.3013C80.0575 49.3562 79.7802 49.3492 79.5149 49.2811C79.0994 49.1777 78.7229 48.9554 78.4316 48.6415C78.1402 48.3277 77.9466 47.9357 77.8743 47.5136C77.8323 47.0799 77.9313 46.6443 78.1566 46.2713C78.382 45.8984 78.7217 45.6082 79.1252 45.4437C79.4175 45.2721 79.7514 45.1843 80.0903 45.1901C80.4292 45.1959 80.76 45.295 81.0462 45.4765C81.3261 45.6717 81.5489 45.938 81.6914 46.248C81.834 46.558 81.8911 46.9005 81.857 47.24L81.8651 47.2023ZM79.7206 43.8146C79.6505 43.8801 79.5657 43.9279 79.4733 43.954C79.3809 43.9801 79.2837 43.9838 79.1896 43.9646C79.0735 43.933 78.9718 43.8625 78.9016 43.7648C77.9652 42.5438 77.4829 41.0351 77.5373 39.4974C77.6662 37.8895 78.3331 36.3719 79.4304 35.1895C80.1915 36.0427 80.7205 37.0771 80.9666 38.1936C81.2542 39.1725 81.3261 40.2022 81.1772 41.2116C81.0439 42.2425 80.5243 43.1844 79.7233 43.847L79.7206 43.8146ZM87.5535 41.9739C86.9885 42.8173 86.262 43.5404 85.416 44.1016C84.5702 44.6694 83.5407 44.8958 82.5347 44.7354C82.3219 44.6865 82.1065 44.6457 82.0152 44.4624C81.9919 44.3349 81.993 44.2042 82.0185 44.0771C82.3064 42.5734 83.1136 41.2186 84.2988 40.2495C85.5817 39.2662 87.1606 38.7482 88.7766 38.7804C88.6543 39.9411 88.2359 41.0509 87.5615 42.0035L87.5535 41.9739Z" fill="#4C5EAB"/>
<path d="M76.2632 48.0469C76.3869 48.2141 76.5186 48.411 76.4401 48.6319C76.387 48.7314 76.3134 48.8185 76.2241 48.8875C75.0297 49.8555 73.5284 50.3643 71.9916 50.322C70.3827 50.2019 68.8578 49.5566 67.6514 48.4853C68.4871 47.7013 69.5212 47.1608 70.642 46.9221C71.6157 46.6379 72.6371 46.5552 73.6439 46.6792C74.6545 46.8006 75.586 47.2869 76.2632 48.0469Z" fill="#ED1E24"/>
<path d="M75.9408 48.3349C76.016 48.4859 76.0106 48.4751 75.873 48.5907C75.7151 48.7192 75.5493 48.8377 75.3767 48.9456C75.0349 49.1582 74.6737 49.3381 74.2981 49.4827C73.558 49.7725 72.7665 49.9078 71.9722 49.8803C70.4712 49.7869 69.0455 49.1903 67.9254 48.1869L67.892 48.7958C69.0621 47.7617 70.5469 47.1528 72.1061 47.0676C72.7965 46.9584 73.5029 47.0182 74.1651 47.2417C74.8273 47.4652 75.4255 47.8458 75.9085 48.351C75.988 48.4223 76.0911 48.4617 76.1979 48.4617C76.3048 48.4617 76.4078 48.4222 76.4874 48.3509C76.567 48.2796 76.6174 48.1815 76.6291 48.0753C76.6408 47.9691 76.6128 47.8623 76.5507 47.7755C75.9996 47.1916 75.3195 46.7448 74.5649 46.4708C73.8102 46.1968 73.0019 46.1032 72.2046 46.1975C70.3983 46.2659 68.6713 46.957 67.3165 48.1536C67.2333 48.2311 67.1834 48.3378 67.1772 48.4513C67.171 48.5648 67.2089 48.6763 67.2831 48.7625C68.0066 49.4307 68.8559 49.9481 69.7815 50.2845C70.707 50.621 71.6903 50.7697 72.674 50.7221C73.7136 50.6439 74.7211 50.3265 75.6178 49.7947C76.0274 49.592 76.3924 49.3095 76.6915 48.9639C76.9859 48.5549 76.8087 48.145 76.5507 47.7755C76.2631 47.3062 75.6236 47.8871 75.9408 48.3349Z" fill="white"/>
<path d="M72.1809 44.0285C70.8167 43.1842 69.7766 41.9049 69.2285 40.3971C70.3312 40.1043 71.4911 40.1043 72.5938 40.3972C73.5921 40.5963 74.5361 41.0077 75.3616 41.6035C76.1969 42.1888 76.7918 43.057 77.0361 44.0473C77.0591 44.1454 77.0626 44.247 77.0462 44.3464C77.0299 44.4458 76.9941 44.5409 76.9409 44.6265C76.8377 44.701 76.7169 44.7472 76.5904 44.7606C75.0802 45.0439 73.5185 44.7846 72.1809 44.0285Z" fill="#ED1E24"/>
<path d="M72.435 43.6598C71.1308 42.8614 70.1428 41.6366 69.6386 40.1929L69.3331 40.8094C70.4764 40.5141 71.6789 40.5394 72.8087 40.8825C73.9142 41.1303 74.9275 41.6848 75.7321 42.4824C76.1428 42.9095 76.4386 43.4337 76.5918 44.0061C76.6187 44.0601 76.6668 44.2649 76.6263 44.3322C76.691 44.3 76.6453 44.2757 76.5185 44.332L76.3029 44.3721C76.0461 44.4121 75.7867 44.4333 75.5268 44.4355C74.4497 44.4448 73.3884 44.1758 72.4458 43.6544C71.9666 43.3815 71.502 44.1244 71.9758 44.373C72.8834 44.8817 73.8902 45.1885 74.9273 45.2724C75.4411 45.3016 75.9566 45.2708 76.4632 45.1807C77.0211 45.0981 77.466 44.8832 77.4886 44.2528C77.4603 43.6978 77.2835 43.1606 76.9766 42.6973C76.6933 42.213 76.3263 41.7827 75.8928 41.4265C75.0338 40.7415 74.0333 40.2558 72.9637 40.0044C71.727 39.6395 70.4148 39.6141 69.1648 39.9308C69.101 39.9455 69.0413 39.9743 68.99 40.015C68.9388 40.0557 68.8973 40.1074 68.8685 40.1662C68.8397 40.225 68.8245 40.2895 68.8238 40.355C68.8232 40.4204 68.8371 40.4852 68.8647 40.5446C69.4338 42.1278 70.5267 43.469 71.9624 44.3461C72.436 44.6621 72.9141 43.9462 72.435 43.6598Z" fill="white"/>
<path d="M81.0485 45.5087C81.324 45.6996 81.5447 45.9594 81.6884 46.2622C81.8321 46.565 81.8938 46.9003 81.8674 47.2344C81.8448 47.5684 81.7546 47.8943 81.6022 48.1923C81.4498 48.4903 81.2384 48.7543 80.9808 48.9681C80.7804 49.1182 80.5609 49.2411 80.3282 49.3335C80.0598 49.3883 79.7825 49.3814 79.5172 49.3133C79.1017 49.2098 78.7252 48.9875 78.4339 48.6737C78.1425 48.3598 77.9489 47.9679 77.8766 47.5458C77.8345 47.1121 77.9336 46.6764 78.1589 46.3035C78.3843 45.9306 78.724 45.6403 79.1275 45.4759C79.4198 45.3042 79.7537 45.2165 80.0926 45.2222C80.4315 45.228 80.7623 45.3271 81.0485 45.5087Z" fill="#0AA54A"/>
<path d="M80.8125 45.8696C81.0985 46.0825 81.3047 46.3854 81.3979 46.7295C81.4912 47.0737 81.4661 47.4391 81.3267 47.7673C81.2016 48.0894 81.0005 48.3766 80.7406 48.6043C80.5992 48.7296 80.4366 48.8287 80.2605 48.8972C80.0893 48.9499 79.9073 48.957 79.7324 48.9179C79.4205 48.8632 79.1289 48.726 78.8881 48.5204C78.6472 48.3148 78.4659 48.0484 78.3629 47.749C78.277 47.4349 78.2899 47.1021 78.3998 46.7957C78.5098 46.4892 78.7114 46.2241 78.9774 46.0364C79.2776 45.8415 79.6174 45.716 79.9722 45.6689C80.1186 45.644 80.2684 45.649 80.4128 45.6835C80.5572 45.718 80.6932 45.7813 80.8125 45.8696C81.2727 46.1856 81.7427 45.467 81.2879 45.1483C80.8738 44.9183 80.4045 44.8065 79.9312 44.8251C79.4579 44.8437 78.9988 44.9921 78.604 45.2539C78.2093 45.5158 77.8941 45.881 77.6929 46.3099C77.4917 46.7387 77.4122 47.2146 77.4631 47.6855C77.558 48.167 77.7855 48.6124 78.1201 48.9715C78.4547 49.3305 78.8829 49.5889 79.3566 49.7175C79.6217 49.7955 79.9003 49.8169 80.1742 49.7802C80.4482 49.7435 80.7113 49.6496 80.9466 49.5045C81.3878 49.2335 81.747 48.8476 81.9858 48.3881C82.285 47.856 82.3793 47.2328 82.2507 46.636C82.1221 46.0392 81.7797 45.51 81.2879 45.1483C81.1925 45.0974 81.0815 45.0839 80.9767 45.1106C80.872 45.1372 80.7809 45.202 80.7214 45.2923C80.6619 45.3826 80.6382 45.4918 80.6551 45.5986C80.6719 45.7054 80.7281 45.8021 80.8125 45.8696Z" fill="white"/>
<path d="M81.1723 41.2411C81.0373 42.2636 80.5221 43.1978 79.7292 43.8576C79.6591 43.9231 79.5743 43.9709 79.4819 43.997C79.3895 44.0231 79.2923 44.0267 79.1982 44.0076C79.0821 43.976 78.9804 43.9054 78.9102 43.8078C77.9738 42.5868 77.4914 41.0781 77.5458 39.5403C77.6747 37.9324 78.3417 36.4148 79.439 35.2325C80.2001 36.0856 80.7291 37.1201 80.9752 38.2365C81.2564 39.2122 81.3236 40.2371 81.1723 41.2411Z" fill="#ED1E24"/>
<path d="M80.7333 41.1973C80.6621 41.6462 80.5195 42.0808 80.3108 42.4846C80.1165 42.9029 79.8146 43.2622 79.4361 43.5258C79.2366 43.6252 79.183 43.4634 79.0701 43.3043C78.9152 43.0852 78.7777 42.8544 78.659 42.6139C78.418 42.1443 78.2378 41.6461 78.1226 41.1311C77.9164 40.1387 77.9529 39.1112 78.2289 38.136C78.505 37.1607 79.0124 36.2666 79.708 35.5294L79.0991 35.4961C79.8054 36.2934 80.2987 37.2562 80.5333 38.2952C80.8051 39.2374 80.8733 40.2267 80.7333 41.1973C80.6381 41.7495 81.4975 41.7994 81.5927 41.2607C81.7389 40.1764 81.6488 39.0733 81.3286 38.0271C81.0571 36.8842 80.5072 35.8263 79.7278 34.9475C79.6511 34.8629 79.5442 34.812 79.4302 34.8058C79.3163 34.7995 79.2044 34.8385 79.119 34.9141C78.2093 35.8619 77.5785 37.0421 77.2959 38.3251C77.0134 39.608 77.09 40.944 77.5173 42.1863C77.7391 42.8437 78.0686 43.4598 78.4923 44.0092C78.632 44.225 78.8507 44.3774 79.1015 44.4337C79.3522 44.4901 79.6151 44.4458 79.8336 44.3105C80.8773 43.7033 81.3941 42.4028 81.5792 41.2877C81.6825 40.7112 80.8231 40.6613 80.7333 41.1973Z" fill="white"/>
<path d="M88.7991 38.8366C88.661 39.9797 88.2356 41.0691 87.5625 42.0032C86.9975 42.8466 86.2711 43.5697 85.4251 44.1309C84.5793 44.6987 83.5498 44.9251 82.5438 44.7647C82.331 44.7158 82.1155 44.6751 82.0242 44.4917C82.001 44.3642 82.0021 44.2335 82.0276 44.1064C82.3155 42.6027 83.1226 41.2479 84.3079 40.2788C85.5979 39.3023 87.1817 38.7937 88.7991 38.8366Z" fill="#ED1E24"/>
<path d="M88.3724 38.8067C88.2215 39.9873 87.7479 41.1035 87.0037 42.0323C86.3088 43.0636 85.2991 43.8426 84.1252 44.2531C83.8716 44.3285 83.6103 44.3751 83.3463 44.3919C83.0528 44.3861 82.7602 44.3586 82.4708 44.3096C82.363 44.296 82.4251 44.218 82.4384 44.3258C82.4363 44.276 82.4409 44.2261 82.4521 44.1776C82.49 44.051 82.5091 43.9136 82.5444 43.7817C82.6177 43.507 82.7082 43.2372 82.8151 42.9738C83.259 41.917 83.9952 41.0088 84.9372 40.3557C86.0724 39.6088 87.4064 39.2213 88.765 39.2439C89.3201 39.2502 89.3781 38.3935 88.823 38.3872C87.394 38.3394 85.9832 38.7188 84.7711 39.4771C83.5589 40.2353 82.6004 41.3379 82.0182 42.6438C81.8867 42.9557 81.779 43.277 81.6959 43.6051C81.5837 43.9079 81.5516 44.2346 81.6028 44.5534C81.7903 45.2273 82.7871 45.2559 83.3476 45.2326C84.8167 45.0889 86.1693 44.3694 87.1095 43.2315C88.2675 42.0346 89.0097 40.497 89.2264 38.8459C89.2275 38.7351 89.1855 38.6283 89.1094 38.5479C89.0332 38.4675 88.9289 38.4197 88.8183 38.4146C88.7077 38.4096 88.5994 38.4476 88.5162 38.5207C88.4331 38.5938 88.3815 38.6964 88.3724 38.8067Z" fill="white"/>
<path d="M71.0996 56.8572C72.706 56.9118 74.2828 56.4163 75.5692 55.4527C76.7779 54.5068 77.6064 53.1579 77.9034 51.6521C77.9385 51.5361 77.9378 51.4121 77.9013 51.2965C77.852 51.2081 77.7814 51.1336 77.6958 51.0798C77.6101 51.026 77.5124 50.9946 77.4114 50.9885C76.3984 50.8308 75.3627 51.0474 74.4978 51.598C73.6442 52.1526 72.9146 52.878 72.355 53.7284C71.6636 54.6399 71.23 55.7205 71.0996 56.8572Z" fill="#ED1E24"/>
<path d="M71.072 57.2884C72.4753 57.3562 73.8674 57.008 75.0736 56.2877C76.2799 55.5673 77.2465 54.5068 77.8523 53.2392C77.9927 52.9388 78.1077 52.6271 78.196 52.3075C78.336 51.9648 78.3822 51.591 78.3298 51.2246C78.1343 50.548 77.2398 50.4953 76.6632 50.5132C75.9215 50.5648 75.1979 50.7661 74.5361 51.1049C73.8743 51.4437 73.2879 51.913 72.8124 52.4845C71.6487 53.6681 70.8987 55.1959 70.674 56.8405C70.6246 57.39 71.4813 57.448 71.5307 56.8984C71.6879 55.7282 72.1652 54.6241 72.9101 53.7079C73.6101 52.6591 74.6432 51.8768 75.8425 51.4872C76.0988 51.4173 76.3616 51.3744 76.6268 51.3592C76.7965 51.3487 77.3813 51.3065 77.505 51.4468C77.6287 51.5872 77.3962 52.0664 77.3583 52.1929C77.2789 52.4544 77.1813 52.7099 77.066 52.9577C76.59 53.9714 75.8366 54.8296 74.893 55.4329C73.7759 56.1279 72.4772 56.4746 71.1623 56.429C70.6073 56.4092 70.5493 57.2659 71.107 57.2911L71.072 57.2884Z" fill="white"/>
<path d="M81.0271 60.6832C81.9141 59.3408 82.3186 57.7368 82.1743 56.1343C81.9953 54.6114 81.2793 53.2021 80.1548 52.1595C80.0735 52.0662 79.9654 52.0002 79.8452 51.9704C79.7397 51.9639 79.6342 51.9853 79.5396 52.0324C79.4449 52.0796 79.3643 52.1508 79.3059 52.239C78.6381 53.017 78.2814 54.0144 78.3044 55.0394C78.3295 56.0588 78.5655 57.0618 78.9973 57.9855C79.418 59.0478 80.114 59.9789 81.0137 60.6832" fill="#ED1E24"/>
<path d="M81.3872 60.921C82.2072 59.7142 82.6365 58.2845 82.6167 56.8256C82.5969 55.3667 82.1291 53.9492 81.2767 52.765C80.9461 52.3172 80.4058 51.5296 79.778 51.5393C79.1502 51.5491 78.6882 52.2839 78.4314 52.7819C77.8339 54.0421 77.7334 55.4812 78.15 56.8122C78.545 58.4726 79.4716 59.9586 80.7888 61.044C81.2356 61.3734 81.7056 60.6548 81.2642 60.3227C80.3205 59.5457 79.6153 58.5182 79.2295 57.3582C78.7558 56.2883 78.6333 55.0959 78.8795 53.952C79.0012 53.4595 79.2332 53.0011 79.558 52.6113C79.7712 52.3638 79.7819 52.4258 79.9971 52.6417C80.2348 52.8787 80.4525 53.135 80.6479 53.4079C81.3647 54.4069 81.7517 55.6048 81.755 56.8343C81.7409 58.125 81.3533 59.384 80.6389 60.4591C80.588 60.5544 80.5745 60.6654 80.6011 60.7702C80.6278 60.875 80.6926 60.9661 80.7829 61.0256C80.8731 61.0851 80.9824 61.1087 81.0892 61.0919C81.196 61.075 81.2927 61.0189 81.3602 60.9345L81.3872 60.921Z" fill="white"/>
<path d="M92.1923 47.9627C91.1048 46.7759 89.6454 45.9952 88.0547 45.7492C86.5324 45.5535 84.9902 45.9063 83.7044 46.7443C83.5986 46.8034 83.5116 46.891 83.4534 46.9972C83.4249 47.0951 83.4217 47.1987 83.4442 47.2981C83.4666 47.3976 83.514 47.4897 83.5818 47.5659C84.1757 48.4017 85.0575 48.9885 86.0578 49.2136C87.0518 49.4364 88.081 49.451 89.0808 49.2563C90.2141 49.1077 91.2877 48.6614 92.1923 47.9627Z" fill="#ED1E24"/>
<path d="M92.5267 47.702C91.5831 46.6451 90.3455 45.8936 88.9724 45.5438C87.5993 45.1941 86.1531 45.2619 84.8187 45.7386C84.4821 45.8613 84.1565 46.0122 83.8453 46.1897C83.5103 46.3304 83.2314 46.5782 83.052 46.8943C82.822 47.4866 83.4029 48.1262 83.7984 48.5013C84.8657 49.4338 86.2522 49.9178 87.668 49.8522C89.4006 49.8867 91.0958 49.3456 92.488 48.3136C92.917 47.9587 92.3415 47.3164 91.9125 47.6714C90.9003 48.4185 89.6953 48.8597 88.44 48.9428C87.2796 49.125 86.0914 48.9254 85.0542 48.3741C84.5728 48.1302 84.172 47.7525 83.9001 47.2863C83.8249 47.1353 83.9085 47.1139 84.0487 47.0306C84.1758 46.9573 84.3073 46.8919 84.4424 46.8346C84.7041 46.6965 84.9753 46.5772 85.254 46.4776C86.3492 46.0898 87.5352 46.0382 88.6599 46.3296C89.8941 46.6547 91.0082 47.3292 91.8684 48.2722C91.9479 48.3434 92.051 48.3829 92.1579 48.3828C92.2647 48.3828 92.3678 48.3434 92.4473 48.2721C92.5269 48.2008 92.5773 48.1027 92.589 47.9965C92.6007 47.8903 92.5728 47.7835 92.5106 47.6966L92.5267 47.702Z" fill="white"/>
<path d="M88.8783 56.081C88.687 54.4849 87.9599 53.001 86.816 51.8717C85.6985 50.8196 84.2406 50.2034 82.7073 50.1351C82.5858 50.1171 82.4616 50.1366 82.3515 50.1911C82.2734 50.2546 82.2124 50.3366 82.1741 50.4298C82.1358 50.5229 82.1215 50.6241 82.1324 50.7242C82.1216 51.7499 82.4915 52.7431 83.1705 53.5119C83.8448 54.2759 84.6729 54.8888 85.6006 55.3104C86.604 55.8572 87.7363 56.1234 88.8783 56.081Z" fill="#ED1E24"/>
<path d="M89.296 56.0006C89.1457 54.592 88.5772 53.2605 87.6638 52.1777C86.7504 51.0948 85.5338 50.3101 84.1706 49.9245C83.6212 49.7808 82.7002 49.5125 82.1608 49.808C81.5244 50.1249 81.6656 51.1113 81.7562 51.6988C82.1317 53.1362 83.0591 54.3674 84.3372 55.1249C85.6807 56.0657 87.2889 56.5543 88.9287 56.52C89.4838 56.4859 89.3182 55.6531 88.7685 55.6711C87.6084 55.6885 86.4663 55.3834 85.4693 54.7899C84.3678 54.2595 83.4641 53.3915 82.8895 52.3123C82.7709 52.0605 82.6801 51.7965 82.6187 51.5251C82.5759 51.331 82.434 50.7757 82.5663 50.6089C82.6986 50.4421 83.151 50.6072 83.3099 50.629C83.581 50.6717 83.8491 50.7315 84.1126 50.8081C85.1904 51.1266 86.155 51.746 86.8929 52.5937C87.7567 53.603 88.2972 54.8487 88.4443 56.169C88.5054 56.7241 89.349 56.5531 89.2852 56.006L89.296 56.0006Z" fill="white"/>
<path d="M62.2053 69.2069C63.0276 70.5338 62.7768 72.2875 62.1063 73.6847C61.4358 75.082 60.3992 76.2846 59.6049 77.6224C58.573 79.3061 58.0852 81.267 58.208 83.2379C58.3481 84.8709 59.1186 86.5669 60.5858 87.2968C61.0749 87.5431 61.6153 87.6707 62.1629 87.669C62.7106 87.6673 63.2502 87.5365 63.7378 87.2871C64.2254 87.0378 64.6473 86.6769 64.9693 86.2339C65.2912 85.7908 65.5041 85.2781 65.5907 84.7373C65.6996 84.0639 65.593 83.3902 65.6642 82.6817C65.6997 82.0518 65.9169 81.4458 66.2895 80.9367C66.478 80.6859 66.7224 80.4825 67.0032 80.3427C67.2841 80.2028 67.5937 80.1304 67.9074 80.1311C68.783 80.173 69.4608 80.8719 70.0175 81.5437C70.5741 82.2156 71.1683 82.9494 72.0221 83.1367C73.2314 83.4028 74.3593 82.4239 74.9808 81.3337C75.5966 80.1616 75.8812 78.8438 75.8041 77.522C75.727 76.2002 75.2911 74.9245 74.5432 73.8319C73.77 72.7567 72.7464 71.8861 71.561 71.2954C70.3756 70.7048 69.0642 70.4118 67.7402 70.4419C67.1529 70.4872 66.5632 70.4907 65.9754 70.4525C65.6803 70.4307 65.3932 70.3467 65.1329 70.206C64.8726 70.0654 64.6451 69.8712 64.4652 69.6363C64.0701 69.0321 64.0905 68.1134 63.4579 67.7621C63.2546 67.666 63.0249 67.6412 62.8058 67.6916C62.5868 67.7421 62.3911 67.8649 62.2504 68.0403C62.1251 68.2283 62.0552 68.4477 62.0486 68.6735C62.042 68.8993 62.0991 69.1224 62.2132 69.3173" fill="#0AA54A"/>
<path d="M61.817 69.4C63.1551 71.6412 61.4697 74.1091 60.2004 75.9392C58.8554 77.8877 57.7849 80.0226 57.7539 82.4474C57.7261 84.6352 58.6622 87.191 60.9404 87.9141C61.4716 88.08 62.0317 88.1321 62.5844 88.0668C63.137 88.0016 63.6697 87.8206 64.1476 87.5356C64.6256 87.2506 65.038 86.8681 65.3582 86.4129C65.6783 85.9577 65.8988 85.4402 66.0054 84.894C66.2256 83.7278 65.8343 82.4419 66.5231 81.3788C66.6686 81.1337 66.8767 80.9316 67.1259 80.7933C67.3752 80.655 67.6567 80.5854 67.9417 80.5917C68.4588 80.6803 68.9275 80.9505 69.2633 81.3536C70.0111 82.1255 70.5968 83.1395 71.6847 83.5131C72.1828 83.651 72.7093 83.6483 73.2059 83.5056C73.7026 83.3628 74.1501 83.0854 74.4989 82.7041C76.0534 81.2032 76.4993 78.7602 76.1551 76.7038C75.9716 75.6477 75.5732 74.6406 74.9847 73.7447C74.3962 72.8488 73.6301 72.0832 72.7338 71.4953C71.8374 70.9058 70.8382 70.4901 69.7882 70.2699C69.2622 70.1539 68.7265 70.0872 68.188 70.0706C67.5576 70.048 66.9297 70.1386 66.2993 70.1025C66.0276 70.1123 65.7573 70.0608 65.5084 69.9517C65.2595 69.8426 65.0384 69.6787 64.8615 69.4724C64.5524 69.0003 64.5211 68.4102 64.2066 67.9409C64.0681 67.7376 63.8786 67.5743 63.6571 67.4673C63.4356 67.3603 63.1898 67.3134 62.9445 67.3312C62.6992 67.3491 62.4628 67.4312 62.2592 67.5691C62.0555 67.7071 61.8917 67.8962 61.7841 68.1174C61.6808 68.3529 61.633 68.609 61.6442 68.866C61.6555 69.1229 61.7255 69.3738 61.849 69.5994C61.9072 69.6883 61.996 69.7527 62.0985 69.7804C62.201 69.8082 62.3102 69.7974 62.4052 69.75C62.5003 69.7027 62.5747 69.6221 62.6143 69.5236C62.654 69.425 62.6561 69.3154 62.6202 69.2154C62.4269 68.8271 62.4952 68.2614 62.9938 68.1679C63.4924 68.0744 63.6746 68.7106 63.8113 69.1069C63.9336 69.6097 64.2064 70.0632 64.5932 70.4069C64.9752 70.7015 65.4287 70.8892 65.9072 70.9506C66.5081 71.0127 67.1136 71.0155 67.7151 70.959C68.2025 70.9467 68.6902 70.9763 69.1726 71.0476C70.149 71.2024 71.0878 71.5384 71.9407 72.0383C72.795 72.5278 73.5364 73.1919 74.1168 73.9871C74.6972 74.7824 75.1035 75.6911 75.3091 76.6539C75.6967 78.5136 75.3804 80.8518 73.9016 82.1939C73.7447 82.373 73.554 82.5193 73.3404 82.6245C73.1268 82.7297 72.8945 82.7916 72.6569 82.8067C72.4192 82.8219 72.181 82.7899 71.9557 82.7127C71.7305 82.6354 71.5227 82.5145 71.3444 82.3567C70.5803 81.7142 70.0968 80.7973 69.2571 80.2328C68.8536 79.9387 68.3659 79.783 67.8667 79.789C67.3674 79.795 66.8835 79.9623 66.4872 80.2659C66.0929 80.6075 65.7798 81.0327 65.5707 81.5106C65.3615 81.9884 65.2617 82.507 65.2783 83.0284C65.3003 83.6065 65.2805 84.1855 65.2189 84.7607C65.1269 85.2653 64.9123 85.7396 64.5942 86.1419C64.2685 86.5474 63.8448 86.8631 63.3631 87.0594C62.8815 87.2556 62.3578 87.3259 61.8414 87.2636C59.5947 87.0363 58.645 84.5209 58.6699 82.5432C58.6978 80.2881 59.6845 78.3229 60.935 76.5089C62.1855 74.695 63.5062 72.7384 63.149 70.453C63.0697 69.9597 62.8976 69.4858 62.642 69.0565C62.3599 68.5845 61.586 68.9631 61.8708 69.4405L61.817 69.4Z" fill="#030303"/>
<path d="M50.5026 95.3069C53.1143 100.795 55.5246 106.37 57.7336 112.032C57.9375 112.55 58.706 112.16 58.5048 111.648C56.2976 105.99 53.8873 100.415 51.2738 94.9228C51.2156 94.834 51.1269 94.7696 51.0243 94.7418C50.9218 94.7141 50.8127 94.7249 50.7176 94.7722C50.6225 94.8196 50.5481 94.9001 50.5085 94.9987C50.4689 95.0972 50.4668 95.2069 50.5026 95.3069Z" fill="white"/>
<path d="M62.5665 95.2079C64.6334 99.9085 66.6185 104.639 68.5219 109.398C69.0693 110.768 69.6112 112.14 70.1479 113.515C70.3464 114.035 71.1149 113.646 70.9191 113.131C69.0589 108.35 67.1187 103.602 65.0985 98.8872C64.5188 97.5337 63.9318 96.1792 63.3377 94.8239C63.0907 94.3277 62.3437 94.7064 62.5665 95.2079Z" fill="white"/>
<path d="M72.6278 90.9864L80.2057 108.124L82.3692 113.01C82.6163 113.506 83.366 113.133 83.1405 112.626L75.5896 95.4747L73.426 90.589C73.1789 90.0928 72.4293 90.4661 72.6547 90.973L72.6278 90.9864Z" fill="white"/>
<path d="M81.3584 84.5586C83.7347 88.9884 86.0032 93.4675 88.1637 97.9958C88.7975 99.2686 89.3854 100.571 89.9814 101.863C90.2285 102.359 90.9835 101.983 90.7527 101.478C88.6496 96.9126 86.4405 92.404 84.1253 87.9527C83.4916 86.6799 82.8012 85.4286 82.1296 84.1746C81.8826 83.6784 81.0925 84.0651 81.3584 84.5586Z" fill="white"/>
<path d="M90.4007 78.0371C93.0266 83.6349 95.3909 89.3427 97.4936 95.1606C97.6787 95.6809 98.4499 95.2969 98.2649 94.7766C96.1657 88.9659 93.8014 83.2581 91.1719 77.6531C91.1137 77.5642 91.025 77.4998 90.9225 77.472C90.8199 77.4443 90.7108 77.4551 90.6157 77.5024C90.5207 77.5498 90.4463 77.6304 90.4066 77.7289C90.367 77.8274 90.3649 77.9371 90.4007 78.0371Z" fill="white"/>
<path d="M49.0441 18.2967C48.7953 19.282 48.334 20.2008 47.6925 20.9889C47.0211 21.7829 46.1617 22.3963 45.1925 22.7731C44.2234 23.1499 43.1753 23.278 42.1439 23.146C41.4953 23.0095 40.8738 22.7663 40.3049 22.4262C43.1715 20.9113 46.0701 19.5824 49.0441 18.2967Z" fill="#0AA54A"/>
<path d="M57.7935 14.849C57.6417 16.6678 57.1421 18.4406 56.3218 20.0709C54.6158 23.5683 51.791 26.396 48.2955 28.1057C47.2687 28.5841 46.1812 28.9196 45.0634 29.1027C43.733 29.2699 42.3821 29.1218 41.1195 28.6705C38.9842 27.9615 37.1178 26.6146 35.7722 24.8114C36.0113 24.6587 36.26 24.5215 36.5165 24.4004C37.7706 23.7019 38.9894 23.095 40.2622 22.4613L40.3539 22.4156C40.9228 22.7556 41.5443 22.9989 42.1929 23.1353C43.2243 23.2674 44.2724 23.1392 45.2415 22.7625C46.2107 22.3857 47.0701 21.7723 47.7415 20.9782C48.383 20.1902 48.8444 19.2713 49.0931 18.2861C49.2441 18.2109 49.4275 18.1196 49.5785 18.0444C52.2397 16.928 55.0166 15.8548 57.7935 14.849Z" fill="#FCAF17"/>
<path d="M63.0348 13.1548C62.2168 17.5868 60.383 21.7689 57.6771 25.373C56.3954 27.1043 54.8198 28.5973 53.022 29.784C50.9752 31.1312 48.6528 32.0033 46.2252 32.3363C43.7975 32.6694 41.3261 32.455 38.992 31.7089C36.2526 30.8069 33.8041 29.1889 31.9001 27.0225C32.2184 26.8236 32.5851 26.641 32.9061 26.4475C33.8366 25.8698 34.7805 25.319 35.7433 24.806C37.0886 26.6165 38.9583 27.9694 41.0986 28.6812C42.3612 29.1326 43.7121 29.2806 45.0425 29.1134C46.1603 28.9303 47.2478 28.5949 48.2746 28.1165C51.7701 26.4067 54.5949 23.579 56.3009 20.0817C57.1212 18.4513 57.6208 16.6786 57.7726 14.8598C59.5141 14.2618 61.2852 13.6827 63.0348 13.1548Z" fill="#ED1C24"/>
<path d="M21.6332 46.9815C21.2739 45.5165 21.239 43.9906 21.5309 42.5107C21.8229 41.0307 22.4345 39.6324 23.3232 38.4135C24.2692 37.0709 25.5866 36.0336 27.1137 35.4291C27.8716 35.1442 28.6851 35.0386 29.4906 35.1204C30.3419 35.2679 31.1745 35.5078 31.9737 35.8358C33.5759 36.3504 35.8469 36.5589 36.7551 34.801C37.0092 34.3111 36.2771 33.841 36.0365 34.331C35.1635 36.0109 32.8934 35.2231 31.547 34.7763C30.7529 34.4565 29.9127 34.2659 29.0583 34.2117C28.1986 34.2082 27.347 34.3782 26.5545 34.7114C23.5671 35.9163 21.4633 38.8955 20.7469 41.9712C20.3428 43.6759 20.3528 45.4525 20.7761 47.1525C20.9153 47.6889 21.7616 47.5233 21.6224 46.9869L21.6332 46.9815Z" fill="#ED1C24"/>
<path d="M25.0082 44.5673C24.9686 43.8892 25.0789 43.2107 25.3315 42.58C25.584 41.9494 25.9724 41.3823 26.4691 40.9189C27.0314 40.426 27.7007 40.0708 28.4239 39.8812C29.1472 39.6916 29.9047 39.6728 30.6364 39.8265C32.0533 40.0632 33.397 40.545 34.844 40.4235C36.1435 40.3035 37.3881 39.8417 38.4513 39.0849C39.6822 38.2344 40.6479 37.0536 41.2375 35.6785C41.4619 35.1696 40.6406 34.8988 40.4296 35.4077C39.9107 36.6418 39.0419 37.6969 37.9303 38.4429C36.8188 39.189 35.5131 39.5933 34.1745 39.606C32.7142 39.5658 31.3518 38.9924 29.889 38.8795C29.131 38.8283 28.3708 38.938 27.6582 39.2015C26.9457 39.4649 26.2969 39.8761 25.7546 40.4081C25.2122 40.94 24.7885 41.5807 24.5113 42.288C24.2341 42.9953 24.1096 43.7532 24.1461 44.512C24.1748 45.0563 25.0342 45.1197 25.0082 44.5673Z" fill="#0AA54A"/>
<path d="M60.4243 25.9974C62.1543 25.8763 63.6299 24.8253 64.82 23.6337C66.0102 22.442 67.1549 21.0509 68.5846 20.016C69.8976 19.0263 71.4023 18.3209 73.0028 17.9445C74.6033 17.5682 76.2647 17.5292 77.8811 17.83C79.5263 18.1695 81.0585 18.9211 82.3339 20.0144C82.7483 20.3734 83.3932 19.8033 82.9761 19.4389C81.8159 18.4405 80.4626 17.6915 79.0004 17.2386C77.5383 16.7856 75.9986 16.6384 74.4771 16.8059C72.6922 16.9995 70.9676 17.5648 69.4144 18.4654C67.8375 19.4113 66.419 20.5991 65.2107 21.9854C63.8666 23.4354 62.3605 25.0064 60.2533 25.1269C59.7009 25.1664 59.8639 25.9938 60.419 25.9732L60.4243 25.9974Z" fill="#ED1C24"/>
<path d="M58.8305 28.5406C61.4155 29.5013 64.2192 28.5494 66.4417 27.1062C67.7826 26.1571 69.0722 25.1376 70.3051 24.0518C71.3358 23.1886 72.6284 21.9595 74.0697 22.0696C74.8057 22.1834 75.4895 22.5191 76.0296 23.032C76.735 23.612 77.3777 24.2641 77.9474 24.9778C78.297 25.4095 78.9392 24.834 78.5896 24.4023C77.6942 23.177 76.5275 22.1755 75.1807 21.476C73.8291 20.8837 72.4488 21.396 71.3078 22.1728C68.7048 23.9603 66.634 26.5192 63.5822 27.6081C62.1534 28.1628 60.5752 28.1984 59.1229 27.7085C58.6032 27.5163 58.3297 28.3323 58.8521 28.5163L58.8305 28.5406Z" fill="#0AA54A"/>
<path d="M50.0733 103.273C57.317 102.849 64.451 101.304 71.2208 98.6927C78.0169 96.0702 84.3723 92.4245 90.0668 87.8817C93.2638 85.3367 96.2261 82.5102 98.9182 79.4361C99.28 79.0271 98.7071 78.3768 98.3427 78.7938C93.6102 84.1993 88.0627 88.8328 81.9006 92.5268C75.742 96.2327 69.054 98.9774 62.0675 100.666C58.1584 101.605 54.1741 102.197 50.1609 102.435C49.6112 102.467 49.5479 103.326 50.103 103.292L50.0733 103.273Z" fill="white"/>
</g>
<defs>
<clipPath id="clip0_288_1632">
<rect width="95.2634" height="111.066" fill="white" transform="translate(0 42.4624) rotate(-26.4705)"/>
</clipPath>
</defs>
</svg>
