<svg width="32" height="32" viewBox="0 0 32 32" fill="none" xmlns="http://www.w3.org/2000/svg">
<g clip-path="url(#clip0_690_996)">
<path d="M29.0833 28.7428C27.7765 29.8541 23.6091 30.6156 18.9522 30.9272C16.6528 31.0862 14.3469 31.1289 12.0433 31.0551C7.51427 30.9081 3.63205 30.2848 2.66481 29.0765C0.0541202 25.8176 -1.39675 6.52555 1.94452 3.01671C5.54891 -0.771433 26.2403 -0.98017 29.4155 2.31553C33.2536 6.30505 32.5466 25.7926 29.0833 28.7428Z" fill="white"/>
<path d="M25.0942 11.5781C24.0709 11.9344 22.4249 11.3783 21.8788 10.4426C21.3326 9.50681 21.2426 8.38364 21.1674 7.3024L16.9447 6.04484C16.881 6.01658 16.8123 6.00136 16.7427 6.00009C16.673 5.99882 16.6038 6.01152 16.5391 6.03745C16.3838 6.12621 16.3653 6.33827 16.3653 6.51704C16.3571 9.30092 16.3891 12.084 16.4614 14.8662C16.4836 15.7144 16.5083 16.5688 16.3591 17.4035C16.2099 18.2382 15.866 19.063 15.2581 19.6498C14.6503 20.2367 13.7355 20.5511 12.9156 20.3119C12.0958 20.0727 11.4781 19.2085 11.6396 18.3762C11.8011 17.544 12.8491 16.9744 13.5839 17.3899L13.632 14.8526C13.632 14.7158 13.7417 14.1671 13.6702 14.05C13.5987 13.9329 13.3965 13.8984 13.2609 13.8417C11.9441 13.2918 10.3685 13.3929 9.04559 13.9292C8.27766 14.264 7.61626 14.803 7.13337 15.4876C5.6539 17.4886 5.6539 20.3994 6.95213 22.5151C8.25037 24.6307 10.726 25.9253 13.214 25.9955C15.9054 26.0732 18.4464 25.1411 20.0393 22.9688C20.4363 22.4137 20.7 21.7745 20.8099 21.1009C20.9331 20.4487 21.0404 19.4131 20.9566 18.7584C20.8099 17.5995 20.7384 16.4159 20.5867 15.2595C21.0799 16.1657 22.2437 16.5294 23.2646 16.3864C24.2854 16.2433 25.2002 15.7021 26.0842 15.1695C25.5937 14.0225 25.2607 12.8144 25.0942 11.5781Z" fill="#EE2400"/>
</g>
<defs>
<clipPath id="clip0_690_996">
<rect width="32" height="31.0901" fill="white" transform="translate(0 0.000305176)"/>
</clipPath>
</defs>
</svg>
