<svg width="128" height="64" viewBox="0 0 128 64" fill="none" xmlns="http://www.w3.org/2000/svg">
<g clip-path="url(#clip0_901_1578)">
<path fill-rule="evenodd" clip-rule="evenodd" d="M2.54492 31.442C2.52021 30.4049 2.05069 28.6077 1.84806 27.2739C1.19074 28.4606 1.83323 30.704 2.54492 31.442Z" fill="#FFC95B"/>
<path fill-rule="evenodd" clip-rule="evenodd" d="M3.80273 31.7193C3.33075 30.5694 3.27144 29.0223 3.10341 27.5635C2.54246 28.6693 2.67837 31.3712 3.80273 31.7193Z" fill="#FFC95B"/>
<path fill-rule="evenodd" clip-rule="evenodd" d="M3.38281 27.0092V26.455C2.92565 26.4256 2.83175 27.0974 3.38281 27.0092Z" fill="#FFC95B"/>
<path fill-rule="evenodd" clip-rule="evenodd" d="M4.7793 31.8568C4.44034 30.5936 4.29866 29.2863 4.3592 27.9805C3.68458 28.6866 3.66728 31.619 4.7793 31.8568Z" fill="#FFC95B"/>
<path fill-rule="evenodd" clip-rule="evenodd" d="M4.22056 27.2863C4.46767 27.0264 4.99155 25.7612 4.22056 25.7637C4.08712 26.1167 3.95121 26.9479 4.22056 27.2863Z" fill="#FFC95B"/>
<path fill-rule="evenodd" clip-rule="evenodd" d="M5.33776 27.1492C5.68779 26.6692 5.83741 26.0736 5.75538 25.4868C5.05852 25.6021 5.21668 26.5803 5.33776 27.1492Z" fill="#FFC95B"/>
<path fill-rule="evenodd" clip-rule="evenodd" d="M5.18702 29.3657C5.33776 30.1871 4.82129 31.6655 5.60711 31.8568C5.65654 31.3615 5.84434 29.6305 5.18702 29.3657Z" fill="#FFC95B"/>
<path fill-rule="evenodd" clip-rule="evenodd" d="M6.45438 32.0011C6.91154 31.7412 6.52852 30.2627 6.31353 29.7944C5.88108 30.3314 6.0763 31.4837 6.45438 32.0011Z" fill="#FFC95B"/>
<path fill-rule="evenodd" clip-rule="evenodd" d="M6.45462 26.4552C6.72891 26.4061 7.00815 25.1925 6.45462 25.2097C6.24457 25.4328 6.24457 26.2321 6.45462 26.4552Z" fill="#FFC95B"/>
<path fill-rule="evenodd" clip-rule="evenodd" d="M7.29218 32.0013C7.99152 31.7733 7.29218 30.7754 7.43057 30.1992C7.18592 30.5106 6.96846 31.5747 7.29218 32.0013Z" fill="#FFC95B"/>
<path fill-rule="evenodd" clip-rule="evenodd" d="M7.57191 25.901C7.77949 25.874 8.13286 24.9963 7.57191 25.0698C7.52743 25.3934 7.29761 25.6435 7.57191 25.901Z" fill="#FFC95B"/>
<path fill-rule="evenodd" clip-rule="evenodd" d="M8.39969 30.7485C8.1674 30.8981 8.1674 31.9744 8.39969 32.1338C9.05454 32.0284 8.50595 31.0207 8.39969 30.7485Z" fill="#FFC95B"/>
<path fill-rule="evenodd" clip-rule="evenodd" d="M8.54764 25.6266C8.74533 25.4182 9.06411 25.0308 8.82688 24.7954C8.47103 24.8101 8.55011 25.2564 8.54764 25.6266Z" fill="#FFC95B"/>
<path fill-rule="evenodd" clip-rule="evenodd" d="M9.52634 32.1337C9.74874 31.7022 9.27922 30.9495 9.38548 30.1943C9.10871 30.7386 8.66144 31.891 9.52634 32.1337Z" fill="#FFC95B"/>
<path fill-rule="evenodd" clip-rule="evenodd" d="M10.2233 32.1336C10.6186 31.6898 10.1936 30.8783 10.2233 30.334C9.85506 30.6454 9.80317 31.8443 10.2233 32.1336Z" fill="#FFC95B"/>
<path fill-rule="evenodd" clip-rule="evenodd" d="M10.6427 25.7636C10.9986 25.6091 10.9146 25.0281 10.9195 24.5156C10.3487 24.6578 10.5389 25.2487 10.6427 25.7636Z" fill="#FFC95B"/>
<path fill-rule="evenodd" clip-rule="evenodd" d="M11.8983 25.764C11.7648 25.3423 12.1973 24.3591 11.619 24.3787C11.4806 24.7612 11.2731 25.7517 11.8983 25.764Z" fill="#FFC95B"/>
<path fill-rule="evenodd" clip-rule="evenodd" d="M12.7358 26.4552C12.9384 26.0163 13.5932 24.4177 12.7358 24.2485C12.5109 24.9301 12.6147 25.7368 12.7358 26.4552Z" fill="#FFC95B"/>
<path fill-rule="evenodd" clip-rule="evenodd" d="M13.1541 32.0011C13.7546 31.5108 12.9935 30.0642 13.1541 29.0908C12.9342 29.2061 12.5808 31.5108 13.1541 32.0011Z" fill="#FFC95B"/>
<path fill-rule="evenodd" clip-rule="evenodd" d="M13.8527 25.9012C14.1122 25.5065 14.4804 24.6557 14.1319 24.1016C13.5438 24.4007 13.7687 25.2319 13.8527 25.9012Z" fill="#FFC95B"/>
<path fill-rule="evenodd" clip-rule="evenodd" d="M14.132 32.001C14.6682 31.6112 14.0949 30.0396 14.132 29.2305C13.7885 29.7478 13.6353 31.5107 14.132 32.001Z" fill="#FFC95B"/>
<path fill-rule="evenodd" clip-rule="evenodd" d="M14.9698 31.8564C15.5555 31.469 15.1082 30.0568 15.2491 29.2256C14.7845 29.6718 14.6807 31.1159 14.9698 31.8564Z" fill="#FFC95B"/>
<path fill-rule="evenodd" clip-rule="evenodd" d="M15.1085 27.0095C15.3779 26.4186 15.6942 24.4842 15.1085 23.9619C14.7749 24.7931 15.0467 26.1171 15.1085 27.0095Z" fill="#FFC95B"/>
<path fill-rule="evenodd" clip-rule="evenodd" d="M16.6459 30.0571C16.3814 30.5107 16.3592 31.9058 17.0635 31.8568C17.0328 31.2371 16.8914 30.6277 16.6459 30.0571Z" fill="#FFC95B"/>
<path fill-rule="evenodd" clip-rule="evenodd" d="M17.0629 26.6074C17.3224 25.9356 17.703 24.6459 17.483 23.9741C16.67 24.3738 17.0333 25.6414 17.0629 26.6074Z" fill="#FFC95B"/>
<path fill-rule="evenodd" clip-rule="evenodd" d="M17.4837 30.7485C17.5258 31.2144 17.2959 31.9499 17.9014 31.8568C17.8742 31.3762 17.9508 30.7927 17.4837 30.7485Z" fill="#FFC95B"/>
<path fill-rule="evenodd" clip-rule="evenodd" d="M18.3209 30.8883C18.3357 31.288 18.2442 31.7955 18.4592 31.9966C18.9337 31.9279 18.7657 30.8736 18.3209 30.8883Z" fill="#FFC95B"/>
<path fill-rule="evenodd" clip-rule="evenodd" d="M20.4145 31.4424C20.2242 31.4841 20.2983 31.7881 20.2736 31.9965H20.6937C20.795 31.6189 20.4169 31.717 20.4145 31.4424Z" fill="#FFC95B"/>
<path fill-rule="evenodd" clip-rule="evenodd" d="M23.0658 32.0011H23.4735C23.5748 31.5769 23.2264 31.5941 23.3326 31.1699C23.2349 31.284 23.1609 31.4162 23.1151 31.5589C23.0693 31.7016 23.0525 31.8519 23.0658 32.0011Z" fill="#FFC95B"/>
<path fill-rule="evenodd" clip-rule="evenodd" d="M24.0445 32.1338C24.8426 32.097 24.3064 30.7314 24.4621 30.0571C24.2471 30.675 23.9506 31.2119 24.0445 32.1338Z" fill="#FFC95B"/>
<path fill-rule="evenodd" clip-rule="evenodd" d="M25.02 32.1337C25.9121 31.9572 25.4673 30.4542 25.5785 29.5029C25.4797 29.9148 25.02 31.1628 25.02 32.1337Z" fill="#FFC95B"/>
<path fill-rule="evenodd" clip-rule="evenodd" d="M26.1373 32.1334C26.9528 31.9397 26.6315 30.6623 26.5549 29.9268C26.2659 30.6265 26.1238 31.3773 26.1373 32.1334Z" fill="#FFC95B"/>
<path fill-rule="evenodd" clip-rule="evenodd" d="M29.4878 28.814C29.9079 28.3629 30.5133 26.4848 29.6262 26.0459C29.4235 26.5412 29.5075 27.7597 29.4878 28.814Z" fill="#FFC95B"/>
<path fill-rule="evenodd" clip-rule="evenodd" d="M30.6054 22.9932V23.2702C30.5807 23.8807 30.6796 23.7606 30.7438 24.1014C31.0181 25.5676 31.0601 23.4786 30.6054 22.9932Z" fill="#FFC95B"/>
<path fill-rule="evenodd" clip-rule="evenodd" d="M31.4431 23.2703C31.3294 23.7607 31.6506 23.8024 31.5815 24.2511C31.9052 24.1358 32.0683 23.1747 31.4431 23.2703Z" fill="#FFC95B"/>
<path fill-rule="evenodd" clip-rule="evenodd" d="M32.5599 24.1014C32.844 23.8758 33.022 23.0054 32.419 22.9932C32.0434 23.383 32.6661 23.562 32.5599 24.1014Z" fill="#FFC95B"/>
<path fill-rule="evenodd" clip-rule="evenodd" d="M33.6764 24.6459C33.6196 24.055 33.8098 23.2189 33.5356 22.8438C33.412 22.7605 33.2884 22.6771 33.2563 22.8438C33.1105 23.2557 33.1501 24.4841 33.6764 24.6459Z" fill="#FFC95B"/>
<path fill-rule="evenodd" clip-rule="evenodd" d="M34.2331 22.5762C34.1935 23.4932 34.6482 23.9198 34.6532 24.7828C34.9102 24.5327 35.0881 22.7453 34.2331 22.5762Z" fill="#FFC95B"/>
<path fill-rule="evenodd" clip-rule="evenodd" d="M35.4906 22.439C35.3547 22.8043 35.7921 24.4004 35.9082 24.5157C35.9057 23.7703 36.4099 22.5665 35.4906 22.439Z" fill="#FFC95B"/>
<path fill-rule="evenodd" clip-rule="evenodd" d="M36.7455 22.2993C36.6541 22.623 36.8814 24.4398 37.0247 24.506C36.9481 23.8709 37.4399 23.079 37.0247 22.5666C37.0643 22.341 36.916 22.3165 36.7455 22.2993Z" fill="#FFC95B"/>
<path fill-rule="evenodd" clip-rule="evenodd" d="M38.0041 24.9327C38.0955 24.7978 38.7454 22.4048 37.8632 22.1621C37.3962 23.0815 38.1573 23.8735 38.0041 24.9327Z" fill="#FFC95B"/>
<path fill-rule="evenodd" clip-rule="evenodd" d="M39.5358 22.1623C39.4169 22.0696 39.2694 22.0202 39.1182 22.0225C38.8538 22.6894 39.3035 24.4915 39.3974 24.7931C39.5201 23.9218 39.5664 23.0415 39.5358 22.1623Z" fill="#FFC95B"/>
<path fill-rule="evenodd" clip-rule="evenodd" d="M40.3762 46.8151C40.9199 46.158 39.6992 44.9223 39.6794 43.9072C39.2321 44.9958 39.9685 46.109 40.3762 46.8151Z" fill="#FFC95B"/>
<path fill-rule="evenodd" clip-rule="evenodd" d="M39.958 39.1971C40.2422 39.1015 40.3682 38.1404 40.2347 38.0889C39.6614 38.1011 39.8196 38.8391 39.958 39.1971Z" fill="#FFC95B"/>
<path fill-rule="evenodd" clip-rule="evenodd" d="M40.0966 21.8848C40.2301 22.7674 40.6106 23.4049 40.5167 24.5156C40.6774 24.3268 40.9566 22.5541 40.6551 21.8848H40.0966Z" fill="#FFC95B"/>
<path fill-rule="evenodd" clip-rule="evenodd" d="M41.6335 24.3785C41.762 24.2436 42.0957 22.4783 41.7719 21.8849C41.653 21.7922 41.5055 21.7429 41.3543 21.7452C41.1443 22.4096 41.7596 23.3438 41.6335 24.3785Z" fill="#FFC95B"/>
<path fill-rule="evenodd" clip-rule="evenodd" d="M41.6333 40.7222C41.3862 41.6048 42.0559 42.7915 42.1893 43.7673C42.5872 42.7278 41.9101 41.5631 41.6333 40.7222Z" fill="#FFC95B"/>
<path fill-rule="evenodd" clip-rule="evenodd" d="M42.7481 28.1177C42.9384 26.2764 43.6352 22.6085 42.6097 21.3311C42.6937 22.8046 42.5677 25.8081 42.7481 28.1177Z" fill="#FFC95B"/>
<path fill-rule="evenodd" clip-rule="evenodd" d="M42.6098 40.8599C42.4121 41.4753 42.8372 42.662 43.0274 43.3534C43.4574 42.5099 42.8866 41.4655 42.6098 40.8599Z" fill="#FFC95B"/>
<path fill-rule="evenodd" clip-rule="evenodd" d="M43.7367 41.2764C43.4896 41.8991 43.9344 43.0172 44.1543 43.6301C44.5793 42.8259 43.8157 42.0217 43.7367 41.2764Z" fill="#FFC95B"/>
<path fill-rule="evenodd" clip-rule="evenodd" d="M44.0064 24.3785C44.209 24.1529 44.5006 22.1718 44.0064 21.6079C43.2428 22.2846 44.2115 23.3634 44.0064 24.3785Z" fill="#FFC95B"/>
<path fill-rule="evenodd" clip-rule="evenodd" d="M44.2848 45.4297C43.924 46.0696 44.312 47.146 44.5641 47.6363C45.1547 47.2195 44.4776 45.9764 44.2848 45.4297Z" fill="#FFC95B"/>
<path fill-rule="evenodd" clip-rule="evenodd" d="M44.4232 5.95562C44.952 6.33565 45.3103 5.36473 46.0986 5.54126C45.6217 4.80326 44.7568 5.66876 44.4232 5.95562Z" fill="#FFC95B"/>
<path fill-rule="evenodd" clip-rule="evenodd" d="M45.2609 43.6305C45.6736 43.704 44.8013 41.4238 44.8433 41.4238C44.5047 41.441 44.9001 43.297 45.2609 43.6305Z" fill="#FFC95B"/>
<path fill-rule="evenodd" clip-rule="evenodd" d="M45.123 23.42C45.422 23.0301 45.6172 21.6816 45.123 21.3433C44.478 21.613 44.9722 23.0031 45.123 23.42Z" fill="#FFC95B"/>
<path fill-rule="evenodd" clip-rule="evenodd" d="M45.2612 6.78664C45.8592 7.00485 46.4226 6.00205 47.2158 5.95547C46.6104 5.34987 45.5231 6.18104 45.2612 6.78664Z" fill="#FFC95B"/>
<path fill-rule="evenodd" clip-rule="evenodd" d="M45.5403 45.2925C45.2511 45.8613 45.439 47.1436 46.0988 47.2319C46.1581 46.3419 45.7429 45.9251 45.5403 45.2925Z" fill="#FFC95B"/>
<path fill-rule="evenodd" clip-rule="evenodd" d="M46.2398 22.9931C46.4078 22.6474 46.7192 21.7231 46.3782 21.3308C46.4301 21.0856 46.2694 21.0684 46.0989 21.0537C45.6615 21.7034 46.304 22.2772 46.2398 22.9931Z" fill="#FFC95B"/>
<path fill-rule="evenodd" clip-rule="evenodd" d="M46.2397 7.48274C46.9687 7.28414 47.4406 6.8281 48.1943 6.65157C47.6235 6.01164 46.3657 6.79622 46.2397 7.48274Z" fill="#FFC95B"/>
<path fill-rule="evenodd" clip-rule="evenodd" d="M46.2396 12.4676C46.6078 12.5093 46.6004 12.1758 46.6572 11.9135C46.289 11.8718 46.2075 12.1047 46.2396 12.4676Z" fill="#FFC95B"/>
<path fill-rule="evenodd" clip-rule="evenodd" d="M47.2158 46.8154C47.1985 46.0038 46.7858 45.5895 46.6573 44.876C46.3658 45.4497 46.4942 46.7884 47.2158 46.8154Z" fill="#FFC95B"/>
<path fill-rule="evenodd" clip-rule="evenodd" d="M46.798 20.7768C46.7708 20.8945 46.8523 20.9067 46.9363 20.9165C46.9363 21.8972 47.1587 23.3683 47.3564 23.6846C47.3564 22.851 47.6035 22.2601 47.4948 21.3309C47.2181 21.1911 47.2749 20.7228 46.798 20.7768Z" fill="#FFC95B"/>
<path fill-rule="evenodd" clip-rule="evenodd" d="M47.9152 36.0125C47.9918 36.3484 48.0338 36.7259 48.4736 36.7063C48.3946 36.368 48.3525 35.9928 47.9152 36.0125Z" fill="#FFC95B"/>
<path fill-rule="evenodd" clip-rule="evenodd" d="M48.4739 23.4199C48.7087 23.0889 49.025 21.5418 48.6123 20.7891C47.7153 21.1446 48.6964 22.422 48.4739 23.4199Z" fill="#FFC95B"/>
<path fill-rule="evenodd" clip-rule="evenodd" d="M48.8918 35.5982C48.8918 36.1033 49.2872 36.2185 49.4503 36.5667C49.8235 36.2308 49.4898 35.4339 48.8918 35.5982Z" fill="#FFC95B"/>
<path fill-rule="evenodd" clip-rule="evenodd" d="M49.5878 32.1334C49.778 31.6434 49.778 31.1008 49.5878 30.6108C49.4198 30.9271 48.7501 32.0672 49.5878 32.1334Z" fill="#FFC95B"/>
<path fill-rule="evenodd" clip-rule="evenodd" d="M49.4497 20.4995C49.3756 21.3601 49.7339 21.7892 49.729 22.5762C50.4085 22.255 50.1861 20.6197 49.4497 20.4995Z" fill="#FFC95B"/>
<path fill-rule="evenodd" clip-rule="evenodd" d="M49.868 35.4585C50.1349 35.7282 50.4611 36.4392 50.8564 36.1499C50.7527 35.6791 50.4882 35.3996 49.868 35.4585Z" fill="#FFC95B"/>
<path fill-rule="evenodd" clip-rule="evenodd" d="M50.2874 32.4107C50.9447 32.0258 50.9719 30.996 50.8459 30.2041C50.3344 30.5523 50.0724 31.7831 50.2874 32.4107Z" fill="#FFC95B"/>
<path fill-rule="evenodd" clip-rule="evenodd" d="M51.2641 49.7256C51.5804 49.0857 51.1727 47.9726 50.7056 47.6465C50.4264 48.2962 50.9231 49.2451 51.2641 49.7256Z" fill="#FFC95B"/>
<path fill-rule="evenodd" clip-rule="evenodd" d="M50.7051 20.4999C50.5914 21.6278 50.9028 22.3363 50.9843 23.2705C50.9473 23.5157 51.1178 23.5549 51.1252 23.4078V22.8537C51.2622 22.2176 51.3087 21.5656 51.2636 20.9167C50.9967 20.8579 51.1499 20.3773 50.7051 20.4999Z" fill="#FFC95B"/>
<path fill-rule="evenodd" clip-rule="evenodd" d="M50.8457 35.0414C50.9619 35.6642 51.5673 35.8064 51.6834 36.4267C52.106 35.8162 51.5352 35.0096 50.8457 35.0414Z" fill="#FFC95B"/>
<path fill-rule="evenodd" clip-rule="evenodd" d="M51.2638 32.4108C52.4993 31.7586 52.0051 29.4956 51.8222 28.1177C51.5974 28.9587 51.4985 31.1187 51.2638 32.4108Z" fill="#FFC95B"/>
<path fill-rule="evenodd" clip-rule="evenodd" d="M51.9629 44.7508C51.9629 44.052 51.8196 42.7746 51.4044 42.9511C51.2537 43.3753 51.271 44.6895 51.9629 44.7508Z" fill="#FFC95B"/>
<path fill-rule="evenodd" clip-rule="evenodd" d="M52.3855 49.3088C52.4893 48.6959 52.2026 47.2787 51.5503 46.9551C51.3031 47.7372 52.0124 48.6738 52.3855 49.3088Z" fill="#FFC95B"/>
<path fill-rule="evenodd" clip-rule="evenodd" d="M51.684 34.7669C51.7927 35.397 52.4377 35.5024 52.6724 36.0124C53.0653 35.4338 52.4352 34.6688 51.684 34.7669Z" fill="#FFC95B"/>
<path fill-rule="evenodd" clip-rule="evenodd" d="M52.2421 32.6876C53.3492 32.1286 53.2923 29.9759 53.0798 28.5195C52.6622 29.7798 52.598 31.3784 52.2421 32.6876Z" fill="#FFC95B"/>
<path fill-rule="evenodd" clip-rule="evenodd" d="M52.5219 42.105C52.2006 42.6591 52.4181 43.8678 52.5219 44.4612C53.498 44.1375 52.6084 42.6934 52.5219 42.105Z" fill="#FFC95B"/>
<path fill-rule="evenodd" clip-rule="evenodd" d="M52.6598 34.4873C52.8327 35.1959 53.6754 35.2229 53.9176 35.8726C54.2981 35.1689 53.4802 34.4653 52.6598 34.4873Z" fill="#FFC95B"/>
<path fill-rule="evenodd" clip-rule="evenodd" d="M53.918 48.7546C53.4386 48.1221 53.6412 46.8128 52.9295 46.4009C52.7294 47.2492 53.0531 48.5364 53.918 48.7546Z" fill="#FFC95B"/>
<path fill-rule="evenodd" clip-rule="evenodd" d="M53.6388 41.9678C53.3917 42.4091 53.4362 43.7355 53.6388 44.1744C54.18 43.7699 53.8835 42.4483 53.6388 41.9678Z" fill="#FFC95B"/>
<path fill-rule="evenodd" clip-rule="evenodd" d="M53.6381 32.2732C54.7427 31.7534 54.4215 29.8851 54.335 28.5317C53.9701 29.751 53.7365 31.0051 53.6381 32.2732Z" fill="#FFC95B"/>
<path fill-rule="evenodd" clip-rule="evenodd" d="M53.9174 46.2612C53.9174 47.0532 53.9174 47.8427 54.6143 47.9236C54.4067 47.3449 54.6093 46.3495 53.9174 46.2612Z" fill="#FFC95B"/>
<path fill-rule="evenodd" clip-rule="evenodd" d="M54.6094 41.5635C54.2881 42.0735 54.5624 43.1768 54.471 43.9172C55.4421 43.6206 54.5698 42.2377 54.6094 41.5635Z" fill="#FFC95B"/>
<path fill-rule="evenodd" clip-rule="evenodd" d="M54.8939 32.001C55.9589 31.5597 55.734 29.814 55.5932 28.5366C55.1632 29.4904 55.1262 30.8413 54.8939 32.001Z" fill="#FFC95B"/>
<path fill-rule="evenodd" clip-rule="evenodd" d="M55.4521 43.6303C56.1934 43.162 55.7807 41.7326 55.5929 40.9995C55.4249 41.7449 55.2494 42.9463 55.4521 43.6303Z" fill="#FFC95B"/>
<path fill-rule="evenodd" clip-rule="evenodd" d="M55.7317 24.1014C55.9591 23.535 56.2778 22.0811 55.7317 21.6079C54.9583 22.1449 55.8701 23.2825 55.7317 24.1014Z" fill="#FFC95B"/>
<path fill-rule="evenodd" clip-rule="evenodd" d="M56.0103 37.2603C55.7632 37.7506 56.0103 38.9201 56.5688 39.0599C56.7591 38.5818 56.4082 37.5986 56.0103 37.2603Z" fill="#FFC95B"/>
<path fill-rule="evenodd" clip-rule="evenodd" d="M56.7098 24.1014C57.031 23.996 57.204 23.0226 56.5689 23.1207C56.218 23.4787 56.7295 23.665 56.7098 24.1014Z" fill="#FFC95B"/>
<path fill-rule="evenodd" clip-rule="evenodd" d="M56.9871 22.7163C56.9871 22.3486 57.0414 21.9244 56.8487 21.7356C56.478 21.7037 56.5867 22.7065 56.9871 22.7163Z" fill="#FFC95B"/>
<path fill-rule="evenodd" clip-rule="evenodd" d="M56.8485 36.8438C56.6014 37.4665 56.7373 38.891 57.407 39.0504C57.4638 38.0795 57.1129 37.5057 56.8485 36.8438Z" fill="#FFC95B"/>
<path fill-rule="evenodd" clip-rule="evenodd" d="M57.4073 30.4712C58.2006 30.2898 58.2945 29.412 58.245 28.3945C57.8673 29.0435 57.5852 29.7429 57.4073 30.4712Z" fill="#FFC95B"/>
<path fill-rule="evenodd" clip-rule="evenodd" d="M57.4068 36.8438C57.4513 37.8245 57.8195 38.4669 57.9653 39.3373C58.6053 38.7586 58.0839 37.0276 57.4068 36.8438Z" fill="#FFC95B"/>
<path fill-rule="evenodd" clip-rule="evenodd" d="M59.0829 25.0701C59.372 24.0893 59.0582 22.9223 59.0829 22.0225C58.2377 22.579 58.7814 24.3811 59.0829 25.0701Z" fill="#FFC95B"/>
<path fill-rule="evenodd" clip-rule="evenodd" d="M58.8101 29.5028C58.9905 29.8485 59.4872 29.3557 59.3686 28.9487C59.0326 28.9929 59.0573 29.3778 58.8101 29.5028Z" fill="#FFC95B"/>
<path fill-rule="evenodd" clip-rule="evenodd" d="M60.3377 31.3025C60.4291 31.8149 60.8171 32.038 61.3262 32.1336C61.252 31.5967 60.9555 31.2927 60.3377 31.3025Z" fill="#FFC95B"/>
<path fill-rule="evenodd" clip-rule="evenodd" d="M60.7581 41.4137C61.4525 41.1293 61.1065 39.8984 61.0373 39.207C60.726 39.6655 60.5579 40.8841 60.7581 41.4137Z" fill="#FFC95B"/>
<path fill-rule="evenodd" clip-rule="evenodd" d="M61.3168 40.7223C61.3411 40.8107 61.3967 40.8874 61.4734 40.9383C61.5502 40.9892 61.6429 41.0109 61.7344 40.9994C61.8456 40.406 62.2015 38.6775 61.4552 38.5059C61.3662 39.1997 61.6405 40.2565 61.3168 40.7223Z" fill="#FFC95B"/>
<path fill-rule="evenodd" clip-rule="evenodd" d="M61.4547 47.2319C61.1038 47.4992 61.6203 48.0754 61.5955 48.4775C62.0082 48.1489 61.4275 47.6389 61.4547 47.2319Z" fill="#FFC95B"/>
<path fill-rule="evenodd" clip-rule="evenodd" d="M61.4547 59.8345C61.4547 60.7588 62.6112 61.7371 63.6787 62.0411C63.1919 61.0653 62.1491 60.624 61.4547 59.8345Z" fill="#FFC95B"/>
<path fill-rule="evenodd" clip-rule="evenodd" d="M61.7338 46.1235C61.5237 47.119 62.228 48.3988 62.4331 49.4458C62.8359 48.2591 62.0229 47.0822 61.7338 46.1235Z" fill="#FFC95B"/>
<path fill-rule="evenodd" clip-rule="evenodd" d="M62.0233 44.5986C62.0233 46.1703 62.9796 47.992 63.4195 49.5856C63.7234 47.7051 62.6534 45.9986 62.0233 44.5986Z" fill="#FFC95B"/>
<path fill-rule="evenodd" clip-rule="evenodd" d="M62.2921 54.5728C62.2353 55.274 62.5738 55.5854 62.8506 55.958C62.9988 55.7276 63.0112 54.6488 62.2921 54.5728Z" fill="#FFC95B"/>
<path fill-rule="evenodd" clip-rule="evenodd" d="M62.8505 18.2832C63.1149 18.038 63.2854 17.6972 63.5498 17.452C63.152 17.0229 62.7467 17.756 62.8505 18.2832Z" fill="#FFC95B"/>
<path fill-rule="evenodd" clip-rule="evenodd" d="M63.1301 24.2388C62.9942 24.2388 63.0239 24.4079 62.9918 24.5158C65.2356 28.3235 68.2429 31.403 73.7412 32.0013C68.9917 30.616 65.3616 28.12 63.1301 24.2388Z" fill="#FFC95B"/>
<path fill-rule="evenodd" clip-rule="evenodd" d="M63.409 32.6875C63.577 33.7222 64.2961 34.2101 64.6668 35.0413C64.7409 34.3155 64.2244 32.9817 63.409 32.6875Z" fill="#FFC95B"/>
<path fill-rule="evenodd" clip-rule="evenodd" d="M63.4093 42.3848C63.3846 42.8751 63.8813 42.8383 63.9678 43.2159C64.2618 43.0026 63.822 42.3553 63.4093 42.3848Z" fill="#FFC95B"/>
<path fill-rule="evenodd" clip-rule="evenodd" d="M63.9682 50.5566C63.6272 50.6915 63.5926 51.4001 64.1091 51.3878C64.2079 50.9636 63.9658 50.8803 63.9682 50.5566Z" fill="#FFC95B"/>
<path fill-rule="evenodd" clip-rule="evenodd" d="M63.8294 41.8306C64.0048 42.4411 64.5065 42.7279 64.8178 43.2158C65.2157 42.5735 64.4941 41.8747 63.8294 41.8306Z" fill="#FFC95B"/>
<path fill-rule="evenodd" clip-rule="evenodd" d="M64.2468 24.2388C66.6092 27.7718 70.4024 30.5816 75.834 30.6135C70.6471 29.7946 67.2122 27.2594 64.2468 24.2388Z" fill="#FFC95B"/>
<path fill-rule="evenodd" clip-rule="evenodd" d="M65.3643 22.4393C66.0068 22.1083 66.0018 21.1325 66.6221 20.777C65.9771 20.5539 65.3494 21.5444 65.3643 22.4393Z" fill="#FFC95B"/>
<path fill-rule="evenodd" clip-rule="evenodd" d="M65.6437 46.6777C65.2928 47.5825 65.6066 49.0192 65.7845 49.8651C66.553 49.0241 65.6733 47.6266 65.6437 46.6777Z" fill="#FFC95B"/>
<path fill-rule="evenodd" clip-rule="evenodd" d="M66.622 11.7736C67.6574 11.83 68.3023 10.3025 69.5527 10.1112C68.2406 9.78022 67.3757 11.092 66.622 11.7736Z" fill="#FFC95B"/>
<path fill-rule="evenodd" clip-rule="evenodd" d="M67.5981 45.5698C67.351 46.1877 67.3856 47.7152 67.5981 48.3404C68.5026 47.8255 67.7069 46.3397 67.5981 45.5698Z" fill="#FFC95B"/>
<path fill-rule="evenodd" clip-rule="evenodd" d="M67.7388 54.9873C67.4521 55.2325 67.9019 55.9239 68.1564 56.0955C68.5814 55.7106 67.8599 55.2938 67.7388 54.9873Z" fill="#FFC95B"/>
<path fill-rule="evenodd" clip-rule="evenodd" d="M67.8768 23.5474C68.4649 24.3025 69.3446 24.7733 70.5283 24.9326C69.7474 24.3687 69.0358 23.7362 67.8768 23.5474Z" fill="#FFC95B"/>
<path fill-rule="evenodd" clip-rule="evenodd" d="M68.4362 45.4297C68.1223 46.1996 68.404 47.3544 68.4362 47.9232C69.3381 47.553 68.619 46.0181 68.4362 45.4297Z" fill="#FFC95B"/>
<path fill-rule="evenodd" clip-rule="evenodd" d="M69.135 44.7505C68.9398 45.3144 68.9497 46.8689 69.5526 47.1042C69.6688 46.0524 69.3945 45.4027 69.135 44.7505Z" fill="#FFC95B"/>
<path fill-rule="evenodd" clip-rule="evenodd" d="M69.5525 11.9135C70.6942 11.9821 71.8136 10.8322 73.1826 10.6655C71.5813 10.1408 70.5879 11.406 69.5525 11.9135Z" fill="#FFC95B"/>
<path fill-rule="evenodd" clip-rule="evenodd" d="M72.4834 53.8789C72.1399 54.4575 72.9281 55.1048 73.3211 55.4039C73.6052 54.8866 72.7255 54.3349 72.4834 53.8789Z" fill="#FFC95B"/>
<path fill-rule="evenodd" clip-rule="evenodd" d="M74.0209 49.4458C73.5909 49.9362 74.4311 50.3285 74.5794 50.6938C74.9328 50.2868 74.315 49.6689 74.0209 49.4458Z" fill="#FFC95B"/>
<path fill-rule="evenodd" clip-rule="evenodd" d="M74.4381 43.77C74.2083 43.8754 74.2083 44.9126 74.4381 45.018C75.1202 44.9003 74.3788 44.1427 74.4381 43.77Z" fill="#FFC95B"/>
<path fill-rule="evenodd" clip-rule="evenodd" d="M74.9968 43.6303C75.5108 42.6495 74.8683 40.7714 74.9968 39.7515C74.0404 40.5017 74.8732 42.6152 74.9968 43.6303Z" fill="#FFC95B"/>
<path fill-rule="evenodd" clip-rule="evenodd" d="M80.9989 14.5445C81.8218 14.8951 83.0796 14.4881 83.9297 14.4047C83.2328 13.7771 81.6735 14.2723 80.9989 14.5445Z" fill="#FFC95B"/>
<path fill-rule="evenodd" clip-rule="evenodd" d="M82.2567 15.2357C83.092 15.6035 84.3523 15.1941 85.1875 15.0984C84.5252 14.434 82.9066 14.9881 82.2567 15.2357Z" fill="#FFC95B"/>
<path fill-rule="evenodd" clip-rule="evenodd" d="M82.8154 16.0642C83.8039 16.4001 85.1408 15.8828 86.3047 15.9269C85.6103 14.9094 83.663 15.8926 82.8154 16.0642Z" fill="#FFC95B"/>
<path fill-rule="evenodd" clip-rule="evenodd" d="M84.2118 50.6938C83.7645 51.373 84.3551 52.2091 84.4886 52.7705C84.9358 52.1061 84.3452 51.2553 84.2118 50.6938Z" fill="#FFC95B"/>
<path fill-rule="evenodd" clip-rule="evenodd" d="M86.1657 27.5633C86.7242 27.7006 87.7596 27.1171 87.9795 26.4551C87.1665 26.6194 86.8774 27.3034 86.1657 27.5633Z" fill="#FFC95B"/>
<path fill-rule="evenodd" clip-rule="evenodd" d="M87.4215 51.3877C87.0731 51.7408 87.34 52.6602 87.5599 52.9103C88.2666 52.5597 87.3672 51.9541 87.4215 51.3877Z" fill="#FFC95B"/>
<path fill-rule="evenodd" clip-rule="evenodd" d="M88.1186 38.3758C88.4165 37.8233 88.5614 37.2023 88.5387 36.5762C87.7801 36.7944 88.0741 37.5986 88.1186 38.3758Z" fill="#FFC95B"/>
<path fill-rule="evenodd" clip-rule="evenodd" d="M89.0968 37.1204C89.3983 36.9218 89.6973 36.2623 89.5144 36.0122C89.0993 36.1054 89.0474 36.5639 89.0968 37.1204Z" fill="#FFC95B"/>
<path fill-rule="evenodd" clip-rule="evenodd" d="M89.9347 36.5666C89.999 36.3435 90.6761 35.608 90.0731 35.5981C89.8804 35.7747 89.9347 36.1988 89.9347 36.5666Z" fill="#FFC95B"/>
<path fill-rule="evenodd" clip-rule="evenodd" d="M91.7482 52.6333C91.4492 52.7191 91.6172 53.4865 91.7482 53.614C92.2696 53.4939 91.8371 52.9324 91.7482 52.6333Z" fill="#FFC95B"/>
<path fill-rule="evenodd" clip-rule="evenodd" d="M92.0275 53.8789C92.1016 54.7738 92.0745 55.7742 92.8652 55.9581C92.6651 55.1906 92.7417 54.1413 92.0275 53.8789Z" fill="#FFC95B"/>
<path fill-rule="evenodd" clip-rule="evenodd" d="M93.8417 55.4038C94.0468 54.6682 93.4439 53.609 93.2832 52.7705C92.7421 53.4104 93.219 55.0483 93.8417 55.4038Z" fill="#FFC95B"/>
<path fill-rule="evenodd" clip-rule="evenodd" d="M94.395 35.4585C93.8761 36.0102 94.1775 39.4623 94.395 36.9811C94.4469 36.4515 94.3678 36.2137 94.395 35.4585Z" fill="#FFC95B"/>
<path fill-rule="evenodd" clip-rule="evenodd" d="M94.121 51.665C94.2767 52.3687 94.0345 54.3424 94.8203 54.8524C94.7338 53.6412 94.8327 52.251 94.121 51.665Z" fill="#FFC95B"/>
<path fill-rule="evenodd" clip-rule="evenodd" d="M94.6792 40.4452C95.2167 38.3183 95.4052 36.1195 95.2376 33.9331C94.5828 35.6396 94.7335 38.1429 94.6792 40.4452Z" fill="#FFC95B"/>
<path fill-rule="evenodd" clip-rule="evenodd" d="M95.3831 55.1242C96.2702 53.3834 95.3831 50.2549 95.3831 48.063C94.8419 50.0759 95.2694 52.9029 95.3831 55.1242Z" fill="#FFC95B"/>
<path fill-rule="evenodd" clip-rule="evenodd" d="M95.7959 40.3057C96.2481 37.8735 96.6509 34.718 96.4952 32.1338C95.8206 34.4213 95.959 37.5131 95.7959 40.3057Z" fill="#FFC95B"/>
<path fill-rule="evenodd" clip-rule="evenodd" d="M96.4955 41.1367C97.4394 37.9199 97.4271 33.7518 98.1709 30.334C96.7945 33.1242 96.7673 37.2506 96.4955 41.1367Z" fill="#FFC95B"/>
<path fill-rule="evenodd" clip-rule="evenodd" d="M97.6071 41.1367C97.8962 36.3458 98.9069 32.2684 99.4209 27.7007C98.5066 31.8099 97.1128 36.0859 97.6071 41.1367Z" fill="#FFC95B"/>
<path fill-rule="evenodd" clip-rule="evenodd" d="M101.24 39.1975C102.228 37.1404 102.144 34.0021 102.639 31.4424C101.85 33.7177 101.514 36.4147 101.24 39.1975Z" fill="#FFC95B"/>
<path fill-rule="evenodd" clip-rule="evenodd" d="M102.638 38.7832C103.281 36.2357 103.933 33.6981 104.173 30.7485C103.323 33.0925 102.972 35.9243 102.638 38.7832Z" fill="#FFC95B"/>
<path fill-rule="evenodd" clip-rule="evenodd" d="M102.915 26.0411C103.071 25.4257 103.55 23.756 102.915 23.2705C102.769 23.9889 102.634 25.3472 102.915 26.0411Z" fill="#FFC95B"/>
<path fill-rule="evenodd" clip-rule="evenodd" d="M104.312 23.2703C103.926 23.2115 104.181 23.7852 103.894 23.8245C103.741 26.4749 104.279 24.6287 104.312 23.2703Z" fill="#FFC95B"/>
<path fill-rule="evenodd" clip-rule="evenodd" d="M109.758 55.681C111.392 53.7857 111.931 50.0908 111.982 47.0996C111.313 50.0222 110.685 52.9987 109.758 55.681Z" fill="#FFC95B"/>
<path fill-rule="evenodd" clip-rule="evenodd" d="M113.107 33.1043C113.524 28.7965 112.38 23.6795 111.152 20.0827C111.032 19.9916 110.885 19.9432 110.734 19.9454C111.901 23.4196 112.546 28.5807 113.107 33.1043Z" fill="#FFC95B"/>
<path fill-rule="evenodd" clip-rule="evenodd" d="M110.593 56.0952C111.273 56.0315 111.349 55.3597 111.431 54.71C110.843 54.8644 110.729 55.4921 110.593 56.0952Z" fill="#FFC95B"/>
<path fill-rule="evenodd" clip-rule="evenodd" d="M111.711 53.8791C112.529 53.2146 112.553 51.7607 112.548 50.2798C112.163 51.2826 111.612 52.8567 111.711 53.8791Z" fill="#FFC95B"/>
<path fill-rule="evenodd" clip-rule="evenodd" d="M111.851 55.5388C111.876 55.6271 111.931 55.7038 112.008 55.7547C112.085 55.8056 112.177 55.8273 112.269 55.8158C113.181 54.0996 114.147 52.4152 114.224 49.8604C113.27 51.5938 113.015 54.0186 111.851 55.5388Z" fill="#FFC95B"/>
<path fill-rule="evenodd" clip-rule="evenodd" d="M113.804 27.5634C114.159 24.81 113.188 22.1694 112.269 20.2227C112.022 20.257 111.95 20.4678 111.99 20.7768C113.067 22.5715 113.176 25.3323 113.804 27.5634Z" fill="#FFC95B"/>
<path fill-rule="evenodd" clip-rule="evenodd" d="M112.269 45.4301C112.802 45.1849 112.671 44.2606 112.686 43.4932C112.073 43.6771 112.049 44.8368 112.269 45.4301Z" fill="#FFC95B"/>
<path fill-rule="evenodd" clip-rule="evenodd" d="M112.548 42.7894C113.043 41.235 113.554 36.5274 112.687 34.8945C112.546 37.3611 112.385 40.4945 112.548 42.7894Z" fill="#FFC95B"/>
<path fill-rule="evenodd" clip-rule="evenodd" d="M113.385 20.4995C114.357 23.0445 114.994 25.9205 115.481 28.9485C116.022 26.2172 114.792 22.9072 113.803 20.7766C113.87 20.4774 113.605 20.5118 113.385 20.4995Z" fill="#FFC95B"/>
<path fill-rule="evenodd" clip-rule="evenodd" d="M113.945 28.5317C113.991 29.8239 113.969 31.1871 114.365 32.1335C114.809 31.4053 114.676 29.0049 113.945 28.5317Z" fill="#FFC95B"/>
<path fill-rule="evenodd" clip-rule="evenodd" d="M114.643 20.9167C116.272 24.0525 116.9 28.1863 117.433 32.4108C118.021 28.3825 116.516 24.1089 115.209 21.054C115.046 20.9372 114.843 20.888 114.643 20.9167Z" fill="#FFC95B"/>
<path fill-rule="evenodd" clip-rule="evenodd" d="M114.644 53.6017C115.514 52.4738 116.141 50.3898 116.04 48.7544C115.588 50.3898 114.844 51.7236 114.644 53.6017Z" fill="#FFC95B"/>
<path fill-rule="evenodd" clip-rule="evenodd" d="M115.202 56.2353C116.19 55.0093 117.075 52.9327 116.877 50.9712C116.354 52.6752 115.437 54.7053 115.202 56.2353Z" fill="#FFC95B"/>
<path fill-rule="evenodd" clip-rule="evenodd" d="M115.761 33.1045C116.581 32.6313 115.941 30.5791 115.761 29.7798C115.264 30.481 115.684 32.109 115.761 33.1045Z" fill="#FFC95B"/>
<path fill-rule="evenodd" clip-rule="evenodd" d="M116.039 56.3726C116.099 56.4952 116.16 56.6178 116.316 56.6496C117.799 54.9334 118.916 52.1309 119.108 49.5859C117.996 51.7632 117.569 54.6146 116.039 56.3726Z" fill="#FFC95B"/>
<path fill-rule="evenodd" clip-rule="evenodd" d="M116.178 21.3309C117.335 23.8293 117.876 26.9406 118.55 29.9123C118.899 26.7053 117.599 23.9323 116.737 21.4633C116.574 21.3517 116.374 21.3045 116.178 21.3309Z" fill="#FFC95B"/>
<path fill-rule="evenodd" clip-rule="evenodd" d="M117.854 56.6496C119.71 54.7445 120.819 51.3781 121.066 48.3403C120.367 49.5662 120.172 51.0055 119.67 52.3564C119.144 53.7785 118.556 55.2716 117.716 56.3725C117.691 56.5343 117.745 56.6201 117.854 56.6496Z" fill="#FFC95B"/>
<path fill-rule="evenodd" clip-rule="evenodd" d="M117.992 22.1621C118.486 23.7852 118.669 25.7369 119.667 26.8721C119.319 25.092 119.106 23.1747 117.992 22.1621Z" fill="#FFC95B"/>
<path fill-rule="evenodd" clip-rule="evenodd" d="M118.971 57.0661C119.767 56.9313 119.979 56.2178 120.088 55.4038C119.529 55.8096 119.134 56.3985 118.971 57.0661Z" fill="#FFC95B"/>
<path fill-rule="evenodd" clip-rule="evenodd" d="M119.25 22.8534C120.11 25.369 120.651 28.2058 121.064 31.1651C121.726 28.5098 120.406 25.4548 119.808 23.1305C119.529 23.1305 119.63 22.7529 119.25 22.8534Z" fill="#FFC95B"/>
<path fill-rule="evenodd" clip-rule="evenodd" d="M119.946 54.8498C119.971 54.9381 120.027 55.0146 120.104 55.0651C120.182 55.1155 120.275 55.1366 120.366 55.1244C121.444 52.4102 122.771 49.9412 123.156 46.543C121.891 49.1125 121.308 52.3685 119.946 54.8498Z" fill="#FFC95B"/>
<path fill-rule="evenodd" clip-rule="evenodd" d="M122.181 27.7006C122.119 25.494 121.439 22.7357 120.367 21.0537C120.206 21.1027 120.011 21.2989 120.226 21.3308C120.473 22.3311 120.918 23.3829 121.214 24.5181C121.479 25.6117 121.42 26.9405 122.181 27.7006Z" fill="#FFC95B"/>
<path fill-rule="evenodd" clip-rule="evenodd" d="M120.646 56.6494C121.635 56.1149 122.149 54.7418 122.598 53.6017C124.111 49.7818 125.284 44.3486 125.252 39.1973C124.234 45.5303 123.275 51.9198 120.646 56.6494Z" fill="#FFC95B"/>
<path fill-rule="evenodd" clip-rule="evenodd" d="M120.926 20.9165C122.408 23.6013 123.071 27.0951 123.716 30.611C124.21 27.2986 122.673 23.6209 121.491 21.0489C121.327 20.9339 121.124 20.8865 120.926 20.9165Z" fill="#FFC95B"/>
<path fill-rule="evenodd" clip-rule="evenodd" d="M122.043 21.3311C124.447 25.5457 124.669 31.9278 125.255 37.952C125.687 32.8031 124.79 23.7584 122.043 21.3311Z" fill="#FFC95B"/>
<path fill-rule="evenodd" clip-rule="evenodd" d="M123.994 31.4424C123.801 31.8715 123.613 33.4799 124.273 33.5191C124.632 32.8767 124.14 32.0333 123.994 31.4424Z" fill="#FFC95B"/>
<path fill-rule="evenodd" clip-rule="evenodd" d="M41.3539 34.3501C39.167 36.0198 36.0583 37.611 36.0484 41.2765C36.036 45.3342 39.2114 50.103 44.5639 49.4459C44.0697 55.269 48.5968 59.2949 54.614 57.7576C56.0967 61.2294 59.4204 64.7797 64.5258 63.8529C65.618 63.6543 66.5892 62.627 67.4565 62.3278C70.3923 61.33 74.3164 61.7394 77.7884 61.4967C81.1812 61.2515 84.416 60.9033 87.28 59.9741C93.5963 57.9268 98.5855 55.8305 104.452 54.9871C104.884 55.5265 105.267 56.5244 106.125 57.0662C107.151 57.6357 108.294 57.9668 109.468 58.0347C110.276 58.0788 111.22 57.7111 112.258 57.7576C115.075 57.8851 119.642 60.2389 122.311 58.1744C123.838 56.9878 125.385 51.7163 125.939 49.4459C126.828 45.8025 127.668 42.7574 127.893 39.1973C128.415 30.8611 126.806 23.1428 122.728 19.1144C117.873 19.6048 113.459 17.4251 108.91 18.0062C106.973 18.2514 105.618 18.5824 105.559 21.1936C98.3087 21.6668 93.9892 17.8199 89.4966 14.961C85.0041 12.1022 79.8913 9.67734 73.7233 8.45143C66.9623 7.11028 60.4756 7.03428 54.0383 5.82062C47.9123 4.66581 44.0549 0.340793 37.7065 0.00244141C33.7527 3.40803 37.6867 11.9772 40.6373 14.8237C42.5672 16.6847 45.0853 17.8272 47.4774 18.8398C39.12 19.9824 31.6621 21.5957 22.0716 21.6104C18.5898 21.6104 14.4655 22.5421 10.4845 23.133C7.22503 23.6233 2.06776 24.5133 0.713585 26.4576C-0.79628 28.625 0.140274 32.2709 2.52739 33.2443C4.58337 34.0853 9.24889 33.384 12.1648 33.384C21.8715 33.3816 31.7857 34.6982 41.3539 34.3501ZM40.5162 12.0507C39.6315 10.7194 41.2897 9.13059 41.2131 8.17192C40.3012 8.66229 40.279 10.0181 39.6785 10.8052C39.2485 9.33409 40.3358 8.23812 40.5162 6.92639C39.6908 7.44863 39.4709 8.56912 39.12 9.55721C38.3169 8.07385 39.7477 6.89207 39.9577 5.54111C39.1571 6.03148 38.9075 7.08576 38.4207 7.89486C38.1736 5.98489 39.6735 5.07772 39.8169 4.01853C38.8729 4.32746 38.6752 5.37684 38.1414 6.09523C37.9487 4.61187 39.0335 4.39366 39.1299 3.18736C38.3367 3.41538 38.3144 4.41328 37.8721 4.987C37.8721 3.79542 37.7535 3.31976 37.8721 2.21644C40.1109 3.13587 42.2954 4.10925 44.853 4.70995C45.3473 4.78595 45.1965 4.21958 45.6908 4.29559C47.6059 5.53376 49.5754 6.71799 52.2516 7.20345C52.5927 7.69382 51.3002 8.3411 51.5548 8.72604C52.9188 6.57333 55.7557 8.11553 58.8125 8.31168C65.2004 8.71868 72.2852 9.66263 76.8197 11.3593C75.1591 11.3274 74.2892 12.0777 73.3304 12.7446C75.0331 12.0483 78.0726 10.7831 79.6121 12.3278C79.061 12.4283 78.4828 12.4994 78.0775 12.7446C79.5157 12.7936 81.29 12.4994 81.9868 13.2987C80.5264 13.1884 79.5478 13.5561 78.7744 14.1274C82.4811 12.8255 85.3031 14.4658 87.4233 16.2066C86.5041 16.4027 85.2364 16.2531 84.7718 16.898C86.4547 17.1088 88.1128 15.9736 88.8195 17.175C87.6902 17.1628 86.4744 17.0671 86.0272 17.7291C87.0502 17.5452 88.6021 17.8836 89.0988 17.175C89.3286 17.5477 89.8055 17.6654 90.0872 18.0062C89.698 17.9481 89.3011 17.9672 88.9193 18.0623C88.5376 18.1574 88.1786 18.3267 87.8632 18.5603C89.4892 18.7638 90.8286 17.8591 91.4933 18.9771C91.1053 19.1463 90.579 19.1782 90.3764 19.5312C90.9503 19.6188 91.5375 19.5217 92.0518 19.2542C93.9694 21.0906 96.7074 22.113 100.009 22.5764C100.009 23.7459 99.5863 25.2048 99.868 26.1781C100.09 24.9669 100.098 23.5424 100.706 22.7162C100.599 23.5816 100.389 25.0748 100.706 25.9035C100.809 24.761 100.842 23.5449 101.405 22.8559H101.808C102.01 23.4615 101.314 25.0184 101.808 25.9035C101.808 24.7978 102.396 24.2706 102.228 22.9957C103.216 23.1305 104.277 23.1795 105.297 23.2727C105.225 23.5743 104.961 24.1676 105.438 24.2534V23.2727C106.674 23.2065 108.193 23.4198 109.209 23.133C110.892 32.2047 111 45.7216 107.81 53.1899C107.291 52.2263 108.24 50.8705 107.81 50.0025C107.052 50.6326 107.684 52.6456 106.822 53.1899C106.177 52.4813 107.316 50.1815 106.543 49.3111C106.389 50.591 106.157 51.7923 106.122 53.1899C105.549 53.082 105.408 53.4032 104.867 53.3272C104.805 52.2484 105.28 50.971 105.008 50.1398C104.912 51.4319 104.514 52.4127 104.17 53.4645C103.676 53.3517 103.632 53.6704 103.182 53.6018C102.935 53.0477 103.508 51.4638 103.182 50.8312C102.779 51.6796 102.883 53.0379 102.344 53.7416H102.065C101.546 53.0354 102.428 51.7997 101.926 51.1107C101.632 52.1111 102.156 53.923 100.938 54.0186C101.101 51.986 101.561 49.5416 101.239 47.509C101.239 48.8011 100.842 50.3605 100.681 51.8022C100.59 52.6358 100.97 54.151 99.8433 54.2957C99.8433 51.0176 100.031 47.1854 100.123 44.4614C99.7681 46.2913 99.5353 48.1423 99.4257 50.0025C99.3342 51.6109 99.6431 53.516 98.7263 54.5727C98.5583 53.9818 98.8104 52.447 98.3087 51.8022C98.2568 52.7608 98.3853 54.1804 98.3087 54.71C97.382 53.6901 97.8441 51.2946 97.471 49.7255C97.471 51.4859 97.4315 53.2733 97.6118 54.8498C97.3474 55.0018 96.9521 55.0263 96.6234 55.1244C96.1984 51.7482 96.3491 48.2838 96.2058 44.8757C95.8623 48.1073 95.9438 52.1307 95.9265 55.2641C94.7107 55.7202 93.2799 55.9629 92.0172 56.3724C91.6737 55.7422 91.434 54.2761 90.9002 54.2957C90.8187 55.3916 91.518 55.7128 91.7379 56.5023C90.4208 56.4214 90.5024 54.2197 89.6449 54.1461C89.6449 55.2764 90.7396 55.9874 90.621 56.7794C88.8171 56.6273 89.1037 54.406 88.1078 53.4547C87.8138 54.8228 89.0667 55.8158 89.3657 57.0564C87.883 56.0414 87.5395 53.8813 86.5733 52.3465C86.4201 54.6757 88.2166 55.779 88.3871 57.3335C87.0897 57.0883 86.8649 55.4701 86.4324 54.4232C85.9382 53.2218 85.612 51.9713 85.0387 50.9612C85.0066 53.413 86.4497 55.551 87.2627 57.6105C85.743 56.902 85.8171 54.6119 84.752 53.4424C84.3987 54.965 86.3682 56.8063 86.1482 57.7356C84.8311 57.5615 84.7595 54.9577 83.7735 53.9965C83.7932 55.8232 84.7249 56.745 85.308 58.0126C83.7685 57.0098 83.5214 54.6659 82.6738 52.9104C82.8443 55.0974 83.8155 56.4876 84.3492 58.3044C82.5058 57.3237 82.9456 54.0652 81.6977 52.4862C81.9053 54.8204 82.6392 56.6298 83.3732 58.4441C82.1055 57.483 82.014 55.3573 81.1491 54.0113C81.1813 55.9237 82.3427 57.4438 82.5453 58.7188C81.2677 58.1867 81.3493 56.3037 80.4523 55.3965C79.9877 56.6224 81.8658 58.1181 81.4407 58.8585C80.6994 58.7188 80.3287 57.0074 79.7653 56.2277C79.6442 57.64 80.4028 58.1892 80.7414 59.1356C78.8188 59.0032 79.2587 55.806 77.949 55.5338C78.1689 57.027 79.3477 58.3019 79.486 59.4126C78.5495 58.6771 78.0281 57.5345 77.5314 56.365C77.7418 57.497 78.1678 58.5788 78.7867 59.5524C77.0569 58.9737 77.4548 56.2596 76.276 55.1195C76.2538 57.0809 77.6846 58.7604 77.5314 59.6921C76.5553 58.9983 76.4243 57.4659 75.7176 56.5048C75.421 57.7307 76.4589 58.8021 76.832 59.827C75.164 59.9152 75.8436 57.6792 74.739 57.1962C74.5784 58.3019 75.804 59.4322 75.2975 59.9667C74.4449 59.6848 74.6303 57.7012 73.7629 57.89C73.6542 58.807 74.9046 59.7657 74.4598 60.0967C73.5899 59.9447 73.8148 58.7065 73.2044 58.297C72.7448 59.0032 73.4911 59.523 73.622 60.0967C72.8609 60.0673 73.0907 59.0571 72.3667 58.9885C72.253 59.4788 72.5743 59.523 72.5051 59.9692C71.9318 60.0771 72.2431 59.3072 71.6674 59.4151C71.7069 59.7755 71.7143 60.1089 71.2497 59.9692C71.2201 58.9124 72.5693 58.6648 73.2044 58.1695C75.4284 56.4386 77.3905 54.0358 77.3905 50.2747C77.0841 49.978 77.1434 49.3234 76.6937 49.1664C76.7604 48.8502 76.9704 48.4579 76.6937 48.1857C75.6261 48.7815 75.1319 46.7906 74.739 45.832C74.3609 46.2782 74.8008 46.7955 74.8799 47.2172C73.0982 47.0432 74.2645 43.9465 73.0636 43.2012C73.0636 44.6257 73.3922 45.7363 73.622 46.9402C72.4853 47.1437 72.9647 45.7461 72.5051 45.2778C73.8741 43.8239 72.1443 42.1444 71.9466 40.8449C71.8823 40.4257 71.571 39.1777 72.5051 39.1826C72.5051 40.1143 72.5421 41.9336 73.2044 42.647C73.3725 41.578 72.6138 40.0334 73.3428 39.3224C73.9433 40.1584 73.3675 42.1591 74.1805 42.7843C74.2769 41.5339 73.9334 40.7101 74.0421 39.4597C74.7242 39.4278 75.0973 39.7048 75.8559 39.597C75.5742 40.9798 75.6286 42.9927 76.4144 43.7651C76.6047 42.4779 75.3321 40.2001 76.832 39.749C76.832 41.0215 76.7752 43.3581 77.5314 44.3192C77.818 42.7647 76.5775 40.7469 77.6698 39.749C78.3123 40.8204 77.5981 43.2379 78.5075 44.0421C78.8015 42.723 77.9243 40.1192 78.9276 39.8887C79.2389 41.5094 78.7225 43.3948 79.7653 44.4589C79.6664 43.1864 79.0239 40.8351 79.9037 39.8887C79.8542 41.6933 79.9407 43.3605 80.7414 44.3192C80.4424 43.0026 80.4424 41.377 80.4646 39.749H81.2999C81.0898 41.019 80.9193 43.3262 81.72 44.0421C81.8559 43.4512 81.5915 42.6642 81.5791 41.9654C81.5618 41.0019 81.3691 39.6386 82.1376 39.6092C82.2364 40.411 81.799 42.6299 82.5577 43.4905C83.0247 42.5588 81.8163 39.771 83.1137 39.3346C83.1853 40.2614 82.9209 42.2768 83.6746 42.9364C83.9217 41.7104 83.0964 39.4082 84.2331 39.0576C84.3394 39.874 83.939 41.1931 84.6507 41.4113C84.7866 40.4306 84.2479 38.7952 85.3476 38.7805C85.3476 39.2513 85.0486 40.6978 85.4884 41.4113C85.7356 40.357 85.565 38.9007 86.3262 38.3637C86.2298 39.1753 86.2718 39.543 86.6054 40.1658C86.7784 39.2733 86.5733 38.0082 87.3023 37.6723C87.2776 38.1499 87.3736 38.6261 87.5815 39.0576C87.5815 38.2632 87.9818 37.8831 87.8607 36.9784C89.5905 35.5073 91.948 34.0362 93.5839 32.4082C93.7964 32.1974 95.4521 30.5988 94.7008 31.3C93.8656 32.052 92.9797 32.7467 92.0493 33.3791C88.7948 35.6275 85.5799 37.8562 80.7414 38.2264C75.3395 38.6383 70.8568 37.5865 67.3404 35.5956C67.6715 35.3234 67.6246 34.6762 67.6196 34.0706C70.2366 34.9361 73.2835 36.7014 76.4144 36.1473C73.1599 35.6839 70.5232 34.6051 67.6196 33.7935C67.721 33.3718 67.4788 33.2884 67.4788 32.9623C69.9499 33.6121 73.4095 35.2989 75.9968 34.4849C73.0347 34.1707 70.1269 33.4725 67.3478 32.4082C67.1155 31.8566 66.7844 31.3981 66.5101 30.8856C67.9928 31.4226 69.6559 33.0114 71.3955 32.4082C69.4681 32.0159 68.1831 30.9911 66.3717 30.4688C65.4524 29.3434 64.4294 28.3431 63.5793 27.1466C62.6625 25.8594 62.4673 24.43 61.6247 22.9908C61.6939 25.396 63.0283 27.6737 64.5554 29.0835C61.6222 28.4853 61.7013 24.9007 60.9253 22.1596C60.2359 24.5379 61.8248 26.9701 62.6008 28.8065C61.5382 29.0321 61.2268 27.6639 60.9253 26.8695C60.3792 25.423 59.9369 23.8195 60.0876 21.8825C62.4599 21.9438 63.9302 24.3344 66.3717 23.4051C66.4236 23.1256 65.9986 23.2163 65.8132 22.851C66.137 22.3876 66.8981 22.3606 67.0686 21.7428C66.1543 21.7134 66.2605 22.6965 65.534 22.851C65.3017 22.471 65.1683 22.7848 64.6963 22.5739C65.3709 20.1515 67.0513 18.7246 68.4648 17.0353C66.5299 18.2072 65.0052 19.7862 64.1378 22.0198C62.8108 21.7379 64.0167 20.382 63.997 19.389C63.3248 19.6906 63.221 20.5585 63.0085 21.3284C61.5826 21.2916 63.0085 19.3498 62.5884 18.6976C62.0744 19.2027 62.2449 20.3845 61.5999 20.7743C60.8734 20.3207 61.9657 18.8128 61.4591 18.1435C61.1576 18.906 61.212 20.0314 60.7622 20.637C60.1123 20.355 60.7845 18.7663 60.3421 18.2808C59.9393 18.9501 59.7071 19.5067 59.9245 20.4874C58.9632 20.6566 59.6774 19.1684 59.0868 18.9649C59.0473 19.4332 58.8644 19.7593 58.9459 20.3477C58.1651 20.2937 58.6791 18.955 58.2491 18.548C58.3331 19.2836 58.1453 19.7396 58.1082 20.3477C56.675 20.3011 57.9278 18.1852 57.4114 17.4398C57.2508 18.2955 57.0456 19.1071 57.1321 20.2104C56.6379 20.3207 56.5959 20.0044 56.1437 20.0706C56.0844 19.2713 56.5514 18.2661 56.1437 17.5796C55.8966 18.2612 55.6247 18.9109 55.7236 19.9333C55.2294 20.0437 55.1873 19.7274 54.7475 19.796C54.572 18.8496 55.4542 17.7438 54.7475 17.1628C54.6289 18.016 54.2533 18.6069 54.3274 19.6563C52.7236 19.3866 54.236 16.6405 54.0481 16.0545C53.3068 16.7411 53.6083 18.4818 52.9312 19.2419C52.138 18.7172 53.2154 17.1946 52.652 16.4714C52.2566 17.0941 52.4246 18.2759 51.9551 18.8251C51.8954 18.7337 51.8121 18.6598 51.7139 18.6111C51.6157 18.5624 51.5062 18.5406 51.3966 18.548C51.1915 17.4202 52.0737 16.6381 51.6759 15.7775C51.105 16.3193 51.2261 17.5502 50.6874 18.1337C49.6199 17.5869 50.9345 15.5568 50.549 14.809C49.8447 15.4489 50.208 17.1481 49.4321 17.7169C48.6191 16.7043 49.8225 14.7404 49.5704 13.8405C49.0317 14.782 48.7574 15.9859 48.7352 17.4398C47.2525 17.2437 48.6215 14.6693 48.1767 13.8405C47.6479 14.7011 47.4972 15.9344 47.339 17.1628C47.0396 16.9625 46.7039 16.8218 46.3506 16.7484C46.185 15.8412 47.0103 15.189 46.6298 14.5418C45.9651 14.8066 46.2814 16.0423 45.6537 16.3414C44.4972 15.65 46.3011 14.201 45.7921 13.2962C45.3176 13.9778 45.0359 14.8507 44.6751 15.65C43.7015 14.7257 45.1941 13.1614 45.2336 11.911C44.3242 12.4822 44.1933 13.8307 43.8374 14.9561C42.2386 14.2524 44.0845 11.9428 44.2575 10.8027C43.0664 11.374 43.19 13.2546 42.4412 14.2647C41.3193 12.8132 43.1109 11.1901 43.4297 9.83181C42.456 10.5674 41.9173 11.7491 41.6159 13.1565C40.2246 12.0409 42.3696 10.2928 42.4511 8.86334C41.4083 9.52288 41.265 11.0945 40.5236 12.0507H40.5162ZM1.14851 30.0569C0.174881 25.5701 5.72257 25.0356 9.52566 24.5158C9.43727 24.7178 9.40354 24.9391 9.42782 25.158C9.45209 25.3769 9.53351 25.5857 9.66404 25.7638C9.62944 25.1753 10.0298 25.0282 9.94328 24.3785C12.0759 24.2314 13.9663 23.844 16.0865 23.6846C16.3336 24.023 15.8394 24.8836 16.3658 25.2097C16.3721 24.6744 16.5159 24.1495 16.7834 23.6846H18.1796C18.0684 24.0426 17.8657 25.0282 18.1796 25.347C18.4687 24.8566 18.1499 23.7484 18.8789 23.6846C19.1952 23.9592 18.7257 24.4643 19.1582 24.7928C19.2521 24.3344 19.2842 23.8121 19.7142 23.6846C20.1441 23.5571 20.0058 24.045 20.2726 24.1014C20.2479 23.7999 20.3888 23.6601 20.6927 23.6846C22.4225 23.7557 23.7446 23.5645 25.0197 23.5473C24.9511 23.576 24.8926 23.6241 24.8515 23.6856C24.8103 23.747 24.7884 23.8192 24.7884 23.893C24.7884 23.9668 24.8103 24.039 24.8515 24.1005C24.8926 24.162 24.9511 24.2101 25.0197 24.2387C25.2866 23.8121 25.4151 23.258 26.1366 23.258C26.0897 23.7655 25.5831 23.817 25.7166 24.5035C26.4826 24.4324 25.9958 23.1182 26.9744 23.258C27.2215 23.3781 26.3047 24.2387 26.8335 24.6433C27.3129 24.1063 27.0633 23.2482 27.6712 23.1182C27.649 23.4713 27.0633 25.1876 27.5328 26.0286C27.7404 24.9865 27.78 23.7704 28.3706 23.1182C28.8228 23.2703 27.9949 24.0132 28.5089 24.2265C28.63 23.6062 28.7437 22.9834 29.4974 22.9809C29.5839 23.9102 29.5962 24.913 29.915 25.6118C30.2956 24.9743 29.8137 23.4811 30.1943 22.8412C35.7691 22.3704 42.3275 21.0636 47.6454 20.4874C49.4543 20.2913 50.3859 19.7519 51.6932 20.2104C52.0465 20.8748 51.881 22.0566 52.2516 22.7039C52.5679 22.1253 52.6495 21.0367 52.2516 20.4972C52.5711 20.5357 52.8672 20.683 53.0893 20.9141C52.8422 21.7134 53.1709 23.1379 53.3686 23.9592C53.3686 22.7333 53.8505 21.9683 53.3686 20.9141C53.6849 21.0121 54.0803 21.0367 54.3447 21.1887C54.3447 22.2184 54.3274 23.2384 54.6239 23.9592C54.6931 23.1648 55.1824 22.1571 54.7648 21.3284C55.8125 21.3505 56.5415 21.6888 57.6955 21.6055C57.7796 21.8923 57.5226 22.5151 57.8364 22.5862C58.217 22.5862 58.1675 21.934 57.9748 21.755H59.6502C59.4031 24.4275 60.31 27.0829 61.3257 28.9585C59.4501 29.314 58.0539 30.8832 56.5786 31.1651C57.2038 30.6331 57.0061 29.1571 56.7194 28.3946C56.8356 29.8975 56.0572 30.5081 56.0201 31.8566C53.974 32.8128 50.9889 33.3448 48.4831 32.6877C48.4831 32.32 48.5598 31.8737 48.2039 31.8566C48.1248 32.3812 48.0062 32.8618 47.2155 32.6877C47.3489 32.266 47.601 31.0573 46.9362 31.0254C46.867 31.6506 47.0993 32.5725 46.3777 32.5504C46.1949 32.1876 46.657 30.589 46.0985 30.1942C45.9972 31.018 46.3654 32.3052 45.54 32.4009C45.456 31.859 45.7624 30.6135 45.4016 29.7701C45.2556 30.5945 45.1623 31.4274 45.1224 32.2636C44.6949 32.3616 44.6133 32.1214 44.2847 32.1238C44.1982 31.7487 44.4626 31.0254 44.1438 30.8783C44.1438 31.3834 43.8695 31.6138 43.5854 31.859C43.3877 30.9494 43.2913 29.9368 42.8885 29.2282C43.1356 30.2089 42.3943 30.2236 42.4684 31.0278C41.8333 31.1995 42.4832 30.0912 42.0508 30.0471C41.8506 30.9102 42.1768 32.2954 41.0623 32.2537C40.9734 31.6506 41.2452 30.687 40.9239 30.3144C40.835 31.1504 40.8424 32.8152 39.807 32.2537C40.0393 32.0601 40.0393 30.9249 39.807 30.7287C39.3375 31.1406 39.8688 32.5431 38.8309 32.3911C38.6332 32.32 39.078 30.9984 38.69 30.7287C38.4034 31.4128 38.6579 32.6362 37.5731 32.5308C37.4816 31.7438 37.7584 30.5939 37.4347 30.0373C37.2518 30.9641 37.4594 32.2783 36.597 32.5308C36.1843 32.2464 36.7279 31.0131 36.3177 30.7287C36.293 31.6285 36.2955 32.5553 35.48 32.6681C34.8276 32.5774 35.265 31.4054 34.9215 31.0058C34.9563 31.5637 34.9088 32.1237 34.7807 32.6681C33.728 32.977 34.0542 31.9129 33.6662 31.5599C33.6959 32.0061 33.4191 32.1459 33.5253 32.6681H31.5707C31.4842 32.2023 31.7511 31.3834 31.4323 31.1455C31.3013 31.7536 31.3285 32.521 30.733 32.6681H30.4537C30.0756 32.7686 30.555 32.0159 30.1745 32.114C30.2684 32.6681 29.8063 32.6706 29.3368 32.6681C29.0625 31.9914 30.1053 30.7802 29.616 29.8975C28.9636 30.6331 29.2305 32.2856 28.0814 32.5308C28.1976 31.3049 28.5979 29.6278 28.2198 28.375C28.1432 29.1865 27.8047 30.8562 27.6613 31.6996C27.6613 31.658 27.6465 33.0751 27.523 32.114C27.2511 31.6457 27.3426 30.817 27.1029 30.3144C27.1721 31.1651 26.8558 31.6383 26.9645 32.521C23.4481 32.3616 19.86 32.2758 16.215 32.2439C16.1322 31.5517 15.9976 30.8666 15.8122 30.1942C15.8765 30.8709 15.6664 31.8173 15.9506 32.2734H12.4614C12.2143 31.5844 12.3131 30.5718 11.9029 30.0667C11.6857 30.7955 11.7347 31.5769 12.0413 32.2734C10.6994 32.5431 11.7151 30.4737 11.0528 30.0667C10.8823 30.6821 10.9021 31.4863 10.912 32.2734C6.86424 32.3224 1.85031 33.286 1.14851 30.0569ZM38.8408 42.6618C38.475 42.9462 38.9371 44.0519 38.5615 44.3216C38.2971 42.6299 37.6447 39.7196 38.8408 38.5059C38.8161 38.9963 38.8778 39.391 39.12 39.6117C39.246 39.0678 39.2926 38.5088 39.2584 37.9518C41.69 36.2993 44.0697 33.8597 47.7739 33.9333C45.8464 34.8846 42.713 35.3774 41.7715 36.8436C42.2806 36.8803 42.8811 36.2919 43.1677 36.5665C43.0219 36.5665 43.059 36.743 43.3086 36.7063C46.6199 35.7893 49.7756 34.7203 53.4971 34.2128C54.1346 34.8723 54.9798 35.3332 55.4518 36.1497C55.4097 35.1297 54.8216 34.6516 54.1964 34.2128C55.2417 33.9823 55.8125 35.3602 56.4204 36.0124C56.2863 35.2172 55.8941 34.4871 55.3035 33.9333C56.4106 34.2667 56.8331 35.2818 57.5275 36.0124C57.3916 34.8527 56.7293 34.2177 55.9905 33.6586C57.0036 33.3718 57.5349 34.6909 58.2145 35.1812C57.9674 34.3329 57.0086 33.5459 57.0975 32.8275C57.9492 33.5018 58.6983 34.2945 59.3216 35.1812C59.1016 33.9676 58.2565 33.3742 57.6461 32.5504C58.6049 32.2243 59.4501 33.8818 60.1593 33.7959C59.7664 33.0334 59.0917 32.548 58.343 32.1336C59.3314 31.3147 60.1123 33.286 60.8561 33.1143C60.5349 32.4156 59.9393 31.9914 59.3216 31.5893C60.4187 30.8366 62.5934 29.873 64.0686 30.7581C61.0588 31.3785 62.3882 33.3816 63.3693 35.191C63.9203 36.2085 64.4739 37.2824 65.0447 37.5448C65.5587 37.2702 65.8256 36.7504 66.1641 36.2993C66.0702 37.5914 65.3758 38.2901 64.6271 38.9301C64.521 38.4404 64.3322 37.972 64.0686 37.5448C63.9426 38.2509 64.3553 39.5063 63.7894 39.7514C63.8808 38.5525 63.4904 37.8317 63.09 37.1206C63.2087 38.1014 63.5843 40.2075 62.6724 40.5826C62.7218 39.6632 62.9665 38.783 62.3932 38.2289C62.497 40.5041 61.7902 41.9728 59.88 42.2449C60.4336 41.4285 60.4385 39.6166 59.88 38.783C60.0061 40.2541 59.7095 41.2912 59.4624 42.3847C59.0127 42.5392 58.6346 42.7623 58.0637 42.7991C58.2639 42.0831 58.1329 41.1392 57.9254 40.4453C58.511 44.9493 53.4007 43.8019 50.9444 45.2926C50.9815 44.5178 50.9197 43.8411 50.5268 43.4929C50.1289 44.0544 51.0482 45.3759 50.1067 45.5696C49.7261 44.9321 49.7756 43.868 49.2714 43.363C49.2937 44.0642 49.7039 45.751 49.4098 45.8565C49.2319 45.8565 49.2171 46.033 48.9922 45.9938C48.9675 45.0964 48.6191 44.5227 48.2929 43.9171C48.0087 44.9174 49.091 46.0575 48.1545 46.4106C47.9222 45.8074 47.9074 44.9812 47.4552 44.6085C47.3341 45.5157 47.6331 46.0036 47.7344 46.6876C46.4494 47.1192 45.8514 48.2347 43.8251 47.9332C43.6001 47.1987 43.2715 46.4995 42.849 45.8565C43.0071 46.4841 42.97 47.3055 43.1282 47.9332C42.1397 47.7689 42.634 46.1188 41.8728 45.7265C41.7444 46.592 42.0804 46.999 42.1496 47.6659C39.6167 47.4305 39.0187 45.2533 38.8408 42.6618ZM64.9459 36.9809C64.5456 35.0709 63.3223 33.9774 62.5711 32.4107C62.9341 31.8193 63.4081 31.3024 63.9673 30.8881C65.6699 30.8685 67.0142 33.1903 66.4804 34.9042C65.9664 33.6121 65.6724 32.1042 64.6666 31.3024C65.7861 32.7368 67.2959 35.8996 64.9459 36.9809ZM44.9717 4.15583C42.5005 3.52081 39.9627 2.92992 38.2724 1.52502C40.8869 2.03255 43.3432 2.68964 44.9717 4.15583ZM42.4585 31.3024C42.3794 31.7536 42.5549 31.9473 42.5994 32.2832C42.3893 32.2587 42.0829 32.3322 42.0409 32.1434C42.3424 32.0012 42.1002 31.3515 42.4684 31.3024H42.4585ZM46.2394 51.6649C46.3456 50.8165 46.0565 50.3678 46.0985 49.5857C48.1149 47.4771 51.4436 46.6705 54.7475 45.8467C54.8241 46.646 54.7055 47.6414 55.5852 47.6463C55.558 47.0775 54.792 45.9055 55.306 45.7069C55.7755 45.9349 55.4073 46.9917 56.1437 46.9549C56.2722 46.3714 55.6495 45.6628 56.2821 45.4299C56.3068 45.9644 56.7936 46.7637 57.1198 46.5381C56.8479 46.2929 56.8183 45.8222 56.8405 45.2926C57.4213 45.3637 57.147 46.2733 57.829 46.261C57.6832 45.9423 57.5448 45.1994 57.6881 45.0155C58.1181 44.9665 58.2466 45.9276 58.5258 45.5696C58.217 45.5525 58.4666 44.9812 58.385 44.7384C58.9954 44.5497 58.684 45.2729 59.2227 45.1528V44.4614C60.5794 44.1647 61.212 43.3483 62.5736 42.7991C63.0184 43.3728 63.0406 44.3682 63.6905 44.7384C63.824 43.6351 63.1345 43.3532 62.9937 42.5318C63.5497 42.2082 63.7597 41.5388 64.5283 41.4236C64.7976 41.9458 65.3956 42.8702 65.7861 42.8089C65.702 42.0733 64.7976 41.5241 64.9483 41.0092C65.8231 40.9749 66.0925 42.2695 66.6238 42.115C66.6435 41.5511 65.5982 41.0117 66.2062 40.7322C66.7572 41.1073 67.1353 41.654 67.5999 42.115C67.5332 41.7497 66.6905 40.8891 67.3206 40.7322C68.3783 41.4432 69.0134 45.832 70.3923 45.8565C70.9038 45.8565 71.7934 45.0474 71.3684 44.1941C71.2295 44.761 70.8811 45.2554 70.3923 45.5794C69.7628 43.9085 68.9181 42.3253 67.8791 40.8695C69.6336 40.3203 70.6542 41.3598 71.3684 42.2547C71.3066 41.9385 70.5974 41.556 70.9507 41.274C73.8815 45.6358 67.8025 48.8747 65.366 50.5542C65.366 49.674 64.9706 49.191 64.8075 48.475V51.248C64.3577 51.4491 64.0266 51.7654 63.5521 51.9395C63.6905 51.3339 63.0233 50.8116 62.8528 50.971C62.6848 51.6747 63.6115 51.7801 63.2729 52.219C63.0085 52.1871 62.964 52.3734 62.7144 52.3563C62.7713 51.8316 62.2202 51.1867 62.0151 51.3878C61.8817 52.0743 62.3882 52.1233 62.4352 52.6333C62.2382 52.6071 62.0386 52.6562 61.8767 52.7706C61.6691 52.1945 61.2639 51.8095 60.8883 51.3878C60.8734 52.0522 61.5308 52.6137 61.3083 53.0477C60.567 52.7289 60.273 51.9542 59.7738 51.3878C59.7738 52.1969 60.5794 52.8466 60.4706 53.3247C60.2734 53.2995 60.0738 53.3495 59.9122 53.4645C59.7095 52.9741 59.1708 52.0915 58.7952 52.219C59.0102 52.6971 59.2647 53.136 59.4945 53.6018C58.4344 54.2074 58.259 52.089 57.5399 52.3563C57.787 52.9839 58.2293 53.4253 58.3751 54.1559C57.0728 53.8323 56.6676 52.6186 55.8644 51.8022C55.9163 53.0575 57.3348 53.6459 57.2582 54.5727C56.0448 54.2049 55.5827 52.3661 54.6066 52.219C55.0465 53.2585 55.8941 53.896 56.4229 54.8498C56.2614 54.9038 56.1166 54.9984 56.0028 55.1244C55.0292 54.2908 54.404 53.1114 53.4897 52.219C53.5564 53.7783 55.2615 54.4256 55.306 55.5412C54.0358 55.3843 53.4452 53.44 52.5136 52.4936C52.6149 53.1752 53.0498 53.9132 53.502 54.5727C53.8505 55.0925 54.9205 55.8746 53.9221 56.0953C53.1808 54.9944 52.3875 53.923 51.5498 52.9079C51.8881 54.2026 52.6187 55.363 53.6429 56.2326C53.46 56.3724 53.1289 56.3675 52.9436 56.5097C52.2319 55.0925 50.9666 54.2246 50.1512 52.9079C50.5886 54.5041 51.5745 55.5584 52.6643 56.5097C50.9073 56.544 50.7591 54.2466 49.7336 54.0162C49.8843 55.1146 50.6133 55.6368 51.1297 56.3699C49.4568 56.1811 49.3999 54.4084 48.3373 53.5993C48.3373 54.5188 49.2294 55.2985 49.1751 55.806C48.1866 55.0704 46.6545 54.1535 46.8028 52.7584C46.8349 52.9104 47.0326 53.0918 47.082 52.8981C46.8571 52.3195 46.8547 51.5006 46.2394 51.6649ZM61.7334 62.0508C58.9855 61.0382 57.7796 58.5054 55.8718 56.6568C58.343 55.372 61.3751 54.6365 64.1082 53.6092C64.3404 54.0284 64.506 55.2396 64.9459 54.9944C64.9656 54.281 64.6691 53.8838 64.3874 53.4718C64.8025 53.4718 64.8619 53.1114 65.2251 53.055C65.2992 53.7244 65.8034 54.6929 66.2136 54.5801C66.0752 53.972 65.1213 52.6799 66.2136 52.5009C66.4162 52.9913 66.8906 53.9475 67.328 53.7489C67.0537 53.1899 66.7399 52.6701 66.4903 52.0866C66.945 51.8414 67.1897 51.3952 67.7481 51.2554C67.8766 51.9149 68.6649 52.6505 69.0035 52.6407C68.6328 52.1822 67.6345 50.8141 68.7242 50.564C68.8923 50.9563 69.4384 51.6943 69.7003 51.5447C69.3272 51.2677 69.2753 50.6743 69.1443 50.1594C69.5595 49.7941 69.9969 50.3507 70.1328 50.1594C69.9252 50.1349 70.0043 49.826 69.9944 49.6053C70.4886 49.3381 70.5035 49.6593 70.9829 49.7451C70.8957 49.6502 70.8474 49.5265 70.8474 49.3981C70.8474 49.2698 70.8957 49.146 70.9829 49.0512C71.5092 48.8207 71.6204 49.696 71.8206 49.3283C71.5166 49.3528 71.7563 48.8379 71.6797 48.6369C72.0603 48.7227 72.7893 48.4603 72.9375 48.7742C72.7744 48.7962 72.5372 48.7496 72.5174 48.9139C72.3865 49.9927 74.2991 51.9615 75.3098 52.2386C75.4878 52.1675 75.9746 51.7188 76.0091 51.9591C74.6846 53.0011 74.4869 55.1612 73.0759 56.1272C72.8032 55.5546 72.4243 55.0381 71.959 54.6046C71.9441 55.5436 72.5174 55.8992 72.9474 56.4042C71.959 56.7941 71.7786 55.2788 71.1311 54.8816C71.1311 55.9482 71.8132 56.3282 72.2506 56.9583C71.5932 57.1398 71.3338 57.7135 70.7135 57.9391C70.8 57.1128 70.5232 56.647 70.2934 56.137C70.3329 57.0442 69.9944 57.7037 70.2934 58.4932C69.1189 59.3581 67.8558 60.0977 66.5249 60.6998C66.0307 59.7681 65.1658 59.1871 64.4319 58.4932C65.0052 59.3538 65.3684 60.4252 66.3865 60.8469C65.2646 61.3962 64.6839 62.4823 62.7564 62.2322C61.8001 61.379 60.7326 60.6385 59.9641 59.599C60.3206 60.5594 60.9319 61.4065 61.7334 62.0508ZM67.8766 37.1206C67.9162 37.405 68.2498 37.3977 68.4351 37.535C68.3462 38.0474 68.057 38.3612 68.1559 39.06C67.3528 39.1164 68.099 37.638 67.4565 37.535C67.4016 37.695 67.3063 37.8385 67.1798 37.9518C66.8412 37.5472 67.506 37.2506 67.8766 37.1206ZM69.2728 37.9518C69.0257 38.2656 69.3272 39.114 68.8527 39.1973C68.6056 38.9374 68.7539 38.2828 68.7144 37.812C68.9763 37.7826 69.0233 37.969 69.2728 37.9518ZM70.2489 39.6019C69.5076 39.6411 69.4903 38.9742 69.5521 38.219C70.2885 38.1896 70.3132 38.8663 70.2489 39.6019ZM71.5067 38.9105C71.3016 39.673 71.8008 40.46 71.6451 40.7126C71.0422 40.3399 70.6764 39.7318 70.6567 38.7732C71.0965 38.6824 71.1657 38.9227 71.5067 38.9203V38.9105ZM76.2538 51.248C76.2538 50.64 75.8732 50.4242 75.6953 50.0025C75.7373 50.6449 75.6953 51.2015 75.4161 51.5251C74.0372 51.2309 73.6369 49.9657 73.0413 48.8943C74.8057 48.8992 76.7826 49.4288 76.2538 51.248ZM106.963 54.71C106.99 54.9055 106.941 55.1041 106.824 55.2641C106.476 55.2887 106.387 55.0533 106.266 54.8498C106.659 54.9626 106.627 54.6536 106.963 54.71ZM107.951 19.6685C108.308 20.1806 108.59 20.7403 108.789 21.3309C108.075 21.4388 107.776 21.1372 107.113 21.1911C107.17 20.4776 107.427 19.9431 107.941 19.6685H107.951ZM126.378 37.2604C126.378 41.1367 125.489 44.5644 124.703 48.2004C124.331 49.812 123.816 51.3881 123.166 52.9104C122.63 54.1976 121.762 56.6028 120.942 57.0785C119.528 57.8631 116.494 57.3237 114.939 56.8014C114.477 56.6445 114.033 56.1689 113.541 56.1076C111.601 55.8624 110.192 57.0098 108.238 56.1076C113.032 47.6218 113.014 29.6131 109.775 19.4037C114.554 18.9551 116.496 21.3186 119.825 22.3116C119.509 21.8409 119.18 21.3824 119.126 20.6517C119.966 20.8797 121.154 20.762 122.197 20.789C125.16 24.072 126.368 30.7581 126.368 37.2604H126.378Z" fill="#FFC95B"/>
<path fill-rule="evenodd" clip-rule="evenodd" d="M40.7961 45.0156C40.6577 45.0941 40.7417 47.2566 41.6338 47.2223C41.577 46.271 40.9814 45.8468 40.7961 45.0156Z" fill="#FFC95B"/>
<path fill-rule="evenodd" clip-rule="evenodd" d="M46.0987 42.2451C45.8516 42.4535 46.3459 43.1057 46.378 43.4931C46.7313 43.1768 46.1951 42.5737 46.0987 42.2451Z" fill="#FFC95B"/>
<path fill-rule="evenodd" clip-rule="evenodd" d="M46.9364 49.3086C46.2593 50.3114 46.9611 52.1993 47.6357 52.7706C47.5789 51.9933 47.097 50.4438 46.9364 49.3086Z" fill="#FFC95B"/>
<path fill-rule="evenodd" clip-rule="evenodd" d="M47.0773 13.7131C47.3095 13.436 47.5838 13.2007 47.6357 12.7446C47.2453 12.877 47.1712 13.2987 47.0773 13.7131Z" fill="#FFC95B"/>
<path fill-rule="evenodd" clip-rule="evenodd" d="M47.7742 48.8945C46.7858 49.8164 47.8039 51.8784 48.4736 52.4938C48.481 51.6161 47.6606 50.3485 47.7742 48.8945Z" fill="#FFC95B"/>
<path fill-rule="evenodd" clip-rule="evenodd" d="M47.6357 8.03479C48.0286 7.91465 49.2666 7.44145 49.5879 6.78681C48.4042 6.67403 48.167 7.50029 47.6357 8.03479Z" fill="#FFC95B"/>
<path fill-rule="evenodd" clip-rule="evenodd" d="M48.6122 48.8945C47.987 49.5908 48.7728 51.2066 49.3115 51.6651C49.23 51.1404 48.9755 49.5958 48.6122 48.8945Z" fill="#FFC95B"/>
<path fill-rule="evenodd" clip-rule="evenodd" d="M49.0319 8.44907C49.3557 8.26028 50.7963 7.98813 51.125 7.34085C49.966 7.25503 49.5361 7.89006 49.0319 8.44907Z" fill="#FFC95B"/>
<path fill-rule="evenodd" clip-rule="evenodd" d="M49.4502 48.4775C48.5334 48.8723 49.465 50.5542 49.8678 50.971C50.0136 50.4096 49.4947 49.3136 49.4502 48.4775Z" fill="#FFC95B"/>
<path fill-rule="evenodd" clip-rule="evenodd" d="M49.868 48.063C49.8289 48.9031 50.0752 49.732 50.5673 50.4167C50.6563 50.0956 50.6563 48.3327 49.868 48.063Z" fill="#FFC95B"/>
<path fill-rule="evenodd" clip-rule="evenodd" d="M51.8226 9.83405C52.1908 9.73598 53.2583 9.13774 53.498 8.44877C52.4676 8.44142 52.386 9.37801 51.8226 9.83405Z" fill="#FFC95B"/>
<path fill-rule="evenodd" clip-rule="evenodd" d="M52.6603 9.83421C53.2929 9.9519 53.9404 8.89026 54.7559 8.72599C54.017 8.09342 53.0779 9.26784 52.6603 9.83421Z" fill="#FFC95B"/>
<path fill-rule="evenodd" clip-rule="evenodd" d="M52.2426 46.6779C52.2072 47.3904 52.4578 48.0878 52.9395 48.6173C52.8258 48.9189 53.0185 46.6314 52.2426 46.6779Z" fill="#FFC95B"/>
<path fill-rule="evenodd" clip-rule="evenodd" d="M53.9177 10.3882C54.4119 10.2681 55.2892 9.35112 56.0107 9.00296C55.2941 8.46356 54.1574 9.56443 53.9177 10.3882Z" fill="#FFC95B"/>
<path fill-rule="evenodd" clip-rule="evenodd" d="M55.1731 10.6704C55.8922 10.6434 56.5372 9.34637 57.5479 9.14777C56.5446 8.39261 55.5981 9.93481 55.1731 10.6704Z" fill="#FFC95B"/>
<path fill-rule="evenodd" clip-rule="evenodd" d="M56.4305 43.2161C57.5203 43.0101 57.1718 40.7839 56.7097 40.1685C56.6702 40.3376 56.769 42.483 56.4305 43.2161Z" fill="#FFC95B"/>
<path fill-rule="evenodd" clip-rule="evenodd" d="M56.5691 10.8053C57.1053 10.5602 58.4002 9.85157 58.9414 9.143C57.5477 9.09886 57.2215 10.1115 56.5691 10.8053Z" fill="#FFC95B"/>
<path fill-rule="evenodd" clip-rule="evenodd" d="M57.4066 56.6494C57.4856 57.8165 58.2047 58.3485 58.8027 59.0032C58.6891 58.4245 58.1899 57.027 57.4066 56.6494Z" fill="#FFC95B"/>
<path fill-rule="evenodd" clip-rule="evenodd" d="M58.2443 36.5664C58.4124 37.8781 59.0326 39.9377 58.8028 42.1051C59.4675 41.5559 59.3465 40.0627 59.2204 39.0599C59.0726 38.1706 58.7402 37.3215 58.2443 36.5664Z" fill="#FFC95B"/>
<path fill-rule="evenodd" clip-rule="evenodd" d="M58.3833 11.0825C58.544 10.852 60.3331 9.88844 60.8965 9.14308C59.735 8.92977 58.9566 10.2513 58.3833 11.0825Z" fill="#FFC95B"/>
<path fill-rule="evenodd" clip-rule="evenodd" d="M58.3828 55.958C58.3482 57.1447 59.0401 57.6154 59.6406 58.1647C59.4578 57.7454 59.1464 56.2743 58.3828 55.958Z" fill="#FFC95B"/>
<path fill-rule="evenodd" clip-rule="evenodd" d="M58.9414 36.1499C58.9241 36.9516 59.3639 37.3023 59.6407 37.8122C59.9051 37.5401 59.6259 36.297 58.9414 36.1499Z" fill="#FFC95B"/>
<path fill-rule="evenodd" clip-rule="evenodd" d="M59.3615 25.3472C58.9093 25.8057 59.6679 26.2372 59.6408 26.7324C59.8953 26.4726 59.4703 25.7076 59.3615 25.3472Z" fill="#FFC95B"/>
<path fill-rule="evenodd" clip-rule="evenodd" d="M59.502 55.6812C58.778 56.2745 59.8851 57.1522 60.3373 57.4808C60.451 57.5568 59.7467 56.1593 59.502 55.6812Z" fill="#FFC95B"/>
<path fill-rule="evenodd" clip-rule="evenodd" d="M60.199 55.404C60.2806 56.1076 60.713 56.4631 61.1875 56.7892C61.1653 57.0687 60.975 55.2716 60.199 55.404Z" fill="#FFC95B"/>
<path fill-rule="evenodd" clip-rule="evenodd" d="M60.7577 10.8053C61.4372 10.5994 62.4133 9.49116 63.4092 9.143C62.3466 8.46384 61.3433 10.1017 60.7577 10.8053Z" fill="#FFC95B"/>
<path fill-rule="evenodd" clip-rule="evenodd" d="M61.3166 54.8496C61.0695 55.465 61.6008 56.3795 62.1543 56.6492C62.1098 56.8797 61.922 54.9747 61.3166 54.8496Z" fill="#FFC95B"/>
<path fill-rule="evenodd" clip-rule="evenodd" d="M62.154 11.0825C62.3442 10.7 64.7808 10.1924 65.2256 9.14307C63.8492 9.44464 63.0436 10.3028 62.154 11.0825Z" fill="#FFC95B"/>
<path fill-rule="evenodd" clip-rule="evenodd" d="M62.2925 43.6304C62.6953 45.1235 63.7159 47.2051 63.968 49.3088C64.2942 47.0923 63.2588 45.023 62.2925 43.6304Z" fill="#FFC95B"/>
<path fill-rule="evenodd" clip-rule="evenodd" d="M62.5715 59.4199C62.6357 60.2805 63.4537 61.5898 64.667 61.7737C64.2074 60.7513 63.1373 60.3369 62.5715 59.4199Z" fill="#FFC95B"/>
<path fill-rule="evenodd" clip-rule="evenodd" d="M63.4093 54.1558C63.3377 55.0605 63.9036 55.3351 64.1087 55.9579C64.2471 55.5386 64.1037 54.2097 63.4093 54.1558Z" fill="#FFC95B"/>
<path fill-rule="evenodd" clip-rule="evenodd" d="M63.5502 59.1431C63.6713 59.7143 64.5387 61.3497 65.5049 61.0825C64.9884 60.2881 64.1729 59.8149 63.5502 59.1431Z" fill="#FFC95B"/>
<path fill-rule="evenodd" clip-rule="evenodd" d="M64.3877 47.0923C64.8177 46.3372 64.2073 45.4276 63.8293 45.0156C63.6464 45.0083 63.9998 46.7417 64.3877 47.0923Z" fill="#FFC95B"/>
<path fill-rule="evenodd" clip-rule="evenodd" d="M65.2352 11.4967C65.4032 11.2294 66.9353 9.96673 67.8867 9.55727C66.8291 8.9811 65.638 10.5356 65.2352 11.4967Z" fill="#FFC95B"/>
<path fill-rule="evenodd" clip-rule="evenodd" d="M65.6435 58.0347C65.6435 58.6819 66.3848 59.7877 67.1805 60.1114C67.5858 59.5499 66.1056 58.6427 65.6435 58.0347Z" fill="#FFC95B"/>
<path fill-rule="evenodd" clip-rule="evenodd" d="M65.7839 24.1016C66.802 26.3229 68.9371 27.436 71.3662 28.2697C69.3733 27.0636 67.5037 25.6677 65.7839 24.1016Z" fill="#FFC95B"/>
<path fill-rule="evenodd" clip-rule="evenodd" d="M66.0606 45.0156C66.1793 45.8247 66.6883 47.4405 66.6216 48.8944C67.7262 47.8843 66.498 45.8541 66.0606 45.0156Z" fill="#FFC95B"/>
<path fill-rule="evenodd" clip-rule="evenodd" d="M66.4716 57.3433C66.5012 58.1009 67.3044 59.2851 68.2879 59.5499C68.3546 58.6942 66.8596 58.2357 66.4716 57.3433Z" fill="#FFC95B"/>
<path fill-rule="evenodd" clip-rule="evenodd" d="M66.6214 23.8242C67.857 25.3125 69.6189 26.2957 71.7861 26.8718C70.1284 25.753 68.4037 24.7353 66.6214 23.8242Z" fill="#FFC95B"/>
<path fill-rule="evenodd" clip-rule="evenodd" d="M69.4122 56.2348C69.6346 54.5823 68.1445 53.43 67.4575 52.2188C67.3043 53.2583 68.9674 54.8692 69.4122 56.2348Z" fill="#FFC95B"/>
<path fill-rule="evenodd" clip-rule="evenodd" d="M68.2973 54.71C68.1861 54.8742 68.2973 56.0045 68.9941 55.8182C68.9768 55.2347 68.49 55.1194 68.2973 54.71Z" fill="#FFC95B"/>
<path fill-rule="evenodd" clip-rule="evenodd" d="M67.7389 19.8085C67.7982 19.9679 68.7421 18.7076 69.2734 18.4232C68.6458 18.2173 68.2183 19.404 67.7389 19.8085Z" fill="#FFC95B"/>
<path fill-rule="evenodd" clip-rule="evenodd" d="M69.1348 59.0033C69.0582 58.0226 68.1463 57.8682 67.8769 57.0664C67.6471 57.2797 68.3069 58.9224 69.1348 59.0033Z" fill="#FFC95B"/>
<path fill-rule="evenodd" clip-rule="evenodd" d="M68.0178 11.634C68.9865 11.5801 70.2418 10.6067 71.3662 10.2512C70.0911 10.0035 68.8012 10.9377 68.0178 11.634Z" fill="#FFC95B"/>
<path fill-rule="evenodd" clip-rule="evenodd" d="M68.1562 34.9043C68.6727 35.9684 70.2172 36.3312 71.5071 36.7064C76.6298 38.1775 83.9616 37.4419 87.2804 34.767C87.5893 34.5218 88.3677 34.1074 87.2804 34.6272C82.0391 37.1502 73.867 38.3074 68.1562 34.9043Z" fill="#FFC95B"/>
<path fill-rule="evenodd" clip-rule="evenodd" d="M68.8533 56.7891C68.5321 56.8455 69.1919 58.8829 69.8418 58.4514C69.7355 57.6693 69.051 57.4707 68.8533 56.7891Z" fill="#FFC95B"/>
<path fill-rule="evenodd" clip-rule="evenodd" d="M68.9944 41.2764C69.4442 42.1688 69.9829 42.9755 70.3906 43.9072C70.1954 43.3138 69.931 41.6049 68.9944 41.2764Z" fill="#FFC95B"/>
<path fill-rule="evenodd" clip-rule="evenodd" d="M70.9492 55.958C70.6527 56.2596 71.1963 56.9118 71.3669 57.2035C71.8092 56.7647 70.9072 56.468 70.9492 55.958Z" fill="#FFC95B"/>
<path fill-rule="evenodd" clip-rule="evenodd" d="M71.9246 15.3753C71.9518 15.5322 72.0654 15.4513 72.0654 15.3753C72.8216 15.0174 73.4863 14.5711 74.2895 14.2671C74.8356 14.0857 73.6692 14.1984 73.4517 14.2671C72.8735 14.4534 72.2162 15.2135 71.9246 15.3753Z" fill="#FFC95B"/>
<path fill-rule="evenodd" clip-rule="evenodd" d="M72.0662 11.9136C72.6346 11.8743 73.7763 11.2099 74.7178 11.0824C73.8405 10.3297 72.7433 11.563 72.0662 11.9136Z" fill="#FFC95B"/>
<path fill-rule="evenodd" clip-rule="evenodd" d="M72.4837 16.6209C72.8198 16.7018 74.174 15.4514 75.1377 15.2356C74.1023 14.9978 73.2028 16.0864 72.4837 16.6209Z" fill="#FFC95B"/>
<path fill-rule="evenodd" clip-rule="evenodd" d="M72.7631 51.665C72.7952 52.327 73.4328 53.5848 74.1593 54.0188C74.4434 53.0405 73.0497 52.5354 72.7631 51.665Z" fill="#FFC95B"/>
<path fill-rule="evenodd" clip-rule="evenodd" d="M72.7627 53.0479C72.602 53.5799 73.2569 54.4969 73.7511 54.8499C74.1317 54.0825 73.0271 53.6216 72.7627 53.0479Z" fill="#FFC95B"/>
<path fill-rule="evenodd" clip-rule="evenodd" d="M72.8959 32.8273C75.3844 33.9477 79.7435 33.2637 81.5449 31.9961C79.3481 32.6041 75.7526 33.0921 72.8959 32.8273Z" fill="#FFC95B"/>
<path fill-rule="evenodd" clip-rule="evenodd" d="M73.0421 50.8311C73.1336 51.4857 73.7291 52.8268 74.8584 52.9102C74.4012 52.0692 73.6945 51.4783 73.0421 50.8311Z" fill="#FFC95B"/>
<path fill-rule="evenodd" clip-rule="evenodd" d="M74.717 32.1334C74.7763 32.4448 75.4583 32.1334 75.5547 32.4105C76.3674 32.335 77.1657 32.1486 77.927 31.8564C79.6741 31.1208 77.1856 31.8711 75.4163 31.8564C75.2977 32.0623 74.9666 32.0574 74.717 32.1334Z" fill="#FFC95B"/>
<path fill-rule="evenodd" clip-rule="evenodd" d="M77.5101 36.427C80.1344 36.4442 82.1286 35.841 83.7917 34.9044C84.0067 34.8309 83.7917 34.7598 83.6533 34.7671C81.8198 35.5345 79.2769 35.5958 77.5101 36.427Z" fill="#FFC95B"/>
<path fill-rule="evenodd" clip-rule="evenodd" d="M77.9277 34.9042C79.0867 34.9042 80.6608 34.7473 81.5578 34.3501C81.8766 34.2104 82.5661 33.7739 82.2572 33.6587C80.9252 34.1834 79.0546 34.1736 77.9277 34.9042Z" fill="#FFC95B"/>
<path fill-rule="evenodd" clip-rule="evenodd" d="M84.6292 26.455C84.7404 26.5996 85.6745 26.3912 85.6176 25.9009C85.2247 26.0308 85.0048 26.3275 84.6292 26.455Z" fill="#FFC95B"/>
<path fill-rule="evenodd" clip-rule="evenodd" d="M90.6312 52.4934C90.3396 52.1918 90.6658 53.2804 90.7721 53.4741C91.2416 53.1652 90.5867 52.8268 90.6312 52.4934Z" fill="#FFC95B"/>
<path fill-rule="evenodd" clip-rule="evenodd" d="M90.7719 21.1913C90.5124 21.1913 92.5264 20.5024 92.1681 19.9458C91.3996 20.0635 91.1401 20.6813 90.7719 21.1913Z" fill="#FFC95B"/>
<path fill-rule="evenodd" clip-rule="evenodd" d="M91.6102 22.2993C92.1045 22.1546 93.0781 21.267 93.2832 20.3599C92.2577 20.5438 92.4035 21.8874 91.6102 22.2993Z" fill="#FFC95B"/>
<path fill-rule="evenodd" clip-rule="evenodd" d="M92.5865 22.8536C93.1227 22.9223 93.8789 22.0176 94.1211 21.3311C93.1598 21.3973 93.103 22.351 92.5865 22.8536Z" fill="#FFC95B"/>
<path fill-rule="evenodd" clip-rule="evenodd" d="M93.1441 24.1014C93.4654 24.0327 94.7306 22.5494 95.3682 21.8947C94.4687 20.9679 93.9522 23.584 93.1441 24.1014Z" fill="#FFC95B"/>
<path fill-rule="evenodd" clip-rule="evenodd" d="M93.841 24.9328C94.7603 24.7342 95.7537 23.4126 95.9365 22.0225C94.8665 22.6232 94.8715 24.2904 93.841 24.9328Z" fill="#FFC95B"/>
<path fill-rule="evenodd" clip-rule="evenodd" d="M94.9579 25.4865C95.2051 25.3051 96.7594 24.0546 96.6334 22.5762C95.7561 23.2308 95.6869 24.6872 94.9579 25.4865Z" fill="#FFC95B"/>
<path fill-rule="evenodd" clip-rule="evenodd" d="M95.9371 25.9008C96.6117 25.5061 97.4198 24.0595 97.4717 22.5762C96.6957 23.4196 96.7649 25.1065 95.9371 25.9008Z" fill="#FFC95B"/>
<path fill-rule="evenodd" clip-rule="evenodd" d="M96.7743 27.0093C96.9893 26.6047 98.7908 24.6898 98.1705 22.9932C97.6392 24.2681 97.313 25.7441 96.7743 27.0093Z" fill="#FFC95B"/>
<path fill-rule="evenodd" clip-rule="evenodd" d="M97.7509 26.8721C98.5293 26.3817 99.2336 24.6654 99.1471 22.8535C98.5046 24.0157 98.4354 25.7491 97.7509 26.8721Z" fill="#FFC95B"/>
<path fill-rule="evenodd" clip-rule="evenodd" d="M113.67 55.8184C114.431 55.8355 114.229 54.8965 114.508 54.4331C114.137 54.2615 113.67 55.1809 113.67 55.8184Z" fill="#FFC95B"/>
</g>
<defs>
<clipPath id="clip0_901_1578">
<rect width="128" height="64" fill="white" transform="matrix(-1 0 0 1 128 0)"/>
</clipPath>
</defs>
</svg>
