<svg width="30" height="26" viewBox="0 0 30 26" fill="none" xmlns="http://www.w3.org/2000/svg">
<g clip-path="url(#clip0_297_2815)">
<path d="M17.836 14.9956H9.1273C8.61 14.9956 8.19489 14.7002 8.03228 14.1945C7.81186 13.5015 7.60635 12.8036 7.39339 12.1083C6.5418 9.32881 5.68871 6.54979 4.83412 3.77126C4.80381 3.68568 4.74536 3.61318 4.66853 3.56589C4.14004 3.26103 3.60335 2.97087 3.07486 2.66601C2.95066 2.59441 2.88465 2.62192 2.79402 2.71877C2.16744 3.38991 1.17872 3.43475 0.518949 2.82692C-0.127395 2.2334 -0.175135 1.22462 0.411162 0.537651C1.13359 -0.309094 2.51132 -0.12633 3.04428 0.87944C3.11158 1.00298 3.21068 1.10584 3.33109 1.17714C4.38707 1.77681 5.4474 2.36806 6.51208 2.9509C6.65157 3.02626 6.83358 3.03455 6.99693 3.04925C8.36421 3.16946 9.73224 3.28176 11.0995 3.40084C12.3184 3.50673 13.5365 3.62091 14.7546 3.7268C15.992 3.8342 17.2303 3.93255 18.4678 4.03995C19.8354 4.15865 21.2023 4.28527 22.5704 4.40397C23.9257 4.52154 25.2814 4.63308 26.6356 4.74802C27.2548 4.8004 27.8739 4.84901 28.4923 4.90893C29.0237 4.96055 29.2755 5.29518 29.1759 5.83066C28.9036 7.26565 28.6194 8.69837 28.3408 10.1318C28.0846 11.4508 27.8187 12.7644 27.5781 14.0852C27.4662 14.707 26.9512 15.0062 26.4835 15.0039C23.5997 14.9896 20.716 14.9968 17.8307 14.9968L17.836 14.9956ZM25.0513 11.7323C24.38 11.7274 23.8205 12.2888 23.8097 12.9781C23.7985 13.6564 24.3733 14.242 25.0532 14.2439C25.3828 14.2406 25.6981 14.1072 25.9315 13.872C26.165 13.6368 26.298 13.3187 26.3022 12.9856C26.3078 12.3032 25.7428 11.7372 25.0494 11.7323H25.0513ZM11.2771 9.30206C11.2726 8.60642 10.7049 8.02873 10.0351 8.03778C9.35518 8.04644 8.78603 8.62865 8.79126 9.30959C8.79311 9.47478 8.82714 9.63799 8.89142 9.78988C8.9557 9.94178 9.04897 10.0794 9.16589 10.1949C9.28281 10.3104 9.4211 10.4014 9.57287 10.4629C9.72463 10.5244 9.88689 10.555 10.0504 10.5531C10.3768 10.5507 10.6889 10.4176 10.9185 10.1831C11.148 9.94867 11.2763 9.63186 11.2752 9.30206H11.2771ZM17.1273 10.9077C17.8061 10.9251 18.3797 10.3655 18.3954 9.67022C18.4103 9.01604 17.8535 8.41876 17.2142 8.4018C16.5056 8.38334 15.9238 8.92032 15.9014 9.61219C15.8972 9.77872 15.9256 9.94445 15.985 10.0998C16.0445 10.2552 16.1337 10.3972 16.2477 10.5176C16.3616 10.638 16.498 10.7345 16.6489 10.8014C16.7999 10.8684 16.9625 10.9045 17.1273 10.9077ZM18.1787 6.75956C18.1769 7.45369 18.7419 8.03137 19.4177 8.0261C20.1017 8.02082 20.666 7.45142 20.6671 6.76483C20.6671 6.07221 20.0957 5.50696 19.3961 5.51035C18.7374 5.51374 18.1821 6.08352 18.1802 6.75956H18.1787ZM11.9502 12.9852C11.9487 12.8186 11.9147 12.6539 11.8502 12.5005C11.7856 12.3471 11.6917 12.2081 11.574 12.0915C11.4562 11.9748 11.3168 11.8827 11.1638 11.8205C11.0108 11.7583 10.8471 11.7271 10.6822 11.7289C10.0243 11.7326 9.45401 12.3246 9.4596 12.9984C9.4652 13.6722 10.0273 14.239 10.7034 14.242C11.0335 14.2415 11.3501 14.109 11.5839 13.8736C11.8177 13.6381 11.9498 13.3188 11.9514 12.9852H11.9502ZM12.3668 4.80379C12.0367 4.80657 11.721 4.94112 11.4887 5.17809C11.2563 5.41506 11.1261 5.73524 11.1264 6.06882C11.1297 6.75692 11.6978 7.31803 12.387 7.31463C13.0583 7.31124 13.62 6.73883 13.6178 6.05902C13.6144 5.72585 13.4815 5.40739 13.2476 5.1725C13.0137 4.93761 12.6977 4.80516 12.368 4.80379H12.3668ZM23.0209 10.0169C23.0209 10.1821 23.0533 10.3456 23.1162 10.4981C23.1791 10.6506 23.2713 10.7889 23.3874 10.9052C23.5036 11.0214 23.6413 11.1133 23.7928 11.1754C23.9443 11.2376 24.1065 11.2688 24.2699 11.2672C24.9499 11.2672 25.5048 10.6926 25.5007 9.99506C25.4966 9.66492 25.364 9.34969 25.1317 9.11755C24.8993 8.8854 24.5859 8.75498 24.2591 8.75452C24.0956 8.75456 23.9338 8.78733 23.7829 8.85094C23.632 8.91455 23.4951 9.00774 23.3801 9.12512C23.2651 9.2425 23.1742 9.38174 23.1127 9.53481C23.0513 9.68788 23.0204 9.85173 23.022 10.0169H23.0209ZM24.1827 7.12546C24.1775 6.41702 23.6135 5.85063 22.925 5.86156C22.2645 5.87211 21.701 6.44565 21.6999 7.10775C21.699 7.27457 21.731 7.43989 21.7939 7.59412C21.8568 7.74834 21.9494 7.88841 22.0664 8.00617C22.1833 8.12394 22.3222 8.21705 22.4751 8.28012C22.6279 8.34318 22.7916 8.37494 22.9567 8.37354C23.1184 8.37304 23.2784 8.34036 23.4276 8.27736C23.5768 8.21437 23.7123 8.12228 23.8262 8.00638C23.9402 7.89047 24.0304 7.75302 24.0917 7.60187C24.1531 7.45072 24.1844 7.28883 24.1838 7.12546H24.1827ZM15.5352 13.0139C15.5486 12.3069 15.0093 11.7485 14.2973 11.7326C13.6424 11.7176 13.0665 12.2821 13.0535 12.9509C13.0493 13.1178 13.0779 13.2838 13.1376 13.4394C13.1974 13.5949 13.2871 13.737 13.4016 13.8573C13.516 13.9776 13.653 14.0737 13.8045 14.1401C13.956 14.2066 14.1191 14.2419 14.2842 14.2442C14.953 14.2567 15.5236 13.6978 15.5352 13.0139ZM16.6395 12.986C16.6388 13.3163 16.767 13.6336 16.9962 13.8691C17.2255 14.1045 17.5374 14.2392 17.8643 14.2439C18.5457 14.2484 19.1283 13.6745 19.1294 12.9977C19.1285 12.6641 18.9978 12.3444 18.7655 12.1074C18.5332 11.8705 18.2179 11.7355 17.8878 11.7315C17.7243 11.731 17.5623 11.763 17.411 11.8258C17.2598 11.8885 17.1222 11.9808 17.0063 12.0973C16.8904 12.2138 16.7983 12.3523 16.7354 12.5048C16.6724 12.6572 16.6398 12.8208 16.6395 12.986ZM7.60747 5.70819C7.60823 6.03828 7.73754 6.35481 7.96743 6.58935C8.19732 6.82388 8.50933 6.95758 8.83601 6.96154C9.00108 6.9627 9.16473 6.93065 9.31742 6.86725C9.47011 6.80385 9.60878 6.71038 9.72534 6.59229C9.84191 6.47419 9.93405 6.33384 9.99639 6.17939C10.0587 6.02495 10.09 5.85952 10.0884 5.69274C10.0865 5.36234 9.95535 5.04611 9.72349 4.81311C9.49163 4.58011 9.17794 4.44928 8.85093 4.44919C8.68731 4.44879 8.52522 4.4811 8.37401 4.54426C8.2228 4.60742 8.08544 4.70019 7.96987 4.81721C7.85429 4.93424 7.76277 5.07321 7.70057 5.22612C7.63837 5.37903 7.60673 5.54287 7.60747 5.70819ZM21.4586 14.2416C21.7854 14.2435 22.0999 14.1155 22.3342 13.8852C22.5684 13.6549 22.7036 13.3407 22.7106 13.0105C22.727 12.3167 22.1638 11.7372 21.4656 11.7292C20.8029 11.7213 20.2323 12.2922 20.2218 12.9728C20.2114 13.6534 20.7719 14.2348 21.4586 14.2416ZM15.8775 7.66132C16.5903 7.66622 17.1292 7.12961 17.137 6.40759C17.1445 5.72929 16.5817 5.15877 15.9063 5.15764C15.5761 5.15799 15.2593 5.28943 15.0242 5.52361C14.7891 5.75778 14.6545 6.07594 14.6494 6.40948C14.6408 7.08778 15.1991 7.65755 15.8775 7.66132ZM14.8355 9.49575C14.8384 9.16208 14.7107 8.84077 14.4801 8.60184C14.2496 8.36291 13.9349 8.22572 13.6047 8.22017C12.9282 8.21301 12.3575 8.77562 12.3549 9.45241C12.3523 10.1744 12.9024 10.7382 13.6107 10.7389C14.2667 10.7393 14.8318 10.1658 14.8355 9.49575ZM26.4749 6.21993C25.8036 6.21579 25.2404 6.77501 25.2285 7.45821C25.2161 8.15158 25.7879 8.73492 26.4794 8.73191C27.1507 8.72889 27.7195 8.15497 27.7172 7.48233C27.7166 7.14897 27.5857 6.82935 27.353 6.59296C27.1204 6.35657 26.8048 6.22251 26.4749 6.21993ZM19.4677 9.83754C19.4666 10.0028 19.4981 10.1667 19.5606 10.3195C19.623 10.4722 19.715 10.6109 19.8312 10.7272C19.9473 10.8436 20.0854 10.9354 20.2371 10.9971C20.3889 11.0588 20.5513 11.0893 20.7149 11.0867C20.8784 11.0858 21.0401 11.0521 21.1907 10.9876C21.3412 10.9231 21.4777 10.8292 21.5921 10.7111C21.7065 10.5931 21.7967 10.4533 21.8574 10.2999C21.9181 10.1465 21.9481 9.9824 21.9456 9.81719C21.9426 9.48696 21.8102 9.1714 21.5774 8.93955C21.3447 8.7077 21.0305 8.57843 20.7037 8.58004C20.5402 8.57866 20.378 8.61035 20.2268 8.67324C20.0756 8.73612 19.9384 8.82894 19.8232 8.94622C19.708 9.0635 19.6172 9.20288 19.5562 9.35615C19.4951 9.50941 19.465 9.67347 19.4677 9.83867V9.83754Z" fill="white"/>
<path d="M16.5265 19.7475C14.1709 19.7475 11.8151 19.7475 9.45923 19.7475C8.97885 19.7475 8.64691 19.4461 8.63871 18.9626C8.62304 18.1968 8.62379 17.4304 8.63647 16.6639C8.6443 16.2117 8.9919 15.8906 9.43498 15.8906C14.1462 15.8906 18.858 15.8924 23.5703 15.8959C23.7064 15.8969 23.8416 15.9194 23.9708 15.9626C24.0868 16 24.1885 16.0727 24.262 16.1708C24.3355 16.2689 24.3771 16.3876 24.3811 16.5105C24.379 16.634 24.3388 16.7536 24.2661 16.8529C24.1934 16.9521 24.0919 17.026 23.9757 17.0641C23.8287 17.1132 23.6751 17.1386 23.5203 17.1395C20.0706 17.1437 16.621 17.1447 13.1713 17.1425C12.5186 17.1425 11.8661 17.1432 11.2136 17.1447C10.9899 17.1447 10.7829 17.208 10.6143 17.3633C10.2991 17.6531 10.3256 18.1268 10.7001 18.3333C10.9034 18.4372 11.1282 18.4909 11.3561 18.49C12.7484 18.5032 14.1407 18.4953 15.5333 18.4953C18.2054 18.4953 20.8783 18.4961 23.552 18.4976C23.7963 18.4976 24.0208 18.5454 24.2047 18.7218C24.4631 18.9694 24.4482 19.3319 24.1674 19.5553C23.9895 19.6966 23.7858 19.7502 23.5591 19.7498C21.2159 19.7473 18.8726 19.7473 16.5291 19.7498L16.5265 19.7475Z" fill="white"/>
<path d="M22.3975 20.4205C23.692 20.4103 24.774 21.4688 24.7844 22.7546C24.7956 24.1704 23.7692 25.2278 22.3725 25.2417C21.0921 25.2526 20.0228 24.173 20.006 22.8548C19.99 21.5073 21.0481 20.4322 22.3975 20.4205ZM23.6309 22.8499C23.6347 22.6849 23.6059 22.5208 23.546 22.3673C23.4862 22.2137 23.3965 22.0738 23.2823 21.9558C23.1681 21.8378 23.0316 21.7441 22.881 21.6802C22.7304 21.6163 22.5687 21.5835 22.4053 21.5838C21.7295 21.5777 21.1697 22.1208 21.1596 22.7915C21.1492 23.5075 21.6862 24.0705 22.3878 24.0799C22.5494 24.082 22.7099 24.0518 22.86 23.9911C23.0101 23.9303 23.1468 23.8402 23.2623 23.7259C23.3778 23.6116 23.4698 23.4754 23.5331 23.3251C23.5963 23.1747 23.6295 23.0133 23.6309 22.8499Z" fill="white"/>
<path d="M10.9539 20.419C11.2665 20.4171 11.5763 20.4776 11.8657 20.5971C12.155 20.7166 12.4182 20.8926 12.64 21.1152C12.8618 21.3377 13.0379 21.6023 13.1581 21.8938C13.2784 22.1853 13.3405 22.4979 13.3409 22.8138C13.3409 24.1772 12.291 25.2379 10.9423 25.2379C10.6293 25.2384 10.3193 25.1766 10.0299 25.0559C9.74061 24.9352 9.47768 24.758 9.25618 24.5345C9.03469 24.311 8.85898 24.0456 8.73911 23.7535C8.61924 23.4613 8.55757 23.1481 8.55762 22.8319C8.55747 22.5143 8.61941 22.1997 8.73988 21.9064C8.86035 21.613 9.03699 21.3466 9.25964 21.1224C9.48229 20.8982 9.74658 20.7207 10.0373 20.6C10.3281 20.4793 10.6396 20.4177 10.9539 20.419ZM10.9584 21.5872C10.2662 21.5872 9.71604 22.1287 9.71231 22.816C9.71014 22.9813 9.74041 23.1453 9.80136 23.2987C9.86232 23.4521 9.95276 23.5917 10.0674 23.7095C10.1821 23.8274 10.3188 23.9211 10.4695 23.9852C10.6203 24.0494 10.7821 24.0827 10.9457 24.0833C11.276 24.0839 11.5931 23.9521 11.8273 23.7168C12.0616 23.4814 12.1938 23.1618 12.1951 22.8281C12.2044 22.1505 11.6416 21.5864 10.9584 21.5853V21.5872Z" fill="white"/>
<path d="M22.4111 23.2271C22.3049 23.2313 22.2013 23.1927 22.1232 23.1199C22.045 23.0471 21.9986 22.9459 21.9941 22.8386C21.9944 22.7316 22.0361 22.629 22.1102 22.5526C22.1843 22.4762 22.2851 22.4321 22.391 22.4297C22.4436 22.429 22.4958 22.4388 22.5446 22.4586C22.5934 22.4784 22.6379 22.5078 22.6753 22.5451C22.7128 22.5824 22.7426 22.6269 22.7629 22.6759C22.7832 22.7249 22.7937 22.7775 22.7938 22.8307C22.795 22.8822 22.786 22.9335 22.7673 22.9815C22.7486 23.0295 22.7206 23.0733 22.6849 23.1102C22.6493 23.1471 22.6067 23.1765 22.5597 23.1966C22.5127 23.2166 22.4622 23.227 22.4111 23.2271Z" fill="white"/>
<path d="M10.9475 23.2263C10.8948 23.2273 10.8425 23.2174 10.7937 23.1974C10.7449 23.1774 10.7006 23.1477 10.6635 23.1099C10.6264 23.0722 10.5972 23.0273 10.5777 22.9779C10.5581 22.9285 10.5487 22.8756 10.5499 22.8224C10.5542 22.7182 10.5975 22.6196 10.6712 22.5466C10.7448 22.4736 10.8432 22.4316 10.9464 22.4293C10.999 22.428 11.0513 22.4373 11.1002 22.4568C11.1492 22.4762 11.1937 22.5055 11.2313 22.5427C11.2688 22.5799 11.2986 22.6244 11.3188 22.6735C11.3389 22.7226 11.3492 22.7752 11.3488 22.8284C11.3499 23.0571 11.1791 23.226 10.9475 23.2263Z" fill="white"/>
</g>
<defs>
<clipPath id="clip0_297_2815">
<rect width="29.1996" height="25.2403" fill="white"/>
</clipPath>
</defs>
</svg>
