
<svg width="81" height="162" viewBox="0 0 81 162" fill="none" xmlns="http://www.w3.org/2000/svg">
<g clip-path="url(#clip0_620_1460)">
<g clip-path="url(#clip1_620_1460)">
<g clip-path="url(#clip2_620_1460)">
<path d="M63.1988 137.234C64.2296 137.342 64.9676 138.983 65.4495 139.588C66.4925 140.942 74.4218 149.172 72.8054 150.47C72.1833 150.966 71.1952 150.953 70.5852 150.457C66.6816 147.201 63.6197 143.226 61.7288 138.945C61.3934 138.195 62.046 137.285 63.0341 137.228H63.1927" fill="#EE2400"/>
<path d="M41.5161 141.254C42.3578 141.254 43.0531 141.795 43.0836 142.488C43.2849 147.112 43.6081 151.799 44.0535 156.411C44.1266 157.117 43.474 157.734 42.6139 157.784C39.3751 157.982 40.0277 144.282 39.9424 142.583C39.9119 141.877 40.595 141.286 41.449 141.26H41.5099L41.5161 141.254Z" fill="#EE2400"/>
<path d="M23.1812 136.045C26.42 136.045 23.3276 138.818 22.4127 139.556C19.0335 142.329 15.4471 144.969 11.9765 147.678C10.3663 148.944 6.32836 148.67 8.60963 146.756C12.9037 143.124 17.46 139.626 22.1382 136.331C22.431 136.134 22.7909 136.032 23.1568 136.032" fill="#EE2400"/>
<path d="M40.5001 0.233275C40.5001 0.233275 40.488 0.220512 40.4696 0.201962C34.4922 5.37298 28.5086 10.5567 22.5312 15.7208C16.7855 20.6947 9.20993 25.4391 4.489 31.6663C7.36181 32.3469 10.3262 31.6663 13.1685 32.2066C16.9867 32.944 16.45 32.1173 16.755 36.9382C17.1758 43.9481 16.7855 51.1921 16.7976 58.2139C16.7976 62.4053 16.8281 66.6095 16.8404 70.7945C16.8526 76.6079 16.1145 77.3011 20.9209 77.6828C35.1571 78.8148 50.0336 78.2234 64.2881 77.5173C64.1111 63.6837 62.7632 49.6402 64.2881 35.8831C64.8553 30.7121 65.697 31.9075 70.052 31.9075C72.1136 31.9075 74.3216 32.0408 76.2917 31.7104C71.2414 29.0715 67.7404 23.6965 63.3426 19.9121C55.7367 13.3417 48.1306 6.72718 40.5001 0.201962V0.233275Z" stroke="#EE2400" stroke-width="2.68985" stroke-miterlimit="10"/>
<path d="M22.3866 93.0688C22.3866 93.0688 22.3995 93.056 22.4059 93.0496C22.5213 92.9535 22.6814 92.9471 22.8287 92.9471C23.3668 92.9471 23.9114 92.9471 24.4495 92.9471C24.6096 92.9471 24.7826 92.9471 24.898 93.056C25.0324 93.1777 25.0388 93.3763 25.0388 93.5557C25.0388 98.2578 25.0388 102.966 25.0388 107.669C25.0388 107.835 25.0324 108.021 24.9172 108.136C24.8018 108.252 24.6161 108.258 24.4495 108.258C23.9178 108.258 23.3861 108.258 22.8544 108.258C22.6814 108.258 22.4956 108.252 22.3739 108.13C22.2522 108.008 22.2458 107.822 22.2458 107.656C22.2458 105.958 22.2522 104.267 22.2585 102.569C22.2585 102.275 22.2265 101.929 21.9767 101.788C21.8486 101.717 21.7012 101.717 21.5539 101.717C20.9774 101.717 20.3944 101.717 19.8178 101.717C19.6064 101.717 19.363 101.73 19.222 101.89C19.1003 102.031 19.0939 102.236 19.0939 102.422C19.1003 104.062 19.1068 105.708 19.1131 107.348C19.1131 107.675 19.0811 108.059 18.7992 108.22C18.6519 108.303 18.4789 108.296 18.3123 108.29C17.8319 108.271 17.345 108.252 16.8646 108.239C16.7108 108.239 16.5378 108.22 16.4353 108.104C16.3392 108.002 16.3328 107.848 16.3328 107.707C16.2944 104.292 16.2495 100.884 16.2047 97.4763C16.1919 96.0414 15.878 93.1393 17.8191 92.7741C18.2611 92.6909 18.7735 92.8639 18.9914 93.2611C19.1324 93.5173 19.1324 93.8312 19.1324 94.1194C19.1195 95.7466 19.1131 97.3738 19.1003 99.0074C19.1003 99.1804 19.1068 99.3725 19.2349 99.4879C19.3501 99.5903 19.5167 99.5967 19.6705 99.5967C20.3239 99.5967 20.9837 99.5967 21.6372 99.5967C21.8102 99.5967 22.0023 99.5903 22.124 99.4686C22.2458 99.3469 22.2522 99.1548 22.2522 98.9818C22.2522 97.1688 22.2522 95.3623 22.2585 93.5493C22.2585 93.3763 22.2714 93.1841 22.3866 93.0625V93.0688Z" fill="#EE2400"/>
<path d="M29.9341 93.0107C30.1711 92.953 30.4273 92.9147 30.7028 92.8954C31.7983 92.8122 32.8874 93.0043 33.97 93.1965C34.3544 93.267 34.758 93.3439 35.0334 93.6194C35.3602 93.9525 35.405 94.4649 35.4242 94.9326C35.5715 98.6802 35.5779 102.434 35.437 106.176C35.4178 106.675 35.3729 107.233 35.0206 107.585C34.758 107.848 34.3736 107.95 34.0084 108.027C32.3172 108.373 30.5619 108.379 28.8643 108.046C28.4671 107.969 28.0571 107.86 27.7751 107.572C27.41 107.194 27.3715 106.618 27.3588 106.092C27.3075 104.414 27.2499 102.729 27.1987 101.051C27.1026 98.0332 26.5003 93.7987 29.9277 93.0043L29.9341 93.0107ZM32.7208 105.458C32.7208 102.287 32.7208 99.1222 32.7272 95.9512C32.7272 95.7846 32.7271 95.6181 32.6568 95.4707C32.5478 95.2336 32.2915 95.0991 32.0417 95.0351C29.806 94.5034 30.011 97.3606 30.0237 98.7315C30.043 100.98 30.0622 103.229 30.0814 105.477C30.0814 105.669 30.0942 105.881 30.2416 106.003C30.3569 106.099 30.5234 106.105 30.6772 106.105C31.1705 106.105 31.6573 106.105 32.1507 106.105C32.298 106.105 32.4645 106.105 32.5799 106.003C32.7144 105.887 32.7208 105.682 32.7208 105.509V105.471V105.458Z" fill="#EE2400"/>
<path d="M43.7123 93.0495C43.7123 93.0495 43.725 93.0366 43.7379 93.0302C43.8917 92.8894 44.1286 92.9021 44.3336 92.915C45.0319 92.9662 45.7301 93.0175 46.4285 93.0687C45.4804 97.9117 44.5259 102.755 43.5777 107.598C43.5393 107.79 43.4944 108.002 43.3407 108.123C43.187 108.245 42.9691 108.258 42.7641 108.258C42.053 108.258 41.342 108.258 40.6309 108.258C40.3874 108.258 40.1248 108.258 39.939 108.098C39.766 107.95 39.702 107.713 39.6507 107.495C38.7923 103.902 37.9851 100.301 37.2228 96.6882C37.0434 95.8426 36.8063 91.1404 39.1381 93.0302C39.734 93.5107 39.8941 94.3435 40.0158 95.1058C40.5348 98.4307 41.0601 101.756 41.579 105.08C42.2324 101.224 42.8859 97.3673 43.5393 93.5107C43.5649 93.3442 43.6033 93.1712 43.7187 93.0495H43.7123Z" fill="#EE2400"/>
<path d="M50.6949 106.009C50.7974 106.099 50.9511 106.105 51.0856 106.105C52.258 106.105 53.4367 106.105 54.6091 106.112C54.8141 106.112 55.0447 106.124 55.1728 106.285C55.2689 106.406 55.2689 106.573 55.2625 106.72C55.2561 107.053 55.2497 107.393 55.2433 107.726C55.2433 107.867 55.2304 108.021 55.1408 108.123C55.0319 108.245 54.8461 108.251 54.686 108.251C52.4054 108.245 50.1247 108.232 47.8441 108.226C47.7865 104.657 47.7224 101.096 47.6648 97.5273C47.6263 95.0737 47.4661 92.9212 50.4707 92.9212C51.8352 92.9212 53.1997 92.9212 54.5642 92.9212C54.6923 92.9212 54.8397 92.9212 54.9358 93.0173C55.0254 93.107 55.0383 93.2415 55.0447 93.3697C55.0576 93.7091 55.0767 94.0487 55.0896 94.3882C55.0959 94.5356 55.1023 94.6958 55.0319 94.8239C54.891 95.0802 54.5386 95.1122 54.2439 95.1058C53.2125 95.0993 52.1875 95.0865 51.1561 95.0802C50.996 95.0802 50.823 95.0802 50.7077 95.1954C50.5924 95.3044 50.5859 95.4837 50.5859 95.6439C50.5859 96.7009 50.5859 97.7579 50.5859 98.815C50.5859 98.9622 50.5924 99.1225 50.6949 99.2313C50.7974 99.3338 50.9575 99.3402 51.1049 99.3402C51.9762 99.3402 52.8537 99.3402 53.725 99.3338C53.9172 99.3338 54.1414 99.3467 54.2631 99.4939C54.3592 99.6093 54.3592 99.7759 54.3592 99.9297C54.3592 100.269 54.3529 100.609 54.3464 100.948C54.3464 101.089 54.34 101.243 54.2439 101.352C54.135 101.474 53.9493 101.486 53.7827 101.486C52.8794 101.486 51.9762 101.499 51.0792 101.506C50.9255 101.506 50.7525 101.518 50.6564 101.634C50.5795 101.723 50.5795 101.858 50.5795 101.973C50.5795 103.197 50.5795 104.42 50.5795 105.644C50.5795 105.766 50.5795 105.894 50.6564 105.983C50.6693 105.996 50.6757 106.003 50.6885 106.016L50.6949 106.009Z" fill="#EE2400"/>
<path d="M59.6841 102.338C59.6585 104.119 59.6328 105.894 59.6072 107.675C59.6072 107.835 59.5943 108.014 59.4791 108.13C59.3637 108.245 59.1907 108.251 59.0306 108.251L57.5251 108.277C57.365 108.277 57.192 108.277 57.0768 108.168C56.9614 108.059 56.9487 107.88 56.9422 107.72C56.8653 105.119 56.782 102.518 56.7052 99.9104C56.6091 96.8098 55.9556 92.492 60.2285 92.7482C61.3946 92.8187 62.5605 92.9788 63.7071 93.2223C64.0787 93.2992 64.476 93.4017 64.7322 93.6835C65.0589 94.0359 65.078 94.5741 65.078 95.0546C65.078 96.4895 65.078 97.931 65.078 99.3659C65.078 99.9809 65.078 100.622 64.8283 101.192C64.5785 101.762 64.0403 102.249 63.4253 102.223C64.2069 104.196 64.9884 106.176 65.7764 108.149C65.1165 108.194 64.4567 108.245 63.7904 108.29C63.515 108.309 63.2139 108.322 62.9768 108.174C62.7398 108.021 62.631 107.739 62.5349 107.476C62.1184 106.323 61.702 105.164 61.2856 104.01C60.9974 103.21 60.5425 102.274 59.6905 102.204V102.351L59.6841 102.338ZM60.1004 95.5029C59.2612 96.5216 59.4918 98.8663 59.7737 99.9424C59.7929 100.019 59.8186 100.109 59.8827 100.16C59.9531 100.218 60.062 100.224 60.1517 100.224C60.6834 100.224 61.2151 100.224 61.7468 100.218C61.8814 100.218 62.0288 100.218 62.1376 100.128C62.2914 100.013 62.3043 99.7887 62.3043 99.5965C62.3043 98.3602 62.317 97.1238 62.3234 95.8809C62.3234 95.6823 62.3234 95.4645 62.1953 95.3172C62.1056 95.2147 61.9775 95.157 61.8494 95.1186C61.0166 94.8687 60.4591 95.0673 60.1004 95.5029Z" fill="#EE2400"/>
<path d="M18.036 123.422C17.9208 123.55 17.7222 123.556 17.5428 123.556C17.2993 123.556 17.0623 123.556 16.8189 123.55C16.6908 123.55 16.5499 123.543 16.4665 123.454C16.3833 123.37 16.3769 123.242 16.3705 123.121C16.3257 121.583 16.2808 120.052 16.2423 118.514C16.2167 117.598 15.8772 110.218 18.3244 112.371C18.7663 112.762 18.9522 113.364 19.1059 113.934C19.5608 115.555 20.0092 117.169 20.4641 118.79C21.0598 116.778 21.6556 114.767 22.245 112.762C22.2898 112.601 22.3474 112.435 22.4692 112.332C22.6165 112.211 22.8279 112.204 23.0265 112.211C23.4109 112.211 23.8017 112.223 24.1861 112.23C24.3142 112.23 24.4615 112.243 24.5512 112.339C24.628 112.428 24.6345 112.557 24.6345 112.672C24.6345 116.151 24.6345 119.636 24.6345 123.114C24.6345 123.236 24.6345 123.37 24.5512 123.454C24.4615 123.55 24.3078 123.562 24.1732 123.562C23.885 123.562 23.5967 123.562 23.3084 123.562C23.1803 123.562 23.0394 123.562 22.9433 123.473C22.8408 123.377 22.8343 123.223 22.8343 123.082C22.8215 120.673 22.8087 118.265 22.7959 115.856C22.3667 117.342 21.9311 118.835 21.5019 120.321C21.4314 120.571 21.3481 120.833 21.1559 121.013C20.7908 121.352 20.163 121.224 19.8106 120.865C19.4583 120.507 19.3109 120.007 19.1828 119.52C18.8497 118.303 18.5166 117.079 18.177 115.862C18.1578 118.258 18.145 120.654 18.1258 123.044C18.1258 123.165 18.1258 123.294 18.0489 123.396C18.0425 123.402 18.036 123.415 18.0297 123.422H18.036Z" fill="#EE2400"/>
<path d="M28.5565 121.877C28.5565 121.877 28.5756 121.896 28.5821 121.903C28.6717 121.973 28.7935 121.973 28.9087 121.973C29.6903 121.961 30.4784 121.948 31.2599 121.941C31.388 121.941 31.5225 121.941 31.6443 121.993C31.971 122.14 31.9901 122.595 31.9517 122.953C31.9325 123.146 31.9005 123.37 31.7339 123.472C31.6314 123.543 31.4969 123.543 31.3688 123.543C29.8698 123.543 28.3706 123.543 26.8716 123.543C26.7306 123.543 26.5642 123.536 26.4744 123.428C26.3975 123.338 26.3912 123.21 26.3912 123.094C26.3783 120.269 26.3592 117.438 26.3463 114.613C26.3334 111.941 28.2554 111.794 30.568 112.114C30.8947 112.159 31.2343 112.21 31.5097 112.383C31.7851 112.556 32.003 112.889 31.9261 113.21C31.8044 113.735 31.1126 113.837 30.5744 113.831C30.017 113.825 29.4662 113.812 28.9087 113.805C28.7742 113.805 28.6205 113.805 28.5308 113.914C28.4668 113.998 28.4604 114.106 28.4604 114.215C28.4604 114.907 28.4539 115.606 28.4475 116.297C28.4475 116.432 28.4475 116.579 28.5051 116.701C28.659 117.021 29.1073 117.041 29.4662 116.989C29.8569 116.932 30.2605 116.848 30.6448 116.925C31.0292 117.002 31.4137 117.303 31.4328 117.7C31.4457 118.059 31.1573 118.373 30.8242 118.501C30.4911 118.629 30.1131 118.604 29.7608 118.572C29.4662 118.54 29.1651 118.508 28.8704 118.527C28.7422 118.533 28.6012 118.559 28.5308 118.661C28.4668 118.745 28.4668 118.86 28.4668 118.969C28.4668 119.814 28.4668 120.654 28.4668 121.499C28.4668 121.634 28.4731 121.788 28.5629 121.884L28.5565 121.877Z" fill="#EE2400"/>
<path d="M36.3653 112.531C36.6792 112.166 37.1853 111.974 38.0245 112.05C38.9341 112.127 39.8438 112.204 40.7535 112.281C41.1187 112.313 41.5159 112.358 41.7657 112.621C41.9387 112.8 42.0155 113.056 42.0733 113.3C42.4256 114.786 42.3359 116.375 41.8234 117.81C42.3423 119.264 42.432 120.872 42.086 122.377C42.022 122.653 41.9387 122.941 41.7401 123.146C41.4133 123.485 40.8881 123.511 40.4204 123.511C38.9534 123.518 37.48 123.524 36.013 123.537C35.9745 120.769 35.9361 117.995 35.8976 115.228C35.8849 114.152 35.8656 113.12 36.3653 112.537V112.531ZM40.1898 116.58C40.1898 116.58 40.1898 116.554 40.1898 116.541C40.1898 115.798 40.1962 115.061 40.2027 114.318C40.2027 114.197 40.2027 114.075 40.1386 113.972C40.0681 113.857 39.9336 113.793 39.7991 113.754C37.858 113.203 37.8515 115.497 38.0437 116.759C38.0566 116.855 38.0822 116.958 38.1591 117.022C38.2294 117.073 38.3256 117.079 38.4089 117.073C38.8509 117.073 39.293 117.066 39.735 117.06C39.8438 117.06 39.9592 117.06 40.0488 116.99C40.1706 116.9 40.1898 116.733 40.1898 116.58ZM40.1898 121.551C40.1898 120.712 40.1898 119.872 40.1898 119.04C40.1898 118.911 40.1834 118.764 40.0873 118.674C39.9976 118.591 39.8631 118.585 39.7478 118.585C38.7035 118.585 38.4217 118.367 38.0373 119.155C37.9348 119.373 38.1206 122.038 38.0373 122.038H39.7413C39.8631 122.031 39.9976 122.025 40.0873 121.942C40.177 121.852 40.1834 121.711 40.1834 121.576V121.551H40.1898Z" fill="#EE2400"/>
<path d="M48.6389 123.363C48.4979 123.254 48.3827 123.113 48.3186 122.947C48.1136 122.39 48.4531 121.595 47.9535 121.275C47.7805 121.166 47.5626 121.159 47.3576 121.166C46.986 121.166 46.6146 121.172 46.2493 121.179C46.0507 121.179 45.8394 121.185 45.6793 121.307C45.2692 121.614 45.5895 122.274 45.487 122.78C45.3973 123.209 44.9681 123.504 44.5325 123.581C44.0969 123.658 43.6548 123.555 43.2256 123.459C43.6613 120.961 44.1161 118.469 44.5901 115.983C44.9873 113.869 45.0258 112.05 47.6524 112.184C47.8317 112.191 48.0303 112.216 48.1584 112.338C48.2609 112.441 48.2993 112.594 48.3314 112.742C49.0745 116.304 49.8241 119.865 50.5671 123.427C50.1635 123.543 49.7407 123.664 49.3244 123.619C49.0809 123.594 48.8375 123.511 48.6453 123.363H48.6389ZM45.9162 119.584C46.3967 119.635 46.8835 119.654 47.364 119.628C47.4474 119.628 47.5434 119.616 47.6011 119.558C47.6715 119.494 47.678 119.391 47.6844 119.302C47.7549 117.969 47.6331 116.163 46.8515 115.061C46.6658 115.4 45.7689 119.564 45.8714 119.577C45.8842 119.577 45.897 119.577 45.9099 119.577L45.9162 119.584Z" fill="#EE2400"/>
<path d="M51.996 112.537C52.3163 112.165 52.848 111.98 53.7129 112.044C54.6162 112.108 55.5258 112.197 56.4228 112.306C56.7751 112.351 57.1595 112.409 57.4093 112.665C57.5951 112.857 57.6719 113.126 57.7232 113.389C58.0371 114.856 57.941 116.406 57.4413 117.822C57.9474 119.264 58.0499 120.846 57.7168 122.332C57.6463 122.659 57.5374 123.005 57.2812 123.223C56.9736 123.485 56.538 123.504 56.1344 123.504C54.7763 123.524 53.4118 123.536 52.0537 123.556C51.9384 123.556 51.8166 123.556 51.7334 123.479C51.6436 123.395 51.6373 123.261 51.6373 123.139C51.5989 120.397 51.554 117.656 51.5155 114.914C51.5028 113.901 51.5476 113.05 51.996 112.537ZM55.7821 116.573C55.8077 116.304 55.8269 116.035 55.8526 115.766C55.9038 115.157 55.9423 114.485 55.5835 113.991C54.2062 112.095 53.5207 115.753 53.6489 116.56C53.6745 116.701 53.7065 116.855 53.809 116.951C53.95 117.085 54.1613 117.085 54.3536 117.079C54.6738 117.066 54.9941 117.06 55.3145 117.047C55.4362 117.047 55.5707 117.034 55.6603 116.951C55.7564 116.868 55.7757 116.727 55.7821 116.599V116.573ZM55.8077 121.544C55.8077 120.718 55.8077 119.891 55.8077 119.065C55.8077 118.95 55.8077 118.821 55.7372 118.732C55.6668 118.642 55.5578 118.604 55.449 118.584C52.6238 117.957 54.0844 122.018 53.6489 122.018H55.3721C55.4938 122.025 55.622 122.018 55.7116 121.941C55.8013 121.852 55.8077 121.711 55.8077 121.589V121.551V121.544Z" fill="#EE2400"/>
<path d="M63.3677 123.415C62.8745 123.549 62.3492 123.601 61.8367 123.562C61.7277 123.556 61.6189 123.536 61.5292 123.472C61.3754 123.357 61.369 123.126 61.3754 122.928C61.4331 120.936 61.0871 118.93 60.3697 117.066C59.9532 115.996 59.3831 114.914 59.2358 113.761C59.1204 112.864 59.4215 111.089 60.6195 112.403C60.9462 112.761 61.0808 113.248 61.2089 113.709C61.5805 115.067 61.952 116.419 62.3172 117.777C62.7655 116.105 63.214 114.44 63.6624 112.768C63.7073 112.601 63.7586 112.422 63.8994 112.313C64.0275 112.21 64.207 112.191 64.3735 112.185C64.8604 112.172 65.3473 112.217 65.8213 112.319C65.3537 114.164 64.6106 115.932 64.0532 117.758C63.4958 119.584 63.1307 121.512 63.4318 123.389C63.4126 123.396 63.387 123.402 63.3677 123.408V123.415Z" fill="#EE2400"/>
</g>
</g>
</g>
<defs>
<clipPath id="clip0_620_1460">
<rect width="80" height="161.16" fill="white" transform="matrix(-1 0 0 -1 80.9521 161.227)"/>
</clipPath>
<clipPath id="clip1_620_1460">
<rect width="80" height="161.16" fill="white" transform="matrix(-1 0 0 -1 80.9521 161.227)"/>
</clipPath>
<clipPath id="clip2_620_1460">
<rect width="80" height="161.159" fill="white" transform="matrix(-1 0 0 -1 80.9521 161.227)"/>
</clipPath>
</defs>
</svg>
