<svg width="264" height="364" viewBox="0 0 264 364" fill="none" xmlns="http://www.w3.org/2000/svg">
<path d="M0.30606 18.5408C0.30981 18.0643 0.369318 17.5894 0.498055 17.1307C0.770453 16.1601 1.10211 15.1617 1.53309 14.2086C2.37278 12.6097 3.51783 11.0108 5.04455 9.75954C5.80792 9.13389 6.57128 8.57776 7.41098 8.09115C8.25067 7.60454 9.09038 7.18744 9.93007 6.83986C11.6095 6.1447 13.3652 5.65808 15.1209 5.24099C18.6324 4.54582 21.9912 4.33728 25.121 4.05921L34.8157 3.43357C41.2279 2.94695 47.7165 2.46034 54.1288 2.04324C67.0296 1.20905 80.0067 0.513885 92.9839 0.166304C99.4725 0.0272717 105.961 -0.0422447 112.45 0.0272715C118.938 0.0967877 125.503 0.305336 131.915 0.652917C144.893 1.27856 157.717 2.11276 170.542 2.52985C173.748 2.66889 176.954 2.7384 180.084 2.7384C183.29 2.7384 186.419 2.66889 189.626 2.59937C196.038 2.39082 202.45 2.04324 208.939 1.76518C212.221 1.62614 215.427 1.55663 218.71 1.55663C220.313 1.55663 221.992 1.55663 223.595 1.62614L228.404 1.76518C231.534 1.83469 234.664 1.69566 237.946 1.62614L240.389 1.55663H241.611H242.221H242.908C243.824 1.55663 244.817 1.69566 245.809 1.83469C246.801 1.97372 247.794 2.32131 248.786 2.7384C249.779 3.1555 250.771 3.85066 251.534 4.61534C252.298 5.38002 252.908 6.35325 253.29 7.25696C254.053 9.13389 254.13 10.9413 254.206 12.5402C254.206 13.3744 254.13 14.0695 254.13 14.7647C254.13 15.1123 254.13 15.3904 254.13 15.7379V16.8502L254.206 21.2992C254.282 27.2081 254.206 33.117 254.13 38.9563C254.053 50.7046 253.824 62.4528 254.13 74.1315C254.282 79.9709 254.588 85.8102 254.893 91.7191C255.198 97.5585 255.58 103.467 256.038 109.307C257.718 132.734 260.16 156.23 261.153 179.796C261.687 191.614 261.763 203.362 261.84 215.11L261.916 250.425C261.992 262.173 262.069 273.921 262.221 285.669L262.985 320.914L263.061 325.294C263.061 326.614 263.214 328.144 263.29 329.673C263.443 332.732 263.366 335.791 262.908 338.988C262.45 342.116 261.534 345.453 259.397 348.512C259.321 348.651 259.321 348.651 259.168 348.79V348.79C258.864 349.067 258.645 349.432 258.343 349.711C258.262 349.786 258.18 349.853 258.099 349.902C257.641 350.25 257.26 350.528 256.878 350.806C256.114 351.293 255.275 351.71 254.511 352.127C252.985 352.891 251.458 353.587 249.855 354.143C243.672 356.576 237.259 358.244 230.771 359.496C224.206 360.677 217.794 361.372 211.229 361.929C198.252 363.041 185.198 363.319 172.221 363.11C159.167 362.902 146.267 361.651 133.442 361.025C127.03 360.677 120.694 360.608 114.282 360.677C107.869 360.747 101.305 360.886 94.7396 360.677C81.6861 360.26 68.7853 359.356 55.9608 358.661C52.7547 358.453 49.5486 358.314 46.3425 358.175L41.5333 357.966C39.9302 357.897 38.2508 357.827 36.5714 357.758C33.2126 357.549 29.8538 357.201 26.495 356.576C23.1362 355.95 19.7011 355.046 16.3423 353.656C13.0599 352.266 9.7774 350.18 7.2583 347.4C6.03693 346.009 4.96822 344.48 4.12852 342.812C3.28882 341.143 2.75447 339.475 2.37279 337.806C1.68576 334.47 1.60942 331.202 1.7621 328.144L2.06744 319.315C2.52546 307.636 2.67813 295.958 2.67813 284.209C2.67813 272.461 2.44912 260.783 2.29645 249.034L1.07507 178.406C0.0826981 131.343 -0.222647 84.2809 0.159034 37.2184L0.30606 18.5408Z" fill="white"/>
</svg>
