<svg width="334" height="500" viewBox="0 0 334 500" fill="none" xmlns="http://www.w3.org/2000/svg">
<path d="M0.388717 25.4479C0.3931 24.8435 0.463076 24.2409 0.613413 23.6554C0.962288 22.2969 1.38807 20.8971 1.94429 19.5616C3.00921 17.3604 4.46138 15.1592 6.3976 13.4364C7.36571 12.5751 8.33382 11.8094 9.39874 11.1395C10.4637 10.4695 11.5286 9.8953 12.5935 9.41677C14.7233 8.45971 16.95 7.78976 19.1767 7.21552C23.63 6.25846 27.8897 5.97134 31.8589 5.58852L44.1539 4.72716C52.286 4.05721 60.515 3.38727 68.6471 2.81303C85.0082 1.66455 101.466 0.707491 117.924 0.228959C126.153 0.0375463 134.382 -0.0581603 142.611 0.037546C150.84 0.133252 159.165 0.420372 167.298 0.898903C183.755 1.76026 200.02 2.90874 216.284 3.48298C220.35 3.67439 224.416 3.77009 228.385 3.77009C232.451 3.77009 236.421 3.67439 240.487 3.57868C248.619 3.29156 256.751 2.81303 264.98 2.43021C269.143 2.23879 273.209 2.14309 277.372 2.14309C279.405 2.14309 281.535 2.14309 283.568 2.23879L289.667 2.43021C293.636 2.52591 297.605 2.3345 301.768 2.23879L304.866 2.14309H306.415H307.19H308.061C309.223 2.14309 310.481 2.3345 311.74 2.52591C312.998 2.71732 314.257 3.19586 315.515 3.77009C316.774 4.34433 318.032 5.3014 319 6.35417C319.969 7.40694 320.743 8.74683 321.227 9.99101C322.195 12.5751 322.292 15.0634 322.389 17.2647C322.389 18.4132 322.292 19.3702 322.292 20.3273C322.292 20.8058 322.292 21.1887 322.292 21.6672V23.1985L322.389 29.3237C322.486 37.4587 322.389 45.5938 322.292 53.6331C322.195 69.8075 321.905 85.9819 322.292 102.061C322.486 110.1 322.873 118.139 323.26 126.274C323.647 134.314 324.131 142.449 324.712 150.488C326.842 182.741 329.94 215.09 331.199 247.534C331.876 263.804 331.973 279.979 332.07 296.153L332.167 344.772C332.264 360.946 332.36 377.121 332.554 393.295L333.522 441.818L333.619 447.848C333.619 449.666 333.813 451.772 333.909 453.877C334.103 458.088 334.006 462.299 333.425 466.702C332.844 471.009 331.683 475.603 328.972 479.814C328.875 480.005 328.875 480.005 328.682 480.196V480.196C328.291 480.583 328.018 481.083 327.629 481.471C327.528 481.571 327.427 481.661 327.326 481.728C326.745 482.206 326.261 482.589 325.777 482.972C324.809 483.642 323.744 484.216 322.776 484.79C320.84 485.843 318.904 486.8 316.871 487.566C309.029 490.916 300.897 493.213 292.668 494.935C284.342 496.562 276.21 497.519 267.884 498.285C251.426 499.816 234.872 500.199 218.414 499.912C201.859 499.625 185.498 497.902 169.234 497.041C161.102 496.562 153.066 496.467 144.934 496.562C136.802 496.658 128.476 496.849 120.151 496.562C103.596 495.988 87.2348 494.744 70.9706 493.787C66.9045 493.5 62.8384 493.308 58.7724 493.117L52.6733 492.83C50.6402 492.734 48.5104 492.638 46.3806 492.543C42.1209 492.255 37.8612 491.777 33.6015 490.916C29.3418 490.054 24.9853 488.81 20.7256 486.896C16.5628 484.982 12.3999 482.111 9.20512 478.282C7.65614 476.368 6.30079 474.263 5.23587 471.966C4.17094 469.669 3.49327 467.372 3.00921 465.075C2.13791 460.481 2.0411 455.983 2.23472 451.772L2.62197 439.617C3.20283 423.538 3.39645 407.46 3.39645 391.285C3.39645 375.111 3.10602 359.032 2.9124 342.858L1.36342 245.62C0.104879 180.827 -0.282366 116.034 0.20169 51.2405L0.388717 25.4479Z" fill="#fff"/>
</svg>
