<svg width="142" height="66" viewBox="0 0 142 66" fill="none" xmlns="http://www.w3.org/2000/svg">
<g clip-path="url(#clip0_609_1464)">
<g clip-path="url(#clip1_609_1464)">
<path d="M1.0335 50.4026C-2.40701 45.209 13.3795 26.8918 17.0922 22.4564C24.7231 13.3527 37.1285 7.76888 48.3871 4.43369C70.191 -2.01765 95.0626 -2.68237 114.11 10.7762C125.733 18.992 137.418 37.7217 140.642 51.1329C142.62 59.3423 135.786 63.5176 127.821 64.4452C114.305 66.0075 99.2383 65.7997 85.5841 65.3196C67.4416 64.6904 49.4316 63.6452 31.2797 62.7178C22.0678 62.25 6.97097 58.0228 1.0335 50.4026Z" fill="black"/>
<path d="M5.53597 49.5654C2.18244 44.4392 14.7407 28.4005 18.3982 24.0362C25.9111 15.0688 38.1131 9.56782 49.1851 6.27776C70.6277 -0.0991221 94.1038 0.208065 112.807 13.4253C124.25 21.5143 131.77 34.0155 134.922 47.1936C136.862 55.2724 136.04 56.4319 128.209 57.3495C114.927 58.9034 100.106 58.7213 86.6898 58.2609C68.843 57.6582 51.1443 56.6518 33.296 55.7572C24.242 55.2978 11.411 57.0867 5.53597 49.5654Z" fill="#FEB503"/>
</g>
</g>
<defs>
<clipPath id="clip0_609_1464">
<rect width="142" height="66" fill="white"/>
</clipPath>
<clipPath id="clip1_609_1464">
<rect width="119.308" height="101.143" fill="white" transform="translate(58.9238 -32) rotate(37.7514)"/>
</clipPath>
</defs>
</svg>
