
<svg width="140" height="65" viewBox="0 0 140 65" fill="none" xmlns="http://www.w3.org/2000/svg">
<g clip-path="url(#clip0_609_1474)">
<g clip-path="url(#clip1_609_1474)">
<path d="M2.03359 51.4029C-1.40692 46.2094 10.3796 28.8922 14.0923 24.4568C21.7232 15.3531 34.1286 9.76926 45.3872 6.43406C67.1911 -0.0172723 92.0627 -2.68199 111.11 10.7766C122.733 18.9924 134.418 35.7221 137.642 49.1333C139.62 57.3427 132.786 61.518 124.821 62.4456C111.305 64.0079 96.2384 63.8 82.5841 63.3199C64.4417 62.6908 46.4316 61.6455 28.2798 60.7182C19.0679 60.2504 7.97106 59.0232 2.03359 51.4029Z" fill="black"/>
<path d="M5.60531 50.9472C2.25177 45.821 14.81 29.7823 18.4676 25.4181C25.9804 16.4506 38.1825 10.9497 49.2544 7.6596C70.697 1.28271 94.1731 1.5899 112.876 14.8072C124.319 22.8962 131.839 35.3974 134.991 48.5754C136.931 56.6542 136.109 57.8137 128.278 58.7313C114.997 60.2852 100.176 60.1032 86.7591 59.6427C68.9123 59.0401 51.2137 58.0337 33.3653 57.139C24.3113 56.6797 11.4803 58.4685 5.60531 50.9472Z" fill="#EE2400"/>
</g>
</g>
<defs>
<clipPath id="clip0_609_1474">
<rect width="140" height="65" fill="white"/>
</clipPath>
<clipPath id="clip1_609_1474">
<rect width="119.308" height="101.143" fill="white" transform="translate(55.9238 -34) rotate(37.7514)"/>
</clipPath>
</defs>
</svg>
