<svg width="1298" height="417" viewBox="0 0 1298 417" fill="none" xmlns="http://www.w3.org/2000/svg">
<path d="M1.44436 23.8976C1.51967 21.7059 2.45583 19.5897 4.26001 18.3431C5.24826 17.6602 6.3747 16.9778 7.68402 16.3144C11.8927 14.4786 17.6318 12.6427 25.2839 11.206C29.11 10.4876 32.936 9.84907 37.1447 9.29033C41.3534 8.7316 45.5621 8.25268 49.7707 7.85359C58.1881 7.0554 66.988 6.49666 75.788 6.01775C93.3879 5.21956 110.223 4.9801 125.909 4.66082L200.5 3.94245C232.639 3.38372 265.161 2.82498 297.3 2.34607C361.96 1.38824 427.004 0.590047 492.047 0.190952C524.568 0.0313136 557.09 -0.0485057 589.611 0.0313134C622.133 0.111133 655.037 0.35059 687.176 0.749686C752.219 1.46806 816.497 2.42589 880.775 2.9048C896.844 3.06444 912.914 3.14426 928.601 3.14426C944.67 3.14426 960.357 3.06444 976.427 2.98462C1008.57 2.74516 1040.7 2.34607 1073.23 2.02679C1089.68 1.86715 1105.75 1.78733 1122.2 1.78733C1130.23 1.78733 1138.65 1.78733 1146.69 1.86715L1170.79 2.02679C1186.48 2.10661 1202.16 1.94697 1218.62 1.86715L1230.86 1.78733H1236.98H1240.04H1243.49C1248.08 1.78733 1205.05 1.94697 1210.02 2.10661C1215 2.26625 1219.97 2.66534 1224.95 3.14426C1229.92 3.62317 1258.33 4.42136 1262.16 5.29937C1265.98 6.17739 1269.04 7.29485 1270.96 8.3325C1274.23 10.178 1274.99 11.9649 1275.37 13.5931C1275.5 14.1265 1275.57 14.6789 1275.47 15.2184C1275.35 15.8333 1275.17 16.3931 1275.17 16.953C1275.17 17.3521 1275.17 17.6713 1275.17 18.0704V19.3475L1275.55 24.456C1275.93 31.2406 1275.55 38.0252 1275.17 44.73C1274.78 58.2194 1273.64 71.7089 1275.17 85.1185C1275.93 91.8233 1277.46 98.5281 1278.99 105.313C1280.52 112.018 1282.44 118.802 1284.73 125.507C1293.15 152.406 1281.95 179.385 1286.93 206.444C1289.61 220.013 1289.99 233.502 1290.37 246.992L1290.75 287.54C1291.14 301.029 1291.52 314.519 1292.29 328.008L1296.11 368.476L1296.49 373.505C1296.49 375.022 1297.26 376.778 1297.64 378.534C1298.41 382.046 1298.02 385.558 1295.73 389.229C1293.43 392.821 1288.84 396.653 1278.13 400.165C1277.75 400.324 1277.75 400.324 1276.98 400.484C1276.56 400.571 1276.14 400.683 1275.79 400.792C1275.3 400.94 1274.82 401.093 1274.33 401.206C1273.42 401.412 1272.52 401.636 1271.62 401.761C1269.33 402.16 1267.42 402.479 1265.5 402.799C1261.68 403.357 1257.47 403.836 1253.64 404.315C1245.99 405.193 1238.34 405.991 1230.3 406.63C1199.31 409.424 1215.17 411.339 1182.65 412.776C1149.75 414.133 1117.61 414.931 1084.7 415.57C1019.66 416.847 954.235 417.166 889.192 416.927C823.767 416.687 759.106 415.25 694.828 414.532C662.689 414.133 630.933 414.053 598.794 414.133C566.655 414.213 533.751 414.372 500.847 414.133C435.421 413.654 370.76 412.616 306.482 411.818C290.413 411.579 274.344 411.419 258.274 411.259L234.17 411.02C226.135 410.94 217.718 410.86 209.3 410.781C192.466 410.541 149.631 410.142 132.796 409.424C115.962 408.705 98.7444 407.668 81.9097 406.071C65.541 404.483 36.6739 404.573 36.3817 404.574C36.3727 404.574 36.3749 404.574 36.3658 404.574C29.9927 404.574 24.8983 405.011 20.6926 403.097C16.484 401.181 13.8057 399.265 11.8927 397.35C8.44923 393.518 8.06662 385.976 8.83183 382.464L10.3623 372.327C12.6579 358.917 13.4231 339.821 13.4231 326.332C13.4231 312.842 12.2753 299.433 11.5101 285.943L5.38838 204.847C0.414494 150.81 -1.11594 96.7721 0.797096 42.7345L1.44436 23.8976Z" fill="#ffffff"/>
</svg>
