<svg width="30" height="28" viewBox="0 0 30 28" fill="none" xmlns="http://www.w3.org/2000/svg">
<mask id="mask0_4_2" style="mask-type:luminance" maskUnits="userSpaceOnUse" x="0" y="0" width="30" height="28">
<path d="M29.1334 2.43622L3.06445 0L0.702053 25.279L26.771 27.7152L29.1334 2.43622Z" fill="white"/>
</mask>
<g mask="url(#mask0_4_2)">
<path d="M8.66246 12.9778C9.07985 13.0669 9.41555 13.1889 9.41345 13.6514C9.41134 14.114 9.08656 14.2375 8.68016 14.2508C6.81766 14.3153 5.36635 15.0658 4.43871 16.6965C4.34111 16.8685 4.25798 17.0482 4.19015 17.2338C4.03756 17.6501 3.7533 17.8835 3.31585 17.7114C2.85845 17.5327 2.87584 17.1396 3.04201 16.7591C3.74421 15.1336 4.89487 13.9507 6.62172 13.3965C7.27603 13.1893 7.97967 13.1143 8.66246 12.9778Z" fill="#D71919"/>
<path d="M2.46596 14.1009C1.93362 14.0511 1.71604 13.7004 1.83965 13.2707C2.19954 12.0079 3.86583 10.8983 5.20041 11.0862C5.42122 11.1176 5.74666 11.4271 5.75492 11.6234C5.76318 11.8198 5.459 12.2016 5.2692 12.2137C4.13138 12.2887 3.33347 12.777 2.91976 13.8391C2.9139 13.8585 2.90169 13.8754 2.88504 13.8872C2.71989 13.9719 2.55115 14.0563 2.46596 14.1009Z" fill="#D71919"/>
<path d="M21.9499 24.2259C21.7529 25.7126 20.1356 27.0738 18.846 26.9747C18.6218 26.9538 18.3057 26.6988 18.2315 26.4844C18.1143 26.1466 18.3458 25.882 18.7262 25.8234C19.7754 25.6614 20.475 25.1245 20.7529 24.0795C20.8494 23.72 21.1805 23.5542 21.5052 23.7169C21.7341 23.8301 21.8706 24.1291 21.9499 24.2259Z" fill="#D71919"/>
</g>
<path fill-rule="evenodd" clip-rule="evenodd" d="M20.4389 9.12426L20.5042 8.42551C21.3158 8.5918 22.0651 8.82648 22.754 9.12927L24.7496 6.31202C23.9204 5.68233 23.0337 5.126 22.1391 4.58416C21.3378 4.09902 20.7129 3.65539 21.0242 2.5634C21.1648 2.06848 20.7557 1.72255 20.2464 1.60697C20.01 1.54404 19.7584 1.5716 19.5421 1.68413C19.3259 1.79665 19.161 1.98581 19.0807 2.21361C19.0124 2.44277 18.9728 2.67939 18.9628 2.91818L17.718 16.239L20.0771 12.9085C20.0927 12.7466 20.1083 12.5847 20.124 12.4228C20.2301 11.3234 20.3362 10.224 20.4389 9.12426ZM19.8855 14.9091L11.853 26.2491C13.6573 26.2428 15.4265 25.6526 17.1201 24.5128C18.5088 23.5775 19.257 22.2497 19.3909 20.5317C19.5376 18.656 19.7079 16.7823 19.8855 14.9091ZM10.6825 26.1715L17.1928 16.9805C14.3218 15.0784 9.95271 15.3378 7.20176 17.2768C3.94715 19.5678 4.11613 23.4669 7.6686 25.2229C8.67676 25.7215 9.68362 26.0358 10.6825 26.1715ZM25.5283 6.94275L23.6569 9.58467C25.4449 10.6123 26.7614 12.1796 27.6514 14.2802C27.7196 14.1645 27.7816 14.0453 27.8372 13.9231C28.6477 11.7471 28.2011 9.80911 26.677 8.0769C26.3181 7.66914 25.9329 7.29375 25.5283 6.94275Z" fill="#D71919"/>
<path d="M28 1L10 27" stroke="#D71919" stroke-linecap="round"/>
</svg>
