<svg width="427" height="250" viewBox="0 0 427 250" fill="none" xmlns="http://www.w3.org/2000/svg">
<path d="M0.505384 12.2692C1.00045 11.4557 1.61929 10.5943 2.48566 9.78082C3.8471 8.6802 5.70362 7.57958 8.17896 6.71822C9.41664 6.28754 10.6543 5.90472 12.0158 5.56974C13.3772 5.23477 14.7386 4.94765 16.1001 4.70839C18.823 4.22985 21.6696 3.89488 24.5163 3.60776C30.2096 3.12923 35.6553 2.98567 40.7298 2.79426L56.4483 2.36358C66.8447 2.02861 77.365 1.69363 87.7614 1.40652C108.678 0.832277 129.719 0.353745 150.759 0.11448C161.279 0.0187731 171.799 -0.0290802 182.32 0.018773C192.84 0.0666262 203.484 0.210186 213.88 0.449452C234.921 0.88013 255.714 1.45437 276.507 1.74149C281.705 1.83719 286.903 1.88505 291.978 1.88505C297.176 1.88505 302.25 1.83719 307.449 1.78934C317.845 1.64578 328.241 1.40652 338.762 1.2151C344.084 1.1194 349.282 1.07154 354.604 1.07154C357.203 1.07154 359.926 1.07154 362.525 1.1194L370.322 1.2151C375.397 1.26296 380.471 1.16725 385.793 1.1194L389.754 1.07154H391.734H392.724H393.838C395.323 1.07154 396.932 1.16725 398.541 1.26296C400.15 1.35866 401.759 1.59793 403.368 1.88505C404.977 2.17217 406.586 2.6507 407.824 3.17708C409.062 3.70347 410.052 4.37341 410.671 4.99551C411.908 6.28754 412.032 7.53172 412.156 8.63235C412.156 9.20659 412.032 9.68512 412.032 10.1636C412.032 10.4029 412.032 10.5943 412.032 10.8336V11.5992L412.156 14.6618C412.28 18.7294 412.156 22.7969 412.032 26.8166C411.908 34.9037 411.537 42.9909 412.032 51.0303C412.28 55.0499 412.775 59.0696 413.27 63.1371C413.765 67.1568 414.384 71.2243 415.126 75.244C417.849 91.3705 421.81 107.545 423.419 123.767C424.285 131.902 424.409 139.989 424.533 148.077L424.656 172.386C424.78 180.473 424.904 188.56 425.151 196.648L426.389 220.909L426.513 223.924C426.513 224.833 426.76 225.886 426.884 226.939C427.132 229.044 427.008 231.15 426.265 233.351C425.523 235.504 424.037 237.801 420.572 239.907C420.448 240.003 420.448 240.003 420.201 240.098C419.953 240.194 419.706 240.338 419.582 240.433C419.211 240.577 418.839 240.768 418.468 240.864C417.725 241.103 417.107 241.295 416.488 241.486C415.25 241.821 413.889 242.108 412.651 242.395C410.176 242.922 407.7 243.4 405.101 243.783C395.076 245.458 384.679 246.606 374.159 247.468C363.515 248.281 353.119 248.76 342.475 249.142C321.434 249.908 300.27 250.1 279.23 249.956C258.065 249.812 237.149 248.951 216.356 248.52C205.959 248.281 195.687 248.233 185.29 248.281C174.894 248.329 164.25 248.425 153.606 248.281C132.441 247.994 111.525 247.372 90.7318 246.893C85.5336 246.75 80.3354 246.654 75.1371 246.558L67.3398 246.415C64.7407 246.367 62.0178 246.319 59.2949 246.271C53.8491 246.128 48.4034 245.888 42.9576 245.458C37.5118 245.027 31.9423 244.405 26.4965 243.448C21.1745 242.491 15.8525 241.055 11.7682 239.141C9.78794 238.184 8.0552 237.131 6.69376 235.983C5.33231 234.834 4.46594 233.686 3.8471 232.537C2.7332 230.24 2.60943 227.991 2.85697 225.886L3.35203 219.808C4.09464 211.769 4.34217 203.73 4.34217 195.643C4.34217 187.555 3.97087 179.516 3.72334 171.429L1.74306 122.81C0.134082 90.4135 -0.360988 58.0168 0.257849 25.6202L0.505384 12.2692Z" fill="#C4C4C4"/>
</svg>
